<svg xmlns:xlink="http://www.w3.org/1999/xlink" xmlns="http://www.w3.org/2000/svg" fill="none" viewBox="0 0 24 24" role="img" width="24"  height="24" >
  <path fill="#00005A" fill-rule="evenodd" d="M13 3.732a2 2 0 1 0-2 0V6h-1a8 8 0 0 0-7.748 6H0v4h2.252c.888 3.45 4.02 6 7.748 6h4c3.728 0 6.86-2.55 7.748-6H24v-4h-2.252C20.86 8.55 17.728 6 14 6h-1zM19.6 14A5.6 5.6 0 0 0 14 8.4h-4a5.6 5.6 0 1 0 0 11.2h4a5.6 5.6 0 0 0 5.6-5.6m-2.8.2a1.6 1.6 0 1 1-3.2 0 1.6 1.6 0 0 1 3.2 0m-8 1.6a1.6 1.6 0 1 0 0-3.2 1.6 1.6 0 0 0 0 3.2" clip-rule="evenodd" fill-opacity="0.35"></path>
</svg>