<svg xmlns:xlink="http://www.w3.org/1999/xlink" xmlns="http://www.w3.org/2000/svg" fill="none" class="-mgk-variable-stroke-asset" viewBox="0 0 86 114" role="img" width="86"  height="114" >
  <path vector-effect="non-scaling-stroke" fill="#00005A" d="M54.746 18.708c1.074-2.444 1.642-5.144 1.38-7.802-.26-2.658-1.389-5.265-3.328-7.098-2.382-2.252-5.894-3.183-9.113-2.568s-6.089 2.712-7.803 5.506-2.287 6.233-1.743 9.465c-2.218-.558-4.515.525-5.805 2.414s-1.263 4.583.064 6.446c.335.47.768.943 1.323 1.099" stroke-width="1.5px"></path>
  <path vector-effect="non-scaling-stroke" fill="#00F7FF" d="M29.941 25.292c-1.326-1.864-1.353-4.557-.064-6.447 1.29-1.889 3.588-2.972 5.805-2.413-.544-3.233.03-6.671 1.744-9.466 1.713-2.793 4.585-4.89 7.803-5.505a10.6 10.6 0 0 1 2.756-.152 10.7 10.7 0 0 0-4.3-.069c-3.218.615-6.089 2.712-7.803 5.506s-2.287 6.232-1.743 9.465c-2.217-.558-4.516.524-5.805 2.414-1.29 1.889-1.263 4.583.064 6.446.335.47.767.944 1.323 1.099l.777-.232a4 4 0 0 1-.557-.646" stroke-width="1.5px"></path>
  <path vector-effect="non-scaling-stroke" fill="#FFFFFF" d="m31.451 74.609-20.333 8.688a7.213 7.213 0 0 1-9.443-3.864 7.22 7.22 0 0 1 3.861-9.448l20.334-8.689a7.213 7.213 0 0 1 9.443 3.864 7.22 7.22 0 0 1-3.862 9.449" stroke-width="1.5px"></path>
  <path vector-effect="non-scaling-stroke" fill="#FFB8FF" d="M3.28 80.638a7.22 7.22 0 0 1 3.863-9.449l20.333-8.688a7.2 7.2 0 0 1 6.283.346 7.21 7.21 0 0 0-7.889-1.551L5.536 69.984a7.22 7.22 0 0 0-3.861 9.448 7.18 7.18 0 0 0 3.16 3.518 7.2 7.2 0 0 1-1.554-2.312" stroke-width="1.5px"></path>
  <path vector-effect="non-scaling-stroke" fill="#FFFFFF" d="M65.767 65.126 82.47 81.818a7.22 7.22 0 0 1-.02 10.208 7.21 7.21 0 0 1-10.202-.02L55.545 75.314a7.22 7.22 0 0 1 .02-10.208 7.21 7.21 0 0 1 10.202.02" stroke-width="1.5px"></path>
  <path vector-effect="non-scaling-stroke" fill="#FFB8FF" d="M73.856 93.21 57.15 76.52a7.22 7.22 0 0 1 .02-10.209 7.21 7.21 0 0 1 8.58-1.199 7.21 7.21 0 0 0-10.186-.006 7.22 7.22 0 0 0-.02 10.208l16.704 16.692a7.2 7.2 0 0 0 1.621 1.219z" stroke-width="1.5px"></path>
  <path vector-effect="non-scaling-stroke" fill="#FFFFFF" d="m44.639 85.584-8.45 22.057a7.213 7.213 0 0 1-9.328 4.133 7.22 7.22 0 0 1-4.13-9.334l8.449-22.057a7.214 7.214 0 1 1 13.459 5.201" stroke-width="1.5px"></path>
  <path vector-effect="non-scaling-stroke" fill="#FFB8FF" d="m24.538 103.244 8.449-22.057a7.21 7.21 0 0 1 8.73-4.33 7.3 7.3 0 0 0-1.208-.606 7.213 7.213 0 0 0-9.33 4.133l-8.448 22.057a7.22 7.22 0 0 0 4.13 9.333c.199.077.399.14.6.198a7.22 7.22 0 0 1-2.923-8.728" stroke-width="1.5px"></path>
  <path vector-effect="non-scaling-stroke" fill="#FFFFFF" d="m54.55 80.746 6.158 22.804a7.215 7.215 0 1 1-13.94 3.729l-4.252-15.75" stroke-width="1.5px"></path>
  <path vector-effect="non-scaling-stroke" fill="#FFB8FF" d="m48.777 107.279-4.783-17.075-1.478 1.325 4.253 15.75a7.21 7.21 0 0 0 7.952 5.28 7.21 7.21 0 0 1-5.944-5.28" stroke-width="1.5px"></path>
  <path vector-effect="non-scaling-stroke" stroke="#00005A" stroke-linecap="round" stroke-linejoin="round" stroke-miterlimit="10" stroke-width="1.5px" d="m31.451 74.609-20.333 8.688a7.213 7.213 0 0 1-9.443-3.864 7.22 7.22 0 0 1 3.861-9.449l20.334-8.688a7.213 7.213 0 0 1 9.443 3.864 7.22 7.22 0 0 1-3.862 9.449M65.767 65.126 82.47 81.818a7.22 7.22 0 0 1-.02 10.208 7.21 7.21 0 0 1-10.202-.02L55.545 75.314a7.22 7.22 0 0 1 .02-10.208 7.21 7.21 0 0 1 10.202.02M44.639 85.584l-8.45 22.057a7.213 7.213 0 0 1-9.328 4.133 7.22 7.22 0 0 1-4.13-9.334l8.449-22.057a7.214 7.214 0 1 1 13.459 5.201M54.55 80.747l6.158 22.804c1.029 3.851-1.286 7.599-5.135 8.629s-7.775-1.049-8.804-4.9l-4.253-15.75" fill="none"></path>
  <path vector-effect="non-scaling-stroke" fill="url(&quot;#8d50a791e90--BoyStanding_svg__a&quot;)" d="m24.94 86.47 35.847 3.02-7.412-27.453-16.177-1.652z" stroke-width="1.5px"></path>
  <path vector-effect="non-scaling-stroke" fill="#FFFFFF" d="M27.758 86.703 39.99 60.668l-2.794-.285-12.256 26.085 35.847 3.02-.001-.002z" stroke-width="1.5px"></path>
  <path vector-effect="non-scaling-stroke" fill="#FFFFFF" d="M69.283 34.788c2.892 12.055-4.53 24.173-16.578 27.066s-24.16-4.532-27.052-16.587S30.183 21.094 42.23 18.2c12.049-2.894 24.16 4.533 27.052 16.588" stroke-width="1.5px"></path>
  <path vector-effect="non-scaling-stroke" fill="#FFFFFF" d="M69.283 34.788c2.892 12.055-4.53 24.173-16.578 27.066s-24.16-4.532-27.052-16.587S30.183 21.094 42.23 18.2c12.049-2.894 24.16 4.533 27.052 16.588" stroke-width="1.5px"></path>
  <path vector-effect="non-scaling-stroke" fill="#FFB8FF" d="M27.661 45.67c-2.892-12.056 4.53-24.174 16.579-27.068a22.3 22.3 0 0 1 8.603-.366 22.3 22.3 0 0 0-10.612-.035c-12.047 2.893-19.47 15.012-16.578 27.066 2.194 9.145 9.694 15.621 18.448 16.954-7.874-1.952-14.416-8.115-16.44-16.552" stroke-width="1.5px"></path>
  <path vector-effect="non-scaling-stroke" stroke="#00005A" stroke-linecap="round" stroke-linejoin="round" stroke-miterlimit="10" stroke-width="1.5px" d="M73.867 27.372c1.76 5.903-1.595 12.115-7.494 13.875-5.9 1.761-12.108-1.596-13.868-7.498S54.1 21.634 60 19.873c5.899-1.76 12.107 1.597 13.867 7.5" fill="none"></path>
  <path vector-effect="non-scaling-stroke" stroke="#00005A" stroke-linecap="round" stroke-linejoin="round" stroke-miterlimit="10" stroke-width="1.5px" d="M52.822 35.194c1.437 5.989-2.251 12.01-8.237 13.448-5.986 1.437-12.004-2.253-13.44-8.242-1.438-5.99 2.25-12.01 8.237-13.448 5.985-1.437 12.003 2.253 13.44 8.242M35.872 51.142a3.47 3.47 0 0 0 1.402 2.236 3.47 3.47 0 0 0 2.574.578M54.746 18.708c1.074-2.444 1.642-5.144 1.38-7.802-.26-2.658-1.389-5.265-3.328-7.098-2.382-2.252-5.894-3.183-9.113-2.568s-6.089 2.712-7.803 5.506-2.287 6.233-1.743 9.465c-2.218-.558-4.515.525-5.805 2.414s-1.263 4.583.064 6.446c.335.47.768.943 1.323 1.099" fill="none"></path>
  <path vector-effect="non-scaling-stroke" stroke="#00005A" stroke-linecap="round" stroke-linejoin="round" stroke-miterlimit="10" stroke-width="1.5px" d="M69.283 34.788c2.892 12.055-4.53 24.173-16.578 27.066s-24.16-4.532-27.052-16.587S30.183 21.094 42.23 18.2c12.049-2.894 24.16 4.533 27.052 16.588" fill="none"></path>
  <path vector-effect="non-scaling-stroke" fill="#D3E0FF" d="M73.867 27.372c1.76 5.903-1.595 12.115-7.494 13.875-5.9 1.761-12.108-1.596-13.868-7.498S54.1 21.634 60 19.873c5.899-1.76 12.107 1.597 13.867 7.5" stroke-width="1.5px"></path>
  <path vector-effect="non-scaling-stroke" fill="#D3E0FF" d="M52.822 35.194c1.437 5.989-2.251 12.01-8.237 13.448-5.986 1.437-12.004-2.253-13.44-8.242-1.438-5.99 2.25-12.01 8.237-13.448 5.985-1.437 12.003 2.253 13.44 8.242" stroke-width="1.5px"></path>
  <path vector-effect="non-scaling-stroke" stroke="#00005A" stroke-linecap="round" stroke-linejoin="round" stroke-miterlimit="10" stroke-width="1.5px" d="m30.827 36.521-6.141-.958a3.98 3.98 0 0 0-4.553 3.367l-.229 1.597" fill="none"></path>
  <path vector-effect="non-scaling-stroke" fill="#00005A" d="M66.613 28.424c.779 1.823.492 3.693-.64 4.177s-2.682-.601-3.46-2.424c-.779-1.822-.492-3.693.64-4.177s2.682.602 3.46 2.424M49.947 34.707c.779 1.822.492 3.692-.641 4.176-1.132.484-2.68-.6-3.46-2.424-.778-1.822-.49-3.692.642-4.176 1.132-.485 2.68.601 3.46 2.424" stroke-width="1.5px"></path>
  <path vector-effect="non-scaling-stroke" stroke="#00005A" stroke-linecap="round" stroke-linejoin="round" stroke-miterlimit="10" stroke-width="1.5px" d="M73.867 27.372c1.76 5.903-1.595 12.115-7.494 13.875-5.9 1.761-12.108-1.596-13.868-7.498S54.1 21.634 60 19.873c5.899-1.76 12.107 1.597 13.867 7.5" fill="none"></path>
  <path vector-effect="non-scaling-stroke" stroke="#00005A" stroke-linecap="round" stroke-linejoin="round" stroke-miterlimit="10" stroke-width="1.5px" d="M52.822 35.194c1.437 5.989-2.251 12.01-8.237 13.448-5.986 1.437-12.004-2.253-13.44-8.242-1.438-5.99 2.25-12.01 8.237-13.448 5.985-1.437 12.003 2.253 13.44 8.242M53.375 62.035l7.413 27.453-35.848-3.02 12.258-26.085" fill="none"></path>
  <path vector-effect="non-scaling-stroke" fill="#00005A" d="m53.341 89.044-26.01 1.626 1.897-3.614zM37.648 60.264a52 52 0 0 0-2.313 4.672 33.3 33.3 0 0 1 11.003-2.255c-3.075-.32-5.845-1.207-8.69-2.417M33.193 62.442c-.253 5.654-3.12 11.137-7.618 14.568 1.559-.625 3.191-1.286 4.75-1.912 1.565-3.363 3.37-6.9 4.935-10.264-.334-.912-1.322-1.77-2.067-2.392" stroke-width="1.5px"></path>
  <path vector-effect="non-scaling-stroke" fill="#FFFFFF" d="M35.528 35.119c-.801 1.87-1.964 3.166-2.597 2.895s-.496-2.008.306-3.878c.8-1.871 1.963-3.168 2.596-2.896.633.271.497 2.008-.305 3.879M56.72 27.522c-.801 1.87-1.964 3.167-2.597 2.896-.633-.272-.496-2.008.306-3.879.801-1.87 1.963-3.167 2.597-2.896.632.272.496 2.009-.306 3.879" stroke-width="1.5px"></path>
  <defs>
    <linearGradient id="8d50a791e90--BoyStanding_svg__a" x1="24.941" x2="60.788" y1="74.937" y2="74.937" gradientUnits="userSpaceOnUse">
      <stop stop-color="#FF77AD"></stop>
      <stop offset=".151" stop-color="#FF77AD"></stop>
      <stop offset=".484" stop-color="#FF77AD"></stop>
      <stop offset="1" stop-color="#FFE700"></stop>
    </linearGradient>
  <linearGradient id="8d50a791e90--BoyStanding_svg__a" x1="24.941" x2="60.788" y1="74.937" y2="74.937" gradientUnits="userSpaceOnUse">
      <stop stop-color="#FF77AD"></stop>
      <stop offset=".151" stop-color="#FF77AD"></stop>
      <stop offset=".484" stop-color="#FF77AD"></stop>
      <stop offset="1" stop-color="#FFE700"></stop>
    </linearGradient></defs>
</svg>