<svg xmlns:xlink="http://www.w3.org/1999/xlink" xmlns="http://www.w3.org/2000/svg" fill="none" viewBox="0 0 24 24" role="img" width="24"  height="24" >
  <path fill="#FFFFFF" fill-rule="evenodd" d="M10 1.75A4.25 4.25 0 0 0 5.75 6v1.573a1.25 1.25 0 0 0 2.5 0V6c0-.966.784-1.75 1.75-1.75h7c.966 0 1.75.784 1.75 1.75v12A1.75 1.75 0 0 1 17 19.75h-7A1.75 1.75 0 0 1 8.25 18v-2.72a1.25 1.25 0 1 0-2.5 0V18A4.25 4.25 0 0 0 10 22.25h7A4.25 4.25 0 0 0 21.25 18V6A4.25 4.25 0 0 0 17 1.75zM3.91 15.484a1.25 1.25 0 0 1-2.235-1.121 8.69 8.69 0 0 1 9.337-4.652l1.098.201-1.145-1.647a1.25 1.25 0 1 1 2.053-1.427l2.875 4.137a1.25 1.25 0 0 1-.307 1.735l-4.108 2.895a1.25 1.25 0 0 1-1.44-2.044l1.675-1.18-1.152-.21a6.19 6.19 0 0 0-6.651 3.313" clip-rule="evenodd"></path>
</svg>