<svg xmlns:xlink="http://www.w3.org/1999/xlink" xmlns="http://www.w3.org/2000/svg" fill="none" class="-mgk-variable-stroke-asset" viewBox="0 0 104 51" role="img" width="104"  height="51" >
  <path vector-effect="non-scaling-stroke" fill="url(&quot;#ced7c13426a--Diamond_svg__a&quot;)" d="M70.445 2.908H33.81c2.907 5.54 5.91 10.927 9.423 16.091h18.73c3.016-5.301 6.005-10.79 9.022-16.091z" stroke-width="0.8px"></path>
  <path vector-effect="non-scaling-stroke" fill="#FFFFFF" d="M53.166 3.242 63.344 16.09 61.668 18.8 52.98 3.872zM34.116 3.43l10.425 12.66-1.8 2.708" stroke-width="0.8px"></path>
  <path vector-effect="non-scaling-stroke" fill="url(&quot;#ced7c13426a--Diamond_svg__b&quot;)" d="M24.048 19.514h18.815L33.455 2.976z" stroke-width="0.8px"></path>
  <path vector-effect="non-scaling-stroke" fill="url(&quot;#ced7c13426a--Diamond_svg__c&quot;)" d="M42.862 19.514h18.814L52.27 2.976z" stroke-width="0.8px"></path>
  <path vector-effect="non-scaling-stroke" fill="url(&quot;#ced7c13426a--Diamond_svg__d&quot;)" d="M61.678 19.514h18.814L71.085 2.976z" stroke-width="0.8px"></path>
  <path vector-effect="non-scaling-stroke" fill="url(&quot;#ced7c13426a--Diamond_svg__e&quot;)" d="M24.048 19.513 52.27 46.435l-9.408-26.922z" stroke-width="0.8px"></path>
  <path vector-effect="non-scaling-stroke" fill="#FFFFFF" d="M52.27 46.436 30.042 19.391l4.271-14.595-1.046-1.327-9.22 16.045z" stroke-width="0.8px"></path>
  <path vector-effect="non-scaling-stroke" fill="url(&quot;#ced7c13426a--Diamond_svg__f&quot;)" d="m42.862 19.513 9.407 26.922 9.407-26.922z" stroke-width="0.8px"></path>
  <path vector-effect="non-scaling-stroke" fill="#FFFFFF" d="m52.091 3.47-9.23 16.045 9.318 26.416L46.6 19.393z" stroke-width="0.8px"></path>
  <path vector-effect="non-scaling-stroke" fill="url(&quot;#ced7c13426a--Diamond_svg__g&quot;)" d="M61.677 19.513 52.27 46.435l28.22-26.922z" stroke-width="0.8px"></path>
  <path vector-effect="non-scaling-stroke" fill="#FFFFFF" d="m70.916 3.734-8.977 15.657-8.628 25.565L71.526 4.354z" stroke-width="0.8px"></path>
  <path vector-effect="non-scaling-stroke" stroke="#00005A" stroke-linecap="round" stroke-linejoin="round" stroke-miterlimit="10" stroke-width="0.8px" d="m81.107 50.224 14.644-6.106M69.792 46.436l32.511-20.416M86.323 9.708l10.46-8.51M22.577 50.224 7.933 44.118M33.893 46.436 1.382 26.02M17.363 9.71 6.903 1.2" class="diamond-sparkle" fill="none"></path>
  <path vector-effect="non-scaling-stroke" stroke="#00005A" stroke-linecap="round" stroke-linejoin="round" stroke-miterlimit="10" stroke-width="0.8px" d="m33.455 2.976-9.407 16.538h18.815z" fill="none"></path>
  <path vector-effect="non-scaling-stroke" stroke="#00005A" stroke-linecap="round" stroke-linejoin="round" stroke-miterlimit="10" stroke-width="0.8px" d="m52.27 2.976-9.408 16.538h18.815zM71.085 2.976l-9.407 16.538h18.814zM52.27 46.436 24.048 19.515h18.815z" fill="none"></path>
  <path vector-effect="non-scaling-stroke" stroke="#00005A" stroke-linecap="round" stroke-linejoin="round" stroke-miterlimit="10" stroke-width="0.8px" d="m52.27 46.436-9.408-26.921h18.815z" fill="none"></path>
  <path vector-effect="non-scaling-stroke" stroke="#00005A" stroke-linecap="round" stroke-linejoin="round" stroke-miterlimit="10" stroke-width="0.8px" d="m52.27 46.436 9.407-26.921h18.815zM71.084 2.977h-37.63" fill="none"></path>
  <path vector-effect="non-scaling-stroke" fill="#FFFFFF" d="M42.741 18.798 34.116 3.43z" stroke-width="0.8px"></path>
  <defs>
    <linearGradient id="ced7c13426a--Diamond_svg__a" x1="33.812" x2="70.986" y1="10.954" y2="10.954" gradientUnits="userSpaceOnUse">
      <stop stop-color="#FF77AD"></stop>
      <stop offset=".008" stop-color="#FF77AD"></stop>
      <stop offset=".396" stop-color="#FF77AD"></stop>
      <stop offset="1" stop-color="#FFE700"></stop>
    </linearGradient>
    <linearGradient id="ced7c13426a--Diamond_svg__b" x1="24.048" x2="42.863" y1="11.245" y2="11.245" gradientUnits="userSpaceOnUse">
      <stop stop-color="#FF77AD"></stop>
      <stop offset=".008" stop-color="#FF77AD"></stop>
      <stop offset=".585" stop-color="#FFE7FF"></stop>
      <stop offset="1" stop-color="#FFE7FF"></stop>
    </linearGradient>
    <linearGradient id="ced7c13426a--Diamond_svg__c" x1="42.861" x2="61.676" y1="11.245" y2="11.245" gradientUnits="userSpaceOnUse">
      <stop stop-color="#FF0"></stop>
      <stop offset=".583" stop-color="#FFE7FF"></stop>
      <stop offset="1" stop-color="#FFE7FF"></stop>
    </linearGradient>
    <linearGradient id="ced7c13426a--Diamond_svg__d" x1="61.678" x2="80.493" y1="11.245" y2="11.245" gradientUnits="userSpaceOnUse">
      <stop stop-color="#FF77AD"></stop>
      <stop offset=".008" stop-color="#FF77AD"></stop>
      <stop offset=".585" stop-color="#FFE7FF"></stop>
      <stop offset="1" stop-color="#FFE7FF"></stop>
    </linearGradient>
    <linearGradient id="ced7c13426a--Diamond_svg__e" x1="24.048" x2="52.27" y1="32.974" y2="32.974" gradientUnits="userSpaceOnUse">
      <stop stop-color="#FF77AD"></stop>
      <stop offset=".008" stop-color="#FF77AD"></stop>
      <stop offset=".396" stop-color="#FF77AD"></stop>
      <stop offset="1" stop-color="#FFE700"></stop>
    </linearGradient>
    <linearGradient id="ced7c13426a--Diamond_svg__f" x1="42.861" x2="61.676" y1="32.974" y2="32.974" gradientUnits="userSpaceOnUse">
      <stop stop-color="#FF77AD"></stop>
      <stop offset=".008" stop-color="#FF77AD"></stop>
      <stop offset=".585" stop-color="#FFE7FF"></stop>
      <stop offset="1" stop-color="#FFE7FF"></stop>
    </linearGradient>
    <linearGradient id="ced7c13426a--Diamond_svg__g" x1="52.269" x2="80.492" y1="32.974" y2="32.974" gradientUnits="userSpaceOnUse">
      <stop stop-color="#FF0"></stop>
      <stop offset=".583" stop-color="#FFE7FF"></stop>
      <stop offset="1" stop-color="#FFE7FF"></stop>
    </linearGradient>
  <linearGradient id="ced7c13426a--Diamond_svg__a" x1="33.812" x2="70.986" y1="10.954" y2="10.954" gradientUnits="userSpaceOnUse">
      <stop stop-color="#FF77AD"></stop>
      <stop offset=".008" stop-color="#FF77AD"></stop>
      <stop offset=".396" stop-color="#FF77AD"></stop>
      <stop offset="1" stop-color="#FFE700"></stop>
    </linearGradient><linearGradient id="ced7c13426a--Diamond_svg__b" x1="24.048" x2="42.863" y1="11.245" y2="11.245" gradientUnits="userSpaceOnUse">
      <stop stop-color="#FF77AD"></stop>
      <stop offset=".008" stop-color="#FF77AD"></stop>
      <stop offset=".585" stop-color="#FFE7FF"></stop>
      <stop offset="1" stop-color="#FFE7FF"></stop>
    </linearGradient><linearGradient id="ced7c13426a--Diamond_svg__c" x1="42.861" x2="61.676" y1="11.245" y2="11.245" gradientUnits="userSpaceOnUse">
      <stop stop-color="#FF0"></stop>
      <stop offset=".583" stop-color="#FFE7FF"></stop>
      <stop offset="1" stop-color="#FFE7FF"></stop>
    </linearGradient><linearGradient id="ced7c13426a--Diamond_svg__d" x1="61.678" x2="80.493" y1="11.245" y2="11.245" gradientUnits="userSpaceOnUse">
      <stop stop-color="#FF77AD"></stop>
      <stop offset=".008" stop-color="#FF77AD"></stop>
      <stop offset=".585" stop-color="#FFE7FF"></stop>
      <stop offset="1" stop-color="#FFE7FF"></stop>
    </linearGradient><linearGradient id="ced7c13426a--Diamond_svg__e" x1="24.048" x2="52.27" y1="32.974" y2="32.974" gradientUnits="userSpaceOnUse">
      <stop stop-color="#FF77AD"></stop>
      <stop offset=".008" stop-color="#FF77AD"></stop>
      <stop offset=".396" stop-color="#FF77AD"></stop>
      <stop offset="1" stop-color="#FFE700"></stop>
    </linearGradient><linearGradient id="ced7c13426a--Diamond_svg__f" x1="42.861" x2="61.676" y1="32.974" y2="32.974" gradientUnits="userSpaceOnUse">
      <stop stop-color="#FF77AD"></stop>
      <stop offset=".008" stop-color="#FF77AD"></stop>
      <stop offset=".585" stop-color="#FFE7FF"></stop>
      <stop offset="1" stop-color="#FFE7FF"></stop>
    </linearGradient><linearGradient id="ced7c13426a--Diamond_svg__g" x1="52.269" x2="80.492" y1="32.974" y2="32.974" gradientUnits="userSpaceOnUse">
      <stop stop-color="#FF0"></stop>
      <stop offset=".583" stop-color="#FFE7FF"></stop>
      <stop offset="1" stop-color="#FFE7FF"></stop>
    </linearGradient></defs>
</svg>