<svg xmlns:xlink="http://www.w3.org/1999/xlink" xmlns="http://www.w3.org/2000/svg" fill="none" viewBox="0 0 25 24" role="img" width="25"  height="24" ><g clip-path="url(#7c265b25732--a)" fill="none"><path fill="#5865F2" d="M19.457 5.287c2.258 3.321 3.374 7.067 2.957 11.38a.065.065 0 0 1-.026.045 16.532 16.532 0 0 1-5.002 2.524.065.065 0 0 1-.07-.024 13.35 13.35 0 0 1-1.021-1.66.064.064 0 0 1 .034-.089 10.209 10.209 0 0 0 1.56-.742.064.064 0 0 0 .006-.107 7.942 7.942 0 0 1-.31-.243.06.06 0 0 0-.066-.008c-3.235 1.494-6.778 1.494-10.051 0a.062.062 0 0 0-.065.009c-.1.082-.205.164-.31.242a.064.064 0 0 0 .007.107c.498.285 1.016.537 1.56.743a.063.063 0 0 1 .034.088 11.874 11.874 0 0 1-1.021 1.661.065.065 0 0 1-.07.023 16.586 16.586 0 0 1-4.994-2.524.068.068 0 0 1-.026-.046c-.349-3.73.361-7.507 2.954-11.38a.058.058 0 0 1 .027-.023 16.456 16.456 0 0 1 4.07-1.262.064.064 0 0 1 .066.031c.177.313.379.713.515 1.04 1.506-.23 3.035-.23 4.572 0 .137-.32.332-.727.507-1.04a.062.062 0 0 1 .066-.03c1.43.246 2.796.677 4.07 1.261a.05.05 0 0 1 .027.024ZM10.98 12.38c.015-1.103-.789-2.016-1.798-2.016-1 0-1.797.905-1.797 2.015 0 1.111.812 2.016 1.797 2.016 1.001 0 1.798-.905 1.798-2.015Zm6.645 0c.016-1.103-.788-2.016-1.797-2.016-1.001 0-1.798.905-1.798 2.015 0 1.111.812 2.016 1.798 2.016 1.009 0 1.797-.905 1.797-2.015Z"></path></g><defs><clipPath id="7c265b25732--a"><path fill="#fff" d="M2.5 2h20v20h-20z"></path></clipPath></defs></svg>