<svg xmlns:xlink="http://www.w3.org/1999/xlink" xmlns="http://www.w3.org/2000/svg" fill="none" viewBox="0 0 107 80" role="img" width="107"  height="80" ><g clip-path="url(#c4beb33445a--a)" fill="none"><path fill="#FFFFFF" d="M48.453 40.782c.063 0 .063 0 .126.021.962.125 1.902.292 2.613.626.669.292 1.066.668 1.422 1.336.543 1.002.585 2.4.083 3.465-.376.793-1.17 1.461-1.902 1.816-.753.376-1.505.543-2.363.647-1.505.167-3.135-.146-4.473-.793-.795-.397-1.777-1.065-2.279-1.92-.355-.627-.355-1.461.084-2.067.71-.96 2.216-1.169 3.345-1.127.857.042 2.425.292 3.24.584.23.084 1.066.418 1.212.564.105.104.168.25.126.397-.188.563-1.589.876-1.986.939-1.087.167-1.63-.25-2.864-.73-.314-.126-.711-.251-1.025-.272-.564-.063-1.233.104-1.337.71-.063.313.313.605.585.73.648.293 1.191.376 1.84.397 1.902.02 4.055-.292 5.623-1.399.21-.146.418-.375.418-.647 0-.563-.982-.918-.982-.918-1.046-.438-3.01-.647-3.993-.73-1.046-.084-2.718-.23-3.115-.293-.418-.063-.857-.146-1.213-.292-.355-.167-.71-.522-.815-.919-.188-.71.042-1.586.439-2.17 1.045-1.503 3.491-2.067 5.33-2.297 1.778-.23 4.642-.208 6.377.71.272.146.397.271.355.564-.104.542-.522.876-1.003 1.043-.523.167-1.589.23-2.049.25-2.09.126-4.62.064-6.627.606-.146.042-.418.125-.522.209-.314.334.585.438.773.48.063.02.063.02.126.02l4.431.46Zm-12.48-9.33s.334-.501.627-.898c.523-.71 1.463-1.69 2.174-2.296.21-.188.481-.397.481-.397s-.397.042-.627.084c-.544.104-1.317.626-1.714.96-.648.564-1.36 1.461-1.046 2.254.042.146.105.293.105.293Zm3.617.96c1.024-.063 1.986-.376 2.884-.856.879-.48 2.175-1.44 2.028-2.568a.947.947 0 0 0-.585-.772c-.397-.167-.585-.146-1.087 0a3.185 3.185 0 0 0-.878.376c-1.004.584-2.446 1.837-3.22 2.839-.188.23-.355.5-.501.689-.084.104-.168.208-.147.25.042.084 1.108.084 1.506.042Zm-2.614 1.92c-.104.105-.209.376-.334.585-.063.104-.167.23-.25.292-.273.188-.503.209-.754-.021-.355-.313-.564-.814-.585-1.294 0-.209.021-.438-.02-.626-.064-.293-.356-.606-.523-.898-.189-.334-.335-.918-.356-1.294-.063-1.19.565-2.275 1.359-3.131.815-.877 1.882-1.587 3.052-2.087 1.087-.46 2.697-.773 3.91-.355.397.125.94.459 1.212.814.063.062.105.146.167.188.063.041.188.041.314.062.376.063.94.355 1.17.543.46.396.711.772.816 1.315.23 1.085-.397 2.296-1.108 3.027-1.233 1.252-2.446 2.129-4.014 2.755-.69.271-1.756.522-2.55.46-.251-.022-.502-.084-.732-.105a6.554 6.554 0 0 1-.606-.146c-.084-.063-.147-.084-.168-.084Zm1.401 2.422c.042 0 .125.02.188.062.544.209.774.71.92 1.273.314 1.295.44 4.175.502 5.302.042.835.063 1.67.104 2.505.021.71.084 1.65-.062 2.296-.063.23-.21.522-.44.647-.271.167-.856.188-1.191.105-.815-.167-1.066-.69-1.192-1.482-.271-1.9-.146-5.636.021-7.202.063-.522.251-2.191.523-2.88.084-.209.293-.69.627-.627Zm-24.522 3.172s-1.191.084-2.028.167c-1.045.105-3.031.46-4.16.856-.334.125-1.045.418-1.087.772-.063.355.167.648.418.94.146.167.962.96 1.192 1.148.961.814 2.927 2.045 4.369 2.65.502.21 1.317.502 1.317.502s-.063-2.338-.042-4.634c0-1.21.021-2.4.021-2.4Zm21.992.919c.063.626-.083 1.816-.125 1.962-.042.355-.314 1.19-.376 1.294-.23.501-.44.918-.67 1.336-.396.71-1.337 1.837-1.88 2.317-2.07 1.774-5.269 2.797-8.007 3.13-1.861.23-3.993.189-5.98-.166-.668-.125-1.693-.355-1.693-.355s0 .397-.02.689c-.021.125-.105.48-.168.584-.146.293-.376.439-.71.522-.419.084-.858.105-1.234-.062-.627-.272-.857-.856-.962-1.524-.083-.543-.188-1.482-.188-1.482s-.46-.23-.857-.418c-1.191-.584-2.341-1.315-3.345-2.045a52.83 52.83 0 0 1-1.735-1.44c-.732-.69-1.4-1.4-1.902-2.276-.397-.689-.502-1.315-.21-2.045.419-1.023 1.882-1.795 2.886-2.234.731-.334 3.052-1.085 3.993-1.21.46-.063 1.15-.188 1.191-.21l.042-.041c.02-.02.063-1.044.042-1.42 0-.375.271-2.755.355-3.277.042-.27.251-1.335.46-1.607.146-.188.376-.167.585-.042 1.088.69 1.422 3.048 1.506 4.238.041.73.083 1.837.083 1.837s1.255-.042 2.028-.021c.753.02 1.589.146 2.362.25 1.004.167 2.948.585 4.056 1.148.92.46 1.777 1.253 2.07 2.088.25.751.23 1.294-.168 1.983-.439.772-1.275 1.356-2.132 1.398-.25.021-1.212-.104-1.505-.334-.105-.083-.105-.25-.021-.355.02-.041.48-.271.732-.417.125-.063.25-.146.334-.25.21-.188.418-.397.397-.648-.02-.313-.376-.522-.69-.647-1.526-.605-4.578-1.106-6.041-1.19-.586-.041-1.4-.062-1.4-.062l.166 8.12s.67.125 1.213.208c.313.042 1.61.167 1.944.167 2.634.063 5.56-.167 7.965-1.294 1.066-.5 2.028-1.106 2.76-1.962a5.653 5.653 0 0 0 1.337-4.216c-.146-1.733-1.358-3.779-2.341-5.03-2.571-3.299-6.982-6.033-10.87-7.62-3.973-1.628-7.882-2.567-12.084-2.713-1.087-.042-3.45.02-4.641.355-.167.041-.335.104-.502.146-.125.02-.313.104-.376.167l-.063.062s.084.042.147.063c.125.063.669.083.94.146.251.042.502.167.607.355.104.167.104.313 0 .459-.272.334-1.297.271-1.736.209-.46-.084-1.045-.209-1.15-.627-.125-.48.105-.939.356-1.377.502-.877 1.192-1.315 2.237-1.607 1.463-.397 3.324-.69 4.704-.73 3.135-.126 6.104.437 9.156 1.356 1.735.522 4.014 1.398 5.686 2.212 1.192.585 3.094 1.629 4.14 2.338.334.23 2.3 1.65 2.592 1.9a33.859 33.859 0 0 1 2.07 1.858c1.17 1.148 2.613 2.9 3.303 4.32.167.334.292.668.522 1.044.084.125.397.919.44 1.148.062.23.125.564.146.585.104.02.25.688.23.96Zm39.49-1.795c-1.463.334-5.33.521-5.33.521l-.481 1.524s1.923-.167 3.345-.02c0 0 .46-.063.502.521.02.522-.042 1.107-.042 1.107s-.021.354-.523.438c-.523.083-4.16.23-4.16.23l-.585 1.982s-.21.46.271.334c.46-.125 4.265-.835 4.767-.73.523.125 1.129.835.94 1.482-.209.793-4.013 3.214-6.313 3.047 0 0-1.212.084-2.237-1.565-.961-1.566.356-4.53.356-4.53s-.607-1.377-.168-1.858c0 0 .251-.23 1.025-.292l.94-1.92s-1.066.063-1.693-.71c-.585-.73-.627-1.085-.188-1.273.48-.23 4.913-1.044 7.944-.94 0 0 1.066-.104 1.965 1.733-.02 0 .418.752-.334.919Zm-11.434 7.41c-.398.918-1.422 1.9-2.697 1.294-1.255-.605-3.282-4.718-3.282-4.718s-.774-1.523-.92-1.503c0 0-.167-.292-.272 1.378-.105 1.67.02 4.926-.648 5.427-.627.522-1.4.313-1.798-.292-.355-.584-.502-2.004-.314-4.467.23-2.463.816-5.093 1.547-5.907.732-.814 1.318-.23 1.547 0 0 0 .983.898 2.593 3.486l.292.48s1.464 2.463 1.631 2.463c0 0 .125.104.23.02.146-.04.084-.834.084-.834s-.314-2.693-1.652-7.222c0 0-.209-.564-.063-1.107.147-.542.67-.292.67-.292s2.069 1.044 3.093 4.425c1.025 3.382.335 6.45-.041 7.369Zm22.347-2.025c-.94 1.649-3.616 5.093-7.17 4.279-1.17 2.839-2.153 5.72-2.718 9.998 0 0-.125.835-.815.543-.69-.25-1.819-1.378-2.049-2.964-.25-2.087.69-5.594 2.571-9.623-.543-.897-.92-2.17-.606-4.007 0 0 .481-3.382 3.889-6.43 0 0 .418-.354.648-.25.25.105.146 1.21-.063 1.753-.21.543-1.735 3.152-1.735 3.152s-.941 1.775-.69 3.173c1.777-2.734 5.853-8.266 8.362-6.533.836.605 1.233 1.92 1.233 3.34 0 1.252-.292 2.567-.857 3.569Zm-.731-4.342s-.147-1.085-1.213.105c-.92 1.022-2.571 2.922-3.91 5.49 1.401-.168 2.74-.92 3.157-1.295.67-.584 2.216-2.191 1.966-4.3Zm20.299-.25h-6.502a50.428 50.428 0 0 0-.815-6.575.492.492 0 0 0-.481-.397h-1.505a.437.437 0 0 0-.335.167c-.083.104-.125.23-.083.376.418 2.15.69 4.258.836 6.45h-6.25a.517.517 0 0 0-.523.522v1.356c0 .293.23.522.522.522h6.355v.918c0 1.942-.083 3.55-.271 5.365a.42.42 0 0 0 .125.376.48.48 0 0 0 .355.167h1.401a.524.524 0 0 0 .523-.48 50.15 50.15 0 0 0 .272-5.428v-.918h6.418c.292 0 .522-.23.522-.522v-1.356c-.042-.314-.272-.543-.564-.543Z"></path><path fill="url(&quot;#c4beb33445a--b&quot;)" d="M97.602 29.698c-3.303-8.14-8.927-15.091-16.202-20.06-7.463-5.113-16.202-7.806-25.295-7.806-15.031 0-28.954 7.452-37.275 19.934a.587.587 0 0 0-.062.46.532.532 0 0 0 .334.334l1.17.396c.064.021.147.042.21.042a.657.657 0 0 0 .544-.292c3.825-5.595 8.989-10.27 14.947-13.485a42.599 42.599 0 0 1 20.153-5.093c8.508 0 16.703 2.505 23.706 7.243C86.668 15.984 92 22.434 95.198 30.011c.104.23.313.376.564.376h1.4a.476.476 0 0 0 .398-.209.5.5 0 0 0 .042-.48Z"></path></g><defs><radialGradient id="c4beb33445a--b" cx="0" cy="0" r="1" gradientTransform="matrix(75.2686 0 0 75.1543 96.248 30.328)" gradientUnits="userSpaceOnUse"><stop stop-color="#fff"></stop><stop offset="1" stop-color="#000051" stop-opacity="0"></stop></radialGradient><clipPath id="c4beb33445a--a"><path fill="#fff" d="M.232.491h106.15v79.454H.233z"></path></clipPath><radialGradient id="c4beb33445a--b" cx="0" cy="0" r="1" gradientTransform="matrix(75.2686 0 0 75.1543 96.248 30.328)" gradientUnits="userSpaceOnUse"><stop stop-color="#fff"></stop><stop offset="1" stop-color="#000051" stop-opacity="0"></stop></radialGradient></defs></svg>