<svg xmlns:xlink="http://www.w3.org/1999/xlink" xmlns="http://www.w3.org/2000/svg" fill="none" viewBox="0 0 25 24" role="img" width="25"  height="24" >
  <path fill="#672FC3" d="M19.607 15.985c.394 3.16-2.518 4.051-5.597 3.605-2.875 1.19-5.916 1.043-6.311-2.119s1.95-6.057 5.239-6.467 6.274 1.82 6.668 4.98ZM7.046 12.243a2.5 2.5 0 1 1-4.961.62 2.5 2.5 0 0 1 4.961-.62m3.726-6.449a2.5 2.5 0 1 1-4.962.62 2.5 2.5 0 0 1 4.962-.62m7.438-.991a2.5 2.5 0 1 1-4.961.62 2.5 2.5 0 0 1 4.961-.62m5.705 5.334a2.5 2.5 0 1 1-4.961.62 2.5 2.5 0 0 1 4.961-.62"></path>
</svg>