<svg xmlns="http://www.w3.org/2000/svg" fill="none" viewBox="0 0 1512 749" role="img"><g opacity=".8"><path fill="url(#9c8158ba35e--a)" fill-opacity=".6" d="M0 83.99S271.5 0 756 0s756 83.99 756 83.99V749H0V83.99Z"></path><mask id="9c8158ba35e--c" width="1512" height="749" x="0" y="0" maskUnits="userSpaceOnUse" style="mask-type:alpha"><path fill="url(#9c8158ba35e--b)" fill-opacity=".6" d="M0 83.99S271.5 0 756 0s756 83.99 756 83.99V749H0V83.99Z"></path></mask><g mask="url(#9c8158ba35e--c)" opacity=".25"><path stroke="#fff" stroke-linecap="round" stroke-linejoin="round" stroke-miterlimit="10" stroke-width="2" d="M83.651 239.226H52.348c-3.011 0-5.11-2.999-4.085-5.839L57 211.726h23l7.737 21.661c1.025 2.84-1.074 5.839-4.086 5.839ZM115.998 211.702H21.703c-6.463 0-11.703-5.23-11.703-11.682V79.815c0-6.45 5.24-11.681 11.703-11.681h94.295c6.464 0 11.703 5.23 11.703 11.681V200.02c0 6.452-5.239 11.682-11.703 11.682Z"></path><path stroke="#fff" stroke-linecap="round" stroke-linejoin="round" stroke-miterlimit="10" stroke-width="2" d="M115 199.226H21v-119h94v119Z"></path><path stroke="#fff" stroke-linecap="round" stroke-linejoin="round" stroke-miterlimit="10" stroke-width="2" d="M44.903 191.917H38.95a2.893 2.893 0 0 1-2.896-2.89v-5.943a2.893 2.893 0 0 1 2.896-2.89h5.953a2.893 2.893 0 0 1 2.896 2.89v5.943a2.893 2.893 0 0 1-2.896 2.89ZM98.752 191.917H92.8a2.893 2.893 0 0 1-2.895-2.89v-5.943a2.893 2.893 0 0 1 2.895-2.89h5.953c1.6 0 2.896 1.294 2.896 2.89v5.943a2.893 2.893 0 0 1-2.895 2.89ZM62.733 191.917h-5.954a2.893 2.893 0 0 1-2.895-2.89v-5.943a2.893 2.893 0 0 1 2.895-2.89h5.954a2.893 2.893 0 0 1 2.895 2.89v5.943a2.893 2.893 0 0 1-2.895 2.89ZM80.743 191.917H74.79a2.893 2.893 0 0 1-2.896-2.89v-5.943a2.893 2.893 0 0 1 2.896-2.89h5.953a2.893 2.893 0 0 1 2.895 2.89v5.943a2.893 2.893 0 0 1-2.895 2.89ZM84.257 68.134H53.07l10.492-16.82h10.202l10.493 16.82ZM98.007 142.502c0 16.673-13.54 30.189-30.244 30.189s-30.245-13.516-30.245-30.189c0-16.674 13.541-30.19 30.245-30.19 16.703 0 30.244 13.516 30.244 30.19ZM78.407 95.523c0 3.615-2.935 6.544-6.557 6.544-3.62 0-6.556-2.93-6.556-6.544 0-3.614 2.936-6.544 6.556-6.544 3.622 0 6.557 2.93 6.557 6.544Z"></path><path stroke="#fff" stroke-linecap="round" stroke-linejoin="round" stroke-miterlimit="10" stroke-width="2" d="M67.928 112.156c-1.452-3.395-.798-7.59 1.618-10.384M75.632 113.367s6.296-6.715 15.61-6.952a2.926 2.926 0 0 1 2.87 2.091c.916 3.078 1.984 9.42-1.11 17.438M59.893 113.367s-6.296-6.715-15.61-6.952a2.927 2.927 0 0 0-2.87 2.091c-.916 3.078-1.984 9.42 1.11 17.438M37.633 145.133l20.232-22.458 9.826 9.38M97.75 145.133l-20.233-22.458-9.826 9.38"></path><path fill="#fff" d="M58.88 141.299c0 2.807-1.345 5.083-3.005 5.083-1.659 0-3.004-2.276-3.004-5.083 0-2.807 1.345-5.082 3.004-5.082 1.66 0 3.005 2.275 3.005 5.082ZM82.653 141.299c0 2.807-1.344 5.083-3.004 5.083s-3.004-2.276-3.004-5.083c0-2.807 1.345-5.082 3.004-5.082 1.66 0 3.004 2.275 3.004 5.082Z"></path><path stroke="#fff" stroke-linecap="round" stroke-linejoin="round" stroke-miterlimit="10" stroke-width="2" d="M58.88 148.723c1.76 3.347 5.078 5.604 8.882 5.604 3.805 0 7.121-2.257 8.883-5.604M87.928 164.999a9.407 9.407 0 0 1-3.472-7.306c0-5.209 4.23-9.431 9.448-9.431 1.206 0 2.36.226 3.42.637M47.568 164.999a9.408 9.408 0 0 0 3.473-7.306c0-5.209-4.23-9.431-9.448-9.431-1.207 0-2.36.226-3.42.637"></path><path fill="#fff" d="M33.841 89.937a2.126 2.126 0 0 1-2.128 2.124 2.126 2.126 0 0 1-2.128-2.124c0-1.173.953-2.125 2.128-2.125 1.176 0 2.128.952 2.128 2.125Z"></path><path stroke="#fff" stroke-linejoin="round" stroke-width="2" d="M165.274 88.876c12.637 2.623 14.79 4.766 17.558 17.481 2.486-12.726 4.591-14.88 17.17-17.558-12.637-2.621-14.79-4.765-17.557-17.48-2.486 12.727-4.592 14.88-17.171 17.557Z"></path><path stroke="#fff" stroke-linecap="round" stroke-linejoin="round" stroke-miterlimit="10" stroke-width="2" d="m204.32 268.336-31.498-8.778c-3.72-1.036-5.903-4.86-4.877-8.541 1.026-3.681 4.872-5.824 8.591-4.788l31.498 8.778c3.719 1.036 5.902 4.861 4.877 8.541-1.026 3.681-4.873 5.825-8.591 4.788Z"></path><path stroke="#fff" stroke-linecap="round" stroke-linejoin="round" stroke-miterlimit="10" stroke-width="2" d="M192.285 250.619c-12.417-3.46-19.706-16.228-16.282-28.517l11.878-42.623c3.425-12.29 16.268-19.447 28.684-15.987 12.418 3.46 19.706 16.228 16.282 28.518l-11.878 42.622c-3.425 12.29-16.267 19.447-28.684 15.987Z"></path><path stroke="#fff" stroke-linecap="round" stroke-linejoin="round" stroke-miterlimit="10" stroke-width="2" d="M209.168 248.717c-1.285-.307-1.67-2.005-1.307-3.26s1.198-2.357 1.413-3.646c.38-2.273-1.633-4.649-3.959-4.672-1.761-.019-3.371 1.094-5.132 1.103-2.689.014-4.825-2.771-4.711-5.433.113-2.663 1.982-4.995 4.258-6.403 1.96-1.214 4.228-1.874 6.195-3.077 1.968-1.203 3.701-3.221 3.545-5.513-.153-2.246-2.028-4.004-2.702-6.157-1.019-3.252.909-6.734 3.435-9.022 2.525-2.288 5.661-3.842 8.157-6.162 3.954-3.675 6.025-9.246 5.429-14.604-.317-2.854-1.479-5.791-3.854-7.447-2.375-1.656-6.111-1.511-7.772.832-1.238 1.747-1.052 4.135-.396 6.176.657 2.042 1.729 3.958 2.145 6.06.637 3.201-.396 6.673-2.679 9.007-1.166 1.193-2.754 2.124-4.431 2.009-1.676-.115-3.302-1.59-3.115-3.244.259-2.285 3.263-3.095 4.494-5.037 1.069-1.687.512-4.101-1.015-5.412-1.525-1.311-3.788-1.577-5.701-.963-1.913.614-3.494 2.007-4.654 3.632-2.381 3.338-3.094 7.791-1.878 11.713.578 1.864 1.555 3.583 2.247 5.41.692 1.825 1.091 3.866.468 5.71-1.188 3.513-5.56 5.08-7.058 8.473-1.282 2.901-.12 6.255-.268 9.424-.14 2.978-1.518 5.875-3.744 7.87-2.226 1.994-5.272 3.063-8.277 2.903"></path><path stroke="#fff" stroke-linecap="round" stroke-linejoin="round" stroke-miterlimit="10" stroke-width="2" d="M223.078 227.063c-1.05.144-2.15.08-3.239-.223-4.232-1.18-6.717-5.532-5.55-9.721 1.168-4.19 5.546-6.629 9.778-5.45a8.013 8.013 0 0 1 2.817 1.428M214.641 231.546c-.453 1.626-2.152 2.573-3.795 2.115-1.644-.458-2.609-2.147-2.156-3.773.454-1.627 2.153-2.574 3.797-2.116 1.643.458 2.608 2.148 2.154 3.774ZM177.101 218.162a6.584 6.584 0 0 1 2.846.157c3.486.972 5.532 4.556 4.57 8.006-.961 3.45-4.566 5.459-8.052 4.488a6.666 6.666 0 0 1-1.146-.436M203.874 175.17a2.282 2.282 0 0 1-2.819 1.571 2.281 2.281 0 0 1-1.599-2.802c.337-1.207 1.598-1.91 2.818-1.571 1.22.341 1.936 1.595 1.6 2.802ZM237.523 258.524c-3.41-.95-7.015.573-8.67 3.663l-6.05 11.299 19.579 5.457.666-12.801c.182-3.5-2.116-6.668-5.525-7.618ZM237.523 258.524l2.385-8.558c1.227-4.404-1.386-8.979-5.835-10.219l-13.482-3.757M225.659 268.564l16.89 4.707M135.382 9.435a48.294 48.294 0 0 1 8.432 15.356c.979 2.957-.927 6.07-3.989 6.641-15.202 2.833-31.496-1.614-43.276-13.356A48.404 48.404 0 0 1 84.726-1.026c-.98-2.958.925-6.07 3.988-6.641a48.915 48.915 0 0 1 17.268-.116"></path><path stroke="#fff" stroke-linecap="round" stroke-linejoin="round" stroke-miterlimit="10" stroke-width="2" d="M92.823 13.813c10.25 1.41 20.435 6.166 28.261 14.104a49.349 49.349 0 0 1 3.416 3.848M129.844 20.166a3.703 3.703 0 1 0 5.246 5.229 3.703 3.703 0 0 0-5.246-5.23ZM93.325-1.033a3.703 3.703 0 1 0 5.246 5.228 3.703 3.703 0 0 0-5.246-5.228ZM105.499 6.033a3.703 3.703 0 1 0 5.246 5.229 3.703 3.703 0 0 0-5.246-5.229ZM117.676 13.1a3.703 3.703 0 1 0 5.246 5.229 3.703 3.703 0 0 0-5.246-5.23ZM105.938-7.79l29.449 17.234 4.467-14.225a14.786 14.786 0 0 0-25.788-13.49l-8.128 10.482Z"></path><path stroke="#fff" stroke-width="2" d="m270.433 156.287-.72.517.09-.882 2.56-24.919.024-.236.22-.091 7.249-3.017.19-.08.175.11 21.414 13.401.755.473-.856.249-10.362 3.009.576 17.599.034 1.043-.722-.754-12.039-12.58-8.588 6.158Z"></path><path stroke="#fff" stroke-linecap="round" stroke-linejoin="round" stroke-miterlimit="10" stroke-width="2" d="m272.187 134.016 10.924 10.205-.408-14.83M239.35 36.602c-1.917-2.279-5.627-.734-5.36 2.232l1.546 17.102a26.79 26.79 0 0 0 2.206 7.905l28.734 63.378 16.633-7.349-28.507-63.579a26.82 26.82 0 0 0-4.724-7.175L239.35 36.602Z"></path><path stroke="#fff" stroke-linecap="round" stroke-linejoin="round" stroke-miterlimit="10" stroke-width="2" d="m242.608 40.392 17.093 5.832 3.49 8.382-7.808 3.163M234.365 43.251l-7.155 15.35 4.495 10.008 6.804-2.897M241.448 71.987l16.661-7.534M277.115 106.579l-16.547 7.436M268.673 87.72l14.691 9.807 8.245 18.639-8.499 3.7M252.321 96.076l-3.466 14.572 9.252 20.14 8.367-3.573M747.651 239.226h-31.303c-3.011 0-5.11-2.999-4.085-5.839L721 211.726h23l7.737 21.661c1.025 2.84-1.074 5.839-4.086 5.839ZM779.998 211.702h-94.295c-6.463 0-11.703-5.23-11.703-11.682V79.815c0-6.45 5.24-11.681 11.703-11.681h94.295c6.464 0 11.703 5.23 11.703 11.681V200.02c0 6.452-5.239 11.682-11.703 11.682Z"></path><path stroke="#fff" stroke-linecap="round" stroke-linejoin="round" stroke-miterlimit="10" stroke-width="2" d="M779 199.226h-94v-119h94v119Z"></path><path stroke="#fff" stroke-linecap="round" stroke-linejoin="round" stroke-miterlimit="10" stroke-width="2" d="M708.903 191.917h-5.953a2.893 2.893 0 0 1-2.896-2.89v-5.943a2.893 2.893 0 0 1 2.896-2.89h5.953a2.893 2.893 0 0 1 2.896 2.89v5.943a2.893 2.893 0 0 1-2.896 2.89ZM762.753 191.917h-5.954a2.892 2.892 0 0 1-2.895-2.89v-5.943a2.892 2.892 0 0 1 2.895-2.89h5.954a2.892 2.892 0 0 1 2.895 2.89v5.943a2.892 2.892 0 0 1-2.895 2.89ZM726.733 191.917h-5.954a2.892 2.892 0 0 1-2.895-2.89v-5.943a2.892 2.892 0 0 1 2.895-2.89h5.954a2.893 2.893 0 0 1 2.895 2.89v5.943a2.893 2.893 0 0 1-2.895 2.89ZM744.743 191.917h-5.953a2.893 2.893 0 0 1-2.896-2.89v-5.943a2.893 2.893 0 0 1 2.896-2.89h5.953a2.892 2.892 0 0 1 2.895 2.89v5.943a2.892 2.892 0 0 1-2.895 2.89ZM748.257 68.134H717.07l10.492-16.82h10.202l10.493 16.82ZM762.007 142.502c0 16.673-13.541 30.189-30.244 30.189-16.704 0-30.245-13.516-30.245-30.189 0-16.674 13.541-30.19 30.245-30.19 16.703 0 30.244 13.516 30.244 30.19ZM742.407 95.523c0 3.615-2.935 6.544-6.557 6.544-3.62 0-6.556-2.93-6.556-6.544 0-3.614 2.936-6.544 6.556-6.544 3.622 0 6.557 2.93 6.557 6.544Z"></path><path stroke="#fff" stroke-linecap="round" stroke-linejoin="round" stroke-miterlimit="10" stroke-width="2" d="M731.928 112.156c-1.452-3.395-.798-7.59 1.618-10.384M739.632 113.367s6.296-6.715 15.61-6.952a2.927 2.927 0 0 1 2.87 2.091c.916 3.078 1.984 9.42-1.109 17.438M723.893 113.367s-6.296-6.715-15.61-6.952a2.926 2.926 0 0 0-2.87 2.091c-.916 3.078-1.984 9.42 1.109 17.438M701.633 145.133l20.232-22.458 9.826 9.38M761.749 145.133l-20.232-22.458-9.826 9.38"></path><path fill="#fff" d="M722.88 141.299c0 2.807-1.345 5.083-3.005 5.083-1.659 0-3.004-2.276-3.004-5.083 0-2.807 1.345-5.082 3.004-5.082 1.66 0 3.005 2.275 3.005 5.082ZM746.653 141.299c0 2.807-1.344 5.083-3.004 5.083-1.659 0-3.004-2.276-3.004-5.083 0-2.807 1.345-5.082 3.004-5.082 1.66 0 3.004 2.275 3.004 5.082Z"></path><path stroke="#fff" stroke-linecap="round" stroke-linejoin="round" stroke-miterlimit="10" stroke-width="2" d="M722.879 148.723c1.762 3.347 5.078 5.604 8.883 5.604 3.805 0 7.121-2.257 8.883-5.604M751.928 164.999a9.408 9.408 0 0 1-3.472-7.306c0-5.209 4.23-9.431 9.448-9.431 1.206 0 2.36.226 3.421.637M711.568 164.999a9.406 9.406 0 0 0 3.473-7.306c0-5.209-4.23-9.431-9.448-9.431-1.207 0-2.36.226-3.421.637"></path><path fill="#fff" d="M697.841 89.937a2.126 2.126 0 0 1-2.128 2.124 2.126 2.126 0 0 1-2.128-2.124c0-1.173.953-2.125 2.128-2.125 1.176 0 2.128.952 2.128 2.125Z"></path><path stroke="#fff" stroke-linejoin="round" stroke-width="2" d="M829.274 88.876c12.637 2.623 14.79 4.766 17.558 17.481 2.486-12.726 4.591-14.88 17.17-17.558-12.637-2.621-14.79-4.765-17.557-17.48-2.486 12.727-4.592 14.88-17.171 17.557Z"></path><path stroke="#fff" stroke-linecap="round" stroke-linejoin="round" stroke-miterlimit="10" stroke-width="2" d="m868.32 268.336-31.498-8.778c-3.72-1.036-5.903-4.86-4.877-8.541 1.026-3.681 4.872-5.824 8.591-4.788l31.498 8.778c3.719 1.036 5.902 4.861 4.877 8.541-1.026 3.681-4.873 5.825-8.591 4.788Z"></path><path stroke="#fff" stroke-linecap="round" stroke-linejoin="round" stroke-miterlimit="10" stroke-width="2" d="M856.285 250.619c-12.417-3.46-19.707-16.228-16.282-28.517l11.878-42.623c3.425-12.29 16.267-19.447 28.684-15.987 12.418 3.46 19.706 16.228 16.282 28.518l-11.879 42.622c-3.424 12.29-16.266 19.447-28.683 15.987Z"></path><path stroke="#fff" stroke-linecap="round" stroke-linejoin="round" stroke-miterlimit="10" stroke-width="2" d="M873.168 248.717c-1.285-.307-1.67-2.005-1.307-3.26s1.198-2.357 1.413-3.646c.38-2.273-1.633-4.649-3.959-4.672-1.761-.019-3.371 1.094-5.132 1.103-2.689.014-4.825-2.771-4.711-5.433.113-2.663 1.982-4.995 4.258-6.403 1.96-1.214 4.228-1.874 6.195-3.077 1.968-1.203 3.701-3.221 3.545-5.513-.153-2.246-2.028-4.004-2.702-6.157-1.019-3.252.909-6.734 3.435-9.022 2.525-2.288 5.661-3.842 8.157-6.162 3.954-3.675 6.025-9.246 5.429-14.604-.317-2.854-1.479-5.791-3.854-7.447-2.375-1.656-6.111-1.511-7.772.832-1.238 1.747-1.052 4.135-.396 6.176.657 2.042 1.729 3.958 2.145 6.06.637 3.201-.396 6.673-2.679 9.007-1.166 1.193-2.754 2.124-4.431 2.009-1.676-.115-3.302-1.59-3.115-3.244.259-2.285 3.263-3.095 4.494-5.037 1.069-1.687.512-4.101-1.015-5.412-1.525-1.311-3.788-1.577-5.701-.963-1.913.614-3.494 2.007-4.654 3.632-2.381 3.338-3.094 7.791-1.878 11.713.578 1.864 1.555 3.583 2.247 5.41.692 1.825 1.091 3.866.468 5.71-1.188 3.513-5.56 5.08-7.058 8.473-1.282 2.901-.12 6.255-.268 9.424-.14 2.978-1.518 5.875-3.744 7.87-2.226 1.994-5.272 3.063-8.277 2.903"></path><path stroke="#fff" stroke-linecap="round" stroke-linejoin="round" stroke-miterlimit="10" stroke-width="2" d="M887.078 227.063c-1.05.144-2.15.08-3.239-.223-4.232-1.18-6.717-5.532-5.55-9.721 1.168-4.19 5.546-6.629 9.778-5.45a8.013 8.013 0 0 1 2.817 1.428M878.641 231.546c-.453 1.626-2.152 2.573-3.795 2.115-1.644-.458-2.609-2.147-2.156-3.773.454-1.627 2.153-2.574 3.797-2.116 1.643.458 2.608 2.148 2.154 3.774ZM841.101 218.162a6.584 6.584 0 0 1 2.846.157c3.486.972 5.532 4.556 4.57 8.006-.961 3.45-4.566 5.459-8.052 4.488a6.666 6.666 0 0 1-1.146-.436M867.874 175.17a2.282 2.282 0 0 1-2.819 1.571 2.281 2.281 0 0 1-1.599-2.802c.337-1.207 1.598-1.91 2.818-1.571 1.22.341 1.936 1.595 1.6 2.802ZM901.523 258.524c-3.41-.95-7.015.573-8.67 3.663l-6.05 11.299 19.579 5.457.666-12.801c.182-3.5-2.116-6.668-5.525-7.618Z"></path><path stroke="#fff" stroke-linecap="round" stroke-linejoin="round" stroke-miterlimit="10" stroke-width="2" d="m901.523 258.524 2.385-8.558c1.227-4.404-1.386-8.979-5.835-10.219l-13.482-3.757M889.659 268.564l16.89 4.707M799.382 9.435a48.294 48.294 0 0 1 8.432 15.356c.979 2.957-.927 6.07-3.989 6.641-15.202 2.833-31.496-1.614-43.276-13.356a48.394 48.394 0 0 1-11.823-19.102c-.98-2.958.926-6.07 3.988-6.641a48.917 48.917 0 0 1 17.268-.116"></path><path stroke="#fff" stroke-linecap="round" stroke-linejoin="round" stroke-miterlimit="10" stroke-width="2" d="M756.825 13.814c10.25 1.41 20.435 6.166 28.261 14.104a49.349 49.349 0 0 1 3.416 3.848M793.843 20.167a3.703 3.703 0 1 0 5.246 5.229 3.703 3.703 0 0 0-5.246-5.23ZM757.327-1.032a3.703 3.703 0 1 0 5.246 5.229 3.703 3.703 0 0 0-5.246-5.23ZM769.499 6.034a3.703 3.703 0 1 0 5.246 5.229 3.703 3.703 0 0 0-5.246-5.229ZM781.675 13.1a3.703 3.703 0 1 0 5.246 5.23 3.703 3.703 0 0 0-5.246-5.23ZM769.938-7.788l29.449 17.233 4.467-14.225a14.785 14.785 0 0 0-25.788-13.49l-8.128 10.482Z"></path><path stroke="#fff" stroke-width="2" d="m934.433 156.287-.72.517.09-.882 2.56-24.919.024-.236.22-.091 7.249-3.017.19-.08.175.11 21.414 13.401.755.473-.856.249-10.362 3.009.576 17.599.034 1.043-.722-.754-12.039-12.58-8.588 6.158Z"></path><path stroke="#fff" stroke-linecap="round" stroke-linejoin="round" stroke-miterlimit="10" stroke-width="2" d="m936.187 134.016 10.924 10.205-.408-14.83M903.35 36.602c-1.917-2.279-5.627-.734-5.36 2.232l1.546 17.102a26.79 26.79 0 0 0 2.206 7.905l28.734 63.378 16.633-7.349-28.507-63.579a26.82 26.82 0 0 0-4.724-7.175L903.35 36.602Z"></path><path stroke="#fff" stroke-linecap="round" stroke-linejoin="round" stroke-miterlimit="10" stroke-width="2" d="m906.608 40.392 17.093 5.832 3.49 8.382-7.808 3.163M898.365 43.251l-7.155 15.35 4.495 10.008 6.804-2.897M905.448 71.987l16.661-7.534M941.115 106.579l-16.547 7.436M932.673 87.72l14.691 9.807 8.245 18.639-8.499 3.7M916.321 96.076l-3.466 14.572 9.252 20.14 8.367-3.573M1411.65 239.226h-31.3c-3.01 0-5.11-2.999-4.09-5.839l8.74-21.661h23l7.74 21.661c1.02 2.84-1.08 5.839-4.09 5.839ZM1444 211.702h-94.3c-6.46 0-11.7-5.23-11.7-11.682V79.815c0-6.45 5.24-11.681 11.7-11.681h94.3c6.46 0 11.7 5.23 11.7 11.681V200.02c0 6.452-5.24 11.682-11.7 11.682Z"></path><path stroke="#fff" stroke-linecap="round" stroke-linejoin="round" stroke-miterlimit="10" stroke-width="2" d="M1443 199.226h-94v-119h94v119Z"></path><path stroke="#fff" stroke-linecap="round" stroke-linejoin="round" stroke-miterlimit="10" stroke-width="2" d="M1372.9 191.917h-5.95c-1.6 0-2.9-1.294-2.9-2.89v-5.943c0-1.596 1.3-2.89 2.9-2.89h5.95c1.6 0 2.9 1.294 2.9 2.89v5.943c0 1.596-1.3 2.89-2.9 2.89ZM1426.75 191.917h-5.95c-1.6 0-2.9-1.294-2.9-2.89v-5.943c0-1.596 1.3-2.89 2.9-2.89h5.95c1.6 0 2.9 1.294 2.9 2.89v5.943c0 1.596-1.3 2.89-2.9 2.89ZM1390.73 191.917h-5.95c-1.6 0-2.9-1.294-2.9-2.89v-5.943c0-1.596 1.3-2.89 2.9-2.89h5.95c1.6 0 2.9 1.294 2.9 2.89v5.943c0 1.596-1.3 2.89-2.9 2.89ZM1408.74 191.917h-5.95c-1.6 0-2.9-1.294-2.9-2.89v-5.943c0-1.596 1.3-2.89 2.9-2.89h5.95c1.6 0 2.9 1.294 2.9 2.89v5.943c0 1.596-1.3 2.89-2.9 2.89ZM1412.26 68.134h-31.19l10.49-16.82h10.2l10.5 16.82ZM1426.01 142.502c0 16.673-13.54 30.189-30.25 30.189-16.7 0-30.24-13.516-30.24-30.189 0-16.674 13.54-30.19 30.24-30.19 16.71 0 30.25 13.516 30.25 30.19ZM1406.41 95.523c0 3.615-2.94 6.544-6.56 6.544-3.62 0-6.56-2.93-6.56-6.544 0-3.614 2.94-6.544 6.56-6.544 3.62 0 6.56 2.93 6.56 6.544Z"></path><path stroke="#fff" stroke-linecap="round" stroke-linejoin="round" stroke-miterlimit="10" stroke-width="2" d="M1395.93 112.156c-1.45-3.395-.8-7.59 1.62-10.384M1403.63 113.367s6.3-6.715 15.61-6.952a2.92 2.92 0 0 1 2.87 2.091c.92 3.078 1.99 9.42-1.11 17.438M1387.89 113.367s-6.29-6.715-15.61-6.952a2.936 2.936 0 0 0-2.87 2.091c-.91 3.078-1.98 9.42 1.11 17.438M1365.63 145.133l20.24-22.458 9.82 9.38M1425.75 145.133l-20.23-22.458-9.83 9.38"></path><path fill="#fff" d="M1386.88 141.299c0 2.807-1.34 5.083-3 5.083s-3.01-2.276-3.01-5.083c0-2.807 1.35-5.082 3.01-5.082 1.66 0 3 2.275 3 5.082ZM1410.65 141.299c0 2.807-1.34 5.083-3 5.083s-3.01-2.276-3.01-5.083c0-2.807 1.35-5.082 3.01-5.082 1.66 0 3 2.275 3 5.082Z"></path><path stroke="#fff" stroke-linecap="round" stroke-linejoin="round" stroke-miterlimit="10" stroke-width="2" d="M1386.88 148.723c1.76 3.347 5.08 5.604 8.88 5.604 3.81 0 7.12-2.257 8.88-5.604M1415.93 164.999a9.404 9.404 0 0 1-3.47-7.306c0-5.209 4.23-9.431 9.44-9.431 1.21 0 2.36.226 3.42.637M1375.57 164.999a9.404 9.404 0 0 0 3.47-7.306c0-5.209-4.23-9.431-9.45-9.431-1.2 0-2.36.226-3.42.637"></path><path fill="#fff" d="M1361.84 89.937a2.131 2.131 0 0 1-4.26 0c0-1.173.96-2.125 2.13-2.125 1.18 0 2.13.952 2.13 2.125Z"></path><path stroke="#fff" stroke-linejoin="round" stroke-width="2" d="M1493.27 88.876c12.64 2.623 14.79 4.766 17.56 17.481 2.49-12.726 4.59-14.88 17.17-17.558-12.64-2.621-14.79-4.765-17.55-17.48-2.49 12.727-4.6 14.88-17.18 17.557Z"></path><path stroke="#fff" stroke-linecap="round" stroke-linejoin="round" stroke-miterlimit="10" stroke-width="2" d="m1532.32 268.336-31.5-8.778c-3.72-1.036-5.9-4.86-4.88-8.541 1.03-3.681 4.88-5.824 8.6-4.788l31.49 8.778c3.72 1.036 5.91 4.861 4.88 8.541-1.03 3.681-4.87 5.825-8.59 4.788Z"></path><path stroke="#fff" stroke-linecap="round" stroke-linejoin="round" stroke-miterlimit="10" stroke-width="2" d="M1520.28 250.619c-12.41-3.46-19.7-16.228-16.28-28.517l11.88-42.623c3.43-12.29 16.27-19.447 28.69-15.987 12.41 3.46 19.7 16.228 16.28 28.518l-11.88 42.622c-3.43 12.29-16.27 19.447-28.69 15.987Z"></path><path stroke="#fff" stroke-linecap="round" stroke-linejoin="round" stroke-miterlimit="10" stroke-width="2" d="M1537.17 248.717c-1.29-.307-1.67-2.005-1.31-3.26.36-1.255 1.2-2.357 1.41-3.646.38-2.273-1.63-4.649-3.95-4.672-1.77-.019-3.38 1.094-5.14 1.103-2.69.014-4.82-2.771-4.71-5.433.12-2.663 1.98-4.995 4.26-6.403 1.96-1.214 4.23-1.874 6.2-3.077 1.96-1.203 3.7-3.221 3.54-5.513-.15-2.246-2.03-4.004-2.7-6.157-1.02-3.252.91-6.734 3.43-9.022 2.53-2.288 5.66-3.842 8.16-6.162 3.95-3.675 6.03-9.246 5.43-14.604-.32-2.854-1.48-5.791-3.85-7.447-2.38-1.656-6.12-1.511-7.78.832-1.24 1.747-1.05 4.135-.39 6.176.65 2.042 1.73 3.958 2.14 6.06.64 3.201-.39 6.673-2.68 9.007-1.16 1.193-2.75 2.124-4.43 2.009-1.67-.115-3.3-1.59-3.11-3.244.26-2.285 3.26-3.095 4.49-5.037 1.07-1.687.51-4.101-1.01-5.412-1.53-1.311-3.79-1.577-5.7-.963-1.92.614-3.5 2.007-4.66 3.632-2.38 3.338-3.09 7.791-1.88 11.713.58 1.864 1.56 3.583 2.25 5.41.69 1.825 1.09 3.866.47 5.71-1.19 3.513-5.56 5.08-7.06 8.473-1.28 2.901-.12 6.255-.27 9.424-.14 2.978-1.52 5.875-3.74 7.87-2.23 1.994-5.27 3.063-8.28 2.903"></path><path stroke="#fff" stroke-linecap="round" stroke-linejoin="round" stroke-miterlimit="10" stroke-width="2" d="M1505.1 218.162c.92-.152 1.89-.11 2.85.157 3.48.972 5.53 4.556 4.57 8.006s-4.57 5.459-8.05 4.488a6.436 6.436 0 0 1-1.15-.436M1463.38 9.435a48.21 48.21 0 0 1 8.43 15.356c.98 2.957-.92 6.07-3.98 6.641-15.21 2.833-31.5-1.614-43.28-13.356a48.33 48.33 0 0 1-11.82-19.102c-.98-2.958.92-6.07 3.98-6.641a48.93 48.93 0 0 1 17.27-.116"></path><path stroke="#fff" stroke-linecap="round" stroke-linejoin="round" stroke-miterlimit="10" stroke-width="2" d="M1420.82 13.814c10.26 1.41 20.44 6.166 28.27 14.104a51.188 51.188 0 0 1 3.41 3.848M1457.84 20.167a3.705 3.705 0 0 0 5.25 5.228 3.705 3.705 0 0 0-5.25-5.228ZM1421.33-1.032a3.696 3.696 0 0 0 .01 5.237 3.694 3.694 0 0 0 5.23-.009 3.697 3.697 0 0 0-.01-5.237 3.695 3.695 0 0 0-5.23.009ZM1433.5 6.034a3.705 3.705 0 0 0 .01 5.237 3.695 3.695 0 0 0 5.23-.008 3.705 3.705 0 0 0 0-5.237 3.706 3.706 0 0 0-5.24.008ZM1445.67 13.1a3.714 3.714 0 0 0 .01 5.238 3.707 3.707 0 0 0 5.24-.009 3.706 3.706 0 0 0-5.25-5.228ZM1433.94-7.788l29.45 17.233 4.46-14.225a14.78 14.78 0 0 0-25.78-13.49l-8.13 10.482ZM83.651 696.226H52.348c-3.011 0-5.11-2.999-4.085-5.839L57 668.726h23l7.737 21.661c1.025 2.84-1.074 5.839-4.086 5.839ZM115.998 668.702H21.703c-6.463 0-11.703-5.23-11.703-11.682V536.815c0-6.451 5.24-11.681 11.703-11.681h94.295c6.464 0 11.703 5.23 11.703 11.681V657.02c0 6.452-5.239 11.682-11.703 11.682Z"></path><path stroke="#fff" stroke-linecap="round" stroke-linejoin="round" stroke-miterlimit="10" stroke-width="2" d="M115 656.226H21v-119h94v119Z"></path><path stroke="#fff" stroke-linecap="round" stroke-linejoin="round" stroke-miterlimit="10" stroke-width="2" d="M44.903 648.917H38.95a2.893 2.893 0 0 1-2.896-2.89v-5.943a2.893 2.893 0 0 1 2.896-2.89h5.953a2.893 2.893 0 0 1 2.896 2.89v5.943a2.893 2.893 0 0 1-2.896 2.89ZM98.752 648.917H92.8a2.893 2.893 0 0 1-2.895-2.89v-5.943a2.893 2.893 0 0 1 2.895-2.89h5.953c1.6 0 2.896 1.294 2.896 2.89v5.943a2.893 2.893 0 0 1-2.895 2.89ZM62.733 648.917h-5.954a2.893 2.893 0 0 1-2.895-2.89v-5.943a2.893 2.893 0 0 1 2.895-2.89h5.954a2.893 2.893 0 0 1 2.895 2.89v5.943a2.893 2.893 0 0 1-2.895 2.89ZM80.743 648.917H74.79a2.893 2.893 0 0 1-2.896-2.89v-5.943a2.893 2.893 0 0 1 2.896-2.89h5.953a2.893 2.893 0 0 1 2.895 2.89v5.943a2.893 2.893 0 0 1-2.895 2.89ZM84.257 525.134H53.07l10.492-16.819h10.202l10.493 16.819ZM98.007 599.502c0 16.673-13.54 30.189-30.244 30.189s-30.245-13.516-30.245-30.189c0-16.674 13.541-30.19 30.245-30.19 16.703 0 30.244 13.516 30.244 30.19ZM78.407 552.523c0 3.615-2.935 6.544-6.557 6.544-3.62 0-6.556-2.929-6.556-6.544 0-3.614 2.936-6.545 6.556-6.545 3.622 0 6.557 2.931 6.557 6.545Z"></path><path stroke="#fff" stroke-linecap="round" stroke-linejoin="round" stroke-miterlimit="10" stroke-width="2" d="M67.928 569.156c-1.452-3.395-.798-7.59 1.618-10.384M75.632 570.367s6.296-6.715 15.61-6.952a2.926 2.926 0 0 1 2.87 2.091c.916 3.078 1.984 9.42-1.11 17.438M59.893 570.367s-6.296-6.715-15.61-6.952a2.927 2.927 0 0 0-2.87 2.091c-.916 3.078-1.984 9.42 1.11 17.438M37.633 602.133l20.232-22.458 9.826 9.38M97.75 602.133l-20.233-22.458-9.826 9.38"></path><path fill="#fff" d="M58.88 598.299c0 2.807-1.345 5.083-3.005 5.083-1.659 0-3.004-2.276-3.004-5.083 0-2.807 1.345-5.082 3.004-5.082 1.66 0 3.005 2.275 3.005 5.082ZM82.653 598.299c0 2.807-1.344 5.083-3.004 5.083s-3.004-2.276-3.004-5.083c0-2.807 1.345-5.082 3.004-5.082 1.66 0 3.004 2.275 3.004 5.082Z"></path><path stroke="#fff" stroke-linecap="round" stroke-linejoin="round" stroke-miterlimit="10" stroke-width="2" d="M58.88 605.723c1.76 3.347 5.078 5.604 8.882 5.604 3.805 0 7.121-2.257 8.883-5.604M87.928 621.999a9.407 9.407 0 0 1-3.472-7.306c0-5.209 4.23-9.431 9.448-9.431 1.206 0 2.36.226 3.42.637M47.568 621.999a9.408 9.408 0 0 0 3.473-7.306c0-5.209-4.23-9.431-9.448-9.431-1.207 0-2.36.226-3.42.637"></path><path fill="#fff" d="M33.841 546.937a2.127 2.127 0 0 1-2.128 2.125 2.127 2.127 0 0 1-2.128-2.125c0-1.173.953-2.125 2.128-2.125 1.176 0 2.128.952 2.128 2.125Z"></path><path stroke="#fff" stroke-linecap="round" stroke-linejoin="round" stroke-miterlimit="10" stroke-width="2" d="M182.216 386.847h-45.129c-5.189 0-9.396-4.21-9.396-9.402v-40.819c0-5.192 4.207-9.401 9.396-9.401h45.129c5.189 0 9.396 4.209 9.396 9.401v40.819c0 5.192-4.207 9.402-9.396 9.402Z"></path><path stroke="#fff" stroke-linecap="round" stroke-linejoin="round" stroke-miterlimit="10" stroke-width="2" d="M179.746 377.426h-40.193c-.98 0-1.774-.796-1.774-1.776v-37.249c0-.98.794-1.775 1.774-1.775h40.193c.981 0 1.775.795 1.775 1.775v37.249c0 .98-.794 1.776-1.775 1.776Z"></path><path stroke="#fff" stroke-linecap="round" stroke-linejoin="round" stroke-miterlimit="10" stroke-width="2" d="M174.683 357.025c0 8.307-6.729 15.04-15.031 15.04-8.301 0-15.032-6.733-15.032-15.04 0-8.305 6.731-15.039 15.032-15.039 8.302 0 15.031 6.734 15.031 15.039ZM127.595 370.583c-5.04-2.429-8.517-7.587-8.517-13.558 0-5.999 3.51-11.177 8.588-13.591"></path><path stroke="#fff" stroke-linecap="round" stroke-linejoin="round" stroke-miterlimit="10" stroke-width="2" d="M170.376 352.714c0 5.924-4.8 10.727-10.722 10.727-5.921 0-10.721-4.803-10.721-10.727M156.271 351.206v4.657M163.033 351.206v4.657"></path><path stroke="#fff" stroke-linejoin="round" stroke-width="2" d="M165.274 545.877c12.637 2.622 14.79 4.765 17.558 17.48 2.486-12.726 4.591-14.88 17.17-17.558-12.637-2.621-14.79-4.765-17.557-17.479-2.486 12.726-4.592 14.879-17.171 17.557ZM262.245 332.373c15.881 3.295 18.587 5.989 22.065 21.967 3.124-15.993 5.769-18.699 21.577-22.065-15.881-3.294-18.586-5.988-22.063-21.966-3.125 15.993-5.772 18.699-21.579 22.064Z"></path><path stroke="#fff" stroke-linecap="round" stroke-linejoin="round" stroke-miterlimit="10" stroke-width="2" d="m204.32 725.336-31.498-8.778c-3.72-1.036-5.903-4.86-4.877-8.541 1.026-3.681 4.872-5.824 8.591-4.788l31.498 8.778c3.719 1.036 5.902 4.861 4.877 8.541-1.026 3.681-4.873 5.825-8.591 4.788Z"></path><path stroke="#fff" stroke-linecap="round" stroke-linejoin="round" stroke-miterlimit="10" stroke-width="2" d="M192.285 707.619c-12.417-3.46-19.706-16.228-16.282-28.517l11.878-42.623c3.425-12.29 16.268-19.447 28.684-15.987 12.418 3.46 19.706 16.228 16.282 28.518l-11.878 42.622c-3.425 12.29-16.267 19.447-28.684 15.987Z"></path><path stroke="#fff" stroke-linecap="round" stroke-linejoin="round" stroke-miterlimit="10" stroke-width="2" d="M209.168 705.717c-1.285-.307-1.67-2.005-1.307-3.26s1.198-2.357 1.413-3.646c.38-2.273-1.633-4.649-3.959-4.672-1.761-.019-3.371 1.094-5.132 1.103-2.689.014-4.825-2.771-4.711-5.433.113-2.663 1.982-4.995 4.258-6.403 1.96-1.214 4.228-1.874 6.195-3.077 1.968-1.203 3.701-3.221 3.545-5.513-.153-2.246-2.028-4.004-2.702-6.157-1.019-3.252.909-6.734 3.435-9.022 2.525-2.288 5.661-3.842 8.157-6.162 3.954-3.675 6.025-9.246 5.429-14.604-.317-2.854-1.479-5.791-3.854-7.447-2.375-1.656-6.111-1.511-7.772.832-1.238 1.747-1.052 4.135-.396 6.176.657 2.042 1.729 3.958 2.145 6.06.637 3.201-.396 6.673-2.679 9.007-1.166 1.193-2.754 2.124-4.431 2.009-1.676-.115-3.302-1.59-3.115-3.244.259-2.285 3.263-3.095 4.494-5.037 1.069-1.687.512-4.101-1.015-5.412-1.525-1.311-3.788-1.577-5.701-.963-1.913.614-3.494 2.007-4.654 3.632-2.381 3.338-3.094 7.791-1.878 11.713.578 1.864 1.555 3.583 2.247 5.41.692 1.825 1.091 3.866.468 5.71-1.188 3.513-5.56 5.08-7.058 8.473-1.282 2.901-.12 6.255-.268 9.424-.14 2.978-1.518 5.875-3.744 7.87-2.226 1.994-5.272 3.063-8.277 2.903"></path><path stroke="#fff" stroke-linecap="round" stroke-linejoin="round" stroke-miterlimit="10" stroke-width="2" d="M223.078 684.063c-1.05.144-2.15.08-3.239-.223-4.232-1.18-6.717-5.532-5.55-9.721 1.168-4.19 5.546-6.629 9.778-5.45a8.013 8.013 0 0 1 2.817 1.428M214.641 688.546c-.453 1.626-2.152 2.573-3.795 2.115-1.644-.458-2.609-2.147-2.156-3.773.454-1.627 2.153-2.574 3.797-2.116 1.643.458 2.608 2.148 2.154 3.774ZM177.101 675.162a6.584 6.584 0 0 1 2.846.157c3.486.972 5.532 4.556 4.57 8.006-.961 3.45-4.566 5.459-8.052 4.488a6.666 6.666 0 0 1-1.146-.436M203.874 632.17a2.282 2.282 0 0 1-2.819 1.571 2.281 2.281 0 0 1-1.599-2.802c.337-1.207 1.598-1.91 2.818-1.571 1.22.341 1.936 1.595 1.6 2.802ZM237.523 715.524c-3.41-.95-7.015.573-8.67 3.663l-6.05 11.299 19.579 5.457.666-12.801c.182-3.5-2.116-6.668-5.525-7.618Z"></path><path stroke="#fff" stroke-linecap="round" stroke-linejoin="round" stroke-miterlimit="10" stroke-width="2" d="m237.523 715.524 2.385-8.558c1.227-4.404-1.386-8.979-5.835-10.219l-13.482-3.757M225.659 725.564l16.89 4.707M277.725 453.251l14.644-6.106M266.41 449.463l32.511-20.415M282.941 412.735l10.461-8.51M219.195 453.251l-14.644-6.106M230.511 449.463 198 429.048M213.981 412.737l-10.46-8.51M230.073 406.003l-9.407 16.538h18.814l-9.407-16.538ZM248.887 406.003l-9.407 16.538h18.815l-9.408-16.538Z"></path><path stroke="#fff" stroke-linecap="round" stroke-linejoin="round" stroke-miterlimit="10" stroke-width="2" d="m267.703 406.003-9.408 16.538h18.815l-9.407-16.538ZM248.888 449.463l-28.222-26.921h18.814l9.408 26.921Z"></path><path stroke="#fff" stroke-linecap="round" stroke-linejoin="round" stroke-miterlimit="10" stroke-width="2" d="m248.887 449.463-9.407-26.921h18.815l-9.408 26.921ZM248.888 449.463l9.407-26.921h18.815l-28.222 26.921ZM267.702 406.004h-37.63M105.195 433.466l-41.178-47.514M68.472 423.501l-50.241-39.276M90.796 440.954l-13.291-10.39M28.932 431.332l-11.854-4.777M74.958 449.88l-39.825-16.049M135.382 466.435a48.298 48.298 0 0 1 8.432 15.356c.979 2.957-.927 6.07-3.989 6.641-15.202 2.833-31.496-1.614-43.276-13.356a48.409 48.409 0 0 1-11.823-19.102c-.98-2.958.925-6.07 3.988-6.641a48.893 48.893 0 0 1 17.268-.116"></path><path stroke="#fff" stroke-linecap="round" stroke-linejoin="round" stroke-miterlimit="10" stroke-width="2" d="M92.823 470.813c10.25 1.41 20.435 6.166 28.261 14.104a49.248 49.248 0 0 1 3.416 3.848M129.844 477.166a3.703 3.703 0 1 0 5.246 5.229 3.703 3.703 0 0 0-5.246-5.229ZM93.325 455.967a3.703 3.703 0 1 0 5.246 5.229 3.703 3.703 0 0 0-5.246-5.229ZM105.499 463.033a3.703 3.703 0 1 0 5.246 5.229 3.703 3.703 0 0 0-5.246-5.229ZM117.676 470.1a3.703 3.703 0 1 0 5.246 5.229 3.703 3.703 0 0 0-5.246-5.229ZM105.938 449.211l29.449 17.233 4.467-14.225a14.784 14.784 0 0 0-25.788-13.489l-8.128 10.481ZM121.708 419.966a4.488 4.488 0 0 0 1.325 6.206 4.486 4.486 0 1 0-1.325-6.206Z"></path><path stroke="#fff" stroke-linecap="round" stroke-linejoin="round" stroke-miterlimit="10" stroke-width="2" d="M130.018 433.478c.551-2.581-.176-5.402-1.903-7.397"></path><path fill="#fff" d="m112.623 453.151-10.951-4.488 4.267.547 6.684 3.941Z"></path><path stroke="#fff" stroke-width="2" d="m270.433 613.287-.72.517.09-.882 2.56-24.919.024-.236.22-.091 7.249-3.017.19-.08.175.11 21.414 13.401.755.473-.856.249-10.362 3.009.576 17.599.034 1.043-.722-.754-12.039-12.58-8.588 6.158Z"></path><path stroke="#fff" stroke-linecap="round" stroke-linejoin="round" stroke-miterlimit="10" stroke-width="2" d="m272.187 591.016 10.924 10.205-.408-14.83M239.35 493.602c-1.917-2.279-5.627-.734-5.36 2.232l1.546 17.102a26.796 26.796 0 0 0 2.206 7.905l28.734 63.378 16.633-7.349-28.507-63.579a26.815 26.815 0 0 0-4.724-7.175l-10.528-12.514Z"></path><path stroke="#fff" stroke-linecap="round" stroke-linejoin="round" stroke-miterlimit="10" stroke-width="2" d="m242.608 497.392 17.093 5.832 3.49 8.382-7.808 3.163M234.365 500.251l-7.155 15.35 4.495 10.008 6.804-2.897M241.448 528.987l16.661-7.534M277.115 563.579l-16.547 7.436M268.673 544.72l14.691 9.807 8.245 18.639-8.499 3.7M252.321 553.076l-3.466 14.572 9.252 20.14 8.367-3.573"></path><path stroke="#fff" stroke-linecap="round" stroke-linejoin="round" stroke-width="2" d="m47.286 347.779 2.433-11.984-9.73-3.595 17.027-17.974-2.432 11.983 9.73 3.595-17.028 17.975Z"></path><path fill="#fff" d="M118.33 283.041c1.741.068 3.313.689 4.154 1.53a.999.999 0 1 0 1.414-1.414c-1.297-1.298-3.409-2.033-5.49-2.114-2.095-.082-4.382.492-5.984 2.094a1 1 0 0 0 1.415 1.414c1.091-1.091 2.764-1.577 4.491-1.51Z"></path><path fill="#fff" fill-rule="evenodd" d="M109.694 299.161a12.947 12.947 0 0 0 8.384 3.065c7.18 0 13-5.821 13-13 0-7.18-5.82-13-13-13s-13 5.82-13 13c0 3.194 1.153 6.12 3.065 8.384l-2.209-.384-10.284 10.283c-.763.763-.763 2 0 2.763l1.382 1.381c.763.763 2 .763 2.762 0l10.284-10.283-.384-2.209Zm-2.616-9.935c0 6.075 4.925 11 11 11s11-4.925 11-11c0-6.076-4.925-11-11-11s-11 4.924-11 11Zm-7.249 16.933 6.785-6.785 1.121.195.195 1.121-6.805 6.804-1.296-1.335Zm-.118 2.75-1.298 1.297-1.316-1.315 1.318-1.318 1.296 1.336Z" clip-rule="evenodd"></path><path stroke="#fff" stroke-linecap="round" stroke-linejoin="round" stroke-miterlimit="10" stroke-width="2" d="M747.651 696.226h-31.303c-3.011 0-5.11-2.999-4.085-5.839L721 668.726h23l7.737 21.661c1.025 2.84-1.074 5.839-4.086 5.839ZM779.998 668.702h-94.295c-6.463 0-11.703-5.23-11.703-11.682V536.815c0-6.451 5.24-11.681 11.703-11.681h94.295c6.464 0 11.703 5.23 11.703 11.681V657.02c0 6.452-5.239 11.682-11.703 11.682Z"></path><path stroke="#fff" stroke-linecap="round" stroke-linejoin="round" stroke-miterlimit="10" stroke-width="2" d="M779 656.226h-94v-119h94v119Z"></path><path stroke="#fff" stroke-linecap="round" stroke-linejoin="round" stroke-miterlimit="10" stroke-width="2" d="M708.903 648.917h-5.953a2.893 2.893 0 0 1-2.896-2.89v-5.943a2.893 2.893 0 0 1 2.896-2.89h5.953a2.893 2.893 0 0 1 2.896 2.89v5.943a2.893 2.893 0 0 1-2.896 2.89ZM762.753 648.917h-5.954a2.892 2.892 0 0 1-2.895-2.89v-5.943a2.892 2.892 0 0 1 2.895-2.89h5.954a2.892 2.892 0 0 1 2.895 2.89v5.943a2.892 2.892 0 0 1-2.895 2.89ZM726.733 648.917h-5.954a2.892 2.892 0 0 1-2.895-2.89v-5.943a2.892 2.892 0 0 1 2.895-2.89h5.954a2.893 2.893 0 0 1 2.895 2.89v5.943a2.893 2.893 0 0 1-2.895 2.89ZM744.743 648.917h-5.953a2.893 2.893 0 0 1-2.896-2.89v-5.943a2.893 2.893 0 0 1 2.896-2.89h5.953a2.892 2.892 0 0 1 2.895 2.89v5.943a2.892 2.892 0 0 1-2.895 2.89ZM748.257 525.134H717.07l10.492-16.819h10.202l10.493 16.819ZM762.007 599.502c0 16.673-13.541 30.189-30.244 30.189-16.704 0-30.245-13.516-30.245-30.189 0-16.674 13.541-30.19 30.245-30.19 16.703 0 30.244 13.516 30.244 30.19ZM742.407 552.523c0 3.615-2.935 6.544-6.557 6.544-3.62 0-6.556-2.929-6.556-6.544 0-3.614 2.936-6.545 6.556-6.545 3.622 0 6.557 2.931 6.557 6.545Z"></path><path stroke="#fff" stroke-linecap="round" stroke-linejoin="round" stroke-miterlimit="10" stroke-width="2" d="M731.928 569.156c-1.452-3.395-.798-7.59 1.618-10.384M739.632 570.367s6.296-6.715 15.61-6.952a2.927 2.927 0 0 1 2.87 2.091c.916 3.078 1.984 9.42-1.109 17.438M723.893 570.367s-6.296-6.715-15.61-6.952a2.926 2.926 0 0 0-2.87 2.091c-.916 3.078-1.984 9.42 1.109 17.438M701.633 602.133l20.232-22.458 9.826 9.38M761.749 602.133l-20.232-22.458-9.826 9.38"></path><path fill="#fff" d="M722.88 598.299c0 2.807-1.345 5.083-3.005 5.083-1.659 0-3.004-2.276-3.004-5.083 0-2.807 1.345-5.082 3.004-5.082 1.66 0 3.005 2.275 3.005 5.082ZM746.653 598.299c0 2.807-1.344 5.083-3.004 5.083-1.659 0-3.004-2.276-3.004-5.083 0-2.807 1.345-5.082 3.004-5.082 1.66 0 3.004 2.275 3.004 5.082Z"></path><path stroke="#fff" stroke-linecap="round" stroke-linejoin="round" stroke-miterlimit="10" stroke-width="2" d="M722.879 605.723c1.762 3.347 5.078 5.604 8.883 5.604 3.805 0 7.121-2.257 8.883-5.604M751.928 621.999a9.408 9.408 0 0 1-3.472-7.306c0-5.209 4.23-9.431 9.448-9.431 1.206 0 2.36.226 3.421.637M711.568 621.999a9.406 9.406 0 0 0 3.473-7.306c0-5.209-4.23-9.431-9.448-9.431-1.207 0-2.36.226-3.421.637"></path><path fill="#fff" d="M697.841 546.937a2.126 2.126 0 0 1-2.128 2.125 2.127 2.127 0 0 1-2.128-2.125c0-1.173.953-2.125 2.128-2.125 1.176 0 2.128.952 2.128 2.125Z"></path><path stroke="#fff" stroke-linecap="round" stroke-linejoin="round" stroke-miterlimit="10" stroke-width="2" d="M846.216 386.847h-45.129c-5.189 0-9.396-4.21-9.396-9.402v-40.819c0-5.192 4.207-9.401 9.396-9.401h45.129c5.189 0 9.396 4.209 9.396 9.401v40.819c0 5.192-4.207 9.402-9.396 9.402Z"></path><path stroke="#fff" stroke-linecap="round" stroke-linejoin="round" stroke-miterlimit="10" stroke-width="2" d="M843.746 377.426h-40.193c-.98 0-1.774-.796-1.774-1.776v-37.249c0-.98.794-1.775 1.774-1.775h40.193c.981 0 1.775.795 1.775 1.775v37.249c0 .98-.794 1.776-1.775 1.776Z"></path><path stroke="#fff" stroke-linecap="round" stroke-linejoin="round" stroke-miterlimit="10" stroke-width="2" d="M838.683 357.025c0 8.307-6.729 15.04-15.031 15.04-8.301 0-15.032-6.733-15.032-15.04 0-8.305 6.731-15.039 15.032-15.039 8.302 0 15.031 6.734 15.031 15.039ZM791.595 370.583c-5.04-2.429-8.517-7.587-8.517-13.558 0-5.999 3.51-11.177 8.588-13.591"></path><path stroke="#fff" stroke-linecap="round" stroke-linejoin="round" stroke-miterlimit="10" stroke-width="2" d="M834.376 352.714c0 5.924-4.8 10.727-10.722 10.727-5.921 0-10.721-4.803-10.721-10.727M820.271 351.206v4.657M827.033 351.206v4.657"></path><path stroke="#fff" stroke-linejoin="round" stroke-width="2" d="M829.274 545.877c12.637 2.622 14.79 4.765 17.558 17.48 2.486-12.726 4.591-14.88 17.17-17.558-12.637-2.621-14.79-4.765-17.557-17.479-2.486 12.726-4.592 14.879-17.171 17.557ZM926.245 332.373c15.881 3.295 18.587 5.989 22.065 21.967 3.124-15.993 5.769-18.699 21.577-22.065-15.881-3.294-18.586-5.988-22.063-21.966-3.125 15.993-5.772 18.699-21.579 22.064Z"></path><path stroke="#fff" stroke-linecap="round" stroke-linejoin="round" stroke-miterlimit="10" stroke-width="2" d="m868.32 725.336-31.498-8.778c-3.72-1.036-5.903-4.86-4.877-8.541 1.026-3.681 4.872-5.824 8.591-4.788l31.498 8.778c3.719 1.036 5.902 4.861 4.877 8.541-1.026 3.681-4.873 5.825-8.591 4.788Z"></path><path stroke="#fff" stroke-linecap="round" stroke-linejoin="round" stroke-miterlimit="10" stroke-width="2" d="M856.285 707.619c-12.417-3.46-19.707-16.228-16.282-28.517l11.878-42.623c3.425-12.29 16.267-19.447 28.684-15.987 12.418 3.46 19.706 16.228 16.282 28.518l-11.879 42.622c-3.424 12.29-16.266 19.447-28.683 15.987Z"></path><path stroke="#fff" stroke-linecap="round" stroke-linejoin="round" stroke-miterlimit="10" stroke-width="2" d="M873.168 705.717c-1.285-.307-1.67-2.005-1.307-3.26s1.198-2.357 1.413-3.646c.38-2.273-1.633-4.649-3.959-4.672-1.761-.019-3.371 1.094-5.132 1.103-2.689.014-4.825-2.771-4.711-5.433.113-2.663 1.982-4.995 4.258-6.403 1.96-1.214 4.228-1.874 6.195-3.077 1.968-1.203 3.701-3.221 3.545-5.513-.153-2.246-2.028-4.004-2.702-6.157-1.019-3.252.909-6.734 3.435-9.022 2.525-2.288 5.661-3.842 8.157-6.162 3.954-3.675 6.025-9.246 5.429-14.604-.317-2.854-1.479-5.791-3.854-7.447-2.375-1.656-6.111-1.511-7.772.832-1.238 1.747-1.052 4.135-.396 6.176.657 2.042 1.729 3.958 2.145 6.06.637 3.201-.396 6.673-2.679 9.007-1.166 1.193-2.754 2.124-4.431 2.009-1.676-.115-3.302-1.59-3.115-3.244.259-2.285 3.263-3.095 4.494-5.037 1.069-1.687.512-4.101-1.015-5.412-1.525-1.311-3.788-1.577-5.701-.963-1.913.614-3.494 2.007-4.654 3.632-2.381 3.338-3.094 7.791-1.878 11.713.578 1.864 1.555 3.583 2.247 5.41.692 1.825 1.091 3.866.468 5.71-1.188 3.513-5.56 5.08-7.058 8.473-1.282 2.901-.12 6.255-.268 9.424-.14 2.978-1.518 5.875-3.744 7.87-2.226 1.994-5.272 3.063-8.277 2.903"></path><path stroke="#fff" stroke-linecap="round" stroke-linejoin="round" stroke-miterlimit="10" stroke-width="2" d="M887.078 684.063c-1.05.144-2.15.08-3.239-.223-4.232-1.18-6.717-5.532-5.55-9.721 1.168-4.19 5.546-6.629 9.778-5.45a8.013 8.013 0 0 1 2.817 1.428M878.641 688.546c-.453 1.626-2.152 2.573-3.795 2.115-1.644-.458-2.609-2.147-2.156-3.773.454-1.627 2.153-2.574 3.797-2.116 1.643.458 2.608 2.148 2.154 3.774ZM841.101 675.162a6.584 6.584 0 0 1 2.846.157c3.486.972 5.532 4.556 4.57 8.006-.961 3.45-4.566 5.459-8.052 4.488a6.666 6.666 0 0 1-1.146-.436M867.874 632.17a2.282 2.282 0 0 1-2.819 1.571 2.281 2.281 0 0 1-1.599-2.802c.337-1.207 1.598-1.91 2.818-1.571 1.22.341 1.936 1.595 1.6 2.802ZM901.523 715.524c-3.41-.95-7.015.573-8.67 3.663l-6.05 11.299 19.579 5.457.666-12.801c.182-3.5-2.116-6.668-5.525-7.618Z"></path><path stroke="#fff" stroke-linecap="round" stroke-linejoin="round" stroke-miterlimit="10" stroke-width="2" d="m901.523 715.524 2.385-8.558c1.227-4.404-1.386-8.979-5.835-10.219l-13.482-3.757M889.659 725.564l16.89 4.707M941.725 453.251l14.644-6.106M930.41 449.463l32.511-20.415M946.941 412.735l10.461-8.51M883.195 453.251l-14.644-6.106M894.511 449.463 862 429.048M877.981 412.737l-10.46-8.51M894.073 406.003l-9.407 16.538h18.814l-9.407-16.538ZM912.887 406.003l-9.407 16.538h18.815l-9.408-16.538ZM931.703 406.003l-9.408 16.538h18.815l-9.407-16.538ZM912.888 449.463l-28.222-26.921h18.814l9.408 26.921Z"></path><path stroke="#fff" stroke-linecap="round" stroke-linejoin="round" stroke-miterlimit="10" stroke-width="2" d="m912.887 449.463-9.407-26.921h18.815l-9.408 26.921ZM912.888 449.463l9.407-26.921h18.815l-28.222 26.921ZM931.702 406.004h-37.63M769.195 433.466l-41.178-47.514M732.472 423.501l-50.241-39.276M754.796 440.954l-13.291-10.39M692.932 431.332l-11.854-4.777M738.958 449.88l-39.825-16.049M799.382 466.435a48.298 48.298 0 0 1 8.432 15.356c.979 2.957-.927 6.07-3.989 6.641-15.202 2.833-31.496-1.614-43.276-13.356a48.398 48.398 0 0 1-11.823-19.102c-.98-2.958.926-6.07 3.988-6.641a48.894 48.894 0 0 1 17.268-.116"></path><path stroke="#fff" stroke-linecap="round" stroke-linejoin="round" stroke-miterlimit="10" stroke-width="2" d="M756.825 470.814c10.25 1.41 20.435 6.166 28.261 14.104a49.248 49.248 0 0 1 3.416 3.848M793.843 477.167a3.703 3.703 0 1 0 5.246 5.229 3.703 3.703 0 0 0-5.246-5.229ZM757.327 455.968a3.703 3.703 0 1 0 5.246 5.229 3.703 3.703 0 0 0-5.246-5.229ZM769.499 463.034a3.703 3.703 0 1 0 5.246 5.229 3.703 3.703 0 0 0-5.246-5.229ZM781.675 470.101a3.703 3.703 0 1 0 5.246 5.229 3.703 3.703 0 0 0-5.246-5.229ZM769.938 449.212l29.449 17.233 4.467-14.225a14.785 14.785 0 0 0-25.788-13.489l-8.128 10.481ZM785.707 419.967a4.488 4.488 0 0 0 1.325 6.206 4.488 4.488 0 0 0 4.881-7.531 4.487 4.487 0 0 0-6.206 1.325Z"></path><path stroke="#fff" stroke-linecap="round" stroke-linejoin="round" stroke-miterlimit="10" stroke-width="2" d="M794.017 433.479c.551-2.581-.175-5.402-1.903-7.397"></path><path fill="#fff" d="m776.623 453.152-10.951-4.488 4.267.547 6.684 3.941Z"></path><path stroke="#fff" stroke-width="2" d="m934.433 613.287-.72.517.09-.882 2.56-24.919.024-.236.22-.091 7.249-3.017.19-.08.175.11 21.414 13.401.755.473-.856.249-10.362 3.009.576 17.599.034 1.043-.722-.754-12.039-12.58-8.588 6.158Z"></path><path stroke="#fff" stroke-linecap="round" stroke-linejoin="round" stroke-miterlimit="10" stroke-width="2" d="m936.187 591.016 10.924 10.205-.408-14.83M903.35 493.602c-1.917-2.279-5.627-.734-5.36 2.232l1.546 17.102a26.796 26.796 0 0 0 2.206 7.905l28.734 63.378 16.633-7.349-28.507-63.579a26.815 26.815 0 0 0-4.724-7.175l-10.528-12.514Z"></path><path stroke="#fff" stroke-linecap="round" stroke-linejoin="round" stroke-miterlimit="10" stroke-width="2" d="m906.608 497.392 17.093 5.832 3.49 8.382-7.808 3.163M898.365 500.251l-7.155 15.35 4.495 10.008 6.804-2.897M905.448 528.987l16.661-7.534M941.115 563.579l-16.547 7.436M932.673 544.72l14.691 9.807 8.245 18.639-8.499 3.7M916.321 553.076l-3.466 14.572 9.252 20.14 8.367-3.573"></path><path stroke="#fff" stroke-linecap="round" stroke-linejoin="round" stroke-width="2" d="m711.286 347.779 2.433-11.984-9.731-3.595 17.028-17.974-2.432 11.983 9.73 3.595-17.028 17.975Z"></path><path fill="#fff" d="M782.33 283.041c1.741.068 3.313.689 4.154 1.53a.999.999 0 1 0 1.414-1.414c-1.297-1.298-3.409-2.033-5.49-2.114-2.095-.082-4.382.492-5.984 2.094a1 1 0 0 0 1.415 1.414c1.091-1.091 2.764-1.577 4.491-1.51Z"></path><path fill="#fff" fill-rule="evenodd" d="M773.694 299.161a12.947 12.947 0 0 0 8.384 3.065c7.18 0 13-5.821 13-13 0-7.18-5.82-13-13-13s-13 5.82-13 13c0 3.194 1.153 6.12 3.065 8.384l-2.209-.384-10.284 10.283c-.763.763-.763 2 0 2.763l1.382 1.381c.763.763 2 .763 2.762 0l10.284-10.283-.384-2.209Zm-2.616-9.935c0 6.075 4.925 11 11 11s11-4.925 11-11c0-6.076-4.925-11-11-11s-11 4.924-11 11Zm-7.249 16.933 6.785-6.785 1.121.195.195 1.121-6.805 6.804-1.296-1.335Zm-.118 2.75-1.298 1.297-1.316-1.315 1.318-1.318 1.296 1.336Z" clip-rule="evenodd"></path><path stroke="#fff" stroke-linecap="round" stroke-linejoin="round" stroke-miterlimit="10" stroke-width="2" d="M1411.65 696.226h-31.3c-3.01 0-5.11-2.999-4.09-5.839l8.74-21.661h23l7.74 21.661c1.02 2.84-1.08 5.839-4.09 5.839ZM1444 668.702h-94.3c-6.46 0-11.7-5.23-11.7-11.682V536.815c0-6.451 5.24-11.681 11.7-11.681h94.3c6.46 0 11.7 5.23 11.7 11.681V657.02c0 6.452-5.24 11.682-11.7 11.682Z"></path><path stroke="#fff" stroke-linecap="round" stroke-linejoin="round" stroke-miterlimit="10" stroke-width="2" d="M1443 656.226h-94v-119h94v119Z"></path><path stroke="#fff" stroke-linecap="round" stroke-linejoin="round" stroke-miterlimit="10" stroke-width="2" d="M1372.9 648.917h-5.95c-1.6 0-2.9-1.294-2.9-2.89v-5.943c0-1.596 1.3-2.89 2.9-2.89h5.95c1.6 0 2.9 1.294 2.9 2.89v5.943c0 1.596-1.3 2.89-2.9 2.89ZM1426.75 648.917h-5.95c-1.6 0-2.9-1.294-2.9-2.89v-5.943c0-1.596 1.3-2.89 2.9-2.89h5.95c1.6 0 2.9 1.294 2.9 2.89v5.943c0 1.596-1.3 2.89-2.9 2.89ZM1390.73 648.917h-5.95c-1.6 0-2.9-1.294-2.9-2.89v-5.943c0-1.596 1.3-2.89 2.9-2.89h5.95c1.6 0 2.9 1.294 2.9 2.89v5.943c0 1.596-1.3 2.89-2.9 2.89ZM1408.74 648.917h-5.95c-1.6 0-2.9-1.294-2.9-2.89v-5.943c0-1.596 1.3-2.89 2.9-2.89h5.95c1.6 0 2.9 1.294 2.9 2.89v5.943c0 1.596-1.3 2.89-2.9 2.89ZM1412.26 525.134h-31.19l10.49-16.819h10.2l10.5 16.819ZM1426.01 599.502c0 16.673-13.54 30.189-30.25 30.189-16.7 0-30.24-13.516-30.24-30.189 0-16.674 13.54-30.19 30.24-30.19 16.71 0 30.25 13.516 30.25 30.19ZM1406.41 552.523c0 3.615-2.94 6.544-6.56 6.544-3.62 0-6.56-2.929-6.56-6.544 0-3.614 2.94-6.545 6.56-6.545 3.62 0 6.56 2.931 6.56 6.545Z"></path><path stroke="#fff" stroke-linecap="round" stroke-linejoin="round" stroke-miterlimit="10" stroke-width="2" d="M1395.93 569.156c-1.45-3.395-.8-7.59 1.62-10.384M1403.63 570.367s6.3-6.715 15.61-6.952a2.92 2.92 0 0 1 2.87 2.091c.92 3.078 1.99 9.42-1.11 17.438M1387.89 570.367s-6.29-6.715-15.61-6.952a2.936 2.936 0 0 0-2.87 2.091c-.91 3.078-1.98 9.42 1.11 17.438M1365.63 602.133l20.24-22.458 9.82 9.38M1425.75 602.133l-20.23-22.458-9.83 9.38"></path><path fill="#fff" d="M1386.88 598.299c0 2.807-1.34 5.083-3 5.083s-3.01-2.276-3.01-5.083c0-2.807 1.35-5.082 3.01-5.082 1.66 0 3 2.275 3 5.082ZM1410.65 598.299c0 2.807-1.34 5.083-3 5.083s-3.01-2.276-3.01-5.083c0-2.807 1.35-5.082 3.01-5.082 1.66 0 3 2.275 3 5.082Z"></path><path stroke="#fff" stroke-linecap="round" stroke-linejoin="round" stroke-miterlimit="10" stroke-width="2" d="M1386.88 605.723c1.76 3.347 5.08 5.604 8.88 5.604 3.81 0 7.12-2.257 8.88-5.604M1415.93 621.999a9.404 9.404 0 0 1-3.47-7.306c0-5.209 4.23-9.431 9.44-9.431 1.21 0 2.36.226 3.42.637M1375.57 621.999a9.404 9.404 0 0 0 3.47-7.306c0-5.209-4.23-9.431-9.45-9.431-1.2 0-2.36.226-3.42.637"></path><path fill="#fff" d="M1361.84 546.937c0 1.173-.95 2.125-2.13 2.125-1.17 0-2.13-.952-2.13-2.125s.96-2.125 2.13-2.125c1.18 0 2.13.952 2.13 2.125Z"></path><path stroke="#fff" stroke-linecap="round" stroke-linejoin="round" stroke-miterlimit="10" stroke-width="2" d="M1510.22 386.847h-45.13c-5.19 0-9.4-4.21-9.4-9.402v-40.819c0-5.192 4.21-9.401 9.4-9.401h45.13c5.19 0 9.39 4.209 9.39 9.401v40.819c0 5.192-4.2 9.402-9.39 9.402Z"></path><path stroke="#fff" stroke-linecap="round" stroke-linejoin="round" stroke-miterlimit="10" stroke-width="2" d="M1507.75 377.426h-40.2c-.98 0-1.77-.796-1.77-1.776v-37.249c0-.98.79-1.775 1.77-1.775h40.2c.98 0 1.77.795 1.77 1.775v37.249c0 .98-.79 1.776-1.77 1.776Z"></path><path stroke="#fff" stroke-linecap="round" stroke-linejoin="round" stroke-miterlimit="10" stroke-width="2" d="M1502.68 357.025c0 8.307-6.73 15.04-15.03 15.04-8.3 0-15.03-6.733-15.03-15.04 0-8.305 6.73-15.039 15.03-15.039 8.3 0 15.03 6.734 15.03 15.039ZM1455.59 370.583c-5.03-2.429-8.51-7.587-8.51-13.558 0-5.999 3.51-11.177 8.59-13.591"></path><path stroke="#fff" stroke-linecap="round" stroke-linejoin="round" stroke-miterlimit="10" stroke-width="2" d="M1498.38 352.714c0 5.924-4.8 10.727-10.73 10.727-5.92 0-10.72-4.803-10.72-10.727M1484.27 351.206v4.657M1491.03 351.206v4.657"></path><path stroke="#fff" stroke-linejoin="round" stroke-width="2" d="M1493.27 545.877c12.64 2.622 14.79 4.765 17.56 17.48 2.49-12.726 4.59-14.88 17.17-17.558-12.64-2.621-14.79-4.765-17.55-17.479-2.49 12.726-4.6 14.879-17.18 17.557Z"></path><path stroke="#fff" stroke-linecap="round" stroke-linejoin="round" stroke-miterlimit="10" stroke-width="2" d="m1532.32 725.336-31.5-8.778c-3.72-1.036-5.9-4.86-4.88-8.541 1.03-3.681 4.88-5.824 8.6-4.788l31.49 8.778c3.72 1.036 5.91 4.861 4.88 8.541-1.03 3.681-4.87 5.825-8.59 4.788Z"></path><path stroke="#fff" stroke-linecap="round" stroke-linejoin="round" stroke-miterlimit="10" stroke-width="2" d="M1520.28 707.619c-12.41-3.46-19.7-16.228-16.28-28.517l11.88-42.623c3.43-12.29 16.27-19.447 28.69-15.987 12.41 3.46 19.7 16.228 16.28 28.518l-11.88 42.622c-3.43 12.29-16.27 19.447-28.69 15.987Z"></path><path stroke="#fff" stroke-linecap="round" stroke-linejoin="round" stroke-miterlimit="10" stroke-width="2" d="M1537.17 705.717c-1.29-.307-1.67-2.005-1.31-3.26.36-1.255 1.2-2.357 1.41-3.646.38-2.273-1.63-4.649-3.95-4.672-1.77-.019-3.38 1.094-5.14 1.103-2.69.014-4.82-2.771-4.71-5.433.12-2.663 1.98-4.995 4.26-6.403 1.96-1.214 4.23-1.874 6.2-3.077 1.96-1.203 3.7-3.221 3.54-5.513-.15-2.246-2.03-4.004-2.7-6.157-1.02-3.252.91-6.734 3.43-9.022 2.53-2.288 5.66-3.842 8.16-6.162 3.95-3.675 6.03-9.246 5.43-14.604-.32-2.854-1.48-5.791-3.85-7.447-2.38-1.656-6.12-1.511-7.78.832-1.24 1.747-1.05 4.135-.39 6.176.65 2.042 1.73 3.958 2.14 6.06.64 3.201-.39 6.673-2.68 9.007-1.16 1.193-2.75 2.124-4.43 2.009-1.67-.115-3.3-1.59-3.11-3.244.26-2.285 3.26-3.095 4.49-5.037 1.07-1.687.51-4.101-1.01-5.412-1.53-1.311-3.79-1.577-5.7-.963-1.92.614-3.5 2.007-4.66 3.632-2.38 3.338-3.09 7.791-1.88 11.713.58 1.864 1.56 3.583 2.25 5.41.69 1.825 1.09 3.866.47 5.71-1.19 3.513-5.56 5.08-7.06 8.473-1.28 2.901-.12 6.255-.27 9.424-.14 2.978-1.52 5.875-3.74 7.87-2.23 1.994-5.27 3.063-8.28 2.903"></path><path stroke="#fff" stroke-linecap="round" stroke-linejoin="round" stroke-miterlimit="10" stroke-width="2" d="M1505.1 675.162c.92-.152 1.89-.11 2.85.157 3.48.972 5.53 4.556 4.57 8.006s-4.57 5.459-8.05 4.488a6.436 6.436 0 0 1-1.15-.436M1433.2 433.466l-41.18-47.514M1396.47 423.501l-50.24-39.276M1418.8 440.954l-13.29-10.39M1356.93 431.332l-11.85-4.777M1402.96 449.88l-39.83-16.049M1463.38 466.435a48.214 48.214 0 0 1 8.43 15.356c.98 2.957-.92 6.07-3.98 6.641-15.21 2.833-31.5-1.614-43.28-13.356a48.334 48.334 0 0 1-11.82-19.102c-.98-2.958.92-6.07 3.98-6.641a48.908 48.908 0 0 1 17.27-.116"></path><path stroke="#fff" stroke-linecap="round" stroke-linejoin="round" stroke-miterlimit="10" stroke-width="2" d="M1420.82 470.814c10.26 1.41 20.44 6.166 28.27 14.104a51.08 51.08 0 0 1 3.41 3.848M1457.84 477.167a3.705 3.705 0 0 0 5.25 5.229 3.705 3.705 0 0 0-5.25-5.229ZM1421.33 455.968a3.696 3.696 0 0 0 .01 5.237 3.694 3.694 0 0 0 5.23-.009 3.696 3.696 0 0 0-.01-5.237 3.694 3.694 0 0 0-5.23.009ZM1433.5 463.034a3.705 3.705 0 0 0 .01 5.237 3.695 3.695 0 0 0 5.23-.008 3.705 3.705 0 0 0 0-5.237 3.706 3.706 0 0 0-5.24.008ZM1445.67 470.101a3.714 3.714 0 0 0 .01 5.237 3.707 3.707 0 0 0 5.24-.009 3.705 3.705 0 0 0-5.25-5.228ZM1433.94 449.212l29.45 17.233 4.46-14.225a14.78 14.78 0 0 0-25.78-13.489l-8.13 10.481ZM1449.71 419.967a4.484 4.484 0 0 0 1.32 6.206 4.494 4.494 0 0 0 6.21-1.326 4.485 4.485 0 0 0-1.33-6.205 4.479 4.479 0 0 0-6.2 1.325Z"></path><path stroke="#fff" stroke-linecap="round" stroke-linejoin="round" stroke-miterlimit="10" stroke-width="2" d="M1458.02 433.479c.55-2.581-.18-5.402-1.91-7.397"></path><path fill="#fff" d="m1440.62 453.152-10.95-4.488 4.27.547 6.68 3.941Z"></path><path stroke="#fff" stroke-linecap="round" stroke-linejoin="round" stroke-width="2" d="m1375.29 347.779 2.43-11.984-9.73-3.595 17.03-17.974-2.44 11.983 9.73 3.595-17.02 17.975Z"></path><path fill="#fff" d="M1446.33 283.041c1.74.068 3.31.689 4.15 1.53.39.391 1.03.391 1.42 0a1 1 0 0 0 0-1.414c-1.3-1.298-3.41-2.033-5.49-2.114-2.1-.082-4.38.492-5.99 2.094a1 1 0 0 0 0 1.414c.4.39 1.03.39 1.42 0 1.09-1.091 2.76-1.577 4.49-1.51Z"></path><path fill="#fff" fill-rule="evenodd" d="M1437.69 299.161a12.967 12.967 0 0 0 8.39 3.065c7.18 0 13-5.821 13-13 0-7.18-5.82-13-13-13s-13 5.82-13 13c0 3.194 1.15 6.12 3.06 8.384l-2.21-.384-10.28 10.283c-.76.763-.76 2 0 2.763l1.38 1.381c.76.763 2 .763 2.76 0l10.29-10.283-.39-2.209Zm-2.61-9.935c0 6.075 4.92 11 11 11 6.07 0 11-4.925 11-11 0-6.076-4.93-11-11-11-6.08 0-11 4.924-11 11Zm-7.25 16.933 6.78-6.785 1.12.195.2 1.121-6.8 6.804-1.3-1.335Zm-.12 2.75-1.3 1.297-1.31-1.315 1.32-1.318 1.29 1.336Z" clip-rule="evenodd"></path><path stroke="#fff" stroke-linecap="round" stroke-linejoin="round" stroke-miterlimit="10" stroke-width="2" d="M414.651 112.226h-31.303c-3.011 0-5.11-2.999-4.085-5.839L388 84.726h23l7.737 21.661c1.025 2.84-1.074 5.839-4.086 5.839ZM446.998 84.702h-94.295c-6.463 0-11.703-5.23-11.703-11.682V-47.184c0-6.452 5.24-11.682 11.703-11.682h94.295c6.464 0 11.703 5.23 11.703 11.681V73.02c0 6.452-5.239 11.682-11.703 11.682Z"></path><path stroke="#fff" stroke-linecap="round" stroke-linejoin="round" stroke-miterlimit="10" stroke-width="2" d="M446 72.226h-94v-119h94v119Z"></path><path stroke="#fff" stroke-linecap="round" stroke-linejoin="round" stroke-miterlimit="10" stroke-width="2" d="M375.903 64.917h-5.953a2.894 2.894 0 0 1-2.896-2.89v-5.943a2.894 2.894 0 0 1 2.896-2.89h5.953a2.894 2.894 0 0 1 2.896 2.89v5.943a2.894 2.894 0 0 1-2.896 2.89ZM429.753 64.917h-5.954a2.893 2.893 0 0 1-2.895-2.89v-5.943a2.893 2.893 0 0 1 2.895-2.89h5.954a2.893 2.893 0 0 1 2.895 2.89v5.943a2.893 2.893 0 0 1-2.895 2.89ZM393.733 64.917h-5.954a2.893 2.893 0 0 1-2.895-2.89v-5.943a2.893 2.893 0 0 1 2.895-2.89h5.954a2.893 2.893 0 0 1 2.895 2.89v5.943a2.893 2.893 0 0 1-2.895 2.89ZM411.743 64.917h-5.953a2.893 2.893 0 0 1-2.896-2.89v-5.943a2.893 2.893 0 0 1 2.896-2.89h5.953a2.893 2.893 0 0 1 2.895 2.89v5.943a2.893 2.893 0 0 1-2.895 2.89ZM429.007 15.502c0 16.673-13.541 30.19-30.244 30.19-16.704 0-30.245-13.517-30.245-30.19 0-16.674 13.541-30.19 30.245-30.19 16.703 0 30.244 13.516 30.244 30.19Z"></path><path stroke="#fff" stroke-linecap="round" stroke-linejoin="round" stroke-miterlimit="10" stroke-width="2" d="M406.632-13.633s6.296-6.715 15.61-6.952a2.928 2.928 0 0 1 2.87 2.091c.916 3.078 1.984 9.42-1.109 17.438M390.893-13.633s-6.296-6.715-15.61-6.952a2.927 2.927 0 0 0-2.87 2.091c-.916 3.078-1.984 9.42 1.109 17.438M368.633 18.133l20.232-22.458 9.826 9.38"></path><path stroke="#fff" stroke-linecap="round" stroke-linejoin="round" stroke-miterlimit="10" stroke-width="2" d="M428.749 18.133 408.517-4.325l-9.826 9.38"></path><path fill="#fff" d="M389.88 14.3c0 2.806-1.345 5.082-3.005 5.082-1.659 0-3.004-2.276-3.004-5.083 0-2.807 1.345-5.082 3.004-5.082 1.66 0 3.005 2.275 3.005 5.082ZM413.653 14.3c0 2.806-1.344 5.082-3.004 5.082-1.659 0-3.004-2.276-3.004-5.083 0-2.807 1.345-5.082 3.004-5.082 1.66 0 3.004 2.275 3.004 5.082Z"></path><path stroke="#fff" stroke-linecap="round" stroke-linejoin="round" stroke-miterlimit="10" stroke-width="2" d="M389.879 21.723c1.762 3.347 5.078 5.604 8.883 5.604 3.805 0 7.121-2.257 8.883-5.604M418.928 37.999a9.408 9.408 0 0 1-3.472-7.306c0-5.209 4.23-9.431 9.448-9.431 1.206 0 2.36.226 3.421.637M378.568 37.999a9.405 9.405 0 0 0 3.473-7.306c0-5.209-4.23-9.431-9.448-9.431-1.207 0-2.36.226-3.421.637M535.32 141.336l-31.498-8.778c-3.72-1.036-5.903-4.86-4.877-8.541 1.026-3.681 4.872-5.824 8.591-4.788l31.498 8.778c3.719 1.036 5.902 4.861 4.877 8.541-1.026 3.681-4.873 5.825-8.591 4.788Z"></path><path stroke="#fff" stroke-linecap="round" stroke-linejoin="round" stroke-miterlimit="10" stroke-width="2" d="M523.285 123.619c-12.417-3.46-19.707-16.228-16.282-28.517l11.878-42.623c3.425-12.29 16.267-19.447 28.684-15.987 12.418 3.46 19.706 16.228 16.282 28.518l-11.879 42.622c-3.424 12.29-16.266 19.447-28.683 15.987Z"></path><path stroke="#fff" stroke-linecap="round" stroke-linejoin="round" stroke-miterlimit="10" stroke-width="2" d="M540.168 121.717c-1.285-.307-1.67-2.005-1.307-3.26s1.198-2.357 1.413-3.646c.38-2.273-1.633-4.649-3.959-4.672-1.761-.019-3.371 1.094-5.132 1.103-2.689.014-4.825-2.771-4.711-5.433.113-2.663 1.982-4.995 4.258-6.403 1.96-1.214 4.228-1.874 6.195-3.077 1.968-1.203 3.701-3.22 3.545-5.513-.153-2.246-2.028-4.004-2.702-6.157-1.019-3.252.909-6.734 3.435-9.022 2.525-2.288 5.661-3.842 8.157-6.162 3.954-3.675 6.025-9.246 5.429-14.603-.317-2.855-1.479-5.792-3.854-7.448-2.375-1.656-6.111-1.51-7.772.832-1.238 1.747-1.052 4.135-.396 6.176.657 2.042 1.729 3.958 2.145 6.06.637 3.2-.396 6.673-2.679 9.007-1.166 1.193-2.754 2.124-4.431 2.009-1.676-.115-3.302-1.59-3.115-3.244.259-2.285 3.263-3.095 4.494-5.037 1.069-1.687.512-4.1-1.015-5.412-1.525-1.311-3.788-1.577-5.701-.963-1.913.614-3.494 2.007-4.654 3.632-2.381 3.338-3.094 7.791-1.878 11.713.578 1.864 1.555 3.583 2.247 5.41.692 1.825 1.091 3.866.468 5.71-1.188 3.513-5.56 5.08-7.058 8.473-1.282 2.901-.12 6.255-.268 9.424-.14 2.978-1.518 5.875-3.744 7.87-2.226 1.994-5.272 3.063-8.277 2.903"></path><path stroke="#fff" stroke-linecap="round" stroke-linejoin="round" stroke-miterlimit="10" stroke-width="2" d="M554.078 100.063c-1.05.144-2.15.08-3.239-.223-4.232-1.18-6.717-5.532-5.55-9.721 1.168-4.19 5.546-6.63 9.778-5.45a8.007 8.007 0 0 1 2.817 1.428M545.641 104.546c-.453 1.626-2.152 2.573-3.795 2.115-1.644-.458-2.609-2.147-2.156-3.773.454-1.627 2.153-2.574 3.797-2.116 1.643.458 2.608 2.148 2.154 3.774ZM508.101 91.162a6.585 6.585 0 0 1 2.846.157c3.486.972 5.532 4.556 4.57 8.006-.961 3.45-4.566 5.459-8.052 4.488a6.666 6.666 0 0 1-1.146-.436M534.874 48.17a2.282 2.282 0 0 1-2.819 1.571 2.282 2.282 0 0 1-1.599-2.802 2.282 2.282 0 0 1 2.818-1.57c1.22.34 1.936 1.594 1.6 2.801ZM568.523 131.524c-3.41-.95-7.015.573-8.67 3.663l-6.05 11.299 19.579 5.457.666-12.801c.182-3.5-2.116-6.668-5.525-7.618Z"></path><path stroke="#fff" stroke-linecap="round" stroke-linejoin="round" stroke-miterlimit="10" stroke-width="2" d="m568.523 131.524 2.385-8.558c1.227-4.404-1.386-8.979-5.835-10.219l-13.482-3.757M556.659 141.564l16.89 4.707"></path><path stroke="#fff" stroke-width="2" d="m601.433 29.287-.72.517.09-.882 2.56-24.919.024-.236.22-.091 7.249-3.017.19-.08.175.11 21.414 13.4.755.474-.856.249-10.362 3.009.576 17.599.034 1.043-.722-.754-12.039-12.58-8.588 6.158Z"></path><path stroke="#fff" stroke-linecap="round" stroke-linejoin="round" stroke-miterlimit="10" stroke-width="2" d="m603.187 7.016 10.924 10.205-.408-14.83M570.35-90.398c-1.917-2.279-5.627-.734-5.36 2.232l1.546 17.102a26.79 26.79 0 0 0 2.206 7.905L597.476.219l16.633-7.349-28.507-63.579a26.82 26.82 0 0 0-4.724-7.175L570.35-90.398ZM583.321-30.924l-3.466 14.572 9.252 20.14 8.367-3.573M1073.65 112.226h-31.3c-3.01 0-5.11-2.999-4.09-5.839l8.74-21.661h23l7.74 21.661c1.02 2.84-1.08 5.839-4.09 5.839ZM1106 84.702h-94.3c-6.46 0-11.7-5.23-11.7-11.682V-47.184c0-6.452 5.24-11.682 11.7-11.682h94.3c6.46 0 11.7 5.23 11.7 11.681V73.02c0 6.452-5.24 11.682-11.7 11.682Z"></path><path stroke="#fff" stroke-linecap="round" stroke-linejoin="round" stroke-miterlimit="10" stroke-width="2" d="M1105 72.226h-94v-119h94v119Z"></path><path stroke="#fff" stroke-linecap="round" stroke-linejoin="round" stroke-miterlimit="10" stroke-width="2" d="M1034.9 64.917h-5.95c-1.6 0-2.9-1.294-2.9-2.89v-5.943c0-1.596 1.3-2.89 2.9-2.89h5.95c1.6 0 2.9 1.294 2.9 2.89v5.943c0 1.596-1.3 2.89-2.9 2.89ZM1088.75 64.917h-5.95c-1.6 0-2.9-1.294-2.9-2.89v-5.943c0-1.596 1.3-2.89 2.9-2.89h5.95c1.6 0 2.9 1.294 2.9 2.89v5.943c0 1.596-1.3 2.89-2.9 2.89ZM1052.73 64.917h-5.95c-1.6 0-2.9-1.294-2.9-2.89v-5.943c0-1.596 1.3-2.89 2.9-2.89h5.95c1.6 0 2.9 1.294 2.9 2.89v5.943c0 1.596-1.3 2.89-2.9 2.89ZM1070.74 64.917h-5.95c-1.6 0-2.9-1.294-2.9-2.89v-5.943c0-1.596 1.3-2.89 2.9-2.89h5.95c1.6 0 2.9 1.294 2.9 2.89v5.943c0 1.596-1.3 2.89-2.9 2.89ZM1088.01 15.502c0 16.673-13.54 30.19-30.25 30.19-16.7 0-30.24-13.517-30.24-30.19 0-16.674 13.54-30.19 30.24-30.19 16.71 0 30.25 13.516 30.25 30.19Z"></path><path stroke="#fff" stroke-linecap="round" stroke-linejoin="round" stroke-miterlimit="10" stroke-width="2" d="M1065.63-13.633s6.3-6.715 15.61-6.952a2.92 2.92 0 0 1 2.87 2.091c.92 3.078 1.99 9.42-1.11 17.438M1049.89-13.633s-6.29-6.715-15.61-6.952a2.937 2.937 0 0 0-2.87 2.091c-.91 3.078-1.98 9.42 1.11 17.438M1027.63 18.133l20.24-22.458 9.82 9.38M1087.75 18.133l-20.23-22.458-9.83 9.38"></path><path fill="#fff" d="M1048.88 14.3c0 2.806-1.34 5.082-3 5.082s-3.01-2.276-3.01-5.083c0-2.807 1.35-5.082 3.01-5.082 1.66 0 3 2.275 3 5.082ZM1072.65 14.3c0 2.806-1.34 5.082-3 5.082s-3.01-2.276-3.01-5.083c0-2.807 1.35-5.082 3.01-5.082 1.66 0 3 2.275 3 5.082Z"></path><path stroke="#fff" stroke-linecap="round" stroke-linejoin="round" stroke-miterlimit="10" stroke-width="2" d="M1048.88 21.723c1.76 3.347 5.08 5.604 8.88 5.604 3.81 0 7.12-2.257 8.88-5.604M1077.93 37.999a9.403 9.403 0 0 1-3.47-7.306c0-5.209 4.23-9.431 9.44-9.431 1.21 0 2.36.226 3.42.637M1037.57 37.999a9.403 9.403 0 0 0 3.47-7.306c0-5.209-4.23-9.431-9.45-9.431-1.2 0-2.36.226-3.42.637M1194.32 141.336l-31.5-8.778c-3.72-1.036-5.9-4.86-4.88-8.541 1.03-3.681 4.88-5.824 8.6-4.788l31.49 8.778c3.72 1.036 5.91 4.861 4.88 8.541-1.03 3.681-4.87 5.825-8.59 4.788Z"></path><path stroke="#fff" stroke-linecap="round" stroke-linejoin="round" stroke-miterlimit="10" stroke-width="2" d="M1182.28 123.619c-12.41-3.46-19.7-16.228-16.28-28.517l11.88-42.623c3.43-12.29 16.27-19.447 28.69-15.987 12.41 3.46 19.7 16.228 16.28 28.518l-11.88 42.622c-3.43 12.29-16.27 19.447-28.69 15.987Z"></path><path stroke="#fff" stroke-linecap="round" stroke-linejoin="round" stroke-miterlimit="10" stroke-width="2" d="M1199.17 121.717c-1.29-.307-1.67-2.005-1.31-3.26.36-1.255 1.2-2.357 1.41-3.646.38-2.273-1.63-4.649-3.95-4.672-1.77-.019-3.38 1.094-5.14 1.103-2.69.014-4.82-2.771-4.71-5.433.12-2.663 1.98-4.995 4.26-6.403 1.96-1.214 4.23-1.874 6.2-3.077 1.96-1.203 3.7-3.22 3.54-5.513-.15-2.246-2.03-4.004-2.7-6.157-1.02-3.252.91-6.734 3.43-9.022 2.53-2.288 5.66-3.842 8.16-6.162 3.95-3.675 6.03-9.246 5.43-14.603-.32-2.855-1.48-5.792-3.85-7.448-2.38-1.656-6.12-1.51-7.78.832-1.24 1.747-1.05 4.135-.39 6.176.65 2.042 1.73 3.958 2.14 6.06.64 3.2-.39 6.673-2.68 9.007-1.16 1.193-2.75 2.124-4.43 2.009-1.67-.115-3.3-1.59-3.11-3.244.26-2.285 3.26-3.095 4.49-5.037 1.07-1.687.51-4.1-1.01-5.412-1.53-1.311-3.79-1.577-5.7-.963-1.92.614-3.5 2.007-4.66 3.632-2.38 3.338-3.09 7.791-1.88 11.713.58 1.864 1.56 3.583 2.25 5.41.69 1.825 1.09 3.866.47 5.71-1.19 3.513-5.56 5.08-7.06 8.473-1.28 2.901-.12 6.255-.27 9.424-.14 2.978-1.52 5.875-3.74 7.87-2.23 1.994-5.27 3.063-8.28 2.903"></path><path stroke="#fff" stroke-linecap="round" stroke-linejoin="round" stroke-miterlimit="10" stroke-width="2" d="M1213.08 100.063a8.01 8.01 0 0 1-3.24-.223c-4.23-1.18-6.72-5.532-5.55-9.721 1.17-4.19 5.54-6.63 9.78-5.45 1.06.295 2 .788 2.81 1.428M1204.64 104.546c-.45 1.626-2.15 2.573-3.79 2.115-1.65-.458-2.61-2.147-2.16-3.773.45-1.627 2.15-2.574 3.8-2.116 1.64.458 2.6 2.148 2.15 3.774ZM1167.1 91.162c.92-.152 1.89-.11 2.85.157 3.48.972 5.53 4.556 4.57 8.006s-4.57 5.459-8.05 4.488a6.436 6.436 0 0 1-1.15-.436M1193.87 48.17c-.33 1.208-1.59 1.911-2.81 1.571-1.22-.34-1.94-1.594-1.6-2.802.33-1.207 1.59-1.91 2.81-1.57 1.22.34 1.94 1.594 1.6 2.801ZM1227.52 131.524c-3.41-.95-7.01.573-8.67 3.663l-6.05 11.299 19.58 5.457.67-12.801c.18-3.5-2.12-6.668-5.53-7.618ZM1227.52 131.524l2.39-8.558c1.22-4.404-1.39-8.979-5.84-10.219l-13.48-3.757M1215.66 141.564l16.89 4.707"></path><path stroke="#fff" stroke-width="2" d="m1260.43 29.287-.72.517.09-.882 2.56-24.919.03-.236.22-.091 7.25-3.017.19-.08.17.11 21.41 13.4.76.474-.86.249-10.36 3.009.58 17.599.03 1.043-.72-.754-12.04-12.58-8.59 6.158Z"></path><path stroke="#fff" stroke-linecap="round" stroke-linejoin="round" stroke-miterlimit="10" stroke-width="2" d="m1262.19 7.016 10.92 10.205-.41-14.83M1229.35-90.398c-1.92-2.279-5.63-.734-5.36 2.232l1.55 17.102a26.84 26.84 0 0 0 2.2 7.905L1256.48.219l16.63-7.349-28.51-63.579a26.83 26.83 0 0 0-4.72-7.175l-10.53-12.514ZM1242.32-30.924l-3.47 14.572 9.26 20.14 8.36-3.573M414.651 544.226h-31.303c-3.011 0-5.11-2.999-4.085-5.839L388 516.726h23l7.737 21.661c1.025 2.84-1.074 5.839-4.086 5.839ZM446.998 516.702h-94.295c-6.463 0-11.703-5.23-11.703-11.682V384.815c0-6.451 5.24-11.681 11.703-11.681h94.295c6.464 0 11.703 5.23 11.703 11.681V505.02c0 6.452-5.239 11.682-11.703 11.682Z"></path><path stroke="#fff" stroke-linecap="round" stroke-linejoin="round" stroke-miterlimit="10" stroke-width="2" d="M446 504.226h-94v-119h94v119Z"></path><path stroke="#fff" stroke-linecap="round" stroke-linejoin="round" stroke-miterlimit="10" stroke-width="2" d="M375.903 496.917h-5.953a2.893 2.893 0 0 1-2.896-2.89v-5.943a2.893 2.893 0 0 1 2.896-2.89h5.953a2.893 2.893 0 0 1 2.896 2.89v5.943a2.893 2.893 0 0 1-2.896 2.89ZM429.753 496.917h-5.954a2.892 2.892 0 0 1-2.895-2.89v-5.943a2.892 2.892 0 0 1 2.895-2.89h5.954a2.892 2.892 0 0 1 2.895 2.89v5.943a2.892 2.892 0 0 1-2.895 2.89ZM393.733 496.917h-5.954a2.892 2.892 0 0 1-2.895-2.89v-5.943a2.892 2.892 0 0 1 2.895-2.89h5.954a2.893 2.893 0 0 1 2.895 2.89v5.943a2.893 2.893 0 0 1-2.895 2.89ZM411.743 496.917h-5.953a2.893 2.893 0 0 1-2.896-2.89v-5.943a2.893 2.893 0 0 1 2.896-2.89h5.953a2.892 2.892 0 0 1 2.895 2.89v5.943a2.892 2.892 0 0 1-2.895 2.89ZM415.257 373.134H384.07l10.492-16.819h10.202l10.493 16.819ZM429.007 447.502c0 16.673-13.541 30.189-30.244 30.189-16.704 0-30.245-13.516-30.245-30.189 0-16.674 13.541-30.19 30.245-30.19 16.703 0 30.244 13.516 30.244 30.19ZM409.407 400.523c0 3.615-2.935 6.544-6.557 6.544-3.62 0-6.556-2.929-6.556-6.544 0-3.614 2.936-6.545 6.556-6.545 3.622 0 6.557 2.931 6.557 6.545Z"></path><path stroke="#fff" stroke-linecap="round" stroke-linejoin="round" stroke-miterlimit="10" stroke-width="2" d="M398.928 417.156c-1.452-3.395-.798-7.59 1.618-10.384M406.632 418.367s6.296-6.715 15.61-6.952a2.927 2.927 0 0 1 2.87 2.091c.916 3.078 1.984 9.42-1.109 17.438M390.893 418.367s-6.296-6.715-15.61-6.952a2.926 2.926 0 0 0-2.87 2.091c-.916 3.078-1.984 9.42 1.109 17.438M368.633 450.133l20.232-22.458 9.826 9.38M428.749 450.133l-20.232-22.458-9.826 9.38"></path><path fill="#fff" d="M389.88 446.299c0 2.807-1.345 5.083-3.005 5.083-1.659 0-3.004-2.276-3.004-5.083 0-2.807 1.345-5.082 3.004-5.082 1.66 0 3.005 2.275 3.005 5.082ZM413.653 446.299c0 2.807-1.344 5.083-3.004 5.083-1.659 0-3.004-2.276-3.004-5.083 0-2.807 1.345-5.082 3.004-5.082 1.66 0 3.004 2.275 3.004 5.082Z"></path><path stroke="#fff" stroke-linecap="round" stroke-linejoin="round" stroke-miterlimit="10" stroke-width="2" d="M389.879 453.723c1.762 3.347 5.078 5.604 8.883 5.604 3.805 0 7.121-2.257 8.883-5.604M418.928 469.999a9.408 9.408 0 0 1-3.472-7.306c0-5.209 4.23-9.431 9.448-9.431 1.206 0 2.36.226 3.421.637M378.568 469.999a9.406 9.406 0 0 0 3.473-7.306c0-5.209-4.23-9.431-9.448-9.431-1.207 0-2.36.226-3.421.637"></path><path fill="#fff" d="M364.841 394.937a2.126 2.126 0 0 1-2.128 2.125 2.127 2.127 0 0 1-2.128-2.125c0-1.173.953-2.125 2.128-2.125 1.176 0 2.128.952 2.128 2.125Z"></path><path stroke="#fff" stroke-linecap="round" stroke-linejoin="round" stroke-miterlimit="10" stroke-width="2" d="M513.216 234.847h-45.129c-5.189 0-9.396-4.21-9.396-9.402v-40.819c0-5.192 4.207-9.401 9.396-9.401h45.129c5.189 0 9.396 4.209 9.396 9.401v40.819c0 5.192-4.207 9.402-9.396 9.402Z"></path><path stroke="#fff" stroke-linecap="round" stroke-linejoin="round" stroke-miterlimit="10" stroke-width="2" d="M510.746 225.426h-40.193c-.98 0-1.774-.796-1.774-1.776v-37.249c0-.98.794-1.775 1.774-1.775h40.193c.981 0 1.775.795 1.775 1.775v37.249c0 .98-.794 1.776-1.775 1.776Z"></path><path stroke="#fff" stroke-linecap="round" stroke-linejoin="round" stroke-miterlimit="10" stroke-width="2" d="M505.683 205.025c0 8.307-6.729 15.04-15.031 15.04-8.301 0-15.032-6.733-15.032-15.04 0-8.305 6.731-15.039 15.032-15.039 8.302 0 15.031 6.734 15.031 15.039ZM458.595 218.583c-5.04-2.429-8.517-7.587-8.517-13.558 0-5.999 3.51-11.177 8.588-13.591"></path><path stroke="#fff" stroke-linecap="round" stroke-linejoin="round" stroke-miterlimit="10" stroke-width="2" d="M501.376 200.714c0 5.924-4.8 10.727-10.722 10.727-5.921 0-10.721-4.803-10.721-10.727M487.271 199.206v4.657M494.033 199.206v4.657"></path><path stroke="#fff" stroke-linejoin="round" stroke-width="2" d="M496.274 393.877c12.637 2.622 14.79 4.765 17.558 17.48 2.486-12.726 4.591-14.88 17.17-17.558-12.637-2.621-14.79-4.765-17.557-17.479-2.486 12.726-4.592 14.879-17.171 17.557ZM593.245 180.373c15.881 3.295 18.587 5.989 22.065 21.967 3.124-15.993 5.769-18.699 21.577-22.065-15.881-3.294-18.586-5.988-22.063-21.966-3.125 15.993-5.772 18.699-21.579 22.064Z"></path><path stroke="#fff" stroke-linecap="round" stroke-linejoin="round" stroke-miterlimit="10" stroke-width="2" d="m535.32 573.336-31.498-8.778c-3.72-1.036-5.903-4.86-4.877-8.541 1.026-3.681 4.872-5.824 8.591-4.788l31.498 8.778c3.719 1.036 5.902 4.861 4.877 8.541-1.026 3.681-4.873 5.825-8.591 4.788Z"></path><path stroke="#fff" stroke-linecap="round" stroke-linejoin="round" stroke-miterlimit="10" stroke-width="2" d="M523.285 555.619c-12.417-3.46-19.707-16.228-16.282-28.517l11.878-42.623c3.425-12.29 16.267-19.447 28.684-15.987 12.418 3.46 19.706 16.228 16.282 28.518l-11.879 42.622c-3.424 12.29-16.266 19.447-28.683 15.987Z"></path><path stroke="#fff" stroke-linecap="round" stroke-linejoin="round" stroke-miterlimit="10" stroke-width="2" d="M540.168 553.717c-1.285-.307-1.67-2.005-1.307-3.26s1.198-2.357 1.413-3.646c.38-2.273-1.633-4.649-3.959-4.672-1.761-.019-3.371 1.094-5.132 1.103-2.689.014-4.825-2.771-4.711-5.433.113-2.663 1.982-4.995 4.258-6.403 1.96-1.214 4.228-1.874 6.195-3.077 1.968-1.203 3.701-3.221 3.545-5.513-.153-2.246-2.028-4.004-2.702-6.157-1.019-3.252.909-6.734 3.435-9.022 2.525-2.288 5.661-3.842 8.157-6.162 3.954-3.675 6.025-9.246 5.429-14.604-.317-2.854-1.479-5.791-3.854-7.447-2.375-1.656-6.111-1.511-7.772.832-1.238 1.747-1.052 4.135-.396 6.176.657 2.042 1.729 3.958 2.145 6.06.637 3.201-.396 6.673-2.679 9.007-1.166 1.193-2.754 2.124-4.431 2.009-1.676-.115-3.302-1.59-3.115-3.244.259-2.285 3.263-3.095 4.494-5.037 1.069-1.687.512-4.101-1.015-5.412-1.525-1.311-3.788-1.577-5.701-.963-1.913.614-3.494 2.007-4.654 3.632-2.381 3.338-3.094 7.791-1.878 11.713.578 1.864 1.555 3.583 2.247 5.41.692 1.825 1.091 3.866.468 5.71-1.188 3.513-5.56 5.08-7.058 8.473-1.282 2.901-.12 6.255-.268 9.424-.14 2.978-1.518 5.875-3.744 7.87-2.226 1.994-5.272 3.063-8.277 2.903"></path><path stroke="#fff" stroke-linecap="round" stroke-linejoin="round" stroke-miterlimit="10" stroke-width="2" d="M554.078 532.063c-1.05.144-2.15.08-3.239-.223-4.232-1.18-6.717-5.532-5.55-9.721 1.168-4.19 5.546-6.629 9.778-5.45a8.013 8.013 0 0 1 2.817 1.428M545.641 536.546c-.453 1.626-2.152 2.573-3.795 2.115-1.644-.458-2.609-2.147-2.156-3.773.454-1.627 2.153-2.574 3.797-2.116 1.643.458 2.608 2.148 2.154 3.774ZM508.101 523.162a6.584 6.584 0 0 1 2.846.157c3.486.972 5.532 4.556 4.57 8.006-.961 3.45-4.566 5.459-8.052 4.488a6.666 6.666 0 0 1-1.146-.436M534.874 480.17a2.282 2.282 0 0 1-2.819 1.571 2.281 2.281 0 0 1-1.599-2.802c.337-1.207 1.598-1.91 2.818-1.571 1.22.341 1.936 1.595 1.6 2.802ZM568.523 563.524c-3.41-.95-7.015.573-8.67 3.663l-6.05 11.299 19.579 5.457.666-12.801c.182-3.5-2.116-6.668-5.525-7.618Z"></path><path stroke="#fff" stroke-linecap="round" stroke-linejoin="round" stroke-miterlimit="10" stroke-width="2" d="m568.523 563.524 2.385-8.558c1.227-4.404-1.386-8.979-5.835-10.219l-13.482-3.757M556.659 573.564l16.89 4.707M608.725 301.251l14.644-6.106M597.41 297.463l32.511-20.415M613.941 260.735l10.461-8.51M550.195 301.251l-14.644-6.106M561.511 297.463 529 277.048M544.981 260.737l-10.46-8.51M561.073 254.003l-9.407 16.538h18.814l-9.407-16.538ZM579.887 254.003l-9.407 16.538h18.815l-9.408-16.538ZM598.703 254.003l-9.408 16.538h18.815l-9.407-16.538ZM579.888 297.463l-28.222-26.921h18.814l9.408 26.921Z"></path><path stroke="#fff" stroke-linecap="round" stroke-linejoin="round" stroke-miterlimit="10" stroke-width="2" d="m579.887 297.463-9.407-26.921h18.815l-9.408 26.921ZM579.888 297.463l9.407-26.921h18.815l-28.222 26.921ZM598.702 254.004h-37.63M436.195 281.466l-41.178-47.514M399.472 271.501l-50.241-39.276M421.796 288.954l-13.291-10.39M359.932 279.332l-11.854-4.777M405.958 297.88l-39.825-16.049M466.382 314.435a48.298 48.298 0 0 1 8.432 15.356c.979 2.957-.927 6.07-3.989 6.641-15.202 2.833-31.496-1.614-43.276-13.356a48.398 48.398 0 0 1-11.823-19.102c-.98-2.958.926-6.07 3.988-6.641a48.894 48.894 0 0 1 17.268-.116"></path><path stroke="#fff" stroke-linecap="round" stroke-linejoin="round" stroke-miterlimit="10" stroke-width="2" d="M423.825 318.814c10.25 1.41 20.435 6.166 28.261 14.104a49.248 49.248 0 0 1 3.416 3.848M460.843 325.167a3.703 3.703 0 1 0 5.246 5.229 3.703 3.703 0 0 0-5.246-5.229ZM424.327 303.968a3.703 3.703 0 1 0 5.246 5.229 3.703 3.703 0 0 0-5.246-5.229ZM436.499 311.034a3.703 3.703 0 1 0 5.246 5.229 3.703 3.703 0 0 0-5.246-5.229ZM448.675 318.101a3.703 3.703 0 1 0 5.246 5.229 3.703 3.703 0 0 0-5.246-5.229ZM436.938 297.212l29.449 17.233 4.467-14.225a14.785 14.785 0 0 0-25.788-13.489l-8.128 10.481ZM452.707 267.967a4.488 4.488 0 0 0 1.325 6.206 4.488 4.488 0 0 0 4.881-7.531 4.487 4.487 0 0 0-6.206 1.325Z"></path><path stroke="#fff" stroke-linecap="round" stroke-linejoin="round" stroke-miterlimit="10" stroke-width="2" d="M461.017 281.479c.551-2.581-.175-5.402-1.903-7.397"></path><path fill="#fff" d="m443.623 301.152-10.951-4.488 4.267.547 6.684 3.941Z"></path><path stroke="#fff" stroke-width="2" d="m601.433 461.287-.72.517.09-.882 2.56-24.919.024-.236.22-.091 7.249-3.017.19-.08.175.11 21.414 13.401.755.473-.856.249-10.362 3.009.576 17.599.034 1.043-.722-.754-12.039-12.58-8.588 6.158Z"></path><path stroke="#fff" stroke-linecap="round" stroke-linejoin="round" stroke-miterlimit="10" stroke-width="2" d="m603.187 439.016 10.924 10.205-.408-14.83M570.35 341.602c-1.917-2.279-5.627-.734-5.36 2.232l1.546 17.102a26.796 26.796 0 0 0 2.206 7.905l28.734 63.378 16.633-7.349-28.507-63.579a26.815 26.815 0 0 0-4.724-7.175l-10.528-12.514Z"></path><path stroke="#fff" stroke-linecap="round" stroke-linejoin="round" stroke-miterlimit="10" stroke-width="2" d="m573.608 345.392 17.093 5.832 3.49 8.382-7.808 3.163M565.365 348.251l-7.155 15.35 4.495 10.008 6.804-2.897M572.448 376.987l16.661-7.534M608.115 411.579l-16.547 7.436M599.673 392.72l14.691 9.807 8.245 18.639-8.499 3.7M583.321 401.076l-3.466 14.572 9.252 20.14 8.367-3.573"></path><path stroke="#fff" stroke-linecap="round" stroke-linejoin="round" stroke-width="2" d="m378.286 195.779 2.433-11.984-9.731-3.595 17.028-17.974-2.432 11.983 9.73 3.595-17.028 17.975Z"></path><path fill="#fff" d="M449.33 131.041c1.741.068 3.313.689 4.154 1.53a.999.999 0 1 0 1.414-1.414c-1.297-1.298-3.409-2.033-5.49-2.114-2.095-.082-4.382.492-5.984 2.094a1 1 0 0 0 1.415 1.414c1.091-1.091 2.764-1.577 4.491-1.51Z"></path><path fill="#fff" fill-rule="evenodd" d="M440.694 147.161a12.947 12.947 0 0 0 8.384 3.065c7.18 0 13-5.821 13-13 0-7.18-5.82-13-13-13s-13 5.82-13 13c0 3.194 1.153 6.12 3.065 8.384l-2.209-.384-10.284 10.283c-.763.763-.763 2 0 2.763l1.382 1.381c.763.763 2 .763 2.762 0l10.284-10.283-.384-2.209Zm-2.616-9.935c0 6.075 4.925 11 11 11s11-4.925 11-11c0-6.076-4.925-11-11-11s-11 4.924-11 11Zm-7.249 16.933 6.785-6.785 1.121.195.195 1.121-6.805 6.804-1.296-1.335Zm-.118 2.75-1.298 1.297-1.316-1.315 1.318-1.318 1.296 1.336Z" clip-rule="evenodd"></path><path stroke="#fff" stroke-linecap="round" stroke-linejoin="round" stroke-miterlimit="10" stroke-width="2" d="M1073.65 544.226h-31.3c-3.01 0-5.11-2.999-4.09-5.839l8.74-21.661h23l7.74 21.661c1.02 2.84-1.08 5.839-4.09 5.839ZM1106 516.702h-94.3c-6.46 0-11.7-5.23-11.7-11.682V384.815c0-6.451 5.24-11.681 11.7-11.681h94.3c6.46 0 11.7 5.23 11.7 11.681V505.02c0 6.452-5.24 11.682-11.7 11.682Z"></path><path stroke="#fff" stroke-linecap="round" stroke-linejoin="round" stroke-miterlimit="10" stroke-width="2" d="M1105 504.226h-94v-119h94v119Z"></path><path stroke="#fff" stroke-linecap="round" stroke-linejoin="round" stroke-miterlimit="10" stroke-width="2" d="M1034.9 496.917h-5.95c-1.6 0-2.9-1.294-2.9-2.89v-5.943c0-1.596 1.3-2.89 2.9-2.89h5.95c1.6 0 2.9 1.294 2.9 2.89v5.943c0 1.596-1.3 2.89-2.9 2.89ZM1088.75 496.917h-5.95c-1.6 0-2.9-1.294-2.9-2.89v-5.943c0-1.596 1.3-2.89 2.9-2.89h5.95c1.6 0 2.9 1.294 2.9 2.89v5.943c0 1.596-1.3 2.89-2.9 2.89ZM1052.73 496.917h-5.95c-1.6 0-2.9-1.294-2.9-2.89v-5.943c0-1.596 1.3-2.89 2.9-2.89h5.95c1.6 0 2.9 1.294 2.9 2.89v5.943c0 1.596-1.3 2.89-2.9 2.89ZM1070.74 496.917h-5.95c-1.6 0-2.9-1.294-2.9-2.89v-5.943c0-1.596 1.3-2.89 2.9-2.89h5.95c1.6 0 2.9 1.294 2.9 2.89v5.943c0 1.596-1.3 2.89-2.9 2.89ZM1074.26 373.134h-31.19l10.49-16.819h10.2l10.5 16.819ZM1088.01 447.502c0 16.673-13.54 30.189-30.25 30.189-16.7 0-30.24-13.516-30.24-30.189 0-16.674 13.54-30.19 30.24-30.19 16.71 0 30.25 13.516 30.25 30.19ZM1068.41 400.523c0 3.615-2.94 6.544-6.56 6.544-3.62 0-6.56-2.929-6.56-6.544 0-3.614 2.94-6.545 6.56-6.545 3.62 0 6.56 2.931 6.56 6.545Z"></path><path stroke="#fff" stroke-linecap="round" stroke-linejoin="round" stroke-miterlimit="10" stroke-width="2" d="M1057.93 417.156c-1.45-3.395-.8-7.59 1.62-10.384M1065.63 418.367s6.3-6.715 15.61-6.952a2.92 2.92 0 0 1 2.87 2.091c.92 3.078 1.99 9.42-1.11 17.438M1049.89 418.367s-6.29-6.715-15.61-6.952a2.936 2.936 0 0 0-2.87 2.091c-.91 3.078-1.98 9.42 1.11 17.438M1027.63 450.133l20.24-22.458 9.82 9.38M1087.75 450.133l-20.23-22.458-9.83 9.38"></path><path fill="#fff" d="M1048.88 446.299c0 2.807-1.34 5.083-3 5.083s-3.01-2.276-3.01-5.083c0-2.807 1.35-5.082 3.01-5.082 1.66 0 3 2.275 3 5.082ZM1072.65 446.299c0 2.807-1.34 5.083-3 5.083s-3.01-2.276-3.01-5.083c0-2.807 1.35-5.082 3.01-5.082 1.66 0 3 2.275 3 5.082Z"></path><path stroke="#fff" stroke-linecap="round" stroke-linejoin="round" stroke-miterlimit="10" stroke-width="2" d="M1048.88 453.723c1.76 3.347 5.08 5.604 8.88 5.604 3.81 0 7.12-2.257 8.88-5.604M1077.93 469.999a9.404 9.404 0 0 1-3.47-7.306c0-5.209 4.23-9.431 9.44-9.431 1.21 0 2.36.226 3.42.637M1037.57 469.999a9.404 9.404 0 0 0 3.47-7.306c0-5.209-4.23-9.431-9.45-9.431-1.2 0-2.36.226-3.42.637"></path><path fill="#fff" d="M1023.84 394.937c0 1.173-.95 2.125-2.13 2.125-1.17 0-2.13-.952-2.13-2.125s.96-2.125 2.13-2.125c1.18 0 2.13.952 2.13 2.125Z"></path><path stroke="#fff" stroke-linecap="round" stroke-linejoin="round" stroke-miterlimit="10" stroke-width="2" d="M1172.22 234.847h-45.13c-5.19 0-9.4-4.21-9.4-9.402v-40.819c0-5.192 4.21-9.401 9.4-9.401h45.13c5.19 0 9.39 4.209 9.39 9.401v40.819c0 5.192-4.2 9.402-9.39 9.402Z"></path><path stroke="#fff" stroke-linecap="round" stroke-linejoin="round" stroke-miterlimit="10" stroke-width="2" d="M1169.75 225.426h-40.2c-.98 0-1.77-.796-1.77-1.776v-37.249c0-.98.79-1.775 1.77-1.775h40.2c.98 0 1.77.795 1.77 1.775v37.249c0 .98-.79 1.776-1.77 1.776Z"></path><path stroke="#fff" stroke-linecap="round" stroke-linejoin="round" stroke-miterlimit="10" stroke-width="2" d="M1164.68 205.025c0 8.307-6.73 15.04-15.03 15.04-8.3 0-15.03-6.733-15.03-15.04 0-8.305 6.73-15.039 15.03-15.039 8.3 0 15.03 6.734 15.03 15.039ZM1117.59 218.583c-5.03-2.429-8.51-7.587-8.51-13.558 0-5.999 3.51-11.177 8.59-13.591"></path><path stroke="#fff" stroke-linecap="round" stroke-linejoin="round" stroke-miterlimit="10" stroke-width="2" d="M1160.38 200.714c0 5.924-4.8 10.727-10.73 10.727-5.92 0-10.72-4.803-10.72-10.727M1146.27 199.206v4.657M1153.03 199.206v4.657"></path><path stroke="#fff" stroke-linejoin="round" stroke-width="2" d="M1155.27 393.877c12.64 2.622 14.79 4.765 17.56 17.48 2.49-12.726 4.59-14.88 17.17-17.558-12.64-2.621-14.79-4.765-17.55-17.479-2.49 12.726-4.6 14.879-17.18 17.557ZM1252.24 180.373c15.89 3.295 18.59 5.989 22.07 21.967 3.12-15.993 5.77-18.699 21.58-22.065-15.88-3.294-18.59-5.988-22.07-21.966-3.12 15.993-5.77 18.699-21.58 22.064Z"></path><path stroke="#fff" stroke-linecap="round" stroke-linejoin="round" stroke-miterlimit="10" stroke-width="2" d="m1194.32 573.336-31.5-8.778c-3.72-1.036-5.9-4.86-4.88-8.541 1.03-3.681 4.88-5.824 8.6-4.788l31.49 8.778c3.72 1.036 5.91 4.861 4.88 8.541-1.03 3.681-4.87 5.825-8.59 4.788Z"></path><path stroke="#fff" stroke-linecap="round" stroke-linejoin="round" stroke-miterlimit="10" stroke-width="2" d="M1182.28 555.619c-12.41-3.46-19.7-16.228-16.28-28.517l11.88-42.623c3.43-12.29 16.27-19.447 28.69-15.987 12.41 3.46 19.7 16.228 16.28 28.518l-11.88 42.622c-3.43 12.29-16.27 19.447-28.69 15.987Z"></path><path stroke="#fff" stroke-linecap="round" stroke-linejoin="round" stroke-miterlimit="10" stroke-width="2" d="M1199.17 553.717c-1.29-.307-1.67-2.005-1.31-3.26.36-1.255 1.2-2.357 1.41-3.646.38-2.273-1.63-4.649-3.95-4.672-1.77-.019-3.38 1.094-5.14 1.103-2.69.014-4.82-2.771-4.71-5.433.12-2.663 1.98-4.995 4.26-6.403 1.96-1.214 4.23-1.874 6.2-3.077 1.96-1.203 3.7-3.221 3.54-5.513-.15-2.246-2.03-4.004-2.7-6.157-1.02-3.252.91-6.734 3.43-9.022 2.53-2.288 5.66-3.842 8.16-6.162 3.95-3.675 6.03-9.246 5.43-14.604-.32-2.854-1.48-5.791-3.85-7.447-2.38-1.656-6.12-1.511-7.78.832-1.24 1.747-1.05 4.135-.39 6.176.65 2.042 1.73 3.958 2.14 6.06.64 3.201-.39 6.673-2.68 9.007-1.16 1.193-2.75 2.124-4.43 2.009-1.67-.115-3.3-1.59-3.11-3.244.26-2.285 3.26-3.095 4.49-5.037 1.07-1.687.51-4.101-1.01-5.412-1.53-1.311-3.79-1.577-5.7-.963-1.92.614-3.5 2.007-4.66 3.632-2.38 3.338-3.09 7.791-1.88 11.713.58 1.864 1.56 3.583 2.25 5.41.69 1.825 1.09 3.866.47 5.71-1.19 3.513-5.56 5.08-7.06 8.473-1.28 2.901-.12 6.255-.27 9.424-.14 2.978-1.52 5.875-3.74 7.87-2.23 1.994-5.27 3.063-8.28 2.903"></path><path stroke="#fff" stroke-linecap="round" stroke-linejoin="round" stroke-miterlimit="10" stroke-width="2" d="M1213.08 532.063c-1.05.144-2.15.08-3.24-.223-4.23-1.18-6.72-5.532-5.55-9.721 1.17-4.19 5.54-6.629 9.78-5.45 1.06.295 2 .789 2.81 1.428M1204.64 536.546c-.45 1.626-2.15 2.573-3.79 2.115-1.65-.458-2.61-2.147-2.16-3.773.45-1.627 2.15-2.574 3.8-2.116 1.64.458 2.6 2.148 2.15 3.774ZM1167.1 523.162c.92-.152 1.89-.11 2.85.157 3.48.972 5.53 4.556 4.57 8.006s-4.57 5.459-8.05 4.488a6.436 6.436 0 0 1-1.15-.436M1193.87 480.17c-.33 1.208-1.59 1.911-2.81 1.571-1.22-.34-1.94-1.594-1.6-2.802.33-1.207 1.59-1.91 2.81-1.571 1.22.341 1.94 1.595 1.6 2.802ZM1227.52 563.524c-3.41-.95-7.01.573-8.67 3.663l-6.05 11.299 19.58 5.457.67-12.801c.18-3.5-2.12-6.668-5.53-7.618Z"></path><path stroke="#fff" stroke-linecap="round" stroke-linejoin="round" stroke-miterlimit="10" stroke-width="2" d="m1227.52 563.524 2.39-8.558c1.22-4.404-1.39-8.979-5.84-10.219l-13.48-3.757M1215.66 573.564l16.89 4.707M1267.73 301.251l14.64-6.106M1256.41 297.463c10.84-6.805 21.67-13.61 32.51-20.415M1272.94 260.735c3.49-2.836 6.97-5.673 10.46-8.51M1209.2 301.251c-4.89-2.035-9.77-4.07-14.65-6.106M1220.51 297.463c-10.84-6.805-21.67-13.61-32.51-20.415M1203.98 260.737c-3.49-2.836-6.97-5.673-10.46-8.51M1220.07 254.003l-9.4 16.538h18.81l-9.41-16.538ZM1238.89 254.003l-9.41 16.538h18.81l-9.4-16.538ZM1257.7 254.003l-9.4 16.538h18.81l-9.41-16.538ZM1238.89 297.463l-28.22-26.921h18.81l9.41 26.921Z"></path><path stroke="#fff" stroke-linecap="round" stroke-linejoin="round" stroke-miterlimit="10" stroke-width="2" d="m1238.89 297.463-9.41-26.921h18.81l-9.4 26.921ZM1238.89 297.463l9.41-26.921h18.81l-28.22 26.921ZM1257.7 254.004h-37.63M1095.2 281.466l-41.18-47.514M1058.47 271.501l-50.24-39.276M1080.8 288.954l-13.29-10.39M1018.93 279.332l-11.85-4.777M1064.96 297.88l-39.83-16.049M1125.38 314.435a48.214 48.214 0 0 1 8.43 15.356c.98 2.957-.92 6.07-3.98 6.641-15.21 2.833-31.5-1.614-43.28-13.356a48.334 48.334 0 0 1-11.82-19.102c-.98-2.958.92-6.07 3.98-6.641a48.908 48.908 0 0 1 17.27-.116"></path><path stroke="#fff" stroke-linecap="round" stroke-linejoin="round" stroke-miterlimit="10" stroke-width="2" d="M1082.82 318.814c10.26 1.41 20.44 6.166 28.27 14.104a51.08 51.08 0 0 1 3.41 3.848M1119.84 325.167a3.705 3.705 0 0 0 5.25 5.229 3.705 3.705 0 0 0-5.25-5.229ZM1083.33 303.968a3.696 3.696 0 0 0 .01 5.237 3.694 3.694 0 0 0 5.23-.009 3.696 3.696 0 0 0-.01-5.237 3.694 3.694 0 0 0-5.23.009ZM1095.5 311.034a3.696 3.696 0 0 0 .01 5.237 3.695 3.695 0 0 0 5.23-.008 3.705 3.705 0 0 0 0-5.237 3.706 3.706 0 0 0-5.24.008ZM1107.67 318.101a3.705 3.705 0 0 0 5.25 5.228 3.705 3.705 0 0 0-5.25-5.228ZM1095.94 297.212l29.45 17.233 4.46-14.225a14.78 14.78 0 0 0-25.78-13.489l-8.13 10.481ZM1111.71 267.967a4.484 4.484 0 0 0 1.32 6.206 4.494 4.494 0 0 0 6.21-1.326 4.485 4.485 0 0 0-1.33-6.205 4.479 4.479 0 0 0-6.2 1.325Z"></path><path stroke="#fff" stroke-linecap="round" stroke-linejoin="round" stroke-miterlimit="10" stroke-width="2" d="M1120.02 281.479c.55-2.581-.18-5.402-1.91-7.397"></path><path fill="#fff" d="m1102.62 301.152-10.95-4.488 4.27.547 6.68 3.941Z"></path><path stroke="#fff" stroke-width="2" d="m1260.43 461.287-.72.517.09-.882 2.56-24.919.03-.236.22-.091 7.25-3.017.19-.08.17.11 21.41 13.401.76.473-.86.249-10.36 3.009.58 17.599.03 1.043-.72-.754-12.04-12.58-8.59 6.158Z"></path><path stroke="#fff" stroke-linecap="round" stroke-linejoin="round" stroke-miterlimit="10" stroke-width="2" d="m1262.19 439.016 10.92 10.205-.41-14.83M1229.35 341.602c-1.92-2.279-5.63-.734-5.36 2.232l1.55 17.102a26.846 26.846 0 0 0 2.2 7.905l28.74 63.378 16.63-7.349-28.51-63.579a26.826 26.826 0 0 0-4.72-7.175l-10.53-12.514Z"></path><path stroke="#fff" stroke-linecap="round" stroke-linejoin="round" stroke-miterlimit="10" stroke-width="2" d="m1232.61 345.392 17.09 5.832 3.49 8.382-7.81 3.163M1224.37 348.251l-7.16 15.35 4.5 10.008 6.8-2.897M1231.45 376.987l16.66-7.534M1267.11 411.579l-16.54 7.436M1258.67 392.72l14.69 9.807 8.25 18.639-8.5 3.7M1242.32 401.076l-3.47 14.572 9.26 20.14 8.36-3.573"></path><path stroke="#fff" stroke-linecap="round" stroke-linejoin="round" stroke-width="2" d="m1037.29 195.779 2.43-11.984-9.73-3.595 17.03-17.974-2.44 11.983 9.73 3.595-17.02 17.975Z"></path><path fill="#fff" d="M1108.33 131.041c1.74.068 3.31.689 4.15 1.53.39.391 1.03.391 1.42 0a1 1 0 0 0 0-1.414c-1.3-1.298-3.41-2.033-5.49-2.114-2.1-.082-4.38.492-5.99 2.094a1 1 0 0 0 0 1.414c.4.39 1.03.39 1.42 0 1.09-1.091 2.76-1.577 4.49-1.51Z"></path><path fill="#fff" fill-rule="evenodd" d="M1099.69 147.161a12.967 12.967 0 0 0 8.39 3.065c7.18 0 13-5.821 13-13 0-7.18-5.82-13-13-13s-13 5.82-13 13c0 3.194 1.15 6.12 3.06 8.384l-2.21-.384-10.28 10.283c-.76.763-.76 2 0 2.763l1.38 1.381c.76.763 2 .763 2.76 0l10.29-10.283-.39-2.209Zm-2.61-9.935c0 6.075 4.92 11 11 11 6.07 0 11-4.925 11-11 0-6.076-4.93-11-11-11-6.08 0-11 4.924-11 11Zm-7.25 16.933 6.78-6.785 1.12.195.2 1.121-6.8 6.804-1.3-1.335Zm-.12 2.75-1.3 1.297-1.31-1.315 1.32-1.318 1.29 1.336Z" clip-rule="evenodd"></path><path stroke="#fff" stroke-linecap="round" stroke-linejoin="round" stroke-miterlimit="10" stroke-width="2" d="M513.216 666.847h-45.129c-5.189 0-9.396-4.21-9.396-9.402v-40.819c0-5.192 4.207-9.401 9.396-9.401h45.129c5.189 0 9.396 4.209 9.396 9.401v40.819c0 5.192-4.207 9.402-9.396 9.402Z"></path><path stroke="#fff" stroke-linecap="round" stroke-linejoin="round" stroke-miterlimit="10" stroke-width="2" d="M510.746 657.426h-40.193c-.98 0-1.774-.796-1.774-1.776v-37.249c0-.98.794-1.775 1.774-1.775h40.193c.981 0 1.775.795 1.775 1.775v37.249c0 .98-.794 1.776-1.775 1.776Z"></path><path stroke="#fff" stroke-linecap="round" stroke-linejoin="round" stroke-miterlimit="10" stroke-width="2" d="M505.683 637.025c0 8.307-6.729 15.04-15.031 15.04-8.301 0-15.032-6.733-15.032-15.04 0-8.305 6.731-15.039 15.032-15.039 8.302 0 15.031 6.734 15.031 15.039ZM458.595 650.583c-5.04-2.429-8.517-7.587-8.517-13.558 0-5.999 3.51-11.177 8.588-13.591"></path><path stroke="#fff" stroke-linecap="round" stroke-linejoin="round" stroke-miterlimit="10" stroke-width="2" d="M501.376 632.714c0 5.924-4.8 10.727-10.722 10.727-5.921 0-10.721-4.803-10.721-10.727M487.271 631.206v4.657M494.033 631.206v4.657"></path><path stroke="#fff" stroke-linejoin="round" stroke-width="2" d="M593.245 612.373c15.881 3.295 18.587 5.989 22.065 21.967 3.124-15.993 5.769-18.699 21.577-22.065-15.881-3.294-18.586-5.988-22.063-21.966-3.125 15.993-5.772 18.699-21.579 22.064Z"></path><path stroke="#fff" stroke-linecap="round" stroke-linejoin="round" stroke-miterlimit="10" stroke-width="2" d="m608.725 733.251 14.644-6.106M597.41 729.463l32.511-20.415M613.941 692.735l10.461-8.51M550.195 733.251l-14.644-6.106M561.511 729.463 529 709.048M544.981 692.737l-10.46-8.51M561.073 686.003l-9.407 16.538h18.814l-9.407-16.538ZM579.887 686.003l-9.407 16.538h18.815l-9.408-16.538ZM598.703 686.003l-9.408 16.538h18.815l-9.407-16.538ZM579.888 729.463l-28.222-26.921h18.814l9.408 26.921Z"></path><path stroke="#fff" stroke-linecap="round" stroke-linejoin="round" stroke-miterlimit="10" stroke-width="2" d="m579.887 729.463-9.407-26.921h18.815l-9.408 26.921ZM579.888 729.463l9.407-26.921h18.815l-28.222 26.921ZM598.702 686.004h-37.63M436.195 713.466l-41.178-47.514M399.472 703.501l-50.241-39.276M421.796 720.954l-13.291-10.39M359.932 711.332l-11.854-4.777M405.958 729.88l-39.825-16.049M466.382 746.435a48.298 48.298 0 0 1 8.432 15.356c.979 2.957-.927 6.07-3.989 6.641-15.202 2.833-31.496-1.614-43.276-13.356a48.398 48.398 0 0 1-11.823-19.102c-.98-2.958.926-6.07 3.988-6.641a48.894 48.894 0 0 1 17.268-.116"></path><path stroke="#fff" stroke-linecap="round" stroke-linejoin="round" stroke-miterlimit="10" stroke-width="2" d="M424.327 735.968a3.703 3.703 0 1 0 5.246 5.229 3.703 3.703 0 0 0-5.246-5.229ZM436.499 743.034a3.703 3.703 0 1 0 5.246 5.229 3.703 3.703 0 0 0-5.246-5.229ZM448.675 750.101a3.703 3.703 0 1 0 5.246 5.229 3.703 3.703 0 0 0-5.246-5.229ZM436.938 729.212l29.449 17.233 4.467-14.225a14.785 14.785 0 0 0-25.788-13.489l-8.128 10.481ZM452.707 699.967a4.488 4.488 0 0 0 1.325 6.206 4.488 4.488 0 0 0 4.881-7.531 4.487 4.487 0 0 0-6.206 1.325Z"></path><path stroke="#fff" stroke-linecap="round" stroke-linejoin="round" stroke-miterlimit="10" stroke-width="2" d="M461.017 713.479c.551-2.581-.175-5.402-1.903-7.397"></path><path fill="#fff" d="m443.623 733.152-10.951-4.488 4.267.547 6.684 3.941Z"></path><path stroke="#fff" stroke-linecap="round" stroke-linejoin="round" stroke-width="2" d="m378.286 627.779 2.433-11.984-9.731-3.595 17.028-17.974-2.432 11.983 9.73 3.595-17.028 17.975Z"></path><path fill="#fff" d="M449.33 563.041c1.741.068 3.313.689 4.154 1.53a.999.999 0 1 0 1.414-1.414c-1.297-1.298-3.409-2.033-5.49-2.114-2.095-.082-4.382.492-5.984 2.094a1 1 0 0 0 1.415 1.414c1.091-1.091 2.764-1.577 4.491-1.51Z"></path><path fill="#fff" fill-rule="evenodd" d="M440.694 579.161a12.947 12.947 0 0 0 8.384 3.065c7.18 0 13-5.821 13-13 0-7.18-5.82-13-13-13s-13 5.82-13 13c0 3.194 1.153 6.12 3.065 8.384l-2.209-.384-10.284 10.283c-.763.763-.763 2 0 2.763l1.382 1.381c.763.763 2 .763 2.762 0l10.284-10.283-.384-2.209Zm-2.616-9.935c0 6.075 4.925 11 11 11s11-4.925 11-11c0-6.076-4.925-11-11-11s-11 4.924-11 11Zm-7.249 16.933 6.785-6.785 1.121.195.195 1.121-6.805 6.804-1.296-1.335Zm-.118 2.75-1.298 1.297-1.316-1.315 1.318-1.318 1.296 1.336Z" clip-rule="evenodd"></path><path stroke="#fff" stroke-linecap="round" stroke-linejoin="round" stroke-miterlimit="10" stroke-width="2" d="M1172.22 666.847h-45.13c-5.19 0-9.4-4.21-9.4-9.402v-40.819c0-5.192 4.21-9.401 9.4-9.401h45.13c5.19 0 9.39 4.209 9.39 9.401v40.819c0 5.192-4.2 9.402-9.39 9.402Z"></path><path stroke="#fff" stroke-linecap="round" stroke-linejoin="round" stroke-miterlimit="10" stroke-width="2" d="M1169.75 657.426h-40.2c-.98 0-1.77-.796-1.77-1.776v-37.249c0-.98.79-1.775 1.77-1.775h40.2c.98 0 1.77.795 1.77 1.775v37.249c0 .98-.79 1.776-1.77 1.776Z"></path><path stroke="#fff" stroke-linecap="round" stroke-linejoin="round" stroke-miterlimit="10" stroke-width="2" d="M1164.68 637.025c0 8.307-6.73 15.04-15.03 15.04-8.3 0-15.03-6.733-15.03-15.04 0-8.305 6.73-15.039 15.03-15.039 8.3 0 15.03 6.734 15.03 15.039ZM1117.59 650.583c-5.03-2.429-8.51-7.587-8.51-13.558 0-5.999 3.51-11.177 8.59-13.591"></path><path stroke="#fff" stroke-linecap="round" stroke-linejoin="round" stroke-miterlimit="10" stroke-width="2" d="M1160.38 632.714c0 5.924-4.8 10.727-10.73 10.727-5.92 0-10.72-4.803-10.72-10.727M1146.27 631.206v4.657M1153.03 631.206v4.657"></path><path stroke="#fff" stroke-linejoin="round" stroke-width="2" d="M1252.24 612.373c15.89 3.295 18.59 5.989 22.07 21.967 3.12-15.993 5.77-18.699 21.58-22.065-15.88-3.294-18.59-5.988-22.07-21.966-3.12 15.993-5.77 18.699-21.58 22.064Z"></path><path stroke="#fff" stroke-linecap="round" stroke-linejoin="round" stroke-miterlimit="10" stroke-width="2" d="m1267.73 733.251 14.64-6.106M1256.41 729.463c10.84-6.805 21.67-13.61 32.51-20.415M1272.94 692.735c3.49-2.836 6.97-5.673 10.46-8.51M1209.2 733.251c-4.89-2.035-9.77-4.07-14.65-6.106M1220.51 729.463c-10.84-6.805-21.67-13.61-32.51-20.415M1203.98 692.737c-3.49-2.836-6.97-5.673-10.46-8.51M1220.07 686.003l-9.4 16.538h18.81l-9.41-16.538ZM1238.89 686.003l-9.41 16.538h18.81l-9.4-16.538ZM1257.7 686.003l-9.4 16.538h18.81l-9.41-16.538ZM1238.89 729.463l-28.22-26.921h18.81l9.41 26.921Z"></path><path stroke="#fff" stroke-linecap="round" stroke-linejoin="round" stroke-miterlimit="10" stroke-width="2" d="m1238.89 729.463-9.41-26.921h18.81l-9.4 26.921ZM1238.89 729.463l9.41-26.921h18.81l-28.22 26.921ZM1257.7 686.004h-37.63M1095.2 713.466l-41.18-47.514M1058.47 703.501l-50.24-39.276M1080.8 720.954l-13.29-10.39M1018.93 711.332l-11.85-4.777M1064.96 729.88l-39.83-16.049M1125.38 746.435a48.214 48.214 0 0 1 8.43 15.356c.98 2.957-.92 6.07-3.98 6.641-15.21 2.833-31.5-1.614-43.28-13.356a48.334 48.334 0 0 1-11.82-19.102c-.98-2.958.92-6.07 3.98-6.641a48.908 48.908 0 0 1 17.27-.116"></path><path stroke="#fff" stroke-linecap="round" stroke-linejoin="round" stroke-miterlimit="10" stroke-width="2" d="M1083.33 735.968a3.696 3.696 0 0 0 .01 5.237 3.694 3.694 0 0 0 5.23-.009 3.696 3.696 0 0 0-.01-5.237 3.694 3.694 0 0 0-5.23.009ZM1095.5 743.034a3.696 3.696 0 0 0 .01 5.237 3.695 3.695 0 0 0 5.23-.008 3.705 3.705 0 0 0 0-5.237 3.706 3.706 0 0 0-5.24.008ZM1107.67 750.101a3.705 3.705 0 0 0 5.25 5.228 3.705 3.705 0 0 0-5.25-5.228ZM1095.94 729.212l29.45 17.233 4.46-14.225a14.78 14.78 0 0 0-25.78-13.489l-8.13 10.481ZM1111.71 699.967a4.484 4.484 0 0 0 1.32 6.206 4.494 4.494 0 0 0 6.21-1.326 4.485 4.485 0 0 0-1.33-6.205 4.479 4.479 0 0 0-6.2 1.325Z"></path><path stroke="#fff" stroke-linecap="round" stroke-linejoin="round" stroke-miterlimit="10" stroke-width="2" d="M1120.02 713.479c.55-2.581-.18-5.402-1.91-7.397"></path><path fill="#fff" d="m1102.62 733.152-10.95-4.488 4.27.547 6.68 3.941Z"></path><path stroke="#fff" stroke-linecap="round" stroke-linejoin="round" stroke-width="2" d="m1037.29 627.779 2.43-11.984-9.73-3.595 17.03-17.974-2.44 11.983 9.73 3.595-17.02 17.975Z"></path><path fill="#fff" d="M1108.33 563.041c1.74.068 3.31.689 4.15 1.53.39.391 1.03.391 1.42 0a1 1 0 0 0 0-1.414c-1.3-1.298-3.41-2.033-5.49-2.114-2.1-.082-4.38.492-5.99 2.094a1 1 0 0 0 0 1.414c.4.39 1.03.39 1.42 0 1.09-1.091 2.76-1.577 4.49-1.51Z"></path><path fill="#fff" fill-rule="evenodd" d="M1099.69 579.161a12.967 12.967 0 0 0 8.39 3.065c7.18 0 13-5.821 13-13 0-7.18-5.82-13-13-13s-13 5.82-13 13c0 3.194 1.15 6.12 3.06 8.384l-2.21-.384-10.28 10.283c-.76.763-.76 2 0 2.763l1.38 1.381c.76.763 2 .763 2.76 0l10.29-10.283-.39-2.209Zm-2.61-9.935c0 6.075 4.92 11 11 11 6.07 0 11-4.925 11-11 0-6.076-4.93-11-11-11-6.08 0-11 4.924-11 11Zm-7.25 16.933 6.78-6.785 1.12.195.2 1.121-6.8 6.804-1.3-1.335Zm-.12 2.75-1.3 1.297-1.31-1.315 1.32-1.318 1.29 1.336Z" clip-rule="evenodd"></path></g></g><defs><linearGradient id="9c8158ba35e--a" x1="756" x2="756" y1="83.989" y2="670.188" gradientUnits="userSpaceOnUse"><stop stop-color="#642FC3"></stop><stop offset="1" stop-color="#642FC3" stop-opacity="0"></stop></linearGradient><linearGradient id="9c8158ba35e--b" x1="756" x2="756" y1="83.989" y2="670.188" gradientUnits="userSpaceOnUse"><stop stop-color="#642FC3"></stop><stop offset="1" stop-color="#642FC3" stop-opacity="0"></stop></linearGradient></defs></svg>