<svg xmlns:xlink="http://www.w3.org/1999/xlink" xmlns="http://www.w3.org/2000/svg" fill="none" class="-mgk-variable-stroke-asset" viewBox="0 0 90 113" role="img" width="90"  height="113" >
  <path vector-effect="non-scaling-stroke" fill="#FFB8FF" d="M55.63 104.827 34.885 92.092c-3.405-2.072-4.475-6.49-2.388-9.867q.171-.273.362-.525a7.2 7.2 0 0 0-1.785 1.952c-2.086 3.377-1.016 7.795 2.39 9.866l20.742 12.736c3.22 1.959 7.374 1.115 9.58-1.84a7.27 7.27 0 0 1-8.158.413" stroke-width="1.5px"></path>
  <path vector-effect="non-scaling-stroke" fill="#FFFFBE" d="m57.719 21.429-.223.066.176.618.222-.068z" stroke-width="1.5px"></path>
  <path vector-effect="non-scaling-stroke" fill="#FFFFC5" d="m68.715 41.459-.185.14q.002.004.005.008l.186-.14c0-.003-.005-.005-.006-.008" stroke-width="1.5px"></path>
  <path vector-effect="non-scaling-stroke" fill="#FFFFC5" d="m68.53 41.598-.186.14c0 .003.005.005.006.007l.186-.14c0-.002-.005-.005-.006-.007" stroke-width="1.5px"></path>
  <path vector-effect="non-scaling-stroke" fill="#FFFFC5" d="m68.345 41.737-.186.14q.002.004.006.008l.186-.14c0-.003-.005-.005-.006-.008" stroke-width="1.5px"></path>
  <path vector-effect="non-scaling-stroke" fill="#FFFFC5" d="m68.16 41.878-.187.14c0 .002.005.005.006.007l.186-.14c0-.002-.005-.005-.006-.007" stroke-width="1.5px"></path>
  <path vector-effect="non-scaling-stroke" fill="url(&quot;#d8d50a791e9--GirlSitting_svg__a&quot;)" d="M11.36 15.21c0 6.376 5.205 11.544 11.627 11.544 6.421 0 11.628-5.168 11.628-11.544 0-6.375-5.207-11.543-11.628-11.543S11.359 8.835 11.359 15.21" stroke-width="1.5px"></path>
  <path vector-effect="non-scaling-stroke" fill="url(&quot;#d8d50a791e9--GirlSitting_svg__b&quot;)" d="M61.097 15.21c0 6.376 5.205 11.544 11.627 11.544s11.628-5.168 11.628-11.544c0-6.375-5.206-11.543-11.628-11.543S61.096 8.835 61.096 15.21" stroke-width="1.5px"></path>
  <path vector-effect="non-scaling-stroke" fill="#FFFFFF" stroke="#00005A" stroke-width="1.5px" d="M82.101 59.711 57.313 70.034c-3.682 1.534-7.918-.187-9.463-3.842-1.544-3.654.189-7.86 3.87-9.393L76.51 46.476c3.682-1.533 7.918.186 9.462 3.842 1.545 3.655-.188 7.86-3.87 9.393Z"></path>
  <path vector-effect="non-scaling-stroke" fill="#FFFFFF" d="m40.307 81.414 23.25 14.275c3.817 2.322 5.015 7.273 2.677 11.059-2.337 3.787-7.328 4.973-11.145 2.652l-23.25-14.276c-3.817-2.322-5.016-7.273-2.678-11.059s7.328-4.973 11.146-2.65" stroke-width="1.5px"></path>
  <path vector-effect="non-scaling-stroke" fill="#FFFFFF" stroke="#00005A" stroke-width="1.5px" d="M43.078 78.776c.602-4.518 4.781-7.695 9.336-7.097l24.168 3.273c4.553.599 7.758 4.745 7.157 9.261-.59 4.434-4.85 7.724-9.34 7.097l-24.166-3.275c-4.552-.599-7.756-4.743-7.155-9.26Z"></path>
  <path vector-effect="non-scaling-stroke" fill="#FFB8FF" d="m75.262 88.366-24.17-3.274c-3.959-.52-6.745-4.125-6.222-8.052.028-.213.07-.42.115-.626a7.1 7.1 0 0 0-.83 2.503c-.523 3.927 2.263 7.532 6.223 8.052l24.168 3.274c3.745.49 7.195-1.955 8.001-5.544a7.24 7.24 0 0 1-7.285 3.667M56.914 106.68 33.553 92.583c-3.835-2.292-5.073-7.234-2.764-11.038q.19-.307.401-.592a8 8 0 0 0-1.983 2.203c-2.308 3.804-1.07 8.746 2.765 11.038l23.36 14.096c3.627 2.168 8.275 1.186 10.722-2.144-2.567 1.972-6.19 2.297-9.14.534" stroke-width="1.5px"></path>
  <path vector-effect="non-scaling-stroke" stroke="#00005A" stroke-linecap="round" stroke-linejoin="round" stroke-miterlimit="10" stroke-width="1.5px" d="m40.307 81.414 23.25 14.275c3.817 2.322 5.015 7.273 2.677 11.059-2.337 3.787-7.328 4.973-11.145 2.652l-23.25-14.276c-3.817-2.322-5.016-7.273-2.678-11.059s7.328-4.973 11.146-2.65" fill="none"></path>
  <path vector-effect="non-scaling-stroke" fill="url(&quot;#d8d50a791e9--GirlSitting_svg__c&quot;)" d="m20.813 82.455 35.18 7.798-4.388-29.46-15.34-3.264z" stroke-width="1.5px"></path>
  <path vector-effect="non-scaling-stroke" fill="#FFFFFF" d="m24.253 82.454 15.051-24.278-3.038-.647-15.453 24.925 35.181 7.8-.117-.789z" stroke-width="1.5px"></path>
  <path vector-effect="non-scaling-stroke" fill="#FFFFFF" d="M70.32 38.393c0 12.326-10.065 22.318-22.481 22.318S25.358 50.72 25.358 38.393s10.065-22.318 22.48-22.318c12.417 0 22.482 9.992 22.482 22.318" stroke-width="1.5px"></path>
  <path vector-effect="non-scaling-stroke" fill="#FFAAFF" d="M41.483 47.606c1.504-1.075 3.559-1.34 5.29-.686 1.733.655 3.088 2.21 3.492 4.006-3.125.73-7.037-.647-8.782-3.32" stroke-width="1.5px"></path>
  <path vector-effect="non-scaling-stroke" fill="url(&quot;#d8d50a791e9--GirlSitting_svg__d&quot;)" d="M27.44 29.868c.022.155.192.352.89.39 1.177.066 16.029.066 16.029.066l3.48-7.258 3.722 7.257L68.698 30s-5.234-12.991-21.33-13.77c0 0-.098-.005-.281-.005-2.023 0-14.413.543-19.647 13.644m.005-.11.033-.084s-.02.033-.033.084m-.032.176.027-.066a.3.3 0 0 1 .005-.11c-.46 1.167-5.47 13.888-.032.176" stroke-width="1.5px"></path>
  <path vector-effect="non-scaling-stroke" fill="#FFF300" d="M25.158 26.539c-6.423 0-11.628-5.169-11.628-11.544 0-5.612 4.034-10.286 9.38-11.326-6.386.04-11.552 5.192-11.552 11.542 0 6.375 5.206 11.543 11.628 11.543.768 0 1.52-.076 2.247-.217zM62.616 15.21c0-6.12 4.8-11.127 10.867-11.515a12 12 0 0 0-.76-.028c-6.421 0-11.627 5.169-11.627 11.544s5.206 11.543 11.627 11.543q.384 0 .76-.027c-6.067-.389-10.867-5.394-10.867-11.516" stroke-width="1.5px"></path>
  <path vector-effect="non-scaling-stroke" fill="#FFB8FF" d="M50.253 60.511c-12.416 0-22.48-9.992-22.48-22.318 0-11.278 8.429-20.598 19.374-22.1-12.095.363-21.79 10.205-21.79 22.3 0 12.326 10.065 22.318 22.482 22.318 1.054 0 2.09-.077 3.106-.217-.23.007-.46.017-.692.017" stroke-width="1.5px"></path>
  <path vector-effect="non-scaling-stroke" fill="#FFF300" d="M28.329 30.26c.14.007.475.013.95.02 5.774-14.036 19.827-13.404 19.827-13.404 2.728.132 5.137.62 7.269 1.331-2.53-1.062-5.51-1.808-9.007-1.978 0 0-14.218-.645-19.927 13.64.023.155.193.352.888.39" stroke-width="1.5px"></path>
  <path vector-effect="non-scaling-stroke" stroke="#00005A" stroke-linecap="round" stroke-linejoin="round" stroke-miterlimit="10" stroke-width="1.5px" d="M70.32 38.393c0 12.326-10.065 22.318-22.481 22.318S25.358 50.72 25.358 38.393s10.065-22.318 22.48-22.318c12.417 0 22.482 9.992 22.482 22.318" fill="none"></path>
  <path vector-effect="non-scaling-stroke" stroke="#00005A" stroke-linecap="round" stroke-linejoin="round" stroke-miterlimit="10" stroke-width="1.5px" d="M34.613 15.21c0 6.376-5.205 11.544-11.627 11.544S11.358 21.586 11.358 15.21c0-6.375 5.206-11.543 11.628-11.543S34.613 8.835 34.613 15.21M84.352 15.21c0 6.376-5.206 11.544-11.628 11.544S61.096 21.586 61.096 15.21c0-6.375 5.206-11.543 11.628-11.543S84.352 8.835 84.352 15.21M26.876 30.324h17.24l3.723-7.258 3.723 7.258h17.24M51.884 39.257c0-2.064 1.684-3.736 3.763-3.736s3.764 1.672 3.764 3.736M36.266 39.257c0-2.064 1.684-3.736 3.763-3.736 2.08 0 3.764 1.672 3.764 3.736M55.261 43.867c0 4.07-3.323 7.369-7.422 7.369s-7.423-3.3-7.423-7.37z" fill="none"></path>
  <path vector-effect="non-scaling-stroke" fill="#00005A" d="M41.777 47.66a5.97 5.97 0 0 1 4.958-.48 5.91 5.91 0 0 1 3.528 3.49c1.414-.508 2.643-1.385 3.502-2.61a7.3 7.3 0 0 0 1.319-4.209H40.77c-.11 1.385.13 2.724 1.007 3.808" stroke-width="1.5px"></path>
  <path vector-effect="non-scaling-stroke" stroke="#00005A" stroke-linecap="round" stroke-linejoin="round" stroke-miterlimit="10" stroke-width="1.5px" d="M61.795 16.723c2.372.27 4.851-.642 6.471-2.382 1.574-1.69 2.343-4.056 4.128-5.524 1.34-1.103 3.118-1.568 4.857-1.617 1.246-.035 2.484.125 3.713.342M66.175 24.538c.212-2.19 1.822-4.183 3.928-4.866 2.243-.727 4.851-.062 6.934-1.164 1.22-.645 2.068-1.805 3.132-2.682 1.063-.878 2.627-1.467 3.808-.751M33.7 19.302c-.957-.451-2.021-.613-3.043-.889s-2.06-.706-2.71-1.537c-1.477-1.889-.298-4.812-1.432-6.921-.785-1.461-2.48-2.169-4.083-2.63-1.602-.462-3.32-.828-4.55-1.947M26.352 25.882c-.995-.567-1.28-1.841-1.405-2.973s-.243-2.386-1.09-3.154c-1.483-1.344-3.987-.23-5.805-1.079-.877-.41-1.483-1.233-1.965-2.069-.483-.836-.89-1.73-1.543-2.443s-1.632-1.228-2.58-1.025M37.56 30.143a4.63 4.63 0 0 1 .274-4.362c.682-1.078 1.782-1.825 2.596-2.81 1.294-1.562 1.799-3.738 1.325-5.705M54.203 17.127a4.25 4.25 0 0 0 .088 3.996c.632 1.102 1.724 1.858 2.553 2.823 1.382 1.609 1.994 3.844 1.622 5.926M51.77 60.465l4.225 29.788-35.18-7.799L36.266 57.53" fill="none"></path>
  <path vector-effect="non-scaling-stroke" fill="#FFFFFF" d="M36.694 69.089 11.906 79.412c-3.682 1.533-7.918-.187-9.463-3.842s.189-7.86 3.87-9.394l24.789-10.323c3.681-1.533 7.918.187 9.462 3.842s-.188 7.861-3.87 9.394" stroke-width="1.5px"></path>
  <path vector-effect="non-scaling-stroke" fill="#FFB8FF" d="M4.053 76.966c-1.545-3.654.188-7.86 3.87-9.393L32.71 57.25a7.27 7.27 0 0 1 6.706.584 7.27 7.27 0 0 0-8.316-1.983L6.313 66.174c-3.682 1.533-5.414 5.74-3.87 9.394a7.15 7.15 0 0 0 2.756 3.258 7.2 7.2 0 0 1-1.146-1.86" stroke-width="1.5px"></path>
  <path vector-effect="non-scaling-stroke" stroke="#00005A" stroke-linecap="round" stroke-linejoin="round" stroke-miterlimit="10" stroke-width="1.5px" d="M36.694 69.089 11.906 79.412c-3.682 1.533-7.918-.187-9.463-3.842s.189-7.86 3.87-9.394l24.789-10.323c3.681-1.533 7.918.187 9.462 3.842s-.188 7.861-3.87 9.394" fill="none"></path>
  <path vector-effect="non-scaling-stroke" fill="#00005A" d="m55.443 91.146-27.477-2.578 1.063-4.506 26.606 6.689zM37.778 68.966 23.983 77.73l2.69-4.314M40.945 59.86c.08.912.413 1.892.492 2.803 3.29-.197 6.549-.88 9.638-2.02-3.248.376-6.963.024-10.13-.784" stroke-width="1.5px"></path>
  <defs>
    <linearGradient id="d8d50a791e9--GirlSitting_svg__a" x1="22.987" x2="22.987" y1="31.687" y2="3.87" gradientUnits="userSpaceOnUse">
      <stop stop-color="#FF77AD"></stop>
      <stop offset=".151" stop-color="#FF77AD"></stop>
      <stop offset=".484" stop-color="#FF77AD"></stop>
      <stop offset="1" stop-color="#FFE700"></stop>
    </linearGradient>
    <linearGradient id="d8d50a791e9--GirlSitting_svg__b" x1="72.724" x2="72.724" y1="31.687" y2="3.87" gradientUnits="userSpaceOnUse">
      <stop stop-color="#FF77AD"></stop>
      <stop offset=".151" stop-color="#FF77AD"></stop>
      <stop offset=".484" stop-color="#FF77AD"></stop>
      <stop offset="1" stop-color="#FFE700"></stop>
    </linearGradient>
    <linearGradient id="d8d50a791e9--GirlSitting_svg__c" x1="20.813" x2="55.994" y1="73.891" y2="73.891" gradientUnits="userSpaceOnUse">
      <stop stop-color="#B070FF"></stop>
      <stop offset=".262" stop-color="#B070FF"></stop>
      <stop offset=".585" stop-color="#B070FF"></stop>
      <stop offset="1" stop-color="#5F2ABF"></stop>
    </linearGradient>
    <linearGradient id="d8d50a791e9--GirlSitting_svg__d" x1="46.799" x2="46.799" y1="31.687" y2="3.87" gradientUnits="userSpaceOnUse">
      <stop stop-color="#FF77AD"></stop>
      <stop offset=".151" stop-color="#FF77AD"></stop>
      <stop offset=".484" stop-color="#FF77AD"></stop>
      <stop offset="1" stop-color="#FFE700"></stop>
    </linearGradient>
  <linearGradient id="d8d50a791e9--GirlSitting_svg__a" x1="22.987" x2="22.987" y1="31.687" y2="3.87" gradientUnits="userSpaceOnUse">
      <stop stop-color="#FF77AD"></stop>
      <stop offset=".151" stop-color="#FF77AD"></stop>
      <stop offset=".484" stop-color="#FF77AD"></stop>
      <stop offset="1" stop-color="#FFE700"></stop>
    </linearGradient><linearGradient id="d8d50a791e9--GirlSitting_svg__b" x1="72.724" x2="72.724" y1="31.687" y2="3.87" gradientUnits="userSpaceOnUse">
      <stop stop-color="#FF77AD"></stop>
      <stop offset=".151" stop-color="#FF77AD"></stop>
      <stop offset=".484" stop-color="#FF77AD"></stop>
      <stop offset="1" stop-color="#FFE700"></stop>
    </linearGradient><linearGradient id="d8d50a791e9--GirlSitting_svg__c" x1="20.813" x2="55.994" y1="73.891" y2="73.891" gradientUnits="userSpaceOnUse">
      <stop stop-color="#B070FF"></stop>
      <stop offset=".262" stop-color="#B070FF"></stop>
      <stop offset=".585" stop-color="#B070FF"></stop>
      <stop offset="1" stop-color="#5F2ABF"></stop>
    </linearGradient><linearGradient id="d8d50a791e9--GirlSitting_svg__d" x1="46.799" x2="46.799" y1="31.687" y2="3.87" gradientUnits="userSpaceOnUse">
      <stop stop-color="#FF77AD"></stop>
      <stop offset=".151" stop-color="#FF77AD"></stop>
      <stop offset=".484" stop-color="#FF77AD"></stop>
      <stop offset="1" stop-color="#FFE700"></stop>
    </linearGradient></defs>
</svg>