<svg xmlns:xlink="http://www.w3.org/1999/xlink" xmlns="http://www.w3.org/2000/svg" fill="none" viewBox="0 0 25 24" role="img" width="25"  height="24" ><g clip-path="url(#25732fc6a16--a)" fill="none"><path fill="#4285F4" d="M22.288 12.225c0-.659-.059-1.284-.159-1.892h-9.417v3.758h5.392c-.241 1.234-.95 2.275-2 2.984v2.5h3.217c1.883-1.742 2.966-4.309 2.966-7.35Z"></path><path fill="#34A853" d="M12.713 22c2.7 0 4.958-.9 6.608-2.425l-3.217-2.5c-.9.6-2.041.966-3.391.966-2.609 0-4.817-1.758-5.609-4.133H3.787v2.575C5.43 19.75 8.804 22 12.712 22Z"></path><path fill="#FBBC05" d="M7.104 13.908A5.803 5.803 0 0 1 6.788 12c0-.667.116-1.308.316-1.908V7.517H3.788a9.884 9.884 0 0 0 0 8.966l3.316-2.575Z"></path><path fill="#EA4335" d="M12.713 5.958c1.475 0 2.791.509 3.833 1.5l2.85-2.85C17.67 2.992 15.412 2 12.712 2 8.805 2 5.43 4.25 3.787 7.517l3.317 2.575c.792-2.375 3-4.134 5.609-4.134Z"></path></g><defs><clipPath id="25732fc6a16--a"><path fill="#fff" d="M2.5 2h20v20h-20z"></path></clipPath></defs></svg>