<svg xmlns:xlink="http://www.w3.org/1999/xlink" xmlns="http://www.w3.org/2000/svg" fill="none" viewBox="0 0 41 48" role="img" width="41"  height="48" ><path fill="#00C7A4" d="M24.13 46.91a1.875 1.875 0 0 1-2.472-.959l-6.815-15.437A1.875 1.875 0 0 1 18.274 29l6.057 13.721 13.722-6.057a1.875 1.875 0 0 1 1.515 3.43L24.13 46.91ZM2.5 4.374a1.875 1.875 0 1 1 0-3.75v3.75Zm19.125 40.142c4.327-11.166 4.69-21.287 1.498-28.484C20.003 9 13.316 4.375 2.5 4.375V.625c12.057 0 20.237 5.29 24.05 13.887 3.742 8.434 3.105 19.66-1.428 31.36l-3.497-1.355Z"></path></svg>