<svg xmlns:xlink="http://www.w3.org/1999/xlink" xmlns="http://www.w3.org/2000/svg" fill="none" viewBox="0 0 83 101" role="img" width="83"  height="101" ><path fill="#00C7A4" d="M66.138.994a1.875 1.875 0 0 0-2.52.821l-7.651 15.04a1.875 1.875 0 0 0 3.342 1.7l6.8-13.369 13.37 6.8a1.875 1.875 0 0 0 1.7-3.342L66.139.994Zm-63.4 96.037a1.875 1.875 0 0 0 .111 3.749l-.11-3.749ZM63.506 3.246c7.124 21.87 7.718 44.894-1.247 62.58-8.89 17.539-27.406 30.258-59.52 31.205l.111 3.749c33.164-.98 53.11-14.232 62.754-33.258 9.57-18.879 8.772-43.012 1.468-65.438l-3.566 1.162Z"></path></svg>