<svg xmlns:xlink="http://www.w3.org/1999/xlink" xmlns="http://www.w3.org/2000/svg" fill="none" viewBox="0 0 24 24" role="img" width="24"  height="24" >
  <path fill="#777EF0" fill-rule="evenodd" d="M6.645 4.8a.43.43 0 0 0-.428-.155l-.424.09a.29.29 0 0 0-.187.135l-.124.212a18.5 18.5 0 0 0-2.388 11.7.73.73 0 0 0 .455.583l3.125 1.228a.75.75 0 0 0 .446.032 1.25 1.25 0 0 1 1.36-2.042c2.4 1 5.1 1 7.5 0a1.25 1.25 0 0 1 1.42 1.981l3.052-1.199a.73.73 0 0 0 .454-.583 18.5 18.5 0 0 0-2.388-11.7l-.124-.212a.29.29 0 0 0-.186-.135l-.425-.09a.43.43 0 0 0-.428.154l-.98 1.245-1.452-.66a7.06 7.06 0 0 0-5.846 0l-1.452.66zm7.674 14.854a3.25 3.25 0 0 0 3.921 1.266l3.126-1.228a3.23 3.23 0 0 0 2.02-2.593 21 21 0 0 0-2.71-13.28l-.124-.212a2.79 2.79 0 0 0-1.823-1.317l-.425-.09a2.93 2.93 0 0 0-2.66.771A9.6 9.6 0 0 0 12 2.25V3.5 2.25a9.6 9.6 0 0 0-3.644.721 2.93 2.93 0 0 0-2.66-.771l-.425.09a2.79 2.79 0 0 0-1.823 1.317l-.123.211A21 21 0 0 0 .615 17.1a3.23 3.23 0 0 0 2.02 2.593L5.76 20.92a3.25 3.25 0 0 0 3.97-1.345c1.512.316 3.07.342 4.589.08m-6.757-9.14c-.173.215-.312.56-.312.986s.14.771.312.987c.17.213.333.263.438.263s.267-.05.438-.263c.173-.216.312-.56.312-.987s-.14-.771-.312-.987c-.17-.213-.333-.263-.438-.263s-.267.05-.438.263M4.75 11.5c0-1.796 1.21-3.75 3.25-3.75s3.25 1.954 3.25 3.75-1.21 3.75-3.25 3.75-3.25-1.954-3.25-3.75m10.5 0c0-.426.14-.771.312-.987.17-.213.334-.263.438-.263.105 0 .267.05.438.263.173.216.312.56.312.987s-.14.771-.312.987c-.17.213-.333.263-.438.263s-.267-.05-.438-.263c-.173-.216-.312-.56-.312-.987M16 7.75c-2.04 0-3.25 1.954-3.25 3.75s1.21 3.75 3.25 3.75 3.25-1.954 3.25-3.75S18.04 7.75 16 7.75" clip-rule="evenodd"></path>
</svg>