<svg xmlns="http://www.w3.org/2000/svg" fill="none" class="-mgk-variable-stroke-asset" viewBox="0 0 374 178" role="img">
  <mask id="214dce1e043--SceneOnsenDark_svg__a" width="374" height="178" x="0" y="0" maskUnits="userSpaceOnUse" style="mask-type:luminance">
    <path vector-effect="non-scaling-stroke" fill="#fff" d="M0 0h374v178H0z"></path>
  </mask>
  <g mask="url(#214dce1e043--SceneOnsenDark_svg__a)">
    <path vector-effect="non-scaling-stroke" fill="url(#214dce1e043--SceneOnsenDark_svg__b)" d="M31.821 17.195H339.57v110.597H31.821z"></path>
    <path vector-effect="non-scaling-stroke" fill="url(#214dce1e043--SceneOnsenDark_svg__c)" d="M197.65 158.237c-11.902.301-23.811.18-35.704-.364.574 1.505.3 3.465-.376 4.927 1.596.234 3.238 1.096 4.297 2.311a6.9 6.9 0 0 1 1.683 4.427c3.356 5.493 9.475 9.358 15.913 9.215 1.3-.029 2.615-.2 3.81-.714s2.263-1.399 2.81-2.578c.624-1.348.513-2.901.574-4.385.074-1.818.451-3.685 1.506-5.168 1.054-1.485 2.893-2.505 4.688-2.199-.428-2.061.128-4.237 1.369-5.938z"></path>
    <path vector-effect="non-scaling-stroke" fill="url(#214dce1e043--SceneOnsenDark_svg__d)" d="M117.287 110.327a31.38 31.38 0 0 0-15.204-11.677c1.966 5.098 4.968 9.758 8.598 13.844a19.8 19.8 0 0 0-6.44-.797c3.231 2.382 5.396 5.475 6.64 9.289 4.922-1.345 9.636-3.448 14.083-5.945-.797-10.552-4.649-20.897-10.97-29.386-.554 8.456.549 16.654 3.293 24.672"></path>
    <path vector-effect="non-scaling-stroke" fill="url(#214dce1e043--SceneOnsenDark_svg__e)" d="M113.882 88.203c5.769 7.934 9.409 17.431 10.451 27.186.21-.115.423-.227.631-.344-.797-10.552-4.649-20.898-10.97-29.387-.056.851-.09 1.698-.112 2.545"></path>
    <path vector-effect="non-scaling-stroke" fill="url(#214dce1e043--SceneOnsenDark_svg__f)" d="M104.241 111.698a18.6 18.6 0 0 1 2.434 2.14c1.196.126 2.381.357 3.534.7a51 51 0 0 1-2.183-2.631 20 20 0 0 0-3.785-.209"></path>
    <path vector-effect="non-scaling-stroke" fill="url(#214dce1e043--SceneOnsenDark_svg__g)" d="M103.232 101.333a31.4 31.4 0 0 1 13.584 11.039 65 65 0 0 1-1.334-4.395 31.4 31.4 0 0 0-13.399-9.325q.526 1.363 1.149 2.681"></path>
    <path vector-effect="non-scaling-stroke" fill="url(#214dce1e043--SceneOnsenDark_svg__h)" d="M77.262 106.742a27 27 0 0 1 5.94-1.441 27 27 0 0 1 3.392-.214c13.344.001 24.915 9.925 26.626 23.5a26.7 26.7 0 0 1-1.412 12.56 27 27 0 0 1-1.139.389c-4.427-9.198-13.312-12.465-17.2-12.949-1.04 2.668-1.866 6.55-2.15 8.158-2.198-1.24-5.107-.784-6.287-.402a26.75 26.75 0 0 1-9.182-17.04 26.7 26.7 0 0 1 1.412-12.561"></path>
    <path vector-effect="non-scaling-stroke" fill="url(#214dce1e043--SceneOnsenDark_svg__i)" d="M83.202 105.303a27 27 0 0 0-5.94 1.442q-.252.694-.469 1.405a27 27 0 0 1 5.466-1.276c14.724-1.853 28.163 8.573 30.017 23.287.488 3.87.125 7.651-.943 11.156q.239-.081.475-.167a26.7 26.7 0 0 0 1.412-12.561c-1.711-13.574-13.282-23.499-26.626-23.499q-1.68 0-3.392.213"></path>
    <path vector-effect="non-scaling-stroke" fill="url(#214dce1e043--SceneOnsenDark_svg__j)" d="M95.377 115.84a3.395 3.395 0 1 0 6.79 0 3.395 3.395 0 0 0-6.79 0"></path>
    <path vector-effect="non-scaling-stroke" fill="url(#214dce1e043--SceneOnsenDark_svg__k)" d="M82.906 128.035a3.425 3.425 0 1 0 6.85-.002 3.425 3.425 0 0 0-6.85.002"></path>
    <path vector-effect="non-scaling-stroke" fill="url(#214dce1e043--SceneOnsenDark_svg__l)" d="M84.63 105.239c.597 2.149 2.565 3.85 4.779 4.13s4.544-.878 5.658-2.811c-2.722-.882-5.649-1.396-8.532-1.396q-.957 0-1.905.077"></path>
    <path vector-effect="non-scaling-stroke" fill="url(#214dce1e043--SceneOnsenDark_svg__m)" d="M76.871 123.088c1.792-1.217 2.85-3.436 2.668-5.593s-1.598-4.167-3.568-5.067c-.449 3.668-.09 7.101.9 10.66"></path>
    <path vector-effect="non-scaling-stroke" fill="url(#214dce1e043--SceneOnsenDark_svg__n)" d="M275.891 148.155c2.891-.203 5.949-.287 8.84-.489-1.139 3.381-3.587 6.845-6.482 8.931l32.295 10.504a3.86 3.86 0 0 0-1.699-2.517c-.878-.56-1.986-.957-2.995-.698.174-2.594-1.712-5.052-4.13-6.011s-5.304-.776-7.67.305c.69-4.176-.467-8.622-3.104-11.934-2.047-2.569-5.593-5.146-8.981-5.444a4 4 0 0 0-.334-.015c-3.384 0-4.001 4.781-5.74 7.368"></path>
    <path vector-effect="non-scaling-stroke" fill="url(#214dce1e043--SceneOnsenDark_svg__o)" d="m98.31 167.021 16.795-1.625c-2.83-6.571-8.502-11.861-15.258-14.228-2.584 4.747-3.278 10.738-1.537 15.853"></path>
    <path vector-effect="non-scaling-stroke" fill="url(#214dce1e043--SceneOnsenDark_svg__p)" d="M98.107 166.36c-.736-4.41.106-9.156 2.232-13.061 6.026 2.112 11.185 6.552 14.238 12.149l.528-.051c-2.83-6.571-8.502-11.86-15.258-14.228-2.474 4.544-3.208 10.226-1.74 15.191"></path>
    <path vector-effect="non-scaling-stroke" fill="url(#214dce1e043--SceneOnsenDark_svg__q)" d="M250.293 164.658c-.478-1.688-1.628-3.159-3.079-4.147-2.538 1.135-4.734 3.5-5.385 6.202l21.427 1.839a17.7 17.7 0 0 0-1.895-11.706c-4.295 1.126-8.586 4.132-11.068 7.812"></path>
    <path vector-effect="non-scaling-stroke" fill="url(#214dce1e043--SceneOnsenDark_svg__r)" d="M250.293 164.658c-.478-1.688-1.628-3.159-3.079-4.147-2.266 1.013-4.254 3.006-5.119 5.344a10.1 10.1 0 0 1 4.299-3.706c1.452.988 2.601 2.458 3.08 4.146 2.482-3.679 6.773-6.685 11.067-7.811 1.678 3.031 2.415 6.567 2.122 10.017l.594.051c.74-3.963.057-8.178-1.896-11.706-4.295 1.126-8.585 4.132-11.068 7.812"></path>
    <path vector-effect="non-scaling-stroke" stroke="#00005A" stroke-linecap="round" stroke-linejoin="round" stroke-miterlimit="10" d="M110.205 119.172c-5.119-9.462-15.682-15.296-27.003-13.871-2.072.26-4.06.751-5.94 1.441a26.7 26.7 0 0 0-1.412 12.561 26.75 26.75 0 0 0 8.808 16.715m18.82-3.017-20.871-20.412"></path>
    <path vector-effect="non-scaling-stroke" stroke="#00005A" stroke-linecap="round" stroke-linejoin="round" stroke-miterlimit="10" d="M84.417 105.115a5.898 5.898 0 0 0 8.182 3.728 5.9 5.9 0 0 0 2.508-2.238m-19.079 6.039a5.889 5.889 0 0 1 .8 10.488m15.042-1.625-.98-7.766m-.948 13.783a3.552 3.552 0 0 1-7.046.888 3.55 3.55 0 0 1 5.7-3.249 3.55 3.55 0 0 1 1.346 2.361m12.388-12.131a3.55 3.55 0 0 1-5.693 3.223 3.55 3.55 0 0 1-1.357-2.336 3.55 3.55 0 0 1 3.081-3.966 3.55 3.55 0 0 1 2.622.718 3.55 3.55 0 0 1 1.347 2.361"></path>
    <path vector-effect="non-scaling-stroke" fill="url(#214dce1e043--SceneOnsenDark_svg__s)" d="M254.01 118.12c-1.6 7.12 3.028 14.054 5.088 21.054 2.723-3.484 6.342-6.149 10.542-7.535-.437-1.372-1.461-2.592-2.795-3.135 2.442.096 5.134-.545 7.395-1.473-2.446-1.379-5.128-2.118-7.936-2.012 5.104-.23 10.412-2.04 14.766-4.71-5.194-1.268-10.733-1.085-15.732.811 6.946-3.496 13-9.317 16.893-16.046-7.826 1.247-14.782 5.035-20.117 10.891a61.4 61.4 0 0 0 5.459-22.239c-6.726 6.615-11.496 15.193-13.563 24.394"></path>
    <path vector-effect="non-scaling-stroke" fill="url(#214dce1e043--SceneOnsenDark_svg__t)" d="M263.149 114.872a60 60 0 0 1-1.507 3.603c5.043-5.535 11.536-9.219 18.841-10.659a40 40 0 0 0 1.748-2.745c-7.33 1.167-13.896 4.564-19.082 9.801"></path>
    <path vector-effect="non-scaling-stroke" fill="url(#214dce1e043--SceneOnsenDark_svg__u)" d="M254.01 118.117q-.18.813-.259 1.642c2.167-8.87 6.838-17.118 13.35-23.522a61 61 0 0 1-.74 6.77 61 61 0 0 0 1.212-9.284c-6.726 6.615-11.495 15.192-13.563 24.394"></path>
    <path vector-effect="non-scaling-stroke" fill="url(#214dce1e043--SceneOnsenDark_svg__v)" d="M271.099 119.701a39 39 0 0 1-6.233 3.932c3.99-1.513 8.326-1.932 12.555-1.396a33 33 0 0 0 3.649-1.93 28.2 28.2 0 0 0-6.672-.809q-1.656 0-3.299.203"></path>
    <path vector-effect="non-scaling-stroke" fill="url(#214dce1e043--SceneOnsenDark_svg__w)" d="M265.832 127.532c1.6-.058 3.198.154 4.728.627a21 21 0 0 0 3.681-1.129 17 17 0 0 0-1.44-.724c-2.293.688-4.652 1.121-6.969 1.226"></path>
    <path vector-effect="non-scaling-stroke" fill="url(#214dce1e043--SceneOnsenDark_svg__x)" d="M266.373 131.014c.648.265 1.222.69 1.691 1.213a21 21 0 0 1 1.576-.591 5 5 0 0 0-.347-.819c-.984.158-1.971.235-2.92.197"></path>
    <path vector-effect="non-scaling-stroke" fill="url(#214dce1e043--SceneOnsenDark_svg__y)" d="M259.998 138.351v8.708l18.436 8.852c2.841-1.691 4.883-4.881 5.64-8.097-2.691-.588-5.447-.589-8.055.299 4.061-5.208 5.797-12.341 4.595-18.834-7.867.34-15.231 3.331-20.616 9.072"></path>
    <path vector-effect="non-scaling-stroke" fill="url(#214dce1e043--SceneOnsenDark_svg__z)" d="m259.998 138.351.191.181c5.19-4.68 11.865-7.145 18.95-7.451 1.201 6.492-.534 13.626-4.595 18.833 2.607-.888 5.363-.886 8.055-.299a14 14 0 0 1-2.022 4.595c1.718-1.744 2.947-4.062 3.497-6.396-2.691-.588-5.447-.589-8.055.298 4.061-5.207 5.797-12.341 4.595-18.833-7.867.339-15.231 3.331-20.616 9.072"></path>
    <path vector-effect="non-scaling-stroke" fill="url(#214dce1e043--SceneOnsenDark_svg__A)" d="M93.382 128.639c-2.515 6.262-2.826 13.489-.353 19.767-2.263-1.406-5.219-1.949-7.88-1.816-.483 3.965.569 8.213 2.98 11.401l18.828-12.088c-.035-2.557-.067-5.115-.107-7.672-.037-2.305-.959-3.175-2.712-4.672a21.7 21.7 0 0 0-5.283-3.324c-.42-.186-4.304-1.665-5.264-1.665-.116 0-.19.021-.209.069m-6.714 30.29a7.5 7.5 0 0 1 1.899-.39q-.226-.269-.438-.548zm-3.42 2.196 3.42-2.196c-1.3.444-2.515 1.222-3.42 2.196"></path>
    <path vector-effect="non-scaling-stroke" fill="url(#214dce1e043--SceneOnsenDark_svg__B)" d="M85.148 146.591a16.3 16.3 0 0 0 .651 6.832 16.2 16.2 0 0 1-.16-4.867c2.663-.132 5.618.41 7.883 1.816a24 24 0 0 1-.706-2.091c-2.013-1.18-4.526-1.71-6.89-1.71q-.392 0-.778.02"></path>
    <path vector-effect="non-scaling-stroke" fill="url(#214dce1e043--SceneOnsenDark_svg__C)" d="M93.382 128.642c-2.253 5.611-2.73 11.993-1.028 17.776-1.08-5.239-.48-10.829 1.52-15.81.179-.446 5.002 1.386 5.473 1.596a21.7 21.7 0 0 1 5.283 3.324c1.023.874 1.76 1.534 2.206 2.39-.114-2.07-1.028-2.93-2.698-4.356a21.7 21.7 0 0 0-5.283-3.324c-.42-.186-4.304-1.665-5.264-1.665-.116 0-.19.021-.209.069"></path>
    <path vector-effect="non-scaling-stroke" fill="url(#214dce1e043--SceneOnsenDark_svg__D)" d="M86.663 158.936a8 8 0 0 1 1.08-.286q-.087-.148-.17-.298z"></path>
    <path vector-effect="non-scaling-stroke" fill="url(#214dce1e043--SceneOnsenDark_svg__E)" d="m83.247 161.126 3.416-2.193c-1.297.443-2.51 1.219-3.416 2.193"></path>
    <path vector-effect="non-scaling-stroke" fill="url(#214dce1e043--SceneOnsenDark_svg__F)" d="m107.171 123.231-.221 22.113s-.299.644.847.212c0 0 4.574-.985 6.787 5.648 0 0 .221 1.438 1.66 1.769 1.438.332 3.319.664 3.319.664s.885.663.774-.774 2.102-13.047 16.044-12.163c0 0 9.817 1.26 12.31 11.049 11.917-3.405 12.951 6.141 12.951 6.141s28.732 1.165 37.141.501c.779-5.163 6.156-8.073 10.65-4.574 1.289-3.241 3.72-3.278 5.69-1.616 5.196-12.029 15.802-11.175 15.802-11.175s13.686.259 16.768 12.514c1.809-.354 5.424-1.143 7.809-2.19 0 0-.684-1.889 1.031-4.729 1.206-1.313 1.903-1.956 3.435-2.331v-21.501z"></path>
    <path vector-effect="non-scaling-stroke" fill="url(#214dce1e043--SceneOnsenDark_svg__G)" d="M107.041 122.89v22.992l1.487-.396V122.89z"></path>
    <path vector-effect="non-scaling-stroke" fill="url(#214dce1e043--SceneOnsenDark_svg__H)" d="M224.656 142.127c-4.457 1.827-8.059 5.63-9.64 10.177-.657-.983-2.003-1.294-3.163-1.062s-2.135 1.21-2.362 2.371c-1.645-1.629-4.336-1.849-6.522-1.092s-3.921 2.551-4.922 4.636-1.324 4.441-1.282 6.754c-1.316-.218-2.754.215-3.822 1.012a5 5 0 0 0-1.316 1.485 5 5 0 0 0-.638 1.879l56.715-8.422c1.217-7.111-2.588-14.081-9.033-17.256-2.341-1.153-4.952-1.734-7.56-1.734-2.207 0-4.413.415-6.455 1.252"></path>
    <path vector-effect="non-scaling-stroke" fill="url(#214dce1e043--SceneOnsenDark_svg__I)" d="M224.656 142.127c-4.457 1.827-8.059 5.63-9.64 10.177-.657-.983-2.003-1.294-3.163-1.062s-2.135 1.21-2.362 2.37c-1.645-1.628-4.336-1.848-6.522-1.091s-3.921 2.551-4.922 4.636-1.324 4.441-1.282 6.754c-1.316-.218-2.754.215-3.822 1.012a5 5 0 0 0-1.316 1.485 5 5 0 0 0-.638 1.879l1.532-.228a5 5 0 0 1 1.569-1.99c1.068-.797 2.507-1.229 3.822-1.011-.041-2.313.281-4.67 1.282-6.755 1.002-2.086 2.735-3.878 4.922-4.636 2.187-.757 4.877-.536 6.522 1.092.228-1.16 1.202-2.138 2.362-2.37s2.506.079 3.164 1.062c1.581-4.547 5.183-8.35 9.639-10.177 4.457-1.826 9.694-1.647 14.015.482 1.421.7 2.712 1.584 3.851 2.613a16.8 16.8 0 0 0-4.998-3.76c-2.341-1.153-4.952-1.734-7.56-1.734-2.207 0-4.413.415-6.455 1.252"></path>
    <path vector-effect="non-scaling-stroke" fill="url(#214dce1e043--SceneOnsenDark_svg__J)" d="M127.065 142.496c-6.698 3.951-8.157 11.937-4.88 18.613l45.125 7.628c-.298-2.811-3.03-5.646-5.854-5.798 1.23-3.463.154-7.649-2.586-10.054s-6.96-2.872-10.142-1.122c-1.206-4.394-4.635-8.087-8.733-9.927a14.3 14.3 0 0 0-5.838-1.235c-2.476 0-4.949.631-7.092 1.895"></path>
    <path vector-effect="non-scaling-stroke" fill="url(#214dce1e043--SceneOnsenDark_svg__K)" d="M127.065 142.496a13.5 13.5 0 0 0-3.45 2.884 14 14 0 0 1 1.974-1.41c3.877-2.286 8.833-2.499 12.931-.659 4.098 1.839 7.526 5.533 8.733 9.926 3.181-1.75 7.403-1.283 10.142 1.122s3.814 6.591 2.585 10.055c2.209.118 4.356 1.879 5.332 3.986l1.998.337c-.298-2.811-3.03-5.646-5.855-5.798 1.231-3.463.154-7.649-2.585-10.054s-6.96-2.872-10.143-1.122c-1.205-4.394-4.634-8.087-8.732-9.927a14.3 14.3 0 0 0-5.838-1.235c-2.476 0-4.949.631-7.092 1.895"></path>
    <path vector-effect="non-scaling-stroke" fill="#00005A" d="M259.981 122.305c0 5.859-34.261 10.608-76.524 10.608s-76.523-4.749-76.523-10.608 34.26-10.608 76.523-10.608 76.524 4.749 76.524 10.608"></path>
    <path vector-effect="non-scaling-stroke" fill="url(#214dce1e043--SceneOnsenDark_svg__L)" d="M121.101 134.017c.422.588.975 1.152 1.689 1.271.963.16 1.768-.504 2.573-1.168.8-.657 1.6-1.316 2.558-1.171 1.362.207 2.054 1.953 3.406 2.217 1.013.198 2.016-.57 2.438-1.512s.404-2.014.377-3.046l-14.568-2.406a8.48 8.48 0 0 0 1.527 5.815"></path>
    <path vector-effect="non-scaling-stroke" fill="#fff" d="M122.489 133.919a8.48 8.48 0 0 1-1.547-5.491l-1.367-.226a8.48 8.48 0 0 0 1.525 5.816c.423.587.976 1.151 1.69 1.27.398.066.768-.01 1.123-.166-.588-.197-1.056-.691-1.424-1.203m6.82-1.069c-.39-.059-.754.017-1.102.17 1.179.384 1.866 1.902 3.12 2.146.395.078.789.006 1.147-.164-1.198-.407-1.886-1.958-3.165-2.152"></path>
    <path vector-effect="non-scaling-stroke" fill="url(#214dce1e043--SceneOnsenDark_svg__M)" d="M238.937 129.738c-.16 2.34.131 4.709.851 6.94.263.817.627 1.669 1.355 2.122.962.6 2.303.267 3.108-.531.805-.799 1.157-1.951 1.29-3.078.092-.793.105-1.643.557-2.304.451-.659 1.563-.928 2.023-.274.241.343.221.812.427 1.177.307.545 1.069.707 1.653.484.586-.224 1.01-.742 1.307-1.292.95-1.753.843-3.865.711-5.853z"></path>
    <path vector-effect="non-scaling-stroke" fill="#fff" d="M249.825 133.407c-.206-.366-.185-.834-.426-1.177-.4-.568-1.289-.44-1.813.035a.86.86 0 0 1 .535.348c.242.343.221.811.427 1.176.307.546 1.069.708 1.654.484a2 2 0 0 0 .519-.304c-.371-.054-.713-.239-.896-.562m-7.405 5.01c-.728-.453-1.092-1.306-1.355-2.122a18.6 18.6 0 0 1-.857-6.806l-1.271.25c-.16 2.339.131 4.708.85 6.939.263.816.628 1.669 1.356 2.122.751.468 1.732.366 2.509-.08a2.12 2.12 0 0 1-1.232-.303"></path>
    <path vector-effect="non-scaling-stroke" fill="url(#214dce1e043--SceneOnsenDark_svg__N)" d="M248.228 139.122a1.84 1.84 0 0 0 1.141 1.705 1.84 1.84 0 0 0 2.011-.401 1.85 1.85 0 0 0-.001-2.611 1.85 1.85 0 0 0-2.611.001c-.346.347-.54.816-.54 1.306"></path>
    <path vector-effect="non-scaling-stroke" fill="url(#214dce1e043--SceneOnsenDark_svg__O)" d="M112.309 126.094s19.449 6.94 72.582 6.94 69.942-6.859 69.942-6.859c-11.085-3.965-38.862-6.776-71.375-6.776-32.293 0-59.914 2.773-71.149 6.695"></path>
    <path vector-effect="non-scaling-stroke" fill="#fff" d="M184.173 120.617c30.538 0 56.897 2.48 69.173 6.066 1.019-.316 1.488-.507 1.488-.507-11.086-3.964-38.863-6.775-71.377-6.775-32.292 0-59.913 2.773-71.148 6.695 0 0 .747.266 2.339.692 12.117-3.642 38.691-6.171 69.525-6.171"></path>
    <path vector-effect="non-scaling-stroke" fill="#FF77AD" d="M161.869 86.136a2.508 2.508 0 1 1-5.016 0 2.508 2.508 0 0 1 5.016 0"></path>
    <path vector-effect="non-scaling-stroke" fill="url(#214dce1e043--SceneOnsenDark_svg__P)" d="M292.926 148.999c1.111 2.889 1.52 6.165 1.248 9.248.726-.472 1.841-.515 2.232-1.305.601-1.217 1.192-2.439 1.788-3.658l3.104-6.353 3.841-7.86 3.997-8.179 3.574-7.313 2.57-5.259.985-2.018-5.944-2.901z"></path>
    <path vector-effect="non-scaling-stroke" fill="url(#214dce1e043--SceneOnsenDark_svg__Q)" d="M292.926 148.999c1.111 2.889 1.52 6.165 1.248 9.248.343-.224.774-.352 1.173-.507.012-2.544-.42-5.141-1.321-7.484l17.395-35.598 4.56 2.226.284-.582-5.944-2.901z"></path>
    <path vector-effect="non-scaling-stroke" stroke="#00005A" stroke-linecap="round" stroke-linejoin="round" stroke-miterlimit="10" d="M112.309 126.097c11.235-3.922 38.856-6.695 71.148-6.695 32.514 0 60.291 2.81 71.377 6.775"></path>
    <path vector-effect="non-scaling-stroke" fill="url(#214dce1e043--SceneOnsenDark_svg__R)" d="M49.808 133.888a16.226 16.226 0 0 1 6.562-1.386c7.084 0 13.45 4.684 15.468 11.591-1.55 4.307-1.48 7.849-1.252 9.081-1.096-.265-2.404-.956-3.244-.795-1.704.327-2.607 1.014-4.037 2.058-6.758-.837-12.506-5.924-13.859-12.968a16.04 16.04 0 0 1 .362-7.581"></path>
    <path vector-effect="non-scaling-stroke" fill="url(#214dce1e043--SceneOnsenDark_svg__S)" d="M49.808 133.887a16.2 16.2 0 0 1 3.503-1.093 16.2 16.2 0 0 1 3.059-.292c7.585 0 14.347 5.37 15.83 13.089l-.984.984c-1.68-8.747-10.136-14.476-18.888-12.798q-1.379.264-2.692.761c.054-.218.108-.436.172-.651"></path>
    <path vector-effect="non-scaling-stroke" fill="url(#214dce1e043--SceneOnsenDark_svg__T)" d="M68.282 142.774c-.214 1.082.06 2.276.82 3.077a2.92 2.92 0 0 0 2.193.9c.286-.01.569-.068.836-.177a10 10 0 0 0-.084-1.662c-.24-1.757-.952-3.399-2.026-4.874-.86.69-1.524 1.654-1.739 2.736"></path>
    <path vector-effect="non-scaling-stroke" fill="url(#214dce1e043--SceneOnsenDark_svg__U)" d="M54.209 132.731c.438 1.238 1.656 2.161 2.966 2.251 1.312.088 2.643-.66 3.246-1.828-1.86-.268-3.637-.431-5.493-.431q-.356 0-.719.008"></path>
    <path vector-effect="non-scaling-stroke" fill="url(#214dce1e043--SceneOnsenDark_svg__V)" d="M50.402 143.642a3.79 3.79 0 0 0 1.215-3.45 3.8 3.8 0 0 0-2.334-2.817c.007 2.183.423 4.198 1.12 6.267"></path>
    <path vector-effect="non-scaling-stroke" fill="url(#214dce1e043--SceneOnsenDark_svg__W)" d="M54.114 146.234a1.953 1.953 0 1 0 3.905-.003 1.953 1.953 0 0 0-3.905.003"></path>
    <path vector-effect="non-scaling-stroke" fill="url(#214dce1e043--SceneOnsenDark_svg__X)" d="M61.117 138.518a2.043 2.043 0 1 0 4.087 0 2.043 2.043 0 0 0-4.087 0"></path>
    <path vector-effect="non-scaling-stroke" fill="url(#214dce1e043--SceneOnsenDark_svg__Y)" d="M62.227 150.75c-1.445.066-2.8 1.087-3.262 2.456 1.214.678 2.55 1.08 3.928 1.268a8.5 8.5 0 0 1 2.811-1.58c-.566-1.275-1.93-2.148-3.322-2.148q-.078-.001-.155.004"></path>
    <path vector-effect="non-scaling-stroke" stroke="#00005A" stroke-linecap="round" stroke-linejoin="round" stroke-miterlimit="10" d="M70.945 152.515c-1.118 0-2.776-.231-3.981 0-1.784.342-2.083.401-3.89 1.892-6.657-.923-12.29-5.975-13.627-12.938-.488-2.52-.365-5.12.36-7.582a16.2 16.2 0 0 1 3.504-1.093c8.752-1.678 17.21 4.051 18.89 12.798-1.07 2.667-1.567 3.661-1.256 6.923m0 0-17.709-15.331"></path>
    <path vector-effect="non-scaling-stroke" stroke="#00005A" stroke-linecap="round" stroke-linejoin="round" stroke-miterlimit="10" d="M54.053 132.693a3.54 3.54 0 0 0 6.406.49m-1.557 19.952A3.54 3.54 0 0 1 62 150.568a3.54 3.54 0 0 1 3.498 1.988m4.51-12.42a3.537 3.537 0 0 0 1.64 6.677M49.23 137.45a3.537 3.537 0 0 1 2.167 4.796 3.54 3.54 0 0 1-1.247 1.502m15.46 4.137-4.919.352m-1.56-6.065-.886-4.616m-.036 8.297a2.133 2.133 0 1 1-4.189.803 2.133 2.133 0 0 1 4.19-.803m6.955-7.748a2.133 2.133 0 1 1-4.189.803 2.133 2.133 0 0 1 4.19-.803"></path>
    <path vector-effect="non-scaling-stroke" fill="url(#214dce1e043--SceneOnsenDark_svg__Z)" d="M77.113 139.691c-3.918 3.182-6.252 8.224-6.14 13.267-2.402-.867-5.242-.564-7.319.921-2.078 1.483-3.356 4.022-3.31 6.574 10.076 2.046 20.581 2.533 30.771 1.156 1.556-2.374-5.52-11.618-5.58-14.455-.029-1.422 1.734-.879 3.44-.337 1.701.539 3.346 1.079 3.118-.319-.459-2.8-1.162-7.292-.727-10.096a16.2 16.2 0 0 0-3.666-.416c-3.81 0-7.626 1.301-10.587 3.705"></path>
    <path vector-effect="non-scaling-stroke" stroke="#00005A" stroke-linecap="round" stroke-linejoin="round" stroke-miterlimit="10" d="m292.925 148.998 17.396-35.597 5.944 2.901-20.08 41.091"></path>
    <path vector-effect="non-scaling-stroke" fill="url(#214dce1e043--SceneOnsenDark_svg__aa)" d="m291.537 128.973 24.54 12.839 8.769-15.452-25.077-13.069z"></path>
    <path vector-effect="non-scaling-stroke" fill="#fff" d="m293.11 129.758 8.217-15.655-1.559-.812-8.231 15.682 24.539 12.837.017-.028z"></path>
    <path vector-effect="non-scaling-stroke" stroke="#fff" stroke-linecap="round" stroke-linejoin="round" stroke-miterlimit="10" d="M181.626 70.573c1.011 1.681 2.053 3.31 2.053 6.671 0 6.522-3.924 6.522-3.924 13.044s3.924 6.522 3.924 13.044m63.936-17.821c0 6.52-3.924 6.52-3.924 13.04s3.924 6.519 3.924 13.038q0 .655-.051 1.229m-52.398-57.664c0 6.521-3.924 6.521-3.924 13.043s3.924 6.522 3.924 13.044m-52.882-18.723c0 6.522-3.924 6.522-3.924 13.043 0 6.522 3.924 6.522 3.924 13.044m-13.027-8.808c0 6.521 3.924 6.521 3.924 13.042 0 6.522-3.924 6.522-3.924 13.044 0 2.792.719 4.389 1.542 5.814"></path>
    <path vector-effect="non-scaling-stroke" stroke="#00005A" stroke-linecap="round" stroke-linejoin="round" stroke-miterlimit="10" d="M106.934 145.962v-23.657m13.17 31.466c-1.757-.348-3.216-.77-4.945-1.236m82.371 5.64q-7.035.18-14.072.179c-7.508 0-14.763-.15-21.618-.43m93.436-6.507c-1.978.743-4.54 1.448-7.607 2.102m12.312-31.215v21.889"></path>
    <path vector-effect="non-scaling-stroke" stroke="#00005A" stroke-linecap="round" stroke-linejoin="round" stroke-miterlimit="10" d="M247.589 153.424c-1.265-4.645-4.597-8.686-8.918-10.814s-9.558-2.309-14.015-.482c-4.456 1.827-8.059 5.63-9.64 10.177-.657-.984-2.003-1.295-3.163-1.062-1.161.232-2.135 1.209-2.363 2.37-1.644-1.628-4.335-1.849-6.521-1.092s-3.921 2.551-4.922 4.636-1.324 4.442-1.282 6.754c-1.316-.218-2.754.215-3.822 1.012a5 5 0 0 0-1.316 1.485 5 5 0 0 0-.638 1.879"></path>
    <path vector-effect="non-scaling-stroke" stroke="#00005A" stroke-linecap="round" stroke-linejoin="round" stroke-miterlimit="10" d="M234.832 153.723c-2.463-.669-5.238-.061-7.196 1.577s-3.045 4.26-2.82 6.801c-1.378-.349-2.872.183-4.08.931a5.38 5.38 0 0 0-2.391 3.388m-98.043-12.748c.221-4.557 2.887-8.889 6.763-11.175s8.832-2.501 12.93-.661c4.099 1.841 7.527 5.533 8.733 9.928 3.182-1.751 7.404-1.284 10.142 1.121 2.739 2.406 3.815 6.591 2.585 10.055 2.825.151 5.557 2.986 5.855 5.797"></path>
    <path vector-effect="non-scaling-stroke" stroke="#00005A" stroke-linecap="round" stroke-linejoin="round" stroke-miterlimit="10" d="M140.917 151.893a9.2 9.2 0 0 0-3.637.432 9.2 9.2 0 0 0-3.18 1.819 9.18 9.18 0 0 0-3.044 6.498c-.972.123-2.115.707-2.78 1.425a4.25 4.25 0 0 0-1.116 2.652m-12.055.677c-2.83-6.572-8.502-11.861-15.258-14.228-2.584 4.746-3.277 10.737-1.536 15.853m4.189-9.897 5.585 10.969m-1.411-31.961c-3.315-4.007-8.146-6.729-13.292-7.491-2.515 6.262-2.826 13.487-.353 19.766-2.263-1.406-5.219-1.949-7.88-1.817-.512 4.197.697 8.712 3.417 11.949-1.963.134-3.979 1.147-5.319 2.587"></path>
    <path vector-effect="non-scaling-stroke" fill="url(#214dce1e043--SceneOnsenDark_svg__ab)" d="M258.023 145.112c-1.936 1.319-2.923 3.828-2.585 6.145l12.735 3.078a2.31 2.31 0 0 0-.77-1.947c-.547-.476-1.265-.871-1.97-.699 1.371-1.899.914-4.816-.871-6.334s-4.603-1.563-6.539-.243"></path>
    <path vector-effect="non-scaling-stroke" stroke="#00005A" stroke-linecap="round" stroke-linejoin="round" stroke-miterlimit="10" d="M96.447 134.049c1.9 4.501 3.934 8.946 6.099 13.326m12.574 5.103c-.57-1.772-1.186-3.585-2.387-5.008s-3.134-2.384-4.937-1.915c-1.839.479-3.076 2.362-3.234 4.254m15.013-21.607a8.48 8.48 0 0 0 1.525 5.816c.423.587.976 1.151 1.69 1.269 1.919.319 3.208-2.631 5.131-2.338 1.362.207 2.054 1.953 3.406 2.217 1.014.198 2.016-.57 2.438-1.512s.404-2.014.377-3.046m104.795-.869c-.16 2.339.131 4.708.851 6.939.262.816.626 1.669 1.355 2.122.962.599 2.303.267 3.107-.532.806-.798 1.159-1.95 1.29-3.076.094-.794.107-1.645.558-2.305.452-.659 1.563-.928 2.023-.274.242.343.221.811.427 1.177.307.545 1.069.707 1.653.483s1.01-.741 1.308-1.291c.949-1.753.842-3.864.71-5.853m7.779 11.222c5.385-5.74 12.75-8.732 20.616-9.071 1.202 6.492-.533 13.626-4.595 18.833 2.608-.888 5.364-.887 8.055-.299-.756 3.216-2.8 6.406-5.64 8.097m-22.996-4.654c-.338-2.317.649-4.826 2.585-6.145 1.936-1.32 4.754-1.275 6.539.243s2.242 4.435.871 6.334c.705-.172 1.423.223 1.97.699s.844 1.225.77 1.947m-4.916 14.217a17.7 17.7 0 0 0-1.896-11.706c-4.295 1.126-8.585 4.132-11.068 7.812-.478-1.688-1.628-3.159-3.079-4.147-2.538 1.135-4.734 3.5-5.384 6.202m13.317 1.845 4.869-8.597m5.432-14.009 8.61-10.152m-22.137 3.321c0 .49-.194.959-.541 1.305a1.84 1.84 0 0 1-2.61 0 1.845 1.845 0 1 1 3.151-1.305"></path>
    <path vector-effect="non-scaling-stroke" stroke="#00005A" stroke-linecap="round" stroke-linejoin="round" stroke-miterlimit="10" d="M280.006 140.546c4.226.265 8.303 2.39 10.94 5.701s3.794 7.758 3.104 11.933c2.366-1.081 5.252-1.264 7.67-.305s4.305 3.418 4.131 6.011c1.008-.259 2.117.138 2.995.698a3.86 3.86 0 0 1 1.698 2.517m-36.47-7.306a7.54 7.54 0 0 1 6.243.963 7.54 7.54 0 0 1 3.241 5.419 4.06 4.06 0 0 1 3.004-.336 4.1 4.1 0 0 1 2.414 1.843m-34.966-49.565c2.067-9.202 6.837-17.779 13.563-24.394a61.4 61.4 0 0 1-5.459 22.239c5.335-5.856 12.291-9.644 20.117-10.891-3.893 6.729-9.947 12.549-16.893 16.046 4.998-1.896 10.539-2.079 15.732-.811-4.354 2.67-9.662 4.48-14.766 4.71 2.808-.106 5.49.633 7.937 2.012-2.262.927-4.953 1.569-7.396 1.472 1.334.544 2.358 1.763 2.795 3.136m30.128-18.347-8.231 15.682 24.54 12.837 8.769-15.451z"></path>
    <path vector-effect="non-scaling-stroke" fill="#00005A" d="M305.654 137.826a61 61 0 0 1-7.482.289 20.5 20.5 0 0 1 2.132-4.285c2.076.913 4.166 1.871 6.099 3.057-.226.334-.523.606-.749.939"></path>
    <path vector-effect="non-scaling-stroke" stroke="#00005A" stroke-linecap="round" stroke-linejoin="round" stroke-miterlimit="10" d="M104.241 111.698a19.8 19.8 0 0 1 6.44.797c-3.63-4.085-6.632-8.745-8.597-13.843a31.38 31.38 0 0 1 15.204 11.677c-2.746-8.018-3.847-16.216-3.294-24.673 6.321 8.49 10.172 18.835 10.97 29.387m-33.598 21.362c-4.917-1.142-10.334.108-14.253 3.289-3.918 3.182-6.252 8.224-6.14 13.268-2.402-.868-5.24-.564-7.319.92-2.077 1.484-3.356 4.023-3.312 6.574-2.518.546-4.908 2.669-5.778 5.093m134.378-20.98c.57.66.893 1.414.893 2.215 0 2.597-3.395 4.702-7.583 4.702s-7.583-2.105-7.583-4.702c0-.778.304-1.511.843-2.157"></path>
    <path vector-effect="non-scaling-stroke" stroke="#00005A" stroke-linecap="round" stroke-linejoin="round" stroke-miterlimit="10" d="M177.976 146.341a1.76 1.76 0 0 0 1.109-1.118c.08-.262.098-.538.052-.808a1.76 1.76 0 0 0-.319-.744c-.329-.437-.865-.717-1.082-1.22-.172-.401-.099-.876.106-1.262.205-.385.528-.695.865-.973m6.665 6.125a1.76 1.76 0 0 0 1.109-1.118 1.75 1.75 0 0 0-.267-1.552c-.329-.437-.866-.717-1.082-1.22-.173-.401-.099-.876.106-1.262.205-.385.528-.695.865-.973m-4.41 6.125a1.76 1.76 0 0 0 1.109-1.118c.08-.262.098-.538.052-.808a1.76 1.76 0 0 0-.319-.744c-.329-.437-.866-.717-1.082-1.22-.172-.401-.099-.876.106-1.262.205-.385.528-.695.865-.973m-11.973-16.642h-17.236"></path>
    <path vector-effect="non-scaling-stroke" fill="#00005A" d="M139.209 113.882a3.92 3.92 0 0 0 1.489 2.017 3.9 3.9 0 0 0 2.412.687c-1.139-.721-2.014-1.837-2.524-3.084-.369.234-.959.509-1.377.38m13.407 4.485c.218.603.251 1.27.094 1.891.647-.034 1.296.027 1.944-.006a7.2 7.2 0 0 1-.095-2.451c-.616.11-1.327.457-1.943.566"></path>
    <path vector-effect="non-scaling-stroke" stroke="#00005A" stroke-linecap="round" stroke-linejoin="round" stroke-miterlimit="10" d="M238.403 126.305h3.627m-10.153 1.967h-12.246m-9.509 1.242h-6.736m-10.41.388h-29.347m18.035-2.888h-9.323m10.537-4.435h4.559m-27.662 4.647h-2.494m-3.823 1.77h-4.672m-2.579-2.173h-15.975m17.943-3.208h-3.522m115.328-1.311c0 5.859-34.261 10.609-76.524 10.609s-76.523-4.75-76.523-10.609c0-5.858 34.26-10.608 76.523-10.608s76.524 4.75 76.524 10.608"></path>
    <path vector-effect="non-scaling-stroke" fill="url(#214dce1e043--SceneOnsenDark_svg__ac)" d="M140.648 112.067a3.8 3.8 0 0 0 2.986 4.474l8.211 1.64a3.796 3.796 0 0 0 3.933-1.601c.281-.416.476-.884.574-1.377a3.788 3.788 0 0 0-.574-2.869 3.8 3.8 0 0 0-2.441-1.613l-8.211-1.639a3.804 3.804 0 0 0-4.478 2.985"></path>
    <path vector-effect="non-scaling-stroke" fill="#fff" d="M141.364 113.212a3.804 3.804 0 0 1 4.478-2.985l8.21 1.64c.8.159 1.528.573 2.073 1.18a3.8 3.8 0 0 0-2.788-2.325l-8.211-1.639a3.806 3.806 0 0 0-4.478 2.984 3.78 3.78 0 0 0 .914 3.295 3.77 3.77 0 0 1-.198-2.15"></path>
    <path vector-effect="non-scaling-stroke" fill="url(#214dce1e043--SceneOnsenDark_svg__ad)" d="m175.704 105.535-7.744 3.18a3.803 3.803 0 0 0 2.892 7.037l7.745-3.18a3.8 3.8 0 0 0 2.066-2.052 3.8 3.8 0 0 0 .008-2.912 3.81 3.81 0 0 0-4.967-2.073"></path>
    <path vector-effect="non-scaling-stroke" stroke="#00005A" stroke-linecap="round" stroke-linejoin="round" stroke-miterlimit="10" d="m151.845 118.181-8.211-1.639a3.81 3.81 0 0 1-2.441-1.613 3.79 3.79 0 0 1-.574-2.869 3.798 3.798 0 0 1 4.507-2.978l8.21 1.64a3.8 3.8 0 0 1 2.419 1.619 3.81 3.81 0 0 1-1.054 5.275 3.8 3.8 0 0 1-2.856.565m26.752-5.609-7.745 3.179a3.789 3.789 0 0 1-2.931.016 3.794 3.794 0 0 1-2.358-3.538 3.81 3.81 0 0 1 2.396-3.514l7.746-3.18a3.81 3.81 0 0 1 4.966 2.074 3.8 3.8 0 0 1-.009 2.911 3.8 3.8 0 0 1-2.065 2.052"></path>
    <path vector-effect="non-scaling-stroke" fill="url(#214dce1e043--SceneOnsenDark_svg__ae)" d="M154.683 118.846a7.3 7.3 0 0 0 1.733 4.733l11.303-.106a7.34 7.34 0 0 0 .929-7.779 7.34 7.34 0 0 0-13.965 3.152"></path>
    <path vector-effect="non-scaling-stroke" fill="#00E0FF" d="M156.187 119.133a7.33 7.33 0 0 1 2.378-5.404 7.333 7.333 0 0 1 5.588-1.903 7.337 7.337 0 0 0-7.737 11.754l1.273-.012a7.3 7.3 0 0 1-1.502-4.435"></path>
    <path vector-effect="non-scaling-stroke" stroke="#00005A" stroke-linecap="round" stroke-linejoin="round" stroke-miterlimit="10" d="M156.34 123.488a7.33 7.33 0 0 1-.944-7.785 7.337 7.337 0 1 1 12.349 7.739"></path>
    <path vector-effect="non-scaling-stroke" fill="#00005A" d="M167.678 117.651a.76.76 0 1 1-1.52 0 .76.76 0 0 1 1.52 0"></path>
    <path vector-effect="non-scaling-stroke" stroke="#00005A" stroke-linecap="round" stroke-linejoin="round" stroke-miterlimit="10" d="m152.246 113.165-3.267-.546c-.504-.085-1.018-.173-1.465-.419-.938-.517-1.381-1.601-1.757-2.603m25.535.908c.732-.186 1.469-.374 2.151-.699.682-.326 1.312-.802 1.697-1.451.496-.838.536-1.858.563-2.831"></path>
    <path vector-effect="non-scaling-stroke" fill="#00005A" d="M154.808 114.936a10.68 10.68 0 0 1-6.266-4.947c.469.065 1.082.079 1.55.144 1.109 1.979 2.749 3.672 4.716 4.803"></path>
    <path vector-effect="non-scaling-stroke" fill="url(#214dce1e043--SceneOnsenDark_svg__af)" d="M149.382 92.049c-.516.07-.92.484-.985.999-.16 1.26-.17 3.803 1.549 6.734l5.965-6.018s-2.327-1.79-5.443-1.79q-.529 0-1.086.075"></path>
    <path vector-effect="non-scaling-stroke" fill="#00E0FF" d="M150.914 97.798a9 9 0 0 1-1.562-5.41c-.479.434-.716.98-.748 1.625a10.2 10.2 0 0 0 1.26 5.402c.132-.596.602-1.203 1.05-1.617"></path>
    <path vector-effect="non-scaling-stroke" fill="url(#214dce1e043--SceneOnsenDark_svg__ag)" d="M167.684 89.048c-3.615.688-5.638 3.71-5.638 3.71l7.576 3.798c.692-3.326-.13-5.733-.684-6.876a1.16 1.16 0 0 0-1.254-.632"></path>
    <path vector-effect="non-scaling-stroke" fill="#00E0FF" d="M164.334 93.086a10.5 10.5 0 0 1 3.911-4c-2.403.426-4.703 1.752-6.149 3.717.631.032 1.608.25 2.238.283"></path>
    <path vector-effect="non-scaling-stroke" fill="url(#214dce1e043--SceneOnsenDark_svg__ah)" d="M158.911 92.852c-6.511 1.067-10.923 7.205-9.855 13.712s7.211 10.916 13.721 9.848c6.511-1.066 10.923-7.206 9.856-13.712-.961-5.852-6.028-10.008-11.775-10.008q-.98 0-1.947.16"></path>
    <path vector-effect="non-scaling-stroke" fill="#FAF" d="M170.202 112.218a3.93 3.93 0 0 1-1.714-2.777 3.93 3.93 0 0 1 1.017-3.1 3.93 3.93 0 0 1 3.026-1.225c-.058 2.543-.833 5.044-2.329 7.102m-15.723 2.328a3.8 3.8 0 0 0 .726-3.194 3.79 3.79 0 0 0-2.076-2.534 3.78 3.78 0 0 0-3.276.078c.872 2.289 2.536 4.37 4.626 5.65"></path>
    <path vector-effect="non-scaling-stroke" fill="#fff" d="M150.382 105.786c1.201 5.105 5.348 9.407 10.409 10.795-2.575-.156-5.311-1.118-7.311-2.748a12.5 12.5 0 0 1-4.137-6.391c.312-.524.727-1.132 1.039-1.656"></path>
    <path vector-effect="non-scaling-stroke" fill="url(#214dce1e043--SceneOnsenDark_svg__ai)" d="M157.186 93.305c-9.45 3.216-8.224 12.2-8.13 13.256.093 1.055.57.527.57.527l6.078-9.392s3.525 2.092 4.036 2.5.817 0 .817 0l2.819-3.927 9.216 7.449-.031-1.531-.765-2.808s-3.749-6.75-10.71-6.75c-1.205 0-2.506.202-3.9.676"></path>
    <path vector-effect="non-scaling-stroke" fill="#00E0FF" d="M157.466 93.345a12.5 12.5 0 0 0-5.604 5.288 12.5 12.5 0 0 0-1.395 7.577c-.26.347-.65.776-.911 1.123-.673-2.902-.404-5.959 1.094-8.533 1.498-2.575 3.96-4.604 6.816-5.455"></path>
    <path vector-effect="non-scaling-stroke" fill="#FF77AD" d="M162.918 110.372a4 4 0 0 0-1.961-1.524 4 4 0 0 0-2.483-.054c.39.828.993 1.594 1.868 1.864.875.269 1.787.179 2.576-.286"></path>
    <path vector-effect="non-scaling-stroke" stroke="#00005A" stroke-linecap="round" stroke-linejoin="round" stroke-miterlimit="10" d="M155.911 93.765s-2.884-2.219-6.529-1.716c-.516.07-.92.483-.985 1-.16 1.259-.17 3.802 1.549 6.733m12.1-7.023s2.023-3.022 5.639-3.71a1.16 1.16 0 0 1 1.253.633c.554 1.142 1.376 3.549.684 6.876"></path>
    <path vector-effect="non-scaling-stroke" stroke="#00005A" stroke-linecap="round" stroke-linejoin="round" stroke-miterlimit="10" d="M158.965 92.78c-.783-1.233-.797-2.911-.034-4.156m13.702 14.076c1.067 6.506-3.345 12.645-9.855 13.712-6.511 1.067-12.655-3.342-13.722-9.848s3.344-12.646 9.855-13.713 12.654 3.342 13.722 9.849m-10.648-17.081a2.58 2.58 0 0 1-.453 1.93 2.6 2.6 0 0 1-2.696 1.01 2.6 2.6 0 0 1-1.609-1.157 2.59 2.59 0 1 1 4.758-1.782"></path>
    <path vector-effect="non-scaling-stroke" stroke="#00005A" stroke-linecap="round" stroke-linejoin="round" stroke-miterlimit="10" d="m149.269 107.583 6.448-10.056 4.43 3.032"></path>
    <path vector-effect="non-scaling-stroke" stroke="#00005A" stroke-linecap="round" stroke-linejoin="round" stroke-miterlimit="10" d="m172.701 103.742-9.325-7.47-3.229 4.287"></path>
    <path vector-effect="non-scaling-stroke" fill="#00005A" d="M157.305 104.729c.18 1.096-.199 2.07-.846 2.176-.646.106-1.316-.696-1.496-1.792-.18-1.095.199-2.069.846-2.175.646-.106 1.316.696 1.496 1.791m9.267-1.518c.18 1.095-.199 2.069-.846 2.175s-1.317-.696-1.496-1.791c-.18-1.096.198-2.07.845-2.176s1.317.696 1.497 1.792"></path>
    <path vector-effect="non-scaling-stroke" stroke="#00005A" stroke-linecap="round" stroke-linejoin="round" stroke-miterlimit="10" d="M170.145 112.122a3.732 3.732 0 0 1 .075-6.51 3.73 3.73 0 0 1 2.556-.373m-18.362 9.461a3.71 3.71 0 0 0 .886-3.073 3.73 3.73 0 0 0-2.102-2.777 3.73 3.73 0 0 0-3.478.167m8.06-1.391c.507 2.573 2.607 3.494 4.09 3.251s3.284-1.852 2.835-4.386z"></path>
    <path vector-effect="non-scaling-stroke" fill="#00005A" d="M158.397 108.904c1.571-.48 3.407.085 4.436 1.364.697-.316 1.284-.725 1.609-1.418a3.28 3.28 0 0 0 .191-2.242c-1.752.238-3.564.386-5.316.624-.279.038-.564.077-.818.199-.255.121-.479.34-.533.616s.156.796.431.857m-3.061-14.94a12.7 12.7 0 0 0-6.158 3.825c.272.566.52 1.124.792 1.69 1.37-2.162 3.183-4.177 5.366-5.515"></path>
    <path vector-effect="non-scaling-stroke" fill="url(#214dce1e043--SceneOnsenDark_svg__aj)" d="M228.724 90.81c-1.64 1.739-2.725 4.082-3.228 6.963-.351 2.01-.38 4.003-.409 5.93q-.006.462-.015.923c-.036 1.861-.122 4.004-.699 5.9a11.27 11.27 0 0 1-4.172 5.829q-.19.138-.34.305l3.079 2.955a15.55 15.55 0 0 0 5.499-7.852c.736-2.417.842-4.909.883-7.056q.009-.47.015-.941c.028-1.843.054-3.584.347-5.263.352-2.02 1.09-3.673 2.134-4.78 1.1-1.168 2.647-1.755 3.94-1.497a2.125 2.125 0 1 0 .833-4.165 7.4 7.4 0 0 0-1.456-.143c-2.31 0-4.667 1.041-6.411 2.892"></path>
    <path vector-effect="non-scaling-stroke" stroke="#00005A" stroke-linecap="round" stroke-linejoin="round" stroke-miterlimit="10" d="M219.86 116.661q.151-.169.341-.306a11.3 11.3 0 0 0 4.172-5.829c.577-1.896.663-4.04.699-5.9l.015-.923c.029-1.927.058-3.92.409-5.93.502-2.882 1.588-5.224 3.227-6.963 2.115-2.243 5.129-3.297 7.868-2.75a2.125 2.125 0 1 1-.833 4.166c-1.293-.258-2.84.329-3.94 1.497-1.044 1.107-1.782 2.76-2.134 4.78-.293 1.679-.319 3.42-.346 5.263l-.016.941c-.041 2.146-.147 4.639-.882 7.055a15.54 15.54 0 0 1-5.5 7.853"></path>
    <path vector-effect="non-scaling-stroke" fill="url(#214dce1e043--SceneOnsenDark_svg__ak)" d="m206.652 87.654-2.217-.632.3 3.275a13.1 13.1 0 0 0-7.15 5.283 5.57 5.57 0 0 0-4.263-3.035 5.56 5.56 0 0 0-5.979 3.727 5.54 5.54 0 0 0 .28 4.242 5.56 5.56 0 0 0 7.741 2.365 13.2 13.2 0 0 0 1.073 5.218q-.177-.184-.359-.36c-1.235-1.186-3.02-1.832-4.706-1.537s-3.198 1.597-3.581 3.265c-.382 1.668.504 3.585 2.088 4.235 2.931 1.206 5.793 2.813 8.677 4.127-1.218 2.505-2.311 5.12-3.528 7.626.015 0 .097.011.112.011h30.152c.605-1.504.165-3.487-1.017-4.596-2.628-2.465-5.353-4.827-7.88-7.395q-.486.34-1.001.635a13.1 13.1 0 0 0 3.023-2.552 13.1 13.1 0 0 0 2.39-3.953 5.57 5.57 0 0 0 6.714 1.938 5.552 5.552 0 0 0 1.507-9.299 5.56 5.56 0 0 0-7.577.237q-.12-.645-.302-1.274l.003.004-.022-.065q-.168-.57-.391-1.125l-4.846-13.967-1.963 3.557-6.699-4.215-.579 4.262zm8.589 26.544q-.075.045-.153.087z"></path>
    <path vector-effect="non-scaling-stroke" fill="#FFF300" d="m222.023 100.431.022.065-.004-.002q.183.63.302 1.273a5.578 5.578 0 0 1 4.029-1.61 5.57 5.57 0 0 1 3.959 1.773 5.6 5.6 0 0 0-1.303-1.687 5.56 5.56 0 0 0-7.12-.167c.039.118.08.236.115.355m-4.538 14.124q-.575.455-1.199.842c.343-.199.68-.408 1.002-.636 2.527 2.569 5.251 4.93 7.879 7.395l.006.006a4 4 0 0 0-.898-1.294c-2.255-2.115-4.58-4.154-6.79-6.313m-19.008-17.687a13.1 13.1 0 0 1 7.15-5.281l-.3-3.277 2.217.633.58-4.263 6.698 4.216 1.69-3.061-.619-1.784-1.963 3.556-6.698-4.215-.58 4.262-2.217-.633.3 3.277a13.1 13.1 0 0 0-7.149 5.28 5.5 5.5 0 0 1 .891 1.29m.972 22.248q-.615-.281-1.228-.577c-1.084 2.287-2.09 4.644-3.194 6.914.015 0 .098.011.113.011h1.382c.984-2.109 1.914-4.265 2.927-6.348"></path>
    <path vector-effect="non-scaling-stroke" fill="url(#214dce1e043--SceneOnsenDark_svg__al)" d="M195.472 104.536c.153 1.219.474 2.419.965 3.56q-.177-.182-.359-.36c-1.235-1.185-3.02-1.832-4.706-1.536-1.686.295-3.198 1.597-3.581 3.265-.294 1.287.168 2.719 1.121 3.606-.308-.727-.404-1.548-.228-2.318.382-1.668 1.894-2.97 3.581-3.265s3.47.351 4.705 1.537q.182.176.359.36c-.647-1.504-1.408-2.711-1.857-4.849"></path>
    <path vector-effect="non-scaling-stroke" fill="url(#214dce1e043--SceneOnsenDark_svg__am)" d="M188.426 94.393a5.553 5.553 0 0 0 .108 7.44 5.546 5.546 0 0 1 2.637-7.534 5.56 5.56 0 0 1 6.409 1.271 5.5 5.5 0 0 0-1.31-1.695 5.54 5.54 0 0 0-3.66-1.377 5.54 5.54 0 0 0-4.184 1.895"></path>
    <path vector-effect="non-scaling-stroke" fill="url(#214dce1e043--SceneOnsenDark_svg__an)" d="M194.975 125.31c4.278.107 8.631.084 12.909.024q.041-4.592-.232-9.175c-2.548-.116-5.11-.359-7.625-.777-1.68 3.285-3.372 6.643-5.052 9.928"></path>
    <path vector-effect="non-scaling-stroke" fill="url(#214dce1e043--SceneOnsenDark_svg__ao)" d="m210.228 94.621-2.303-1.02.158 2.072-3.213-.533a5.2 5.2 0 0 0-2.003 10.201l.114.025-.18.816a4.98 4.98 0 0 0 2.131 5.235 4.988 4.988 0 0 0 5.416.037 4.99 4.99 0 0 0 2.141-2.939l.339-1.297.141.017a5.31 5.31 0 0 0 5.884-4.216 5.313 5.313 0 0 0-4.249-6.263l-.663-.11-2.647-4.497z"></path>
    <path vector-effect="non-scaling-stroke" stroke="#00005A" stroke-linecap="round" stroke-linejoin="round" stroke-miterlimit="10" d="m198.531 117.838-8.479-4.012a4.11 4.11 0 1 1 3.552-7.411l2.563 1.24"></path>
    <path vector-effect="non-scaling-stroke" stroke="#fff" stroke-linecap="round" stroke-linejoin="round" stroke-miterlimit="10" d="M220.284 71.446c0 6.522 3.924 6.522 3.924 13.044"></path>
    <path vector-effect="non-scaling-stroke" stroke="#00005A" stroke-linecap="round" stroke-linejoin="round" stroke-miterlimit="10" d="M220.742 107.761c.3-.673.492-1.394.563-2.127m-25.932-2.516a6 6 0 0 1 .532-2.189m26.694 2.002 5.704-.625m-32.072-4.696-5.593-2.287m33.681 7.484 1.066 1.858m-30.64-7.666-1.693 1.373m16.477 9.524a1.967 1.967 0 0 1-3.565.617 1.97 1.97 0 0 1-.28-1.465"></path>
    <path vector-effect="non-scaling-stroke" fill="#00005A" d="m209.577 105.53-2.864-.555a1.44 1.44 0 0 1-.531-2.604 1.44 1.44 0 0 1 1.079-.22l2.864.555a1.438 1.438 0 1 1-.548 2.824m6.669-3.368c-.132 1.222-.844 2.148-1.591 2.068s-1.246-1.136-1.115-2.358c.132-1.223.844-2.149 1.591-2.069s1.246 1.136 1.115 2.359m-12.014-2.083c-.131 1.223-.843 2.149-1.591 2.069-.746-.081-1.246-1.137-1.114-2.36s.843-2.148 1.59-2.068 1.246 1.136 1.115 2.359"></path>
    <path vector-effect="non-scaling-stroke" stroke="#00005A" stroke-linecap="round" stroke-linejoin="round" stroke-miterlimit="10" d="m212.828 107.218.141.018a5.303 5.303 0 0 0 1.635-10.48l-.663-.11-2.647-4.496-1.066 2.471-2.303-1.02.158 2.072-3.213-.533a5.2 5.2 0 0 0-2.002 10.201l.112.025-.179.816a4.98 4.98 0 0 0 3.708 5.887 4.985 4.985 0 0 0 5.98-3.555z"></path>
    <path vector-effect="non-scaling-stroke" fill="#00005A" d="M195.674 100.893a9 9 0 0 1-3.186 2.619c.945-.23 1.935-.412 2.879-.642-.082-.563.061-1.463.307-1.977"></path>
    <path vector-effect="non-scaling-stroke" stroke="#00005A" stroke-linecap="round" stroke-linejoin="round" stroke-miterlimit="10" d="m200.787 113.698-5.755 11.501m12.753-9.109.092 9.155m9.053.013-4.035-4.291m16.942 4.37h-39.178m38.369-25.095a5.56 5.56 0 0 0-7.577.236q-.12-.644-.302-1.274l.004.002-.023-.064a13 13 0 0 0-.39-1.126l-4.847-13.966-1.964 3.557-6.697-4.215-.58 4.262-2.217-.633.3 3.277a13.1 13.1 0 0 0-7.15 5.281 5.56 5.56 0 0 0-4.264-3.034 5.558 5.558 0 0 0-5.698 7.969 5.56 5.56 0 0 0 7.741 2.365 13.115 13.115 0 0 0 4.484 9.903c5.467 4.786 13.78 4.237 18.569-1.226a13.1 13.1 0 0 0 2.391-3.954 5.56 5.56 0 0 0 4.252 2.365 5.56 5.56 0 0 0 5.852-5.912 5.558 5.558 0 0 0-1.884-3.813"></path>
    <path vector-effect="non-scaling-stroke" fill="#00005A" d="M228.832 109.83a10.2 10.2 0 0 1-5.066 2.626c.424-.783.585-1.604.708-2.485 1.367.002 2.966-.372 4.199-.964.092.275.183.534.159.823m-19.112 6.209c-3.313.913-6.869.93-10.191.048.455-.814.93-1.588 1.384-2.402 2.444 1.665 5.864 2.649 8.807 2.354m-11.427-4.824a7.38 7.38 0 0 1-3.589-4.016c.484.136.992.146 1.475.283.542 1.416 1.151 2.561 2.114 3.733m14.255 9.751a59 59 0 0 1 1.494 4.399c1.019.017 2.008-.078 3.027-.061a41.5 41.5 0 0 0-4.521-4.338"></path>
    <path vector-effect="non-scaling-stroke" stroke="#00005A" stroke-linecap="round" stroke-linejoin="round" stroke-miterlimit="10" d="m187.671 110.532 3.8.249m-2.032-3.853 2.49 1.225m31.678 17.091-1.475-1.758m-2.989-.054.787 1.788m-3.398-11.798 7.833 7.744a4.1 4.1 0 0 1 .922 4.113"></path>
    <path vector-effect="non-scaling-stroke" fill="#00005A" d="m307.369 123.911.442-.831-3.225-1.713-.442.831zm-1.744 4.22-.842-.447-1.255 2.361.842.447zm.893-2.619.448-.841-3.226-1.713-.447.842zm-2.474 1.78-.843-.448-1.255 2.361.842.447zm4.501-4.863c.366.195.505.65.31 1.016l-1.45 2.728a.755.755 0 0 1-1.016.311l-3.778-2.006a.755.755 0 0 1-.311-1.016l1.451-2.729a.75.75 0 0 1 1.015-.31zm-7.039-3.858a.494.494 0 0 1 .61.148c.292.399.587.86.788 1.261.121.242-.047.549-.291.668-.301.148-.621-.031-.768-.332a10 10 0 0 0-.548-.963.542.542 0 0 1 .209-.782m.134 7.444-1.255 2.361.822.436 1.255-2.36zm-2.147-4.949a.49.49 0 0 1 .595.132c.299.38.6.823.813 1.212.133.244.022.537-.225.664-.296.152-.664.007-.818-.288a9 9 0 0 0-.565-.927.53.53 0 0 1-.083-.443.549.549 0 0 1 .283-.35m5.802 9.917.272.144a.48.48 0 0 1 .235.285q.028.092.019.188a.48.48 0 0 1-.173.326.481.481 0 0 1-.534.054l-6.522-3.464a.5.5 0 0 1-.235-.285.472.472 0 0 1 .036-.367.5.5 0 0 1 .119-.146.48.48 0 0 1 .533-.054l.457.243 1.345-2.53a.75.75 0 0 1 1.015-.31l4.466 2.372a.754.754 0 0 1 .396.735.75.75 0 0 1-.085.281zm-8.651-3.578a.78.78 0 0 1-.066-.56.78.78 0 0 1 .332-.456 38 38 0 0 0 2.311-1.639.55.55 0 0 1 .458-.098.54.54 0 0 1 .363.296.53.53 0 0 1-.149.636 41 41 0 0 1-2.798 2.045.36.36 0 0 1-.032.207.27.27 0 0 1-.117.122zm15.811-1.347-.436.821 5.166 2.743.437-.821zm-.813 1.529-.442.831 5.166 2.744.443-.832zm2.379 3.304a.4.4 0 0 1-.207-.032c-.137.257.006 1.425.138 1.995a17 17 0 0 0 2.197-.325.785.785 0 0 1 .887.435l.28.623q-.127.052-.31-.085-1.384.217-2.785.258a7.5 7.5 0 0 0 1.514 2.441c.246.269.136.757-.184.93a.46.46 0 0 1-.571-.084 7.9 7.9 0 0 1-2.072-4.484l-1.075 2.022c-.458.861-.844.883-2.468.044a.444.444 0 0 1-.235-.488c.062-.322.434-.539.719-.379q.203.115.365.201c.504.267.545.289.649.094l2.008-3.777-2.377-1.262a.74.74 0 0 1-.365-.444.75.75 0 0 1 .055-.572l1.358-2.554a.753.753 0 0 1 1.015-.311l1.884 1.001c.149-.097.302-.203.447-.309.303-.22.725-.224 1.01.019l.608.518c-.069.056-.178.063-.312-.008a9 9 0 0 1-.644.369l2.829 1.502c.366.195.506.65.311 1.016l-1.358 2.554a.75.75 0 0 1-1.015.31zm-2.489-.52.479.584c-.043.056-.11.06-.173.079-1.316 1.26-3.042 1.831-4.751 1.792a.45.45 0 0 1-.433-.42c-.031-.322.242-.659.565-.654 1.102.02 2.227-.269 3.129-.864l-1.828-.971a.5.5 0 0 1-.238-.288.487.487 0 0 1 .324-.61.49.49 0 0 1 .372.036l2.373 1.26zm-90.753 13.785a14.08 14.08 0 0 0-7.554 6.71c.643.344 1.147.801 1.79 1.145 1.288-3.072 3.142-5.799 5.764-7.855m-9.382 7.066a4.56 4.56 0 0 0-3.414 1.119c-.001.081.151.091.159.01.659.195.858.864 1.274 1.411.307-.936 1.121-2.058 1.981-2.54m-10.534 2.307a10.84 10.84 0 0 0-6.317 4.661c.94-.008 1.972-.067 2.913-.076.861-1.652 1.994-3.365 3.404-4.585m56.263-7.716c-2.384 1.171-4.073 3.647-4.293 6.292.866-.276 1.792-.629 2.658-.905-.25-1.796.434-4.027 1.635-5.387m-104.473 4.876a6.06 6.06 0 0 0-4.666-.613c.217.543.471 1.154.687 1.698 1.033-.597 2.788-1.024 3.979-1.085m-27.067-7.306c-3.97 1.836-6.965 5.645-7.812 9.933.884.174 1.702.229 2.586.402.242-3.969 2.01-7.992 5.226-10.335m-20.425 4.352c1.478-4.83.847-10.266-1.699-14.629 1.183.935 2.567 2.1 3.556 3.238 0 .027-.095.149-.095.176v9.566c-.698.573-1.216.93-1.762 1.649m-16.278-11.763a22.37 22.37 0 0 0 3.695 12.304c-1.169-3.747-1.407-7.81-1.236-11.731-.89-.156-1.568-.417-2.459-.573m-4.153 13.523-2.197-.109c.445 2.608 1.23 5.209 2.836 7.312.715.935 1.596 1.834 2.737 2.127.181.047.394-.113.578-.145-2.234-2.503-3.696-5.841-3.954-9.185m13.628 5.245-2.19-.368c-.629 4.505-.108 8.905 2.093 12.885-1.306-4.033-1.249-8.496.097-12.517m-27.03-12.07c-1.358 2.875-2.309 6.752-2.143 9.927l.227-.451c.586.01.89.493 1.475.502.093-2.37.638-4.489 1.57-6.671-.367-.769-.764-2.539-1.13-3.307"></path>
    <path vector-effect="non-scaling-stroke" fill="#00005A" d="M103.877 133.25a12.32 12.32 0 0 0 3.013-7.382c-.045 3.478.106 6.957.06 10.435a8.83 8.83 0 0 0-3.073-3.053m-12.53 3.33c.304-2.075.856-4.479 1.37-6.512a3.2 3.2 0 0 0-1.317-.415c-.513 2.035-.682 4.242-.326 6.31m191.06 11.416.493-1.54c-2.277-.149-4.605.54-6.458 1.87 1.82-.621 4.075-.685 5.965-.33m-22.572 10.07-1.587-1.855c-3.339 2.023-6.028 5.147-7.43 8.789 2.304-3.116 5.394-5.555 9.017-6.934m34.814.498a18 18 0 0 0 .044-11.436c-.499.842-.957 1.47-1.456 2.313 1.406 2.756 1.912 6.068 1.412 9.123"></path>
    <path vector-effect="non-scaling-stroke" fill="#fff" d="M164.931 103.17a.782.782 0 1 1-1.564 0 .782.782 0 0 1 1.564 0m37.386-3.411a.782.782 0 1 1-1.564-.002.782.782 0 0 1 1.564.002m12.171 1.78a.782.782 0 1 1-1.564 0 .782.782 0 0 1 1.564 0m-58.64 3.29a.782.782 0 1 1-1.564 0 .782.782 0 0 1 1.564 0m3.343-19.211c-.413.453-.969.618-1.24.37-.272-.248-.157-.816.257-1.268s.969-.618 1.241-.37c.271.248.156.816-.258 1.268"></path>
    <path vector-effect="non-scaling-stroke" fill="url(#214dce1e043--SceneOnsenDark_svg__ap)" fill-opacity=".2" d="M109.363 50.167v.295h-7.37a7.566 7.566 0 0 0-7.566 7.562 7.566 7.566 0 0 0 7.566 7.562h24.155a4.02 4.02 0 0 0 2.888-1.157 4.04 4.04 0 0 0 1.202-2.87 4.03 4.03 0 0 0-1.202-2.87 4.02 4.02 0 0 0-2.888-1.156h-1.258v-7.366a7.754 7.754 0 0 0-4.793-7.168 7.76 7.76 0 0 0-5.94 0 7.76 7.76 0 0 0-4.794 7.168"></path>
    <path vector-effect="non-scaling-stroke" fill="url(#214dce1e043--SceneOnsenDark_svg__aq)" fill-opacity=".2" d="M280.971 59.376v5.315h-2.565a6.04 6.04 0 0 0-5.584 3.734 6.06 6.06 0 0 0 0 4.627 6.06 6.06 0 0 0 3.271 3.273c.733.304 1.519.46 2.313.461h31.962a5.132 5.132 0 0 0 0-10.263h-2.658v-7.147c0-7.389-5.986-13.378-13.369-13.378-7.384 0-13.37 5.99-13.37 13.378"></path>
  </g>
  <path vector-effect="non-scaling-stroke" fill="url(#214dce1e043--SceneOnsenDark_svg__ar)" d="M64.081 68.951c-4.589 7.016-2.622 16.424 4.394 21.013s16.424 2.621 21.013-4.395 2.622-16.424-4.394-21.013-16.424-2.621-21.013 4.395"></path>
  <path vector-effect="non-scaling-stroke" fill="url(#214dce1e043--SceneOnsenDark_svg__as)" d="M64.081 68.951c-4.589 7.016-2.622 16.424 4.394 21.013a15.1 15.1 0 0 0 8.243 2.477 15.1 15.1 0 0 1-6.534-2.374c-7.016-4.59-8.983-13.997-4.394-21.013 2.923-4.47 7.8-6.889 12.77-6.872-5.535-.647-11.221 1.788-14.479 6.769"></path>
  <path vector-effect="non-scaling-stroke" fill="url(#214dce1e043--SceneOnsenDark_svg__at)" d="M46.42 66.754c5.072.977 5.938 1.819 7.067 6.858.978-5.071 1.819-5.938 6.859-7.067-5.072-.977-5.939-1.818-7.068-6.858-.977 5.072-1.818 5.938-6.858 7.067"></path>
  <path vector-effect="non-scaling-stroke" fill="url(#214dce1e043--SceneOnsenDark_svg__au)" d="M61.926 57.638c2.142.391 2.51.742 3.008 2.863.391-2.143.742-2.512 2.863-3.008-2.143-.392-2.512-.743-3.008-2.864-.392 2.143-.743 2.512-2.863 3.009"></path>
  <path vector-effect="non-scaling-stroke" fill="url(#214dce1e043--SceneOnsenDark_svg__av)" d="M93.164 90.543c2.135.431 2.498.789 2.955 2.919.43-2.136.79-2.498 2.918-2.955-2.134-.431-2.497-.789-2.954-2.919-.43 2.135-.789 2.498-2.919 2.955"></path>
  <path vector-effect="non-scaling-stroke" stroke="#00005A" stroke-linecap="round" stroke-linejoin="round" stroke-miterlimit="10" d="M91.52 71.474a9.75 9.75 0 0 0-3.563 6.636 9.77 9.77 0 0 0 1.878 6.64m-5.072-20.386c.335 1.708-.3 3.462-1.149 4.982-.848 1.52-1.922 2.92-2.587 4.529-1.165 2.817-.93 6.175.617 8.802 1.365 2.318 3.721 4.02 6.337 4.627m-8.059-24.81c.575 1.666.214 3.598-.554 5.216-.464.976-1.078 1.9-1.92 2.578-.84.678-1.928 1.09-3.002.976-1.231-.13-2.326-.947-2.975-2-.65-1.055-.891-2.32-.883-3.558.013-.761.09-1.52.23-2.269m-4.538 3.086c.106 2.065 1.054 4.105 2.32 5.783 1.66 2.2 3.838 3.944 5.775 5.905s3.698 4.274 4.173 6.99c.42 2.393-.205 4.802-1.195 7.058m-8.383-2.131c.215-.282.444-.552.696-.8.559-.55 1.252-.991 2.025-1.119s1.628.098 2.14.69c.49.567.607 1.38.484 2.118-.05.302-.135.595-.242.881M66.11 82.76c.797-1.272.79-2.892.508-4.366-.49-2.552-1.799-5-3.804-6.627"></path>
  <path vector-effect="non-scaling-stroke" stroke="#00005A" d="M64.081 68.951c-4.589 7.016-2.622 16.424 4.394 21.013s16.424 2.621 21.013-4.395 2.622-16.424-4.394-21.013-16.424-2.621-21.013 4.395Z"></path>
  <path vector-effect="non-scaling-stroke" fill="url(#214dce1e043--SceneOnsenDark_svg__aw)" d="M89.355 68.73s1.337 2.005 2.057 4.302c1.236.126 2.227.329 2.9.61 3.215 1.346-2.04 3.996-11.737 5.918s-20.165 2.39-23.38 1.045c-1.9-.795-.842-2.045 2.341-3.332l.663-4.663c-7.563 2.967-10.852 6.847-7.437 9.63 4.304 3.505 17.621 3.94 29.746.97 12.126-2.968 18.466-8.217 14.163-11.723a7 7 0 0 0-.545-.397c-1.882-1.231-4.989-2.024-8.771-2.36"></path>
  <path vector-effect="non-scaling-stroke" fill="url(#214dce1e043--SceneOnsenDark_svg__ax)" d="M85.686 82.41c-12.125 2.97-25.443 2.535-29.746-.97-2.293-1.869-1.563-4.232 1.453-6.481-3.977 2.477-5.197 5.189-2.63 7.28 4.303 3.506 17.62 3.941 29.745.972 5.665-1.387 10.066-3.272 12.71-5.244-2.69 1.676-6.64 3.245-11.532 4.443"></path>
  <path vector-effect="non-scaling-stroke" fill="url(#214dce1e043--SceneOnsenDark_svg__ay)" d="M89.355 68.73s1.337 2.005 2.057 4.302c1.236.126 2.227.328 2.9.61 1.111.465 1.21 1.086.465 1.778 1.857-1.008 2.238-1.94.713-2.578-.673-.282-1.664-.484-2.9-.61-.407-1.297-1.01-2.5-1.458-3.304a39 39 0 0 0-1.777-.198"></path>
  <path vector-effect="non-scaling-stroke" fill="url(#214dce1e043--SceneOnsenDark_svg__az)" d="M59.91 78.026c.455-.247 1-.5 1.626-.753l.043-.3c-.744.362-1.305.716-1.669 1.053"></path>
  <path vector-effect="non-scaling-stroke" stroke="#00005A" stroke-linecap="round" stroke-linejoin="round" stroke-miterlimit="10" d="M62.2 72.61c-7.564 2.967-10.853 6.847-7.437 9.63 4.303 3.505 17.62 3.94 29.745.971 12.125-2.97 18.466-8.218 14.163-11.724-1.79-1.459-5.14-2.386-9.316-2.758 0 0 1.337 2.006 2.057 4.303 1.236.126 2.227.328 2.9.61 3.216 1.346-2.04 3.996-11.737 5.918s-20.165 2.39-23.38 1.045c-1.9-.795-.842-2.046 2.341-3.332 0 0 .24-2.921.664-4.663"></path>
  <path vector-effect="non-scaling-stroke" fill="#00005A" d="M61.485 72.921a9.1 9.1 0 0 0-1.646 5.118 8.6 8.6 0 0 1 1.713-.77c.096-1.554.33-3.11.721-4.618-.283.078-.505.193-.788.27m10.811 12.261c-2.375-.174-4.808.785-6.426 2.531-.766-.752-1.507-1.69-2.01-2.637a48 48 0 0 0 8.436.106"></path>
  <defs>
    <linearGradient id="214dce1e043--SceneOnsenDark_svg__c" x1="179.895" x2="179.895" y1="178.757" y2="157.772" gradientUnits="userSpaceOnUse">
      <stop stop-color="#AFFFB0" stop-opacity="0"></stop>
      <stop offset=".595" stop-color="#AFFFB0" stop-opacity="0"></stop>
      <stop offset="1" stop-color="#81FF55"></stop>
    </linearGradient>
    <linearGradient id="214dce1e043--SceneOnsenDark_svg__d" x1="113.747" x2="113.235" y1="85.46" y2="134.664" gradientUnits="userSpaceOnUse">
      <stop stop-color="#0F0"></stop>
      <stop offset=".138" stop-color="#0F0"></stop>
      <stop offset="1" stop-color="#008979"></stop>
    </linearGradient>
    <linearGradient id="214dce1e043--SceneOnsenDark_svg__e" x1="119.59" x2="119.161" y1="85.555" y2="126.772" gradientUnits="userSpaceOnUse">
      <stop stop-color="#FFF300"></stop>
      <stop offset=".319" stop-color="#FFF300"></stop>
      <stop offset="1" stop-color="#0F0"></stop>
    </linearGradient>
    <linearGradient id="214dce1e043--SceneOnsenDark_svg__f" x1="107.24" x2="107.199" y1="111.688" y2="115.588" gradientUnits="userSpaceOnUse">
      <stop stop-color="#FFF300"></stop>
      <stop offset=".319" stop-color="#FFF300"></stop>
      <stop offset="1" stop-color="#0F0"></stop>
    </linearGradient>
    <linearGradient id="214dce1e043--SceneOnsenDark_svg__g" x1="109.521" x2="109.325" y1="98.656" y2="117.531" gradientUnits="userSpaceOnUse">
      <stop stop-color="#FFF300"></stop>
      <stop offset=".319" stop-color="#FFF300"></stop>
      <stop offset="1" stop-color="#0F0"></stop>
    </linearGradient>
    <linearGradient id="214dce1e043--SceneOnsenDark_svg__h" x1="75.637" x2="113.433" y1="123.312" y2="123.312" gradientUnits="userSpaceOnUse">
      <stop stop-color="#0F0"></stop>
      <stop offset=".271" stop-color="#0F0"></stop>
      <stop offset="1" stop-color="#68F3FF"></stop>
    </linearGradient>
    <linearGradient id="214dce1e043--SceneOnsenDark_svg__i" x1="76.793" x2="113.434" y1="123.203" y2="123.203" gradientUnits="userSpaceOnUse">
      <stop stop-color="#FFF300"></stop>
      <stop offset=".319" stop-color="#FFF300"></stop>
      <stop offset="1" stop-color="#0F0"></stop>
    </linearGradient>
    <linearGradient id="214dce1e043--SceneOnsenDark_svg__j" x1="99.45" x2="98.201" y1="112.549" y2="118.629" gradientUnits="userSpaceOnUse">
      <stop stop-color="#0F0"></stop>
      <stop offset=".138" stop-color="#0F0"></stop>
      <stop offset="1" stop-color="#008979"></stop>
    </linearGradient>
    <linearGradient id="214dce1e043--SceneOnsenDark_svg__k" x1="87.014" x2="85.754" y1="124.715" y2="130.848" gradientUnits="userSpaceOnUse">
      <stop stop-color="#0F0"></stop>
      <stop offset=".138" stop-color="#0F0"></stop>
      <stop offset="1" stop-color="#008979"></stop>
    </linearGradient>
    <linearGradient id="214dce1e043--SceneOnsenDark_svg__l" x1="89.962" x2="89.21" y1="105.345" y2="109.007" gradientUnits="userSpaceOnUse">
      <stop stop-color="#0F0"></stop>
      <stop offset=".138" stop-color="#0F0"></stop>
      <stop offset="1" stop-color="#008979"></stop>
    </linearGradient>
    <linearGradient id="214dce1e043--SceneOnsenDark_svg__m" x1="78.29" x2="76.403" y1="112.957" y2="122.147" gradientUnits="userSpaceOnUse">
      <stop stop-color="#0F0"></stop>
      <stop offset=".138" stop-color="#0F0"></stop>
      <stop offset="1" stop-color="#008979"></stop>
    </linearGradient>
    <linearGradient id="214dce1e043--SceneOnsenDark_svg__n" x1="296.327" x2="286.06" y1="146.265" y2="173.599" gradientUnits="userSpaceOnUse">
      <stop stop-color="#81FF55"></stop>
      <stop offset=".511" stop-color="#81FF55" stop-opacity="0"></stop>
      <stop offset=".663" stop-color="#81FF55" stop-opacity="0"></stop>
    </linearGradient>
    <linearGradient id="214dce1e043--SceneOnsenDark_svg__o" x1="100.441" x2="114.543" y1="151.637" y2="184.472" gradientUnits="userSpaceOnUse">
      <stop stop-color="#81FF55"></stop>
      <stop offset=".405" stop-color="#AFFFB0" stop-opacity="0"></stop>
      <stop offset="1" stop-color="#AFFFB0" stop-opacity="0"></stop>
    </linearGradient>
    <linearGradient id="214dce1e043--SceneOnsenDark_svg__p" x1="100.476" x2="114.577" y1="151.624" y2="184.459" gradientUnits="userSpaceOnUse">
      <stop stop-color="#FFF300"></stop>
      <stop offset=".319" stop-color="#FFF300"></stop>
      <stop offset="1" stop-color="#0F0"></stop>
    </linearGradient>
    <linearGradient id="214dce1e043--SceneOnsenDark_svg__q" x1="257.108" x2="253.535" y1="155.178" y2="173.824" gradientUnits="userSpaceOnUse">
      <stop stop-color="#81FF55"></stop>
      <stop offset=".668" stop-color="#81FF55" stop-opacity="0"></stop>
      <stop offset="1" stop-color="#81FF55" stop-opacity="0"></stop>
    </linearGradient>
    <linearGradient id="214dce1e043--SceneOnsenDark_svg__r" x1="257.107" x2="248.149" y1="155.184" y2="179.517" gradientUnits="userSpaceOnUse">
      <stop stop-color="#FFF300"></stop>
      <stop offset=".319" stop-color="#FFF300"></stop>
      <stop offset="1" stop-color="#0F0"></stop>
    </linearGradient>
    <linearGradient id="214dce1e043--SceneOnsenDark_svg__s" x1="268.24" x2="267.73" y1="85.767" y2="134.712" gradientUnits="userSpaceOnUse">
      <stop stop-color="#0F0"></stop>
      <stop offset=".138" stop-color="#0F0"></stop>
      <stop offset="1" stop-color="#008979"></stop>
    </linearGradient>
    <linearGradient id="214dce1e043--SceneOnsenDark_svg__t" x1="272.032" x2="271.88" y1="102.582" y2="117.221" gradientUnits="userSpaceOnUse">
      <stop stop-color="#FFF300"></stop>
      <stop offset=".319" stop-color="#FFF300"></stop>
      <stop offset="1" stop-color="#0F0"></stop>
    </linearGradient>
    <linearGradient id="214dce1e043--SceneOnsenDark_svg__u" x1="260.846" x2="260.553" y1="89.073" y2="117.212" gradientUnits="userSpaceOnUse">
      <stop stop-color="#FFF300"></stop>
      <stop offset=".319" stop-color="#FFF300"></stop>
      <stop offset="1" stop-color="#0F0"></stop>
    </linearGradient>
    <linearGradient id="214dce1e043--SceneOnsenDark_svg__v" x1="273.002" x2="272.955" y1="118.741" y2="123.294" gradientUnits="userSpaceOnUse">
      <stop stop-color="#FFF300"></stop>
      <stop offset=".319" stop-color="#FFF300"></stop>
      <stop offset="1" stop-color="#0F0"></stop>
    </linearGradient>
    <linearGradient id="214dce1e043--SceneOnsenDark_svg__w" x1="270.051" x2="270.03" y1="125.949" y2="127.966" gradientUnits="userSpaceOnUse">
      <stop stop-color="#FFF300"></stop>
      <stop offset=".319" stop-color="#FFF300"></stop>
      <stop offset="1" stop-color="#0F0"></stop>
    </linearGradient>
    <linearGradient id="214dce1e043--SceneOnsenDark_svg__x" x1="268.015" x2="267.999" y1="130.554" y2="132.084" gradientUnits="userSpaceOnUse">
      <stop stop-color="#FFF300"></stop>
      <stop offset=".319" stop-color="#FFF300"></stop>
      <stop offset="1" stop-color="#0F0"></stop>
    </linearGradient>
    <linearGradient id="214dce1e043--SceneOnsenDark_svg__y" x1="277.449" x2="253.074" y1="129.049" y2="176.389" gradientUnits="userSpaceOnUse">
      <stop stop-color="#81FF55"></stop>
      <stop offset=".44" stop-color="#81FF55" stop-opacity="0"></stop>
      <stop offset=".73" stop-color="#81FF55" stop-opacity="0"></stop>
    </linearGradient>
    <linearGradient id="214dce1e043--SceneOnsenDark_svg__z" x1="277.479" x2="259.744" y1="128.97" y2="175.556" gradientUnits="userSpaceOnUse">
      <stop stop-color="#FFF300"></stop>
      <stop offset=".319" stop-color="#FFF300"></stop>
      <stop offset="1" stop-color="#0F0"></stop>
    </linearGradient>
    <linearGradient id="214dce1e043--SceneOnsenDark_svg__A" x1="90.1" x2="105.216" y1="130.506" y2="164.899" gradientUnits="userSpaceOnUse">
      <stop stop-color="#81FF55"></stop>
      <stop offset=".586" stop-color="#81FF55" stop-opacity="0"></stop>
      <stop offset="1" stop-color="#81FF55" stop-opacity="0"></stop>
    </linearGradient>
    <linearGradient id="214dce1e043--SceneOnsenDark_svg__B" x1="88.111" x2="90.372" y1="146.055" y2="154.649" gradientUnits="userSpaceOnUse">
      <stop stop-color="#FFF300"></stop>
      <stop offset=".319" stop-color="#FFF300"></stop>
      <stop offset="1" stop-color="#0F0"></stop>
    </linearGradient>
    <linearGradient id="214dce1e043--SceneOnsenDark_svg__C" x1="96.059" x2="101.719" y1="128.513" y2="150.036" gradientUnits="userSpaceOnUse">
      <stop stop-color="#FFF300"></stop>
      <stop offset=".319" stop-color="#FFF300"></stop>
      <stop offset="1" stop-color="#0F0"></stop>
    </linearGradient>
    <linearGradient id="214dce1e043--SceneOnsenDark_svg__D" x1="87.121" x2="87.233" y1="158.483" y2="158.906" gradientUnits="userSpaceOnUse">
      <stop stop-color="#FFF300"></stop>
      <stop offset=".319" stop-color="#FFF300"></stop>
      <stop offset="1" stop-color="#0F0"></stop>
    </linearGradient>
    <linearGradient id="214dce1e043--SceneOnsenDark_svg__E" x1="84.807" x2="85.225" y1="159.466" y2="161.054" gradientUnits="userSpaceOnUse">
      <stop stop-color="#FFF300"></stop>
      <stop offset=".319" stop-color="#FFF300"></stop>
      <stop offset="1" stop-color="#0F0"></stop>
    </linearGradient>
    <linearGradient id="214dce1e043--SceneOnsenDark_svg__F" x1="106.915" x2="259.968" y1="140.696" y2="140.696" gradientUnits="userSpaceOnUse">
      <stop stop-color="#fff"></stop>
      <stop offset="1" stop-color="#A3EAFF"></stop>
    </linearGradient>
    <linearGradient id="214dce1e043--SceneOnsenDark_svg__G" x1="107.784" x2="107.784" y1="145.882" y2="122.89" gradientUnits="userSpaceOnUse">
      <stop stop-color="#006AFF"></stop>
      <stop offset=".214" stop-color="#3FC9FF"></stop>
      <stop offset=".491" stop-color="#3FC9FF"></stop>
      <stop offset="1" stop-color="#3FFFFF"></stop>
    </linearGradient>
    <linearGradient id="214dce1e043--SceneOnsenDark_svg__H" x1="214.324" x2="218.58" y1="145.71" y2="171.897" gradientUnits="userSpaceOnUse">
      <stop stop-color="#81FF55"></stop>
      <stop offset=".708" stop-color="#81FF55" stop-opacity="0"></stop>
    </linearGradient>
    <linearGradient id="214dce1e043--SceneOnsenDark_svg__I" x1="213.594" x2="221.529" y1="145.841" y2="170.278" gradientUnits="userSpaceOnUse">
      <stop stop-color="#FFF300"></stop>
      <stop offset=".319" stop-color="#FFF300"></stop>
      <stop offset="1" stop-color="#0F0"></stop>
    </linearGradient>
    <linearGradient id="214dce1e043--SceneOnsenDark_svg__J" x1="151.418" x2="143.907" y1="146.242" y2="180.562" gradientUnits="userSpaceOnUse">
      <stop stop-color="#81FF55"></stop>
      <stop offset=".57" stop-color="#81FF55" stop-opacity="0"></stop>
      <stop offset="1" stop-color="#81FF55" stop-opacity="0"></stop>
    </linearGradient>
    <linearGradient id="214dce1e043--SceneOnsenDark_svg__K" x1="123.615" x2="167.31" y1="154.669" y2="154.669" gradientUnits="userSpaceOnUse">
      <stop stop-color="#FFF300"></stop>
      <stop offset=".319" stop-color="#FFF300"></stop>
      <stop offset="1" stop-color="#0F0"></stop>
    </linearGradient>
    <linearGradient id="214dce1e043--SceneOnsenDark_svg__L" x1="119.525" x2="134.154" y1="131.757" y2="131.757" gradientUnits="userSpaceOnUse">
      <stop stop-color="#3FFFFF"></stop>
      <stop offset=".509" stop-color="#3FC9FF"></stop>
      <stop offset=".786" stop-color="#3FC9FF"></stop>
      <stop offset="1" stop-color="#006AFF"></stop>
    </linearGradient>
    <linearGradient id="214dce1e043--SceneOnsenDark_svg__M" x1="238.894" x2="252.305" y1="133.118" y2="133.118" gradientUnits="userSpaceOnUse">
      <stop stop-color="#3FFFFF"></stop>
      <stop offset=".509" stop-color="#3FC9FF"></stop>
      <stop offset=".786" stop-color="#3FC9FF"></stop>
      <stop offset="1" stop-color="#006AFF"></stop>
    </linearGradient>
    <linearGradient id="214dce1e043--SceneOnsenDark_svg__N" x1="248.229" x2="251.921" y1="139.122" y2="139.122" gradientUnits="userSpaceOnUse">
      <stop stop-color="#3FFFFF"></stop>
      <stop offset=".509" stop-color="#3FC9FF"></stop>
      <stop offset=".786" stop-color="#3FC9FF"></stop>
      <stop offset="1" stop-color="#006AFF"></stop>
    </linearGradient>
    <linearGradient id="214dce1e043--SceneOnsenDark_svg__O" x1="112.309" x2="254.834" y1="126.216" y2="126.216" gradientUnits="userSpaceOnUse">
      <stop stop-color="#3FFFFF"></stop>
      <stop offset=".509" stop-color="#3FC9FF"></stop>
      <stop offset=".786" stop-color="#3FC9FF"></stop>
      <stop offset="1" stop-color="#006AFF"></stop>
    </linearGradient>
    <linearGradient id="214dce1e043--SceneOnsenDark_svg__P" x1="292.925" x2="316.265" y1="135.824" y2="135.824" gradientUnits="userSpaceOnUse">
      <stop stop-color="#DAA900"></stop>
      <stop offset=".409" stop-color="#9C7400"></stop>
      <stop offset="1" stop-color="#9C7400"></stop>
    </linearGradient>
    <linearGradient id="214dce1e043--SceneOnsenDark_svg__Q" x1="292.925" x2="316.265" y1="135.824" y2="135.824" gradientUnits="userSpaceOnUse">
      <stop stop-color="#FFE700"></stop>
      <stop offset=".516" stop-color="#FF77AD"></stop>
      <stop offset=".849" stop-color="#FF77AD"></stop>
      <stop offset="1" stop-color="#FF77AD"></stop>
    </linearGradient>
    <linearGradient id="214dce1e043--SceneOnsenDark_svg__R" x1="49.154" x2="71.838" y1="143.531" y2="143.531" gradientUnits="userSpaceOnUse">
      <stop stop-color="#0F0"></stop>
      <stop offset=".271" stop-color="#0F0"></stop>
      <stop offset="1" stop-color="#68F3FF"></stop>
    </linearGradient>
    <linearGradient id="214dce1e043--SceneOnsenDark_svg__S" x1="49.636" x2="72.2" y1="139.539" y2="139.539" gradientUnits="userSpaceOnUse">
      <stop stop-color="#FFF300"></stop>
      <stop offset=".319" stop-color="#FFF300"></stop>
      <stop offset="1" stop-color="#0F0"></stop>
    </linearGradient>
    <linearGradient id="214dce1e043--SceneOnsenDark_svg__T" x1="71.106" x2="69.93" y1="140.294" y2="146.025" gradientUnits="userSpaceOnUse">
      <stop stop-color="#0F0"></stop>
      <stop offset=".138" stop-color="#0F0"></stop>
      <stop offset="1" stop-color="#008979"></stop>
    </linearGradient>
    <linearGradient id="214dce1e043--SceneOnsenDark_svg__U" x1="57.396" x2="56.942" y1="132.546" y2="134.759" gradientUnits="userSpaceOnUse">
      <stop stop-color="#0F0"></stop>
      <stop offset=".138" stop-color="#0F0"></stop>
      <stop offset="1" stop-color="#008979"></stop>
    </linearGradient>
    <linearGradient id="214dce1e043--SceneOnsenDark_svg__V" x1="50.799" x2="49.712" y1="137.717" y2="143.013" gradientUnits="userSpaceOnUse">
      <stop stop-color="#0F0"></stop>
      <stop offset=".138" stop-color="#0F0"></stop>
      <stop offset="1" stop-color="#008979"></stop>
    </linearGradient>
    <linearGradient id="214dce1e043--SceneOnsenDark_svg__W" x1="56.457" x2="55.739" y1="144.34" y2="147.838" gradientUnits="userSpaceOnUse">
      <stop stop-color="#0F0"></stop>
      <stop offset=".138" stop-color="#0F0"></stop>
      <stop offset="1" stop-color="#008979"></stop>
    </linearGradient>
    <linearGradient id="214dce1e043--SceneOnsenDark_svg__X" x1="63.568" x2="62.816" y1="136.538" y2="140.196" gradientUnits="userSpaceOnUse">
      <stop stop-color="#0F0"></stop>
      <stop offset=".138" stop-color="#0F0"></stop>
      <stop offset="1" stop-color="#008979"></stop>
    </linearGradient>
    <linearGradient id="214dce1e043--SceneOnsenDark_svg__Y" x1="62.801" x2="62.13" y1="150.779" y2="154.047" gradientUnits="userSpaceOnUse">
      <stop stop-color="#0F0"></stop>
      <stop offset=".138" stop-color="#0F0"></stop>
      <stop offset="1" stop-color="#008979"></stop>
    </linearGradient>
    <linearGradient id="214dce1e043--SceneOnsenDark_svg__Z" x1="72.498" x2="87.98" y1="142.558" y2="169.669" gradientUnits="userSpaceOnUse">
      <stop stop-color="#81FF55"></stop>
      <stop offset=".405" stop-color="#81FF55" stop-opacity="0"></stop>
      <stop offset="1" stop-color="#81FF55" stop-opacity="0"></stop>
    </linearGradient>
    <linearGradient id="214dce1e043--SceneOnsenDark_svg__aa" x1="291.537" x2="324.846" y1="127.551" y2="127.551" gradientUnits="userSpaceOnUse">
      <stop stop-color="#FFE700"></stop>
      <stop offset=".583" stop-color="#FFE700"></stop>
      <stop offset="1" stop-color="#FFA5FF"></stop>
    </linearGradient>
    <linearGradient id="214dce1e043--SceneOnsenDark_svg__ab" x1="264.659" x2="260.882" y1="144.079" y2="164.099" gradientUnits="userSpaceOnUse">
      <stop stop-color="#81FF55"></stop>
      <stop offset=".189" stop-color="#81FF55" stop-opacity=".569"></stop>
      <stop offset=".467" stop-color="#81FF55" stop-opacity="0"></stop>
    </linearGradient>
    <linearGradient id="214dce1e043--SceneOnsenDark_svg__ac" x1="140.573" x2="156.397" y1="113.631" y2="113.631" gradientUnits="userSpaceOnUse">
      <stop stop-color="#FF91FF"></stop>
      <stop offset=".14" stop-color="#FFE6F6"></stop>
      <stop offset=".348" stop-color="#FFE6F6"></stop>
      <stop offset=".786" stop-color="#fff"></stop>
      <stop offset="1" stop-color="#fff"></stop>
    </linearGradient>
    <linearGradient id="214dce1e043--SceneOnsenDark_svg__ad" x1="165.599" x2="180.958" y1="110.643" y2="110.643" gradientUnits="userSpaceOnUse">
      <stop stop-color="#fff"></stop>
      <stop offset=".214" stop-color="#fff"></stop>
      <stop offset=".652" stop-color="#FFE6F6"></stop>
      <stop offset=".86" stop-color="#FFE6F6"></stop>
      <stop offset="1" stop-color="#FF91FF"></stop>
    </linearGradient>
    <linearGradient id="214dce1e043--SceneOnsenDark_svg__ae" x1="154.684" x2="169.364" y1="117.545" y2="117.545" gradientUnits="userSpaceOnUse">
      <stop stop-color="#A470FF"></stop>
      <stop offset=".799" stop-color="#A470FF"></stop>
      <stop offset="1" stop-color="#5F2ABF"></stop>
    </linearGradient>
    <linearGradient id="214dce1e043--SceneOnsenDark_svg__af" x1="148.329" x2="155.911" y1="95.879" y2="95.879" gradientUnits="userSpaceOnUse">
      <stop stop-color="#A470FF"></stop>
      <stop offset=".799" stop-color="#A470FF"></stop>
      <stop offset="1" stop-color="#5F2ABF"></stop>
    </linearGradient>
    <linearGradient id="214dce1e043--SceneOnsenDark_svg__ag" x1="162.046" x2="169.886" y1="92.792" y2="92.792" gradientUnits="userSpaceOnUse">
      <stop stop-color="#A470FF"></stop>
      <stop offset=".799" stop-color="#A470FF"></stop>
      <stop offset="1" stop-color="#5F2ABF"></stop>
    </linearGradient>
    <linearGradient id="214dce1e043--SceneOnsenDark_svg__ah" x1="163.719" x2="159.207" y1="116.311" y2="97.956" gradientUnits="userSpaceOnUse">
      <stop stop-color="#fff"></stop>
      <stop offset=".516" stop-color="#FFE6F6"></stop>
      <stop offset=".806" stop-color="#FFE6F6"></stop>
      <stop offset="1" stop-color="#FF91FF"></stop>
    </linearGradient>
    <linearGradient id="214dce1e043--SceneOnsenDark_svg__ai" x1="148.955" x2="172.592" y1="99.924" y2="99.924" gradientUnits="userSpaceOnUse">
      <stop stop-color="#A470FF"></stop>
      <stop offset=".799" stop-color="#A470FF"></stop>
      <stop offset="1" stop-color="#5F2ABF"></stop>
    </linearGradient>
    <linearGradient id="214dce1e043--SceneOnsenDark_svg__aj" x1="219.86" x2="238.301" y1="103.767" y2="103.767" gradientUnits="userSpaceOnUse">
      <stop stop-color="#FFE700"></stop>
      <stop offset=".516" stop-color="#FF77AD"></stop>
      <stop offset=".849" stop-color="#FF77AD"></stop>
      <stop offset="1" stop-color="#FF77AD"></stop>
    </linearGradient>
    <linearGradient id="214dce1e043--SceneOnsenDark_svg__ak" x1="187.048" x2="230.924" y1="104.428" y2="104.428" gradientUnits="userSpaceOnUse">
      <stop stop-color="#FFE700"></stop>
      <stop offset=".054" stop-color="#FFE700"></stop>
      <stop offset="1" stop-color="#FF77AD"></stop>
    </linearGradient>
    <linearGradient id="214dce1e043--SceneOnsenDark_svg__al" x1="187.703" x2="197.329" y1="108.619" y2="108.619" gradientUnits="userSpaceOnUse">
      <stop stop-color="#FFE700"></stop>
      <stop offset=".033" stop-color="#FFE700"></stop>
      <stop offset=".611" stop-color="#FF7AA8"></stop>
      <stop offset="1" stop-color="#FF77AD"></stop>
    </linearGradient>
    <linearGradient id="214dce1e043--SceneOnsenDark_svg__am" x1="187.048" x2="197.58" y1="97.166" y2="97.166" gradientUnits="userSpaceOnUse">
      <stop stop-color="#FFE700"></stop>
      <stop offset=".033" stop-color="#FFE700"></stop>
      <stop offset=".611" stop-color="#FF7AA8"></stop>
      <stop offset="1" stop-color="#FF77AD"></stop>
    </linearGradient>
    <linearGradient id="214dce1e043--SceneOnsenDark_svg__an" x1="194.975" x2="207.889" y1="120.383" y2="120.383" gradientUnits="userSpaceOnUse">
      <stop stop-color="#fff"></stop>
      <stop offset=".516" stop-color="#FFE6F6"></stop>
      <stop offset=".806" stop-color="#FFE6F6"></stop>
      <stop offset="1" stop-color="#FF91FF"></stop>
    </linearGradient>
    <linearGradient id="214dce1e043--SceneOnsenDark_svg__ao" x1="198.812" x2="218.958" y1="102.192" y2="102.192" gradientUnits="userSpaceOnUse">
      <stop stop-color="#fff"></stop>
      <stop offset=".715" stop-color="#FFE6F6"></stop>
      <stop offset=".885" stop-color="#FFE6F6"></stop>
      <stop offset="1" stop-color="#FF91FF"></stop>
    </linearGradient>
    <linearGradient id="214dce1e043--SceneOnsenDark_svg__ap" x1="112.302" x2="112.302" y1="42.409" y2="65.586" gradientUnits="userSpaceOnUse">
      <stop stop-color="#fff" stop-opacity=".47"></stop>
      <stop offset=".609" stop-color="#fff" stop-opacity=".72"></stop>
    </linearGradient>
    <linearGradient id="214dce1e043--SceneOnsenDark_svg__aq" x1="293.931" x2="293.931" y1="45.998" y2="76.786" gradientUnits="userSpaceOnUse">
      <stop stop-color="#fff" stop-opacity=".47"></stop>
      <stop offset=".609" stop-color="#fff" stop-opacity=".72"></stop>
    </linearGradient>
    <linearGradient id="214dce1e043--SceneOnsenDark_svg__ar" x1="64.081" x2="89.488" y1="68.951" y2="85.569" gradientUnits="userSpaceOnUse">
      <stop stop-color="#3FFFFF"></stop>
      <stop offset=".509" stop-color="#3FC9FF"></stop>
      <stop offset=".786" stop-color="#3FC9FF"></stop>
      <stop offset="1" stop-color="#006AFF"></stop>
    </linearGradient>
    <linearGradient id="214dce1e043--SceneOnsenDark_svg__as" x1="63.646" x2="83.257" y1="69.616" y2="82.443" gradientUnits="userSpaceOnUse">
      <stop stop-color="#FF95FF"></stop>
      <stop offset=".391" stop-color="#FF95FF"></stop>
      <stop offset="1" stop-color="#5F2ABF"></stop>
    </linearGradient>
    <linearGradient id="214dce1e043--SceneOnsenDark_svg__aw" x1="61.329" x2="92.104" y1="66.798" y2="86.928" gradientUnits="userSpaceOnUse">
      <stop stop-color="#fff"></stop>
      <stop offset=".516" stop-color="#FFE6F6"></stop>
      <stop offset=".806" stop-color="#FFE6F6"></stop>
      <stop offset="1" stop-color="#FF91FF"></stop>
    </linearGradient>
    <linearGradient id="214dce1e043--SceneOnsenDark_svg__ax" x1="59.618" x2="89.87" y1="69.415" y2="89.202" gradientUnits="userSpaceOnUse">
      <stop stop-color="#FFA5FF"></stop>
      <stop offset=".417" stop-color="#FFE700"></stop>
      <stop offset="1" stop-color="#FFE700"></stop>
    </linearGradient>
    <linearGradient id="214dce1e043--SceneOnsenDark_svg__ay" x1="88.856" x2="96.232" y1="69.493" y2="74.318" gradientUnits="userSpaceOnUse">
      <stop stop-color="#FFA5FF"></stop>
      <stop offset=".417" stop-color="#FFE700"></stop>
      <stop offset="1" stop-color="#FFE700"></stop>
    </linearGradient>
    <linearGradient id="214dce1e043--SceneOnsenDark_svg__az" x1="60.401" x2="61.195" y1="77.275" y2="77.795" gradientUnits="userSpaceOnUse">
      <stop stop-color="#FFA5FF"></stop>
      <stop offset=".417" stop-color="#FFE700"></stop>
      <stop offset="1" stop-color="#FFE700"></stop>
    </linearGradient>
    <radialGradient id="214dce1e043--SceneOnsenDark_svg__b" cx="0" cy="0" r="1" gradientTransform="matrix(0 -51.6464 84.6842 0 185.695 115.221)" gradientUnits="userSpaceOnUse">
      <stop stop-color="#FFE700"></stop>
      <stop offset=".51" stop-color="#FFE700" stop-opacity=".29"></stop>
      <stop offset=".854" stop-color="#FFE700" stop-opacity="0"></stop>
    </radialGradient>
    <radialGradient id="214dce1e043--SceneOnsenDark_svg__at" cx="0" cy="0" r="1" gradientTransform="matrix(6.96267 -.10457 .10457 6.9626 53.383 66.65)" gradientUnits="userSpaceOnUse">
      <stop stop-color="#FFE700"></stop>
      <stop offset="1" stop-color="#FFA5FF" stop-opacity="0"></stop>
    </radialGradient>
    <radialGradient id="214dce1e043--SceneOnsenDark_svg__au" cx="0" cy="0" r="1" gradientTransform="matrix(2.93552 -.07259 .0726 2.93567 64.861 57.565)" gradientUnits="userSpaceOnUse">
      <stop stop-color="#FFE700"></stop>
      <stop offset="1" stop-color="#FFA5FF" stop-opacity="0"></stop>
    </radialGradient>
    <radialGradient id="214dce1e043--SceneOnsenDark_svg__av" cx="0" cy="0" r="1" gradientTransform="matrix(2.93654 -.01761 .01761 2.9366 96.1 90.525)" gradientUnits="userSpaceOnUse">
      <stop stop-color="#FFE700"></stop>
      <stop offset="1" stop-color="#FFA5FF" stop-opacity="0"></stop>
    </radialGradient>
  </defs>
</svg>