<svg xmlns:xlink="http://www.w3.org/1999/xlink" xmlns="http://www.w3.org/2000/svg" fill="none" class="-mgk-variable-stroke-asset" viewBox="0 0 98 100" role="img" width="98"  height="100" >
  <path vector-effect="non-scaling-stroke" fill="#FFAAFF" d="M25.676 77.53c0 4.734-3.84 8.573-8.578 8.573s-8.579-3.838-8.579-8.573 3.841-8.573 8.579-8.573 8.578 3.838 8.578 8.573" stroke-width="0.8px"></path>
  <path vector-effect="non-scaling-stroke" fill="#FFFFFF" d="M17.098 70.838c4.42 0 8.055 3.34 8.524 7.633q.053-.465.055-.941c0-4.735-3.841-8.573-8.58-8.573-4.737 0-8.578 3.838-8.578 8.573q.002.477.054.94a8.576 8.576 0 0 1 8.525-7.632" stroke-width="0.8px"></path>
  <path vector-effect="non-scaling-stroke" fill="url(&quot;#99a4b9c8158--MigachuLookSide_svg__a&quot;)" d="M73.631 6.093c-5.398 2.322-8.845 6.476-10.755 9.47l19.992 5.595c-.832-7.134-3.744-11.816-5.577-14.132a3.13 3.13 0 0 0-2.447-1.182c-.408 0-.82.081-1.213.25" stroke-width="0.8px"></path>
  <path vector-effect="non-scaling-stroke" fill="#00E0FF" d="M67.588 15.81a22.34 22.34 0 0 1 7.564-9.883c-4.627 1.905-9.395 5.499-12.01 9.763 1.58.284 2.917.607 4.446.12" stroke-width="0.8px"></path>
  <path vector-effect="non-scaling-stroke" stroke="#00005A" stroke-linecap="round" stroke-linejoin="round" stroke-miterlimit="10" stroke-width="0.8px" d="M25.676 77.53c0 4.734-3.84 8.573-8.578 8.573s-8.579-3.838-8.579-8.573 3.841-8.573 8.579-8.573 8.578 3.838 8.578 8.573" fill="none"></path>
  <path vector-effect="non-scaling-stroke" fill="url(&quot;#99a4b9c8158--MigachuLookSide_svg__b&quot;)" d="M12.644 50.63c-1.797 4.492.391 9.588 4.886 11.384l20.868 8.332c4.495 1.794 9.594-.393 11.39-4.884s-.39-9.588-4.886-11.384l-20.867-8.332a8.767 8.767 0 0 0-11.39 4.884" stroke-width="0.8px"></path>
  <path vector-effect="non-scaling-stroke" fill="#FFFFFF" d="M13.248 53.047c1.796-4.493 6.896-6.68 11.391-4.884l20.868 8.332a8.73 8.73 0 0 1 4.859 4.832 8.75 8.75 0 0 0-5.464-7.249l-20.868-8.333c-4.494-1.794-9.594.392-11.39 4.884a8.72 8.72 0 0 0 .027 6.552 8.7 8.7 0 0 1 .577-4.134" stroke-width="0.8px"></path>
  <path vector-effect="non-scaling-stroke" stroke="#00005A" stroke-linecap="round" stroke-linejoin="round" stroke-miterlimit="10" stroke-width="0.8px" d="M38.398 70.346 17.53 62.013c-4.494-1.795-6.683-6.891-4.886-11.383s6.895-6.679 11.39-4.884l20.868 8.333a8.757 8.757 0 0 1 4.887 11.383c-1.796 4.492-6.896 6.678-11.391 4.884" fill="none"></path>
  <path vector-effect="non-scaling-stroke" stroke="#00005A" stroke-linecap="round" stroke-linejoin="round" stroke-miterlimit="10" stroke-width="0.8px" d="m49.525 65.71-5.726-2.572a16.55 16.55 0 0 1-9.667-13.254" fill="none"></path>
  <path vector-effect="non-scaling-stroke" fill="url(&quot;#99a4b9c8158--MigachuLookSide_svg__c&quot;)" d="M16.628 76.658c0 12.132 9.839 21.965 21.979 21.965 12.138 0 21.977-9.833 21.977-21.965 0-12.13-9.84-21.963-21.977-21.963-12.14 0-21.98 9.834-21.98 21.963" stroke-width="0.8px"></path>
  <path vector-effect="non-scaling-stroke" fill="#00E0FF" d="M19.793 77.58c0-12.13 9.84-21.962 21.978-21.962 1.563 0 3.087.166 4.559.475a22 22 0 0 0-7.724-1.398c-12.138 0-21.978 9.833-21.978 21.964 0 10.567 7.47 19.389 17.419 21.487C25.72 95.02 19.793 86.994 19.793 77.58" stroke-width="0.8px"></path>
  <path vector-effect="non-scaling-stroke" stroke="#00005A" stroke-linecap="round" stroke-linejoin="round" stroke-miterlimit="10" stroke-width="0.8px" d="M60.584 76.658c0 12.13-9.84 21.963-21.978 21.963s-21.978-9.833-21.978-21.963 9.84-21.964 21.978-21.964 21.978 9.834 21.978 21.964" fill="none"></path>
  <path vector-effect="non-scaling-stroke" fill="url(&quot;#99a4b9c8158--MigachuLookSide_svg__d&quot;)" d="M34.89 35.932c1.572-2.677 3.47-6.99 7.255-10.975a32.2 32.2 0 0 0-7.255 10.975" stroke-width="0.8px"></path>
  <path vector-effect="non-scaling-stroke" fill="url(&quot;#99a4b9c8158--MigachuLookSide_svg__e&quot;)" d="M53.6 17.692c2.447-.855 5.237-1.51 8.43-1.893a32 32 0 0 0-8.43 1.893" stroke-width="0.8px"></path>
  <path vector-effect="non-scaling-stroke" fill="url(&quot;#99a4b9c8158--MigachuLookSide_svg__f&quot;)" d="M33.436 55.087" stroke-width="0.8px"></path>
  <path vector-effect="non-scaling-stroke" fill="url(&quot;#99a4b9c8158--MigachuLookSide_svg__g&quot;)" d="m34.187 57.739.001-.026c-.091-.276-.185-.548-.269-.826q.127.426.268.852" stroke-width="0.8px"></path>
  <path vector-effect="non-scaling-stroke" fill="url(&quot;#99a4b9c8158--MigachuLookSide_svg__h&quot;)" d="M94.17 34.915a31.95 31.95 0 0 0-9.136-12.017c5.337 4.815 8.362 10.46 9.136 12.017" stroke-width="0.8px"></path>
  <path vector-effect="non-scaling-stroke" fill="url(&quot;#99a4b9c8158--MigachuLookSide_svg__i&quot;)" d="m73.108 38.004-11.89-8.353-24.674 22.368a38 38 0 0 0 1.022 4.282c5.49-.625 10.457 3.3 11.108 8.789.284 2.408-.331 4.92-1.736 6.906a37.7 37.7 0 0 0 7.676 5.962c-3.302-1.115-6.449-2.793-9.272-4.907-.349-.086-.73-.348-1.23-.716a29 29 0 0 1-1.236-.985c8.825 8.172 21.898 11.04 33.81 6.275 15.91-6.364 23.925-24.01 18.522-40.042.054.423-.085.634-.657.252L80.76 27.651z" stroke-width="0.8px"></path>
  <path vector-effect="non-scaling-stroke" fill="#FFAAFF" d="M96.16 41.863c-2.528 1.722-4.182 4.662-4.34 7.714s1.183 6.148 3.519 8.121c1.837-5.05 1.98-10.588.82-15.835" stroke-width="0.8px"></path>
  <path vector-effect="non-scaling-stroke" fill="#FF77AD" d="M55.015 56.012a8.78 8.78 0 0 1 5.428 3.65 8.77 8.77 0 0 1 1.332 6.401c-2.136-.485-4.084-1.674-5.35-3.46s-1.661-4.417-1.41-6.591" stroke-width="0.8px"></path>
  <path vector-effect="non-scaling-stroke" stroke="#00005A" stroke-linecap="round" stroke-linejoin="round" stroke-miterlimit="10" stroke-width="0.8px" d="M55.027 55.806a9.22 9.22 0 0 1 5.48 3.81 9.2 9.2 0 0 1 1.417 6.518" fill="none"></path>
  <path vector-effect="non-scaling-stroke" fill="url(&quot;#99a4b9c8158--MigachuLookSide_svg__j&quot;)" d="m33.782 56.403-.09-.332zm.118.425" stroke-width="0.8px"></path>
  <path vector-effect="non-scaling-stroke" fill="#FFAAFF" d="M34.905 59.74c-.266-.663-.5-1.332-.718-2.001-.008.07-.014.143-.009.221.087 1.418 1.081 3.178 1.694 4.435a27.5 27.5 0 0 0 5.44 7.545c.501.491 1.027.958 1.565 1.41a32 32 0 0 1-7.972-11.61" stroke-width="0.8px"></path>
  <path vector-effect="non-scaling-stroke" fill="#FFAAFF" d="M45.343 73.051c-3.775-2.828-6.964-6.442-9.137-10.566a31.5 31.5 0 0 1-2.018-4.772l-.001.026c.219.67.452 1.338.718 2.001a32 32 0 0 0 7.972 11.61c.404.338.813.67 1.236.983.497.37.88.632 1.23.718M46.937 71.996c1.406-1.986 2.022-4.497 1.736-6.907-.65-5.488-5.618-9.413-11.107-8.788a37.4 37.4 0 0 0 2.425 6.095 37.8 37.8 0 0 0 6.946 9.6" stroke-width="0.8px"></path>
  <path vector-effect="non-scaling-stroke" fill="url(&quot;#99a4b9c8158--MigachuLookSide_svg__k&quot;)" d="M32.855 52.667c0 .83.154 1.261.367 1.466q-.239-1.158-.395-2.332c.017.324.028.617.028.866" stroke-width="0.8px"></path>
  <path vector-effect="non-scaling-stroke" fill="url(&quot;#99a4b9c8158--MigachuLookSide_svg__l&quot;)" d="M94.581 35.871c.228.567.434 1.139.628 1.712-.097-.768-.837-2.25-.837-2.25s-.068-.15-.202-.418c.139.318.282.631.411.956" stroke-width="0.8px"></path>
  <path vector-effect="non-scaling-stroke" fill="url(&quot;#99a4b9c8158--MigachuLookSide_svg__m&quot;)" d="M65.402 15.498c-1.175.064-2.291.17-3.372.3 8.357-.71 16.61 1.909 23.004 7.1-4.446-4.01-10.496-7.44-18.186-7.44q-.713-.001-1.446.04" stroke-width="0.8px"></path>
  <path vector-effect="non-scaling-stroke" fill="url(&quot;#99a4b9c8158--MigachuLookSide_svg__n&quot;)" d="M34.823 36.049c-1.825 3.069-2.256 6.808-2.265 10.056.1-2.48.483-4.949 1.16-7.34q.071.08.15.15a32 32 0 0 1 1.022-2.983z" stroke-width="0.8px"></path>
  <path vector-effect="non-scaling-stroke" fill="url(&quot;#99a4b9c8158--MigachuLookSide_svg__o&quot;)" d="M42.145 24.957a32.05 32.05 0 0 1 10.656-6.97c.265-.106.532-.198.798-.295-5.135 1.79-8.773 4.442-11.454 7.265" stroke-width="0.8px"></path>
  <path vector-effect="non-scaling-stroke" fill="url(&quot;#99a4b9c8158--MigachuLookSide_svg__p&quot;)" d="M62.03 15.799c-3.193.383-5.983 1.038-8.43 1.893-.267.097-.534.189-.8.296a32.05 32.05 0 0 0-10.655 6.969c-3.786 3.986-5.683 8.298-7.255 10.975q-.584 1.465-1.022 2.982c.578.558 1.354.787 1.895 1.406l.397 1.076a37.8 37.8 0 0 0 .384 10.623L61.219 29.65l11.889 8.353 7.652-10.352L94.55 37.835c.572.382.711.171.657-.252q-.288-.86-.627-1.712c-.13-.325-.272-.638-.411-.956-.774-1.558-3.799-7.202-9.136-12.017a32.27 32.27 0 0 0-20.299-7.214q-1.35 0-2.705.115" stroke-width="0.8px"></path>
  <path vector-effect="non-scaling-stroke" fill="url(&quot;#99a4b9c8158--MigachuLookSide_svg__q&quot;)" d="M62.03 15.799c-3.193.383-5.983 1.038-8.43 1.893-.267.097-.534.189-.8.296a32.05 32.05 0 0 0-10.655 6.969c-3.786 3.986-5.683 8.298-7.255 10.975q-.584 1.465-1.022 2.982c.578.558 1.354.787 1.895 1.406l.397 1.076a37.8 37.8 0 0 0 .384 10.623L61.219 29.65l11.889 8.353 7.652-10.352L94.55 37.835c.572.382.711.171.657-.252q-.288-.86-.627-1.712c-.13-.325-.272-.638-.411-.956-.774-1.558-3.799-7.202-9.136-12.017a32.27 32.27 0 0 0-20.299-7.214q-1.35 0-2.705.115" stroke-width="0.8px"></path>
  <path vector-effect="non-scaling-stroke" fill="#00E0FF" d="M33.222 54.133q.093.44.197.877c-.066-.285-.12-.571-.177-.857zM33.919 56.887l-.019-.06zM32.606 48.259a45 45 0 0 1-.049-2.154 33 33 0 0 0 .27 5.696l-.029-.473a32 32 0 0 1-.192-3.07M33.692 56.07c-.087-.327-.179-.654-.255-.983.078.33.166.656.255.983" stroke-width="0.8px"></path>
  <path vector-effect="non-scaling-stroke" fill="#FFFFFF" d="m37.522 56.305.044-.004a38 38 0 0 1-1.022-4.283l-1.9 1.722s-.877.873-1.402.413c.058.286.11.572.177.857l.017.077c.077.329.169.656.256.984.07.252.133.506.208.757l.019.06c.083.276.178.55.269.825.174-1.225 2.284-1.284 3.334-1.408" stroke-width="0.8px"></path>
  <path vector-effect="non-scaling-stroke" fill="#00E0FF" d="M32.798 51.328c-.056-.858-.139-1.905-.192-3.07q.022 1.532.192 3.07" stroke-width="0.8px"></path>
  <path vector-effect="non-scaling-stroke" fill="#FFFFFF" d="M45.343 73.051c2.821 2.114 5.969 3.792 9.272 4.906a37.7 37.7 0 0 1-7.678-5.961c-.054.077-.101.159-.159.234-.549.727-.96.938-1.435.821" stroke-width="0.8px"></path>
  <path vector-effect="non-scaling-stroke" fill="#FFFFFF" d="M34.188 57.713a31.5 31.5 0 0 0 2.018 4.772c2.173 4.124 5.362 7.737 9.137 10.566.474.117.886-.094 1.436-.822.056-.075.104-.156.158-.234a37.8 37.8 0 0 1-6.945-9.6 37.4 37.4 0 0 1-2.426-6.094l-.044.003c-1.05.124-3.16.183-3.334 1.409" stroke-width="0.8px"></path>
  <path vector-effect="non-scaling-stroke" fill="#00E0FF" d="M33.867 38.915c-.05-.049-.102-.096-.15-.15a31.7 31.7 0 0 0-1.16 7.34c-.001.75.018 1.472.05 2.154a32 32 0 0 1 1.26-9.344M32.798 51.328l.029.473q.155 1.174.395 2.331l.02.021a32 32 0 0 1-.444-2.825" stroke-width="0.8px"></path>
  <path vector-effect="non-scaling-stroke" fill="#00E0FF" d="m36.16 41.395-.397-1.075c-.54-.62-1.317-.849-1.896-1.405a32 32 0 0 0-1.26 9.344c.052 1.164.136 2.211.191 3.07q.157 1.413.444 2.825c.525.458 1.402-.414 1.402-.414l1.9-1.722a37.8 37.8 0 0 1-.384-10.623" stroke-width="0.8px"></path>
  <path vector-effect="non-scaling-stroke" fill="url(&quot;#99a4b9c8158--MigachuLookSide_svg__r&quot;)" d="M31.63 22.485a3.11 3.11 0 0 0-2.005 3.2c.314 3.4 1.77 10.086 7.994 16.785l12.16-19.278S45.35 21.12 39.476 21.12c-2.437 0-5.123.357-7.846 1.365" stroke-width="0.8px"></path>
  <path vector-effect="non-scaling-stroke" fill="#00E0FF" d="M38.136 42.474c-3.624-6.09-5.25-13.345-4.573-20.397-1.173-.439-2.558.59-3.062 1.736-.503 1.146-.37 2.464-.145 3.695 1.016 5.545 3.778 10.992 7.78 14.966" stroke-width="0.8px"></path>
  <path vector-effect="non-scaling-stroke" stroke="#00005A" stroke-linecap="round" stroke-linejoin="round" stroke-miterlimit="10" stroke-width="0.8px" d="M49.78 23.192s-8.867-4.148-18.15-.707a3.11 3.11 0 0 0-2.005 3.199c.314 3.4 1.77 10.087 7.994 16.786M62.876 15.563c1.91-2.994 5.357-7.15 10.755-9.47a3.11 3.11 0 0 1 3.66.933c1.833 2.316 4.745 6.998 5.577 14.132" fill="none"></path>
  <path vector-effect="non-scaling-stroke" stroke="#00005A" stroke-linecap="round" stroke-linejoin="round" stroke-miterlimit="10" stroke-width="0.8px" d="M46.011 21.697a32.2 32.2 0 0 1 6.79-3.71c16.48-6.591 35.185 1.415 41.78 17.884 6.596 16.468-1.416 35.162-17.895 41.753C60.206 84.215 41.5 76.21 34.905 59.74a31.97 31.97 0 0 1-.817-21.586" fill="none"></path>
  <path vector-effect="non-scaling-stroke" fill="#FF77AD" d="M30.506 12.624a6.97 6.97 0 0 0 9.832.644 6.96 6.96 0 0 0 .645-9.826 6.97 6.97 0 0 0-9.832-.644 6.96 6.96 0 0 0-.645 9.826" stroke-width="0.8px"></path>
  <path vector-effect="non-scaling-stroke" stroke="#00005A" stroke-linecap="round" stroke-linejoin="round" stroke-miterlimit="10" stroke-width="0.8px" d="M30.506 12.624a6.97 6.97 0 0 0 9.832.644 6.96 6.96 0 0 0 .645-9.826 6.97 6.97 0 0 0-9.832-.644 6.96 6.96 0 0 0-.645 9.826" fill="none"></path>
  <path vector-effect="non-scaling-stroke" stroke="#00005A" stroke-linecap="round" stroke-linejoin="round" stroke-miterlimit="10" stroke-width="0.8px" d="M50.554 18.591c-1.223-3.732-4.69-6.63-8.582-7.173M33.673 54.237l27.546-24.586 11.89 8.352L80.76 27.65l14.608 10.921" fill="none"></path>
  <path vector-effect="non-scaling-stroke" fill="#00005A" d="M88.558 43.682c.32 2.969-.84 5.53-2.594 5.718-1.752.19-3.434-2.064-3.755-5.033s.84-5.53 2.593-5.719 3.435 2.065 3.756 5.034M69.954 45.56c.32 2.97-.84 5.53-2.593 5.718-1.753.19-3.435-2.063-3.755-5.033-.321-2.97.84-5.53 2.593-5.719s3.435 2.064 3.755 5.034" stroke-width="0.8px"></path>
  <path vector-effect="non-scaling-stroke" stroke="#00005A" stroke-linecap="round" stroke-linejoin="round" stroke-miterlimit="10" stroke-width="0.8px" d="M56.574 51.1c-3.713 6.003-1.255 11.658 2.116 13.89 3.37 2.23 9.868 2.349 13.622-3.472zM95.382 57.628a10 10 0 0 1-2.739-3.85c-1.752-4.375-.204-9.252 3.463-11.88M45.923 73.241a10 10 0 0 0 2.75-8.152c-.651-5.503-5.644-9.436-11.15-8.785-1.274.15-2.276.326-3.343.893" fill="none"></path>
  <path vector-effect="non-scaling-stroke" fill="#00005A" d="M62.166 65.767a9.53 9.53 0 0 0-1.622-6.408 9.54 9.54 0 0 0-5.43-3.776c.462-1.37.907-2.791 1.369-4.162a159 159 0 0 1 15.682 10.465c-2.467 3.194-5.997 4.415-10 3.88" stroke-width="0.8px"></path>
  <path vector-effect="non-scaling-stroke" fill="url(&quot;#99a4b9c8158--MigachuLookSide_svg__s&quot;)" d="M25.64 69.45 5.591 79.592a8.756 8.756 0 0 0-3.862 11.77c2.186 4.316 7.46 6.044 11.779 3.859l20.05-10.142a8.755 8.755 0 0 0 3.86-11.771A8.76 8.76 0 0 0 25.64 69.45" stroke-width="0.8px"></path>
  <path vector-effect="non-scaling-stroke" fill="#FFFFFF" d="M3.543 93.417a8.757 8.757 0 0 1 3.862-11.771l20.05-10.142a8.77 8.77 0 0 1 9.542 1.067A8.767 8.767 0 0 0 25.64 69.45L5.59 79.592a8.756 8.756 0 0 0-1.625 14.563 9 9 0 0 1-.423-.738" stroke-width="0.8px"></path>
  <path vector-effect="non-scaling-stroke" stroke="#00005A" stroke-linecap="round" stroke-linejoin="round" stroke-miterlimit="10" stroke-width="0.8px" d="m33.557 85.079-20.05 10.142c-4.318 2.184-9.592.457-11.778-3.86a8.756 8.756 0 0 1 3.862-11.77l20.05-10.141c4.318-2.185 9.591-.457 11.777 3.858a8.756 8.756 0 0 1-3.861 11.771" fill="none"></path>
  <path vector-effect="non-scaling-stroke" stroke="#00005A" stroke-linecap="round" stroke-linejoin="round" stroke-miterlimit="10" stroke-width="0.8px" d="m37.43 73.671-5.716 2.594a16.57 16.57 0 0 1-16.341-1.51" fill="none"></path>
  <path vector-effect="non-scaling-stroke" fill="#FFFFFF" d="M65.678 43.408a1.837 1.837 0 1 1-3.412 1.364 1.837 1.837 0 0 1 3.412-1.364M83.982 42.176a1.837 1.837 0 1 1-3.412 1.365 1.837 1.837 0 0 1 3.412-1.365M34.381 7.761c-.894 1.31-2.283 1.92-3.102 1.36-.82-.557-.758-2.072.136-3.382s2.283-1.919 3.101-1.36c.82.558.76 2.073-.135 3.382" stroke-width="0.8px"></path>
  <path vector-effect="non-scaling-stroke" fill="#00005A" d="M40.166 68.805a31.6 31.6 0 0 1-12.098-11.098c1.786-.788 3.62-1.974 5.406-2.762 1.094 4.803 3.287 9.446 6.401 13.264M33.733 85.139a75 75 0 0 0-7.91 9.115c-1.411-.947-2.746-2.042-3.723-3.433 3.904-1.926 7.728-3.757 11.633-5.683" stroke-width="0.8px"></path>
  <defs>
    <linearGradient id="99a4b9c8158--MigachuLookSide_svg__a" x1="62.876" x2="82.868" y1="13.5" y2="13.5" gradientUnits="userSpaceOnUse">
      <stop stop-color="#A470FF"></stop>
      <stop offset=".799" stop-color="#A470FF"></stop>
      <stop offset="1" stop-color="#5F2ABF"></stop>
    </linearGradient>
    <linearGradient id="99a4b9c8158--MigachuLookSide_svg__b" x1="12.015" x2="50.417" y1="58.045" y2="58.045" gradientUnits="userSpaceOnUse">
      <stop stop-color="#FF91FF"></stop>
      <stop offset=".14" stop-color="#FFE6F6"></stop>
      <stop offset=".348" stop-color="#FFE6F6"></stop>
      <stop offset=".786" stop-color="#fff"></stop>
      <stop offset="1" stop-color="#fff"></stop>
    </linearGradient>
    <linearGradient id="99a4b9c8158--MigachuLookSide_svg__c" x1="16.628" x2="60.584" y1="76.659" y2="76.659" gradientUnits="userSpaceOnUse">
      <stop stop-color="#A470FF"></stop>
      <stop offset=".799" stop-color="#A470FF"></stop>
      <stop offset="1" stop-color="#5F2ABF"></stop>
    </linearGradient>
    <linearGradient id="99a4b9c8158--MigachuLookSide_svg__d" x1="44.229" x2="38.905" y1="84.835" y2="34.066" gradientUnits="userSpaceOnUse">
      <stop stop-color="#fff"></stop>
      <stop offset=".516" stop-color="#FFE6F6"></stop>
      <stop offset=".806" stop-color="#FFE6F6"></stop>
      <stop offset="1" stop-color="#FF91FF"></stop>
    </linearGradient>
    <linearGradient id="99a4b9c8158--MigachuLookSide_svg__e" x1="64.739" x2="59.417" y1="82.674" y2="31.912" gradientUnits="userSpaceOnUse">
      <stop stop-color="#fff"></stop>
      <stop offset=".516" stop-color="#FFE6F6"></stop>
      <stop offset=".806" stop-color="#FFE6F6"></stop>
      <stop offset="1" stop-color="#FF91FF"></stop>
    </linearGradient>
    <linearGradient id="99a4b9c8158--MigachuLookSide_svg__f" x1="36.636" x2="31.339" y1="85.533" y2="34.925" gradientUnits="userSpaceOnUse">
      <stop stop-color="#fff"></stop>
      <stop offset=".516" stop-color="#FFE6F6"></stop>
      <stop offset=".806" stop-color="#FFE6F6"></stop>
      <stop offset="1" stop-color="#FF91FF"></stop>
    </linearGradient>
    <linearGradient id="99a4b9c8158--MigachuLookSide_svg__g" x1="37.022" x2="31.698" y1="85.582" y2="34.829" gradientUnits="userSpaceOnUse">
      <stop stop-color="#fff"></stop>
      <stop offset=".516" stop-color="#FFE6F6"></stop>
      <stop offset=".806" stop-color="#FFE6F6"></stop>
      <stop offset="1" stop-color="#FF91FF"></stop>
    </linearGradient>
    <linearGradient id="99a4b9c8158--MigachuLookSide_svg__h" x1="94.917" x2="89.593" y1="79.519" y2="28.75" gradientUnits="userSpaceOnUse">
      <stop stop-color="#fff"></stop>
      <stop offset=".516" stop-color="#FFE6F6"></stop>
      <stop offset=".806" stop-color="#FFE6F6"></stop>
      <stop offset="1" stop-color="#FF91FF"></stop>
    </linearGradient>
    <linearGradient id="99a4b9c8158--MigachuLookSide_svg__i" x1="70.185" x2="64.861" y1="82.114" y2="31.344" gradientUnits="userSpaceOnUse">
      <stop stop-color="#fff"></stop>
      <stop offset=".516" stop-color="#FFE6F6"></stop>
      <stop offset=".806" stop-color="#FFE6F6"></stop>
      <stop offset="1" stop-color="#FF91FF"></stop>
    </linearGradient>
    <linearGradient id="99a4b9c8158--MigachuLookSide_svg__j" x1="36.856" x2="31.53" y1="85.604" y2="34.842" gradientUnits="userSpaceOnUse">
      <stop stop-color="#fff"></stop>
      <stop offset=".516" stop-color="#FFE6F6"></stop>
      <stop offset=".806" stop-color="#FFE6F6"></stop>
      <stop offset="1" stop-color="#FF91FF"></stop>
    </linearGradient>
    <linearGradient id="99a4b9c8158--MigachuLookSide_svg__k" x1="32.557" x2="95.177" y1="52.967" y2="52.967" gradientUnits="userSpaceOnUse">
      <stop stop-color="#A470FF"></stop>
      <stop offset=".799" stop-color="#A470FF"></stop>
      <stop offset="1" stop-color="#5F2ABF"></stop>
    </linearGradient>
    <linearGradient id="99a4b9c8158--MigachuLookSide_svg__l" x1="32.516" x2="95.223" y1="36.248" y2="36.248" gradientUnits="userSpaceOnUse">
      <stop stop-color="#A470FF"></stop>
      <stop offset=".799" stop-color="#A470FF"></stop>
      <stop offset="1" stop-color="#5F2ABF"></stop>
    </linearGradient>
    <linearGradient id="99a4b9c8158--MigachuLookSide_svg__m" x1="32.557" x2="95.222" y1="19.177" y2="19.177" gradientUnits="userSpaceOnUse">
      <stop stop-color="#A470FF"></stop>
      <stop offset=".799" stop-color="#A470FF"></stop>
      <stop offset="1" stop-color="#5F2ABF"></stop>
    </linearGradient>
    <linearGradient id="99a4b9c8158--MigachuLookSide_svg__n" x1="32.558" x2="95.222" y1="41.018" y2="41.018" gradientUnits="userSpaceOnUse">
      <stop stop-color="#A470FF"></stop>
      <stop offset=".799" stop-color="#A470FF"></stop>
      <stop offset="1" stop-color="#5F2ABF"></stop>
    </linearGradient>
    <linearGradient id="99a4b9c8158--MigachuLookSide_svg__o" x1="32.557" x2="95.222" y1="21.324" y2="21.324" gradientUnits="userSpaceOnUse">
      <stop stop-color="#A470FF"></stop>
      <stop offset=".799" stop-color="#A470FF"></stop>
      <stop offset="1" stop-color="#5F2ABF"></stop>
    </linearGradient>
    <linearGradient id="99a4b9c8158--MigachuLookSide_svg__p" x1="69.155" x2="63.831" y1="82.222" y2="31.451" gradientUnits="userSpaceOnUse">
      <stop stop-color="#fff"></stop>
      <stop offset=".516" stop-color="#FFE6F6"></stop>
      <stop offset=".806" stop-color="#FFE6F6"></stop>
      <stop offset="1" stop-color="#FF91FF"></stop>
    </linearGradient>
    <linearGradient id="99a4b9c8158--MigachuLookSide_svg__q" x1="32.557" x2="95.222" y1="33.85" y2="33.85" gradientUnits="userSpaceOnUse">
      <stop stop-color="#A470FF"></stop>
      <stop offset=".799" stop-color="#A470FF"></stop>
      <stop offset="1" stop-color="#5F2ABF"></stop>
    </linearGradient>
    <linearGradient id="99a4b9c8158--MigachuLookSide_svg__r" x1="29.612" x2="49.78" y1="31.795" y2="31.795" gradientUnits="userSpaceOnUse">
      <stop stop-color="#5F2ABF"></stop>
      <stop offset=".201" stop-color="#A470FF"></stop>
      <stop offset="1" stop-color="#A470FF"></stop>
    </linearGradient>
    <linearGradient id="99a4b9c8158--MigachuLookSide_svg__s" x1=".783" x2="38.365" y1="82.335" y2="82.335" gradientUnits="userSpaceOnUse">
      <stop stop-color="#FF91FF"></stop>
      <stop offset=".14" stop-color="#FFE6F6"></stop>
      <stop offset=".348" stop-color="#FFE6F6"></stop>
      <stop offset=".786" stop-color="#fff"></stop>
      <stop offset="1" stop-color="#fff"></stop>
    </linearGradient>
  <linearGradient id="99a4b9c8158--MigachuLookSide_svg__a" x1="62.876" x2="82.868" y1="13.5" y2="13.5" gradientUnits="userSpaceOnUse">
      <stop stop-color="#A470FF"></stop>
      <stop offset=".799" stop-color="#A470FF"></stop>
      <stop offset="1" stop-color="#5F2ABF"></stop>
    </linearGradient><linearGradient id="99a4b9c8158--MigachuLookSide_svg__b" x1="12.015" x2="50.417" y1="58.045" y2="58.045" gradientUnits="userSpaceOnUse">
      <stop stop-color="#FF91FF"></stop>
      <stop offset=".14" stop-color="#FFE6F6"></stop>
      <stop offset=".348" stop-color="#FFE6F6"></stop>
      <stop offset=".786" stop-color="#fff"></stop>
      <stop offset="1" stop-color="#fff"></stop>
    </linearGradient><linearGradient id="99a4b9c8158--MigachuLookSide_svg__c" x1="16.628" x2="60.584" y1="76.659" y2="76.659" gradientUnits="userSpaceOnUse">
      <stop stop-color="#A470FF"></stop>
      <stop offset=".799" stop-color="#A470FF"></stop>
      <stop offset="1" stop-color="#5F2ABF"></stop>
    </linearGradient><linearGradient id="99a4b9c8158--MigachuLookSide_svg__d" x1="44.229" x2="38.905" y1="84.835" y2="34.066" gradientUnits="userSpaceOnUse">
      <stop stop-color="#fff"></stop>
      <stop offset=".516" stop-color="#FFE6F6"></stop>
      <stop offset=".806" stop-color="#FFE6F6"></stop>
      <stop offset="1" stop-color="#FF91FF"></stop>
    </linearGradient><linearGradient id="99a4b9c8158--MigachuLookSide_svg__e" x1="64.739" x2="59.417" y1="82.674" y2="31.912" gradientUnits="userSpaceOnUse">
      <stop stop-color="#fff"></stop>
      <stop offset=".516" stop-color="#FFE6F6"></stop>
      <stop offset=".806" stop-color="#FFE6F6"></stop>
      <stop offset="1" stop-color="#FF91FF"></stop>
    </linearGradient><linearGradient id="99a4b9c8158--MigachuLookSide_svg__f" x1="36.636" x2="31.339" y1="85.533" y2="34.925" gradientUnits="userSpaceOnUse">
      <stop stop-color="#fff"></stop>
      <stop offset=".516" stop-color="#FFE6F6"></stop>
      <stop offset=".806" stop-color="#FFE6F6"></stop>
      <stop offset="1" stop-color="#FF91FF"></stop>
    </linearGradient><linearGradient id="99a4b9c8158--MigachuLookSide_svg__g" x1="37.022" x2="31.698" y1="85.582" y2="34.829" gradientUnits="userSpaceOnUse">
      <stop stop-color="#fff"></stop>
      <stop offset=".516" stop-color="#FFE6F6"></stop>
      <stop offset=".806" stop-color="#FFE6F6"></stop>
      <stop offset="1" stop-color="#FF91FF"></stop>
    </linearGradient><linearGradient id="99a4b9c8158--MigachuLookSide_svg__h" x1="94.917" x2="89.593" y1="79.519" y2="28.75" gradientUnits="userSpaceOnUse">
      <stop stop-color="#fff"></stop>
      <stop offset=".516" stop-color="#FFE6F6"></stop>
      <stop offset=".806" stop-color="#FFE6F6"></stop>
      <stop offset="1" stop-color="#FF91FF"></stop>
    </linearGradient><linearGradient id="99a4b9c8158--MigachuLookSide_svg__i" x1="70.185" x2="64.861" y1="82.114" y2="31.344" gradientUnits="userSpaceOnUse">
      <stop stop-color="#fff"></stop>
      <stop offset=".516" stop-color="#FFE6F6"></stop>
      <stop offset=".806" stop-color="#FFE6F6"></stop>
      <stop offset="1" stop-color="#FF91FF"></stop>
    </linearGradient><linearGradient id="99a4b9c8158--MigachuLookSide_svg__j" x1="36.856" x2="31.53" y1="85.604" y2="34.842" gradientUnits="userSpaceOnUse">
      <stop stop-color="#fff"></stop>
      <stop offset=".516" stop-color="#FFE6F6"></stop>
      <stop offset=".806" stop-color="#FFE6F6"></stop>
      <stop offset="1" stop-color="#FF91FF"></stop>
    </linearGradient><linearGradient id="99a4b9c8158--MigachuLookSide_svg__k" x1="32.557" x2="95.177" y1="52.967" y2="52.967" gradientUnits="userSpaceOnUse">
      <stop stop-color="#A470FF"></stop>
      <stop offset=".799" stop-color="#A470FF"></stop>
      <stop offset="1" stop-color="#5F2ABF"></stop>
    </linearGradient><linearGradient id="99a4b9c8158--MigachuLookSide_svg__l" x1="32.516" x2="95.223" y1="36.248" y2="36.248" gradientUnits="userSpaceOnUse">
      <stop stop-color="#A470FF"></stop>
      <stop offset=".799" stop-color="#A470FF"></stop>
      <stop offset="1" stop-color="#5F2ABF"></stop>
    </linearGradient><linearGradient id="99a4b9c8158--MigachuLookSide_svg__m" x1="32.557" x2="95.222" y1="19.177" y2="19.177" gradientUnits="userSpaceOnUse">
      <stop stop-color="#A470FF"></stop>
      <stop offset=".799" stop-color="#A470FF"></stop>
      <stop offset="1" stop-color="#5F2ABF"></stop>
    </linearGradient><linearGradient id="99a4b9c8158--MigachuLookSide_svg__n" x1="32.558" x2="95.222" y1="41.018" y2="41.018" gradientUnits="userSpaceOnUse">
      <stop stop-color="#A470FF"></stop>
      <stop offset=".799" stop-color="#A470FF"></stop>
      <stop offset="1" stop-color="#5F2ABF"></stop>
    </linearGradient><linearGradient id="99a4b9c8158--MigachuLookSide_svg__o" x1="32.557" x2="95.222" y1="21.324" y2="21.324" gradientUnits="userSpaceOnUse">
      <stop stop-color="#A470FF"></stop>
      <stop offset=".799" stop-color="#A470FF"></stop>
      <stop offset="1" stop-color="#5F2ABF"></stop>
    </linearGradient><linearGradient id="99a4b9c8158--MigachuLookSide_svg__p" x1="69.155" x2="63.831" y1="82.222" y2="31.451" gradientUnits="userSpaceOnUse">
      <stop stop-color="#fff"></stop>
      <stop offset=".516" stop-color="#FFE6F6"></stop>
      <stop offset=".806" stop-color="#FFE6F6"></stop>
      <stop offset="1" stop-color="#FF91FF"></stop>
    </linearGradient><linearGradient id="99a4b9c8158--MigachuLookSide_svg__q" x1="32.557" x2="95.222" y1="33.85" y2="33.85" gradientUnits="userSpaceOnUse">
      <stop stop-color="#A470FF"></stop>
      <stop offset=".799" stop-color="#A470FF"></stop>
      <stop offset="1" stop-color="#5F2ABF"></stop>
    </linearGradient><linearGradient id="99a4b9c8158--MigachuLookSide_svg__r" x1="29.612" x2="49.78" y1="31.795" y2="31.795" gradientUnits="userSpaceOnUse">
      <stop stop-color="#5F2ABF"></stop>
      <stop offset=".201" stop-color="#A470FF"></stop>
      <stop offset="1" stop-color="#A470FF"></stop>
    </linearGradient><linearGradient id="99a4b9c8158--MigachuLookSide_svg__s" x1=".783" x2="38.365" y1="82.335" y2="82.335" gradientUnits="userSpaceOnUse">
      <stop stop-color="#FF91FF"></stop>
      <stop offset=".14" stop-color="#FFE6F6"></stop>
      <stop offset=".348" stop-color="#FFE6F6"></stop>
      <stop offset=".786" stop-color="#fff"></stop>
      <stop offset="1" stop-color="#fff"></stop>
    </linearGradient><linearGradient id="99a4b9c8158--MigachuLookSide_svg__a" x1="62.876" x2="82.868" y1="13.5" y2="13.5" gradientUnits="userSpaceOnUse">
      <stop stop-color="#A470FF"></stop>
      <stop offset=".799" stop-color="#A470FF"></stop>
      <stop offset="1" stop-color="#5F2ABF"></stop>
    </linearGradient><linearGradient id="99a4b9c8158--MigachuLookSide_svg__b" x1="12.015" x2="50.417" y1="58.045" y2="58.045" gradientUnits="userSpaceOnUse">
      <stop stop-color="#FF91FF"></stop>
      <stop offset=".14" stop-color="#FFE6F6"></stop>
      <stop offset=".348" stop-color="#FFE6F6"></stop>
      <stop offset=".786" stop-color="#fff"></stop>
      <stop offset="1" stop-color="#fff"></stop>
    </linearGradient><linearGradient id="99a4b9c8158--MigachuLookSide_svg__c" x1="16.628" x2="60.584" y1="76.659" y2="76.659" gradientUnits="userSpaceOnUse">
      <stop stop-color="#A470FF"></stop>
      <stop offset=".799" stop-color="#A470FF"></stop>
      <stop offset="1" stop-color="#5F2ABF"></stop>
    </linearGradient><linearGradient id="99a4b9c8158--MigachuLookSide_svg__d" x1="44.229" x2="38.905" y1="84.835" y2="34.066" gradientUnits="userSpaceOnUse">
      <stop stop-color="#fff"></stop>
      <stop offset=".516" stop-color="#FFE6F6"></stop>
      <stop offset=".806" stop-color="#FFE6F6"></stop>
      <stop offset="1" stop-color="#FF91FF"></stop>
    </linearGradient><linearGradient id="99a4b9c8158--MigachuLookSide_svg__e" x1="64.739" x2="59.417" y1="82.674" y2="31.912" gradientUnits="userSpaceOnUse">
      <stop stop-color="#fff"></stop>
      <stop offset=".516" stop-color="#FFE6F6"></stop>
      <stop offset=".806" stop-color="#FFE6F6"></stop>
      <stop offset="1" stop-color="#FF91FF"></stop>
    </linearGradient><linearGradient id="99a4b9c8158--MigachuLookSide_svg__f" x1="36.636" x2="31.339" y1="85.533" y2="34.925" gradientUnits="userSpaceOnUse">
      <stop stop-color="#fff"></stop>
      <stop offset=".516" stop-color="#FFE6F6"></stop>
      <stop offset=".806" stop-color="#FFE6F6"></stop>
      <stop offset="1" stop-color="#FF91FF"></stop>
    </linearGradient><linearGradient id="99a4b9c8158--MigachuLookSide_svg__g" x1="37.022" x2="31.698" y1="85.582" y2="34.829" gradientUnits="userSpaceOnUse">
      <stop stop-color="#fff"></stop>
      <stop offset=".516" stop-color="#FFE6F6"></stop>
      <stop offset=".806" stop-color="#FFE6F6"></stop>
      <stop offset="1" stop-color="#FF91FF"></stop>
    </linearGradient><linearGradient id="99a4b9c8158--MigachuLookSide_svg__h" x1="94.917" x2="89.593" y1="79.519" y2="28.75" gradientUnits="userSpaceOnUse">
      <stop stop-color="#fff"></stop>
      <stop offset=".516" stop-color="#FFE6F6"></stop>
      <stop offset=".806" stop-color="#FFE6F6"></stop>
      <stop offset="1" stop-color="#FF91FF"></stop>
    </linearGradient><linearGradient id="99a4b9c8158--MigachuLookSide_svg__i" x1="70.185" x2="64.861" y1="82.114" y2="31.344" gradientUnits="userSpaceOnUse">
      <stop stop-color="#fff"></stop>
      <stop offset=".516" stop-color="#FFE6F6"></stop>
      <stop offset=".806" stop-color="#FFE6F6"></stop>
      <stop offset="1" stop-color="#FF91FF"></stop>
    </linearGradient><linearGradient id="99a4b9c8158--MigachuLookSide_svg__j" x1="36.856" x2="31.53" y1="85.604" y2="34.842" gradientUnits="userSpaceOnUse">
      <stop stop-color="#fff"></stop>
      <stop offset=".516" stop-color="#FFE6F6"></stop>
      <stop offset=".806" stop-color="#FFE6F6"></stop>
      <stop offset="1" stop-color="#FF91FF"></stop>
    </linearGradient><linearGradient id="99a4b9c8158--MigachuLookSide_svg__k" x1="32.557" x2="95.177" y1="52.967" y2="52.967" gradientUnits="userSpaceOnUse">
      <stop stop-color="#A470FF"></stop>
      <stop offset=".799" stop-color="#A470FF"></stop>
      <stop offset="1" stop-color="#5F2ABF"></stop>
    </linearGradient><linearGradient id="99a4b9c8158--MigachuLookSide_svg__l" x1="32.516" x2="95.223" y1="36.248" y2="36.248" gradientUnits="userSpaceOnUse">
      <stop stop-color="#A470FF"></stop>
      <stop offset=".799" stop-color="#A470FF"></stop>
      <stop offset="1" stop-color="#5F2ABF"></stop>
    </linearGradient><linearGradient id="99a4b9c8158--MigachuLookSide_svg__m" x1="32.557" x2="95.222" y1="19.177" y2="19.177" gradientUnits="userSpaceOnUse">
      <stop stop-color="#A470FF"></stop>
      <stop offset=".799" stop-color="#A470FF"></stop>
      <stop offset="1" stop-color="#5F2ABF"></stop>
    </linearGradient><linearGradient id="99a4b9c8158--MigachuLookSide_svg__n" x1="32.558" x2="95.222" y1="41.018" y2="41.018" gradientUnits="userSpaceOnUse">
      <stop stop-color="#A470FF"></stop>
      <stop offset=".799" stop-color="#A470FF"></stop>
      <stop offset="1" stop-color="#5F2ABF"></stop>
    </linearGradient><linearGradient id="99a4b9c8158--MigachuLookSide_svg__o" x1="32.557" x2="95.222" y1="21.324" y2="21.324" gradientUnits="userSpaceOnUse">
      <stop stop-color="#A470FF"></stop>
      <stop offset=".799" stop-color="#A470FF"></stop>
      <stop offset="1" stop-color="#5F2ABF"></stop>
    </linearGradient><linearGradient id="99a4b9c8158--MigachuLookSide_svg__p" x1="69.155" x2="63.831" y1="82.222" y2="31.451" gradientUnits="userSpaceOnUse">
      <stop stop-color="#fff"></stop>
      <stop offset=".516" stop-color="#FFE6F6"></stop>
      <stop offset=".806" stop-color="#FFE6F6"></stop>
      <stop offset="1" stop-color="#FF91FF"></stop>
    </linearGradient><linearGradient id="99a4b9c8158--MigachuLookSide_svg__q" x1="32.557" x2="95.222" y1="33.85" y2="33.85" gradientUnits="userSpaceOnUse">
      <stop stop-color="#A470FF"></stop>
      <stop offset=".799" stop-color="#A470FF"></stop>
      <stop offset="1" stop-color="#5F2ABF"></stop>
    </linearGradient><linearGradient id="99a4b9c8158--MigachuLookSide_svg__r" x1="29.612" x2="49.78" y1="31.795" y2="31.795" gradientUnits="userSpaceOnUse">
      <stop stop-color="#5F2ABF"></stop>
      <stop offset=".201" stop-color="#A470FF"></stop>
      <stop offset="1" stop-color="#A470FF"></stop>
    </linearGradient><linearGradient id="99a4b9c8158--MigachuLookSide_svg__s" x1=".783" x2="38.365" y1="82.335" y2="82.335" gradientUnits="userSpaceOnUse">
      <stop stop-color="#FF91FF"></stop>
      <stop offset=".14" stop-color="#FFE6F6"></stop>
      <stop offset=".348" stop-color="#FFE6F6"></stop>
      <stop offset=".786" stop-color="#fff"></stop>
      <stop offset="1" stop-color="#fff"></stop>
    </linearGradient></defs>
</svg>