<svg xmlns:xlink="http://www.w3.org/1999/xlink" xmlns="http://www.w3.org/2000/svg" fill="none" viewBox="0 0 92 24" role="img" width="92"  height="24" ><path fill="#FFFFFF" d="M13.241 22.263c-1.365.225-2.756.293-4.193.473L4.662 10.664v12.59c-1.366.135-2.612.315-3.907.495V.688h3.643l4.985 13.085V.688h3.858v21.575Zm7.55-13.13c1.486 0 3.762-.068 5.128-.068v3.604c-1.701 0-3.69 0-5.128.067v5.36c2.253-.135 4.505-.315 6.782-.383v3.469l-10.617.788V.688h10.617V4.29H20.79v4.842Zm21.041-4.842h-3.978v16.576c-1.294 0-2.588 0-3.834.045V4.29h-3.978V.687h11.79v3.604Zm6.231 4.594h5.249v3.604h-5.248v8.175H44.3V.687h10.713v3.604h-6.95v4.594Zm13.182 8.626c2.18.045 4.385.203 6.518.315v3.559c-3.427-.203-6.854-.406-10.353-.473V.688h3.835V17.51Zm9.754 4.121c1.222.068 2.516.136 3.762.27V.688H71v20.945ZM91.56.687l-4.865 10.968 4.865 12.094c-1.438-.18-2.876-.428-4.314-.653l-2.756-6.666-2.803 6.126c-1.39-.226-2.733-.293-4.123-.473l4.937-10.563L78.045.688h4.122l2.516 6.058L87.367.687h4.194Z"></path></svg>