<svg xmlns:xlink="http://www.w3.org/1999/xlink" xmlns="http://www.w3.org/2000/svg" fill="none" viewBox="0 0 8 14" role="img" width="8"  height="14" ><g clip-path="url(#e378ed32abd--a)" fill="none"><path fill="url(&quot;#e378ed32abd--b&quot;)" d="m-.016-.016.047 14.053c.985-.197 1.76-.176 2.635-.258V0L-.016-.016Z"></path><path fill="url(&quot;#e378ed32abd--c&quot;)" d="M4.758 0h2.681l.031 14.005-2.728-.468L4.758 0Z"></path><path fill="#E50914" d="M.016 0c.062.161 4.65 13.747 4.65 13.747.753-.006 1.764.122 2.758.242L2.651-.001H.016Z"></path></g><defs><linearGradient id="e378ed32abd--b" x1="1.052" x2="3.003" y1="5.933" y2="5.166" gradientUnits="userSpaceOnUse"><stop stop-color="#B1060F"></stop><stop offset=".546" stop-color="#7B010C"></stop><stop offset="1" stop-color="#E50914" stop-opacity="0"></stop></linearGradient><linearGradient id="e378ed32abd--c" x1="6.137" x2="4.141" y1="7.302" y2="8.111" gradientUnits="userSpaceOnUse"><stop stop-color="#B1060F"></stop><stop offset=".625" stop-color="#7B010C"></stop><stop offset="1" stop-color="#B1060F" stop-opacity="0"></stop></linearGradient><clipPath id="e378ed32abd--a"><path fill="#fff" d="M0 0h7.412v14H0z"></path></clipPath><linearGradient id="e378ed32abd--b" x1="1.052" x2="3.003" y1="5.933" y2="5.166" gradientUnits="userSpaceOnUse"><stop stop-color="#B1060F"></stop><stop offset=".546" stop-color="#7B010C"></stop><stop offset="1" stop-color="#E50914" stop-opacity="0"></stop></linearGradient><linearGradient id="e378ed32abd--c" x1="6.137" x2="4.141" y1="7.302" y2="8.111" gradientUnits="userSpaceOnUse"><stop stop-color="#B1060F"></stop><stop offset=".625" stop-color="#7B010C"></stop><stop offset="1" stop-color="#B1060F" stop-opacity="0"></stop></linearGradient></defs></svg>