<svg xmlns:xlink="http://www.w3.org/1999/xlink" xmlns="http://www.w3.org/2000/svg" fill="none" class="-mgk-variable-stroke-asset" viewBox="0 0 194 136" role="img" width="369"  height="259" >
  <path vector-effect="non-scaling-stroke" fill="url(&quot;#f856847dbf2--PlanetMagenta_svg__a&quot;)" d="M.447 19.3c9.807 2.044 11.464 3.7 13.507 13.508C15.997 23 17.653 21.344 27.46 19.3c-9.808-2.043-11.464-3.7-13.507-13.507C11.91 15.6 10.254 17.258.447 19.3" stroke-width="0.8px"></path>
  <path vector-effect="non-scaling-stroke" fill="url(&quot;#f856847dbf2--PlanetMagenta_svg__b&quot;)" d="M176.51 57.534c6.073 1.265 7.099 2.291 8.364 8.364 1.265-6.073 2.291-7.099 8.364-8.364-6.073-1.265-7.099-2.29-8.364-8.364-1.265 6.073-2.291 7.099-8.364 8.364" stroke-width="0.8px"></path>
  <path vector-effect="non-scaling-stroke" fill="url(&quot;#f856847dbf2--PlanetMagenta_svg__c&quot;)" d="M93.416 115.278c14.795 3.081 17.293 5.58 20.375 20.374 3.082-14.794 5.58-17.293 20.375-20.374-14.795-3.082-17.293-5.58-20.375-20.375-3.082 14.795-5.58 17.293-20.375 20.375" stroke-width="0.8px"></path>
  <path vector-effect="non-scaling-stroke" fill="url(&quot;#f856847dbf2--PlanetMagenta_svg__d&quot;)" stroke="#642FC3" stroke-width="0.8px" d="M110.399 7.771a5.371 5.371 0 1 0 10.743 0 5.371 5.371 0 0 0-10.743 0Z"></path>
  <path vector-effect="non-scaling-stroke" fill="url(&quot;#f856847dbf2--PlanetMagenta_svg__e&quot;)" stroke="#642FC3" stroke-width="0.8px" d="M110.399 7.771a5.37 5.37 0 0 0 5.118 5.366 6.873 6.873 0 0 1-3.955-8.703 5.35 5.35 0 0 0-1.163 3.337Z"></path>
  <path vector-effect="non-scaling-stroke" stroke="#642FC3" stroke-linecap="round" stroke-linejoin="round" stroke-miterlimit="10" stroke-width="0.8px" d="M121.892 7.771a6.122 6.122 0 1 1-12.244 0 6.122 6.122 0 0 1 12.244 0" fill="none"></path>
  <mask id="f856847dbf2--PlanetMagenta_svg__g" fill="#FFFFFF">
    <path vector-effect="non-scaling-stroke" d="M70.626 52.048c0 9.72 7.88 17.6 17.599 17.6s17.599-7.88 17.599-17.6c0-9.719-7.88-17.598-17.6-17.598-9.719 0-17.598 7.879-17.598 17.598" fill="#FFFFFF" stroke-width="0.8px"></path>
  </mask>
  <path vector-effect="non-scaling-stroke" fill="url(&quot;#f856847dbf2--PlanetMagenta_svg__f&quot;)" d="M70.626 52.048c0 9.72 7.88 17.6 17.599 17.6s17.599-7.88 17.599-17.6c0-9.719-7.88-17.598-17.6-17.598-9.719 0-17.598 7.879-17.598 17.598" stroke-width="0.8px"></path>
  <path vector-effect="non-scaling-stroke" fill="#642FC3" d="M72.126 52.048c0 8.892 7.208 16.1 16.099 16.1v3c-10.548 0-19.1-8.551-19.1-19.1zm16.099 16.1c8.891 0 16.099-7.208 16.099-16.1h3c0 10.549-8.551 19.1-19.1 19.1zm16.099-16.1c0-8.89-7.208-16.098-16.1-16.098v-3c10.549 0 19.1 8.55 19.1 19.098zm-16.1-16.098c-8.89 0-16.098 7.207-16.098 16.098h-3c0-10.547 8.55-19.098 19.099-19.098z" mask="url(#f856847dbf2--PlanetMagenta_svg__g)" stroke-width="0.8px"></path>
  <mask id="f856847dbf2--PlanetMagenta_svg__i" fill="#FFFFFF">
    <path vector-effect="non-scaling-stroke" d="M70.626 52.048c0 9.72 7.88 17.6 17.599 17.6 2.07 0 4.056-.36 5.9-1.017q-1.276.191-2.605.193c-9.72 0-17.6-7.88-17.6-17.6 0-7.648 4.882-14.155 11.699-16.581-8.484 1.26-14.993 8.572-14.993 17.405" fill="#FFFFFF" stroke-width="0.8px"></path>
  </mask>
  <path vector-effect="non-scaling-stroke" fill="url(&quot;#f856847dbf2--PlanetMagenta_svg__h&quot;)" d="M70.626 52.048c0 9.72 7.88 17.6 17.599 17.6 2.07 0 4.056-.36 5.9-1.017q-1.276.191-2.605.193c-9.72 0-17.6-7.88-17.6-17.6 0-7.648 4.882-14.155 11.699-16.581-8.484 1.26-14.993 8.572-14.993 17.405" stroke-width="0.8px"></path>
  <path vector-effect="non-scaling-stroke" fill="#642FC3" d="m94.126 68.63-.22-1.483.723 2.897zm-8.507-33.987-.22-1.484.723 2.897zM72.126 52.048c0 8.892 7.208 16.1 16.099 16.1v3c-10.548 0-19.1-8.551-19.1-19.1zm16.099 16.1c1.895 0 3.71-.33 5.398-.93l1.006 2.826a19 19 0 0 1-6.404 1.103zm6.12 1.966c-.92.137-1.864.21-2.825.21v-3c.81 0 1.606-.062 2.386-.177zm-2.825.21c-10.548 0-19.1-8.551-19.1-19.1h3c0 8.892 7.209 16.1 16.1 16.1zm-19.1-19.1c0-8.303 5.3-15.362 12.696-17.994l1.006 2.826c-6.238 2.22-10.701 8.175-10.701 15.169zm13.42-15.097c-7.76 1.151-13.714 7.842-13.714 15.921h-3c0-9.588 7.064-17.522 16.273-18.889z" mask="url(#f856847dbf2--PlanetMagenta_svg__i)" stroke-width="0.8px"></path>
  <path vector-effect="non-scaling-stroke" stroke="#642FC3" stroke-linecap="round" stroke-linejoin="round" stroke-miterlimit="10" stroke-width="0.8px" d="M105.824 52.049c0 9.72-7.88 17.598-17.6 17.598-9.719 0-17.598-7.879-17.598-17.599s7.88-17.598 17.599-17.598 17.599 7.879 17.599 17.598M71.544 46.71l25.274-10.047M100.651 39.667l-26.62 22.374M78.276 66.495l27.346-12.223" fill="none"></path>
  <defs>
    <linearGradient id="f856847dbf2--PlanetMagenta_svg__d" x1="109.649" x2="121.892" y1="7.771" y2="7.771" gradientUnits="userSpaceOnUse">
      <stop stop-color="#3FFFFF"></stop>
      <stop offset=".509" stop-color="#3FC9FF"></stop>
      <stop offset=".786" stop-color="#3FC9FF"></stop>
      <stop offset="1" stop-color="#006AFF"></stop>
    </linearGradient>
    <linearGradient id="f856847dbf2--PlanetMagenta_svg__e" x1="109.649" x2="119.383" y1="7.846" y2="7.846" gradientUnits="userSpaceOnUse">
      <stop stop-color="#FFA5FF"></stop>
      <stop offset=".417" stop-color="#FFE700"></stop>
      <stop offset="1" stop-color="#FFE700"></stop>
    </linearGradient>
    <linearGradient id="f856847dbf2--PlanetMagenta_svg__f" x1="70.626" x2="105.824" y1="52.048" y2="52.048" gradientUnits="userSpaceOnUse">
      <stop stop-color="#FF95FF"></stop>
      <stop offset=".391" stop-color="#FF95FF"></stop>
      <stop offset="1" stop-color="#5F2ABF"></stop>
    </linearGradient>
    <linearGradient id="f856847dbf2--PlanetMagenta_svg__h" x1="70.626" x2="94.126" y1="52.145" y2="52.145" gradientUnits="userSpaceOnUse">
      <stop stop-color="#3FFFFF"></stop>
      <stop offset=".509" stop-color="#3FC9FF"></stop>
      <stop offset=".786" stop-color="#3FC9FF"></stop>
      <stop offset="1" stop-color="#006AFF"></stop>
    </linearGradient>
    <radialGradient id="f856847dbf2--PlanetMagenta_svg__a" cx="0" cy="0" r="1" gradientTransform="translate(13.954 19.3)scale(13.5069)" gradientUnits="userSpaceOnUse">
      <stop stop-color="#FFE700"></stop>
      <stop offset="1" stop-color="#FFA5FF" stop-opacity="0"></stop>
    </radialGradient>
    <radialGradient id="f856847dbf2--PlanetMagenta_svg__b" cx="0" cy="0" r="1" gradientTransform="matrix(8.36423 0 0 8.36421 184.874 57.534)" gradientUnits="userSpaceOnUse">
      <stop stop-color="#FFE700"></stop>
      <stop offset="1" stop-color="#FFA5FF" stop-opacity="0"></stop>
    </radialGradient>
    <radialGradient id="f856847dbf2--PlanetMagenta_svg__c" cx="0" cy="0" r="1" gradientTransform="matrix(20.3749 0 0 20.3747 113.791 115.278)" gradientUnits="userSpaceOnUse">
      <stop stop-color="#FFE700"></stop>
      <stop offset="1" stop-color="#FFA5FF" stop-opacity="0"></stop>
    </radialGradient>
  <radialGradient id="f856847dbf2--PlanetMagenta_svg__a" cx="0" cy="0" r="1" gradientTransform="translate(13.954 19.3)scale(13.5069)" gradientUnits="userSpaceOnUse">
      <stop stop-color="#FFE700"></stop>
      <stop offset="1" stop-color="#FFA5FF" stop-opacity="0"></stop>
    </radialGradient><radialGradient id="f856847dbf2--PlanetMagenta_svg__b" cx="0" cy="0" r="1" gradientTransform="matrix(8.36423 0 0 8.36421 184.874 57.534)" gradientUnits="userSpaceOnUse">
      <stop stop-color="#FFE700"></stop>
      <stop offset="1" stop-color="#FFA5FF" stop-opacity="0"></stop>
    </radialGradient><radialGradient id="f856847dbf2--PlanetMagenta_svg__c" cx="0" cy="0" r="1" gradientTransform="matrix(20.3749 0 0 20.3747 113.791 115.278)" gradientUnits="userSpaceOnUse">
      <stop stop-color="#FFE700"></stop>
      <stop offset="1" stop-color="#FFA5FF" stop-opacity="0"></stop>
    </radialGradient><linearGradient id="f856847dbf2--PlanetMagenta_svg__d" x1="109.649" x2="121.892" y1="7.771" y2="7.771" gradientUnits="userSpaceOnUse">
      <stop stop-color="#3FFFFF"></stop>
      <stop offset=".509" stop-color="#3FC9FF"></stop>
      <stop offset=".786" stop-color="#3FC9FF"></stop>
      <stop offset="1" stop-color="#006AFF"></stop>
    </linearGradient><linearGradient id="f856847dbf2--PlanetMagenta_svg__e" x1="109.649" x2="119.383" y1="7.846" y2="7.846" gradientUnits="userSpaceOnUse">
      <stop stop-color="#FFA5FF"></stop>
      <stop offset=".417" stop-color="#FFE700"></stop>
      <stop offset="1" stop-color="#FFE700"></stop>
    </linearGradient><linearGradient id="f856847dbf2--PlanetMagenta_svg__f" x1="70.626" x2="105.824" y1="52.048" y2="52.048" gradientUnits="userSpaceOnUse">
      <stop stop-color="#FF95FF"></stop>
      <stop offset=".391" stop-color="#FF95FF"></stop>
      <stop offset="1" stop-color="#5F2ABF"></stop>
    </linearGradient><linearGradient id="f856847dbf2--PlanetMagenta_svg__h" x1="70.626" x2="94.126" y1="52.145" y2="52.145" gradientUnits="userSpaceOnUse">
      <stop stop-color="#3FFFFF"></stop>
      <stop offset=".509" stop-color="#3FC9FF"></stop>
      <stop offset=".786" stop-color="#3FC9FF"></stop>
      <stop offset="1" stop-color="#006AFF"></stop>
    </linearGradient></defs>
</svg>