<svg xmlns:xlink="http://www.w3.org/1999/xlink" xmlns="http://www.w3.org/2000/svg" fill="none" viewBox="0 0 24 24" role="img" width="24"  height="24" >
  <path fill="#672FC3" fill-rule="evenodd" d="M12 19.5a7.5 7.5 0 1 0 0-15 7.5 7.5 0 0 0 0 15m0 2.5c5.523 0 10-4.477 10-10S17.523 2 12 2 2 6.477 2 12s4.477 10 10 10M7.75 8.804c0-1.767 1.944-2.844 3.443-1.908l5.113 3.196c1.41.881 1.41 2.935 0 3.816l-5.113 3.196c-1.5.936-3.443-.141-3.443-1.908zm2.5.451v5.49L14.642 12z" clip-rule="evenodd"></path>
</svg>