<svg xmlns:xlink="http://www.w3.org/1999/xlink" xmlns="http://www.w3.org/2000/svg" fill="none" viewBox="0 0 24 24" role="img" width="24"  height="24" >
  <path fill="#FE4670" fill-rule="evenodd" d="M12 19.5a7.5 7.5 0 1 0 0-15 7.5 7.5 0 0 0 0 15m0 2.5c5.523 0 10-4.477 10-10S17.523 2 12 2 2 6.477 2 12s4.477 10 10 10m1.5-4.5a1.5 1.5 0 1 1-3 0 1.5 1.5 0 0 1 3 0M12 8.25c-.839 0-1.534.591-1.71 1.378-.37 1.645-2.875 1.192-2.414-.658A4.252 4.252 0 0 1 16.25 10a4.25 4.25 0 0 1-3 4.063v.187a1.25 1.25 0 1 1-2.5 0V13c.02-.691.589-1.183 1.284-1.242.252-.022.494-.071.713-.175A1.75 1.75 0 0 0 12 8.25" clip-rule="evenodd"></path>
</svg>