<svg xmlns:xlink="http://www.w3.org/1999/xlink" xmlns="http://www.w3.org/2000/svg" fill="none" viewBox="0 0 84 28" role="img" width="84"  height="28" ><g clip-path="url(#beb33445a34--a)" fill="none"><path fill="#FFFFFF" d="M13.737 27.557c7.356 0 13.318-5.963 13.318-13.319C27.055 6.883 21.093.92 13.737.92 6.382.92.42 6.883.42 14.238c0 7.356 5.963 13.319 13.318 13.319Z"></path><path fill="#091F33" d="M22.62 14.238a1.948 1.948 0 0 0-3.291-1.334 9.468 9.468 0 0 0-5.128-1.639l.864-4.154 2.85.599a1.331 1.331 0 1 0 .176-.815l-3.265-.652a.413.413 0 0 0-.493.315v.006l-.983 4.622a9.54 9.54 0 0 0-5.194 1.639 1.942 1.942 0 0 0-2.748.086 1.942 1.942 0 0 0 .609 3.098c-.013.196-.013.391 0 .586 0 2.983 3.476 5.41 7.763 5.41s7.764-2.424 7.764-5.41a4.34 4.34 0 0 0 0-.586 1.944 1.944 0 0 0 1.075-1.77ZM9.3 15.572c0-.735.6-1.334 1.334-1.334.735 0 1.334.6 1.334 1.334 0 .735-.599 1.335-1.334 1.335a1.339 1.339 0 0 1-1.334-1.335Zm7.737 3.662a5.114 5.114 0 0 1-3.29 1.026 5.114 5.114 0 0 1-3.292-1.026.36.36 0 0 1 .506-.506 4.351 4.351 0 0 0 2.772.837 4.384 4.384 0 0 0 2.784-.811.375.375 0 0 1 .526.006.375.375 0 0 1-.006.527v-.053Zm-.239-2.281c-.735 0-1.334-.6-1.334-1.334 0-.735.6-1.335 1.334-1.335.735 0 1.335.6 1.335 1.335a1.332 1.332 0 0 1-1.278 1.384h-.067l.01-.05Z"></path><path fill="#FFFFFF" d="M74.724 10.176a1.814 1.814 0 1 0 0-3.628 1.814 1.814 0 0 0 0 3.628ZM49.014 16.082a1.28 1.28 0 0 0 1.364-1.185c.004-.04.004-.086.004-.129a4.595 4.595 0 0 0-.09-.735 5.01 5.01 0 0 0-4.727-4.082c-2.659 0-4.88 2.443-4.88 5.443 0 3 2.185 5.446 4.876 5.446a4.841 4.841 0 0 0 3.771-1.576 1.053 1.053 0 0 0-.165-1.57 1.109 1.109 0 0 0-1.354.14c-.6.596-1.404.936-2.252.963a3.035 3.035 0 0 1-2.78-2.728h6.194l.04.013ZM45.551 12a2.927 2.927 0 0 1 2.659 2.268H42.9A2.905 2.905 0 0 1 45.55 12ZM40.79 11.007c0-.51-.377-.943-.883-1.006a3.94 3.94 0 0 0-3.655 1.337v-.132c0-.566-.457-1.023-1.023-1.023-.566 0-1.023.457-1.023 1.023v8.375c-.013.55.407 1.017.957 1.063a1.016 1.016 0 0 0 1.086-1.063v-4.297a3.109 3.109 0 0 1 3.4-3.257h.205c.53-.047.937-.487.937-1.02ZM75.744 12.106c0-.566-.457-1.023-1.023-1.023-.566 0-1.023.457-1.023 1.023v7.472c0 .566.457 1.023 1.023 1.023.566 0 1.023-.457 1.023-1.023v-7.472ZM60.648 6.429a1.02 1.02 0 0 0-2.04 0v4.568a3.542 3.542 0 0 0-2.612-1.046c-2.658 0-4.88 2.443-4.88 5.443 0 2.999 2.189 5.445 4.88 5.445.993.03 1.953-.35 2.659-1.056a1.018 1.018 0 0 0 1.99-.215l.002-13.14ZM55.99 18.823c-1.566 0-2.84-1.523-2.84-3.406 0-1.884 1.264-3.407 2.84-3.407 1.575 0 2.84 1.523 2.84 3.407 0 1.883-1.265 3.39-2.834 3.39l-.006.016ZM71.314 6.429a1.02 1.02 0 0 0-2.04 0v4.568a3.542 3.542 0 0 0-2.611-1.046c-2.659 0-4.88 2.443-4.88 5.443 0 2.999 2.188 5.445 4.88 5.445.993.03 1.953-.35 2.658-1.056a1.018 1.018 0 0 0 1.99-.215l.003-13.14ZM66.66 18.823c-1.566 0-2.84-1.523-2.84-3.406 0-1.884 1.264-3.407 2.84-3.407 1.575 0 2.84 1.523 2.84 3.407 0 1.883-1.265 3.39-2.834 3.39l-.007.016ZM81.044 19.575V12h.884c.49.03.907-.344.937-.83 0-.017.003-.037.003-.057a.886.886 0 0 0-.801-.96c-.027-.004-.056-.004-.083-.004h-.937V8.742a1.05 1.05 0 0 0-.956-1.056 1.018 1.018 0 0 0-1.086.944C79 8.653 79 8.68 79 8.703v1.47h-.887a.885.885 0 0 0-.937.83c0 .017-.003.037-.003.057a.886.886 0 0 0 .801.96c.026.003.056.003.083.003h.884v7.555c0 .563.457 1.02 1.02 1.02a1.019 1.019 0 0 0 1.079-.957c.003-.02.003-.043.003-.066Z"></path></g><defs><clipPath id="beb33445a34--a"><path fill="#fff" d="M.276.81H83.04v26.817H.276z"></path></clipPath></defs></svg>