<svg xmlns:xlink="http://www.w3.org/1999/xlink" xmlns="http://www.w3.org/2000/svg" fill="none" viewBox="0 0 25 24" role="img" width="25"  height="24" >
  <path fill="#672FC3" fill-rule="evenodd" d="M8.521 6.75a5.75 5.75 0 1 1 10.332 4.835l3.53 3.531a1.25 1.25 0 0 1-1.767 1.768l-3.53-3.531A5.7 5.7 0 0 1 14 14.25H5.5a1.25 1.25 0 1 1 0-2.5h3.756a5.7 5.7 0 0 1-.958-2.5H5.5a1.25 1.25 0 1 1 0-2.5zM14 5.25a3.25 3.25 0 1 0 0 6.5 3.25 3.25 0 0 0 0-6.5m-8.5 11.5a1.25 1.25 0 1 0 0 2.5h12a1.25 1.25 0 1 0 0-2.5z" clip-rule="evenodd"></path>
</svg>