<svg xmlns:xlink="http://www.w3.org/1999/xlink" xmlns="http://www.w3.org/2000/svg" fill="none" viewBox="0 0 25 24" role="img" width="25"  height="24" >
  <path fill="#00005A" d="M15 12a2.5 2.5 0 1 1 0-5 2.5 2.5 0 0 1 0 5M3.25 7A4.25 4.25 0 0 1 7.5 2.75h10A4.25 4.25 0 0 1 21.75 7v10a4.25 4.25 0 0 1-4.25 4.25h-10A4.25 4.25 0 0 1 3.25 17zM7.5 5.25A1.75 1.75 0 0 0 5.75 7v10q0 .153.026.3L8.1 14.2a3 3 0 0 1 4.8 0l.566.754c1.287-1.194 3.402-1.04 4.475.464l1.294 1.811q.015-.112.015-.229V7a1.75 1.75 0 0 0-1.75-1.75z" fill-opacity="0.35"></path>
</svg>