<svg xmlns:xlink="http://www.w3.org/1999/xlink" width="21" height="19" viewBox="0 0 21 19" fill="none" xmlns="http://www.w3.org/2000/svg" role="img">
<path d="M10.9154 15.634L15.6404 18.634C16.2498 19.0184 16.9998 18.4465 16.8217 17.7434L15.4529 12.3621C15.4159 12.213 15.4218 12.0564 15.4699 11.9104C15.518 11.7645 15.6064 11.6351 15.7248 11.5371L19.9623 8.00276C20.5154 7.54338 20.2342 6.61526 19.5123 6.56838L13.9811 6.21213C13.8301 6.20335 13.685 6.1508 13.5635 6.06089C13.442 5.97099 13.3492 5.84763 13.2967 5.70588L11.2342 0.512133C11.1796 0.362042 11.0801 0.232386 10.9493 0.140766C10.8185 0.0491458 10.6626 0 10.5029 0C10.3432 0 10.1874 0.0491458 10.0566 0.140766C9.92573 0.232386 9.82627 0.362042 9.77168 0.512133L7.70918 5.70588C7.65661 5.84763 7.56389 5.97099 7.44236 6.06089C7.32082 6.1508 7.17572 6.20335 7.0248 6.21213L1.49355 6.56838C0.771676 6.61526 0.490426 7.54338 1.04355 8.00276L5.28105 11.5371C5.39949 11.6351 5.48785 11.7645 5.53595 11.9104C5.58405 12.0564 5.58994 12.213 5.55293 12.3621L4.2873 17.3496C4.07168 18.1934 4.97168 18.8778 5.69355 18.4184L10.0904 15.634C10.2137 15.5556 10.3568 15.514 10.5029 15.514C10.649 15.514 10.7921 15.5556 10.9154 15.634Z" fill="url(&quot;#648067d64e8--paint0_linear_157_39725&quot;)"></path>
<path d="M10.9154 15.634L15.6404 18.634C16.2498 19.0184 16.9998 18.4465 16.8217 17.7434L15.4529 12.3621C15.4159 12.213 15.4218 12.0564 15.4699 11.9104C15.518 11.7645 15.6064 11.6351 15.7248 11.5371L19.9623 8.00276C20.5154 7.54338 20.2342 6.61526 19.5123 6.56838L13.9811 6.21213C13.8301 6.20335 13.685 6.1508 13.5635 6.06089C13.442 5.97099 13.3492 5.84763 13.2967 5.70588L11.2342 0.512133C11.1796 0.362042 11.0801 0.232386 10.9493 0.140766C10.8185 0.0491458 10.6626 0 10.5029 0C10.3432 0 10.1874 0.0491458 10.0566 0.140766C9.92573 0.232386 9.82627 0.362042 9.77168 0.512133L7.70918 5.70588C7.65661 5.84763 7.56389 5.97099 7.44236 6.06089C7.32082 6.1508 7.17572 6.20335 7.0248 6.21213L1.49355 6.56838C0.771676 6.61526 0.490426 7.54338 1.04355 8.00276L5.28105 11.5371C5.39949 11.6351 5.48785 11.7645 5.53595 11.9104C5.58405 12.0564 5.58994 12.213 5.55293 12.3621L4.2873 17.3496C4.07168 18.1934 4.97168 18.8778 5.69355 18.4184L10.0904 15.634C10.2137 15.5556 10.3568 15.514 10.5029 15.514C10.649 15.514 10.7921 15.5556 10.9154 15.634Z" fill="url(&quot;#648067d64e8--paint1_linear_157_39725&quot;)"></path>
<defs>
<linearGradient id="648067d64e8--paint0_linear_157_39725" x1="10.5029" y1="2.60523" x2="10.5029" y2="17.4922" gradientUnits="userSpaceOnUse">
<stop stop-color="#FFDB27"></stop>
<stop offset="1" stop-color="#FF77AD"></stop>
</linearGradient>
<linearGradient id="648067d64e8--paint1_linear_157_39725" x1="10.5029" y1="2.60523" x2="10.5029" y2="17.4922" gradientUnits="userSpaceOnUse">
<stop stop-color="#FF9D29"></stop>
<stop offset="1" stop-color="#F1509E"></stop>
</linearGradient>
<linearGradient id="648067d64e8--paint0_linear_157_39725" x1="10.5029" y1="2.60523" x2="10.5029" y2="17.4922" gradientUnits="userSpaceOnUse">
<stop stop-color="#FFDB27"></stop>
<stop offset="1" stop-color="#FF77AD"></stop>
</linearGradient><linearGradient id="648067d64e8--paint1_linear_157_39725" x1="10.5029" y1="2.60523" x2="10.5029" y2="17.4922" gradientUnits="userSpaceOnUse">
<stop stop-color="#FF9D29"></stop>
<stop offset="1" stop-color="#F1509E"></stop>
</linearGradient><linearGradient id="648067d64e8--paint0_linear_157_39725" x1="10.5029" y1="2.60523" x2="10.5029" y2="17.4922" gradientUnits="userSpaceOnUse">
<stop stop-color="#FFDB27"></stop>
<stop offset="1" stop-color="#FF77AD"></stop>
</linearGradient><linearGradient id="648067d64e8--paint1_linear_157_39725" x1="10.5029" y1="2.60523" x2="10.5029" y2="17.4922" gradientUnits="userSpaceOnUse">
<stop stop-color="#FF9D29"></stop>
<stop offset="1" stop-color="#F1509E"></stop>
</linearGradient></defs>
</svg>