<svg xmlns:xlink="http://www.w3.org/1999/xlink" xmlns="http://www.w3.org/2000/svg" fill="none" viewBox="0 0 25 24" role="img" width="25"  height="24" ><g clip-path="url(#32fc6a169e0--a)" fill="none"><path fill="#1DA1F2" d="M22.5 5.797a8.192 8.192 0 0 1-2.357.646 4.11 4.11 0 0 0 1.805-2.27 8.22 8.22 0 0 1-2.606.996 4.096 4.096 0 0 0-2.995-1.296c-2.65 0-4.596 2.472-3.998 5.038a11.649 11.649 0 0 1-8.457-4.287 4.109 4.109 0 0 0 1.27 5.478 4.086 4.086 0 0 1-1.858-.513c-.045 1.9 1.318 3.679 3.291 4.075a4.114 4.114 0 0 1-1.853.07 4.106 4.106 0 0 0 3.833 2.849 8.25 8.25 0 0 1-6.075 1.7 11.616 11.616 0 0 0 6.29 1.843c7.618 0 11.922-6.434 11.663-12.205A8.353 8.353 0 0 0 22.5 5.797Z"></path></g><defs><clipPath id="32fc6a169e0--a"><path fill="#fff" d="M2.5 2h20v20h-20z"></path></clipPath></defs></svg>