<svg xmlns:xlink="http://www.w3.org/1999/xlink" width="154" height="128" viewBox="0 0 154 128" fill="none" xmlns="http://www.w3.org/2000/svg" role="img">
<path d="M106.459 59.9341L57.1758 3.06715" stroke="#00005A" stroke-width="1.79529px" stroke-miterlimit="10" stroke-linecap="round" stroke-linejoin="round" fill="none"></path>
<path d="M62.5096 48.0078L2.37891 1.00021" stroke="#00005A" stroke-width="1.79529px" stroke-miterlimit="10" stroke-linecap="round" stroke-linejoin="round" fill="none"></path>
<path d="M89.2272 68.8953L73.3203 56.4603" stroke="#00005A" stroke-width="1.79529px" stroke-miterlimit="10" stroke-linecap="round" stroke-linejoin="round" fill="none"></path>
<path d="M15.1873 57.3804L1 51.6627" stroke="#00005A" stroke-width="1.79529px" stroke-miterlimit="10" stroke-linecap="round" stroke-linejoin="round" fill="none"></path>
<path d="M70.2732 79.5793L22.6094 60.3714" stroke="#00005A" stroke-width="1.79529px" stroke-miterlimit="10" stroke-linecap="round" stroke-linejoin="round" fill="none"></path>
<path d="M86.7393 78.9243C83.0737 79.6076 80.7934 83.3333 81.9658 86.8727C84.7357 95.234 89.4517 103.092 96.115 109.735C110.215 123.788 129.716 129.111 147.91 125.722C151.574 125.037 153.856 121.312 152.683 117.772C150.513 111.222 147.15 104.984 142.592 99.3937L107.405 78.7862C104.115 78.2185 100.787 77.9344 97.4575 77.9344C93.8687 77.9344 90.2786 78.265 86.7393 78.9243" fill="url(&quot;#cbf0d52bc0f--paint0_linear_23021_214814&quot;)"></path>
<path d="M86.7393 78.9245C83.0737 79.6078 80.7934 83.3335 81.9658 86.8729C84.2579 93.7944 87.8894 100.368 92.8486 106.196C88.4613 100.713 87.5252 96.9156 85.4089 90.5288C84.2366 86.9906 86.5163 83.2628 90.1819 82.5801C97.0049 81.3087 104.42 80.8372 111.257 82.017L142.635 99.6036C142.465 99.3833 142.544 99.4403 142.619 99.4972C142.694 99.553 142.767 99.6099 142.592 99.3939L107.405 78.7864C104.116 78.2187 100.786 77.9346 97.4575 77.9346C93.8681 77.9346 90.2793 78.2646 86.7393 78.9245Z" fill="url(&quot;#cbf0d52bc0f--paint1_linear_23021_214814&quot;)"></path>
<path d="M91.8206 105.044C100.844 116.09 113.903 124.041 128.339 126.005C128.684 126.051 129.173 126.046 129.519 126.073C128.818 125.261 128.099 124.465 127.373 123.676C122.799 118.722 117.632 114.358 111.682 111.143C105.578 107.847 98.8858 105.669 92.0137 104.723C92.023 104.864 91.8113 104.903 91.8206 105.044" fill="url(&quot;#cbf0d52bc0f--paint2_linear_23021_214814&quot;)"></path>
<path d="M135.961 112.234C134.233 113.968 134.238 116.774 135.971 118.502C137.705 120.231 140.511 120.226 142.24 118.492C143.967 116.759 143.963 113.952 142.229 112.225C140.495 110.496 137.689 110.501 135.961 112.234Z" fill="#FF77AD"></path>
<path d="M136.043 112.27C134.315 114.004 134.32 116.811 136.053 118.539C136.313 118.799 136.6 119.013 136.9 119.195C135.34 117.457 135.389 114.784 137.056 113.111C138.526 111.637 140.771 111.418 142.478 112.444C142.423 112.383 142.37 112.32 142.31 112.26C141.446 111.398 140.314 110.967 139.182 110.967C138.045 110.967 136.909 111.402 136.043 112.27Z" fill="url(&quot;#cbf0d52bc0f--paint3_linear_23021_214814&quot;)"></path>
<path d="M92.254 86.8631C90.5258 88.5969 90.5307 91.4028 92.2639 93.131C93.9977 94.8592 96.8042 94.8549 98.5325 93.1211C100.26 91.3873 100.256 88.5808 98.5219 86.8525C96.7881 85.1249 93.9823 85.1293 92.254 86.8631Z" fill="#FF77AD"></path>
<path d="M92.2592 86.8624C90.5298 88.5968 90.5341 91.4036 92.2679 93.1318C92.5291 93.39 92.8145 93.6057 93.1159 93.7871C91.5548 92.049 91.6031 89.377 93.2719 87.7039C94.742 86.2294 96.9877 86.0102 98.6931 87.0371C98.6386 86.9752 98.586 86.9122 98.5259 86.8527C97.6612 85.9905 96.5291 85.5595 95.3975 85.5595C94.2611 85.5595 93.1246 85.994 92.2592 86.8624" fill="url(&quot;#cbf0d52bc0f--paint4_linear_23021_214814&quot;)"></path>
<path d="M106.824 95.3199C105.096 97.0537 105.101 99.8596 106.834 101.588C108.568 103.316 111.375 103.312 113.103 101.578C114.83 99.8441 114.826 97.0376 113.092 95.31C111.358 93.5817 108.553 93.5861 106.824 95.3199Z" fill="#FF77AD"></path>
<path d="M121.399 103.777C119.67 105.511 119.675 108.317 121.408 110.045C123.142 111.773 125.949 111.769 127.677 110.035C129.405 108.302 129.4 105.495 127.666 103.767C125.933 102.039 123.127 102.044 121.399 103.777Z" fill="#FF77AD"></path>
<path d="M121.422 103.695C119.694 105.427 119.698 108.234 121.432 109.961C121.692 110.221 121.979 110.436 122.279 110.617C120.72 108.879 120.767 106.207 122.437 104.533C123.905 103.06 126.151 102.84 127.857 103.867C127.802 103.805 127.749 103.742 127.691 103.684C126.825 102.822 125.693 102.391 124.561 102.391C123.425 102.391 122.288 102.826 121.422 103.695" fill="url(&quot;#cbf0d52bc0f--paint5_linear_23021_214814&quot;)"></path>
<path d="M106.824 95.3679C105.096 97.1017 105.101 99.9069 106.835 101.636C107.095 101.895 107.381 102.111 107.681 102.291C106.121 100.554 106.17 97.8822 107.839 96.2066C109.307 94.734 111.554 94.5148 113.26 95.5417C113.204 95.4804 113.151 95.4174 113.093 95.3567C112.228 94.4951 111.096 94.0643 109.964 94.0643C108.828 94.0643 107.691 94.4988 106.824 95.3679" fill="url(&quot;#cbf0d52bc0f--paint6_linear_23021_214814&quot;)"></path>
<path d="M135.933 48.0044C135.176 50.9075 132.21 52.6481 129.306 51.8911C126.403 51.1347 124.662 48.1672 125.419 45.2635C126.176 42.3598 129.143 40.6198 132.047 41.3768C134.95 42.1339 136.69 45.1007 135.933 48.0044Z" fill="#FF77AD"></path>
<path d="M134.567 47.4091C133.81 50.314 130.843 52.0532 127.939 51.2968C127.911 51.2894 127.884 51.2777 127.855 51.2696C128.299 51.5401 128.788 51.753 129.316 51.891C132.221 52.6481 135.187 50.9082 135.943 48.0051C136.694 45.1305 134.993 42.1958 132.141 41.4029C134.133 42.6192 135.185 45.0346 134.567 47.4091Z" fill="url(&quot;#cbf0d52bc0f--paint7_linear_23021_214814&quot;)"></path>
<path d="M142.592 99.3924C147.15 104.982 150.514 111.221 152.683 117.771C153.855 121.31 151.574 125.036 147.909 125.719C129.715 129.11 110.214 123.788 96.1159 109.734C89.4513 103.09 84.7359 95.2334 81.966 86.8714C80.793 83.332 83.074 79.6063 86.7396 78.9229C93.5626 77.6515 100.569 77.6051 107.405 78.7849" stroke="#00005A" stroke-width="1.79529px" stroke-miterlimit="10" stroke-linecap="round" stroke-linejoin="round" fill="none"></path>
<path d="M117.079 66.2333L107.352 78.7763L142.597 99.4038L147.944 82.3779C150.427 74.4733 147.09 65.9034 139.916 61.7573C137.142 60.1529 134.091 59.3808 131.073 59.3808C125.757 59.3808 120.538 61.774 117.079 66.2333" fill="url(&quot;#cbf0d52bc0f--paint8_linear_23021_214814&quot;)"></path>
<path d="M117.079 66.233L107.352 78.7761L142.598 99.4036L142.673 99.1645L108.949 79.4292L118.677 66.8846C123.413 60.7764 131.456 58.5455 138.521 61.0314C136.135 59.9197 133.591 59.3812 131.071 59.3812C125.756 59.3812 120.537 61.7738 117.079 66.233Z" fill="url(&quot;#cbf0d52bc0f--paint9_linear_23021_214814&quot;)"></path>
<path d="M91.6523 104.631C103.921 106.319 116.111 112.011 125.477 121.512C126.936 122.991 128.299 124.529 129.566 126.117" stroke="#00005A" stroke-width="1.79529px" stroke-miterlimit="10" stroke-linecap="round" stroke-linejoin="round" fill="none"></path>
<path d="M135.961 112.234C134.233 113.968 134.238 116.774 135.971 118.502C137.705 120.231 140.511 120.226 142.24 118.492C143.967 116.759 143.963 113.952 142.229 112.225C140.495 110.496 137.689 110.501 135.961 112.234Z" stroke="#00005A" stroke-width="1.79529px" stroke-miterlimit="10" stroke-linecap="round" stroke-linejoin="round" fill="none"></path>
<path d="M92.254 86.8631C90.5258 88.5969 90.5307 91.4028 92.2639 93.131C93.9977 94.8592 96.8042 94.8549 98.5325 93.1211C100.26 91.3873 100.256 88.5808 98.5219 86.8525C96.7881 85.1249 93.9823 85.1293 92.254 86.8631Z" stroke="#00005A" stroke-width="1.79529px" stroke-miterlimit="10" stroke-linecap="round" stroke-linejoin="round" fill="none"></path>
<path d="M106.82 95.3199C105.092 97.0537 105.097 99.8596 106.83 101.588C108.564 103.316 111.371 103.312 113.099 101.578C114.826 99.8441 114.822 97.0376 113.088 95.31C111.355 93.5817 108.549 93.5861 106.82 95.3199Z" stroke="#00005A" stroke-width="1.79529px" stroke-miterlimit="10" stroke-linecap="round" stroke-linejoin="round" fill="none"></path>
<path d="M121.395 103.778C119.666 105.512 119.671 108.318 121.405 110.046C123.138 111.774 125.945 111.769 127.673 110.036C129.401 108.302 129.396 105.496 127.663 103.768C125.929 102.04 123.123 102.044 121.395 103.778Z" stroke="#00005A" stroke-width="1.79529px" stroke-miterlimit="10" stroke-linecap="round" stroke-linejoin="round" fill="none"></path>
<path d="M107.348 78.7767L142.593 99.4028L147.94 82.3774C150.422 74.4723 147.087 65.9023 139.913 61.7556C132.252 57.328 122.498 59.2401 117.076 66.2322L107.348 78.7767Z" stroke="#00005A" stroke-width="1.79529px" stroke-miterlimit="10" stroke-linecap="round" stroke-linejoin="round" fill="none"></path>
<path d="M126.223 43.7761C124.611 46.2651 125.321 49.5903 127.81 51.2034C130.299 52.8159 133.625 52.1053 135.237 49.6163C136.85 47.1274 136.14 43.8021 133.651 42.1896C131.161 40.5765 127.836 41.2871 126.223 43.7761Z" stroke="#00005A" stroke-width="1.79529px" stroke-miterlimit="10" stroke-linecap="round" stroke-linejoin="round" fill="none"></path>
<path d="M136.172 59.9473C136.831 56.8585 135.962 53.4819 133.895 51.095" stroke="#00005A" stroke-width="1.79529px" stroke-miterlimit="10" stroke-linecap="round" stroke-linejoin="round" fill="none"></path>
<path d="M115.348 83.4937L102.242 78.1214L107.348 78.7769L115.348 83.4937Z" fill="#00005A"></path>
<path d="M129.732 44.0335C128.921 44.4111 128.109 44.3826 127.916 43.9698C127.724 43.5569 128.224 42.9162 129.035 42.5387C129.845 42.1611 130.658 42.1895 130.85 42.6024C131.043 43.0153 130.542 43.6559 129.732 44.0335Z" fill="#FFFFFF"></path>
<path d="M144.692 75.172C145.012 77.8122 144.232 80.0693 142.949 80.2138C141.667 80.3573 140.368 78.3343 140.048 75.695C139.728 73.0548 140.509 70.7978 141.791 70.6533C143.074 70.5097 144.372 72.5318 144.692 75.172Z" fill="#FFFFFF"></path>
<defs>
<linearGradient id="cbf0d52bc0f--paint0_linear_23021_214814" x1="79.4766" y1="92.5633" x2="155.121" y2="112.28" gradientUnits="userSpaceOnUse">
<stop stop-color="#A444B2"></stop>
<stop offset="0.390749" stop-color="#A444B2"></stop>
<stop offset="1" stop-color="#25008C"></stop>
</linearGradient>
<linearGradient id="cbf0d52bc0f--paint1_linear_23021_214814" x1="80.8081" y1="87.4551" x2="141.714" y2="103.33" gradientUnits="userSpaceOnUse">
<stop stop-color="#3FFFFF"></stop>
<stop offset="0.508977" stop-color="#3FC9FF"></stop>
<stop offset="0.786159" stop-color="#3FC9FF"></stop>
<stop offset="1" stop-color="#006AFF"></stop>
</linearGradient>
<linearGradient id="cbf0d52bc0f--paint2_linear_23021_214814" x1="90.4671" y1="110.211" x2="130.907" y2="120.752" gradientUnits="userSpaceOnUse">
<stop stop-color="#00FF00"></stop>
<stop offset="0.31175" stop-color="#00FF00"></stop>
<stop offset="1" stop-color="#68F3FF"></stop>
</linearGradient>
<linearGradient id="cbf0d52bc0f--paint3_linear_23021_214814" x1="137.148" y1="119.259" x2="139.338" y2="110.859" gradientUnits="userSpaceOnUse">
<stop stop-color="#FF77AD"></stop>
<stop offset="0.00846657" stop-color="#FF77AD"></stop>
<stop offset="0.797025" stop-color="#FFE700"></stop>
<stop offset="1" stop-color="#FFE700"></stop>
</linearGradient>
<linearGradient id="cbf0d52bc0f--paint4_linear_23021_214814" x1="93.3637" y1="93.8514" x2="95.5533" y2="85.4516" gradientUnits="userSpaceOnUse">
<stop stop-color="#FF77AD"></stop>
<stop offset="0.00846657" stop-color="#FF77AD"></stop>
<stop offset="0.797025" stop-color="#FFE700"></stop>
<stop offset="1" stop-color="#FFE700"></stop>
</linearGradient>
<linearGradient id="cbf0d52bc0f--paint5_linear_23021_214814" x1="122.527" y1="110.682" x2="124.717" y2="102.282" gradientUnits="userSpaceOnUse">
<stop stop-color="#FF77AD"></stop>
<stop offset="0.00846657" stop-color="#FF77AD"></stop>
<stop offset="0.797025" stop-color="#FFE700"></stop>
<stop offset="1" stop-color="#FFE700"></stop>
</linearGradient>
<linearGradient id="cbf0d52bc0f--paint6_linear_23021_214814" x1="107.93" y1="102.356" x2="110.12" y2="93.9563" gradientUnits="userSpaceOnUse">
<stop stop-color="#FF77AD"></stop>
<stop offset="0.00846657" stop-color="#FF77AD"></stop>
<stop offset="0.797025" stop-color="#FFE700"></stop>
<stop offset="1" stop-color="#FFE700"></stop>
</linearGradient>
<linearGradient id="cbf0d52bc0f--paint7_linear_23021_214814" x1="129.167" y1="46.2402" x2="135.943" y2="48.0066" gradientUnits="userSpaceOnUse">
<stop stop-color="#FF77AD"></stop>
<stop offset="0.00846657" stop-color="#FF77AD"></stop>
<stop offset="0.395907" stop-color="#FF77AD"></stop>
<stop offset="1" stop-color="#FFE700"></stop>
</linearGradient>
<linearGradient id="cbf0d52bc0f--paint8_linear_23021_214814" x1="109.149" y1="71.88" x2="148.059" y2="82.022" gradientUnits="userSpaceOnUse">
<stop stop-color="white"></stop>
<stop offset="0.33304" stop-color="white"></stop>
<stop offset="1" stop-color="#8171FF"></stop>
</linearGradient>
<linearGradient id="cbf0d52bc0f--paint9_linear_23021_214814" x1="123.584" y1="94.4474" x2="132.764" y2="59.2322" gradientUnits="userSpaceOnUse">
<stop stop-color="#FFF300"></stop>
<stop offset="1" stop-color="white"></stop>
</linearGradient>
<linearGradient id="cbf0d52bc0f--paint0_linear_23021_214814" x1="79.4766" y1="92.5633" x2="155.121" y2="112.28" gradientUnits="userSpaceOnUse">
<stop stop-color="#A444B2"></stop>
<stop offset="0.390749" stop-color="#A444B2"></stop>
<stop offset="1" stop-color="#25008C"></stop>
</linearGradient><linearGradient id="cbf0d52bc0f--paint1_linear_23021_214814" x1="80.8081" y1="87.4551" x2="141.714" y2="103.33" gradientUnits="userSpaceOnUse">
<stop stop-color="#3FFFFF"></stop>
<stop offset="0.508977" stop-color="#3FC9FF"></stop>
<stop offset="0.786159" stop-color="#3FC9FF"></stop>
<stop offset="1" stop-color="#006AFF"></stop>
</linearGradient><linearGradient id="cbf0d52bc0f--paint2_linear_23021_214814" x1="90.4671" y1="110.211" x2="130.907" y2="120.752" gradientUnits="userSpaceOnUse">
<stop stop-color="#00FF00"></stop>
<stop offset="0.31175" stop-color="#00FF00"></stop>
<stop offset="1" stop-color="#68F3FF"></stop>
</linearGradient><linearGradient id="cbf0d52bc0f--paint3_linear_23021_214814" x1="137.148" y1="119.259" x2="139.338" y2="110.859" gradientUnits="userSpaceOnUse">
<stop stop-color="#FF77AD"></stop>
<stop offset="0.00846657" stop-color="#FF77AD"></stop>
<stop offset="0.797025" stop-color="#FFE700"></stop>
<stop offset="1" stop-color="#FFE700"></stop>
</linearGradient><linearGradient id="cbf0d52bc0f--paint4_linear_23021_214814" x1="93.3637" y1="93.8514" x2="95.5533" y2="85.4516" gradientUnits="userSpaceOnUse">
<stop stop-color="#FF77AD"></stop>
<stop offset="0.00846657" stop-color="#FF77AD"></stop>
<stop offset="0.797025" stop-color="#FFE700"></stop>
<stop offset="1" stop-color="#FFE700"></stop>
</linearGradient><linearGradient id="cbf0d52bc0f--paint5_linear_23021_214814" x1="122.527" y1="110.682" x2="124.717" y2="102.282" gradientUnits="userSpaceOnUse">
<stop stop-color="#FF77AD"></stop>
<stop offset="0.00846657" stop-color="#FF77AD"></stop>
<stop offset="0.797025" stop-color="#FFE700"></stop>
<stop offset="1" stop-color="#FFE700"></stop>
</linearGradient><linearGradient id="cbf0d52bc0f--paint6_linear_23021_214814" x1="107.93" y1="102.356" x2="110.12" y2="93.9563" gradientUnits="userSpaceOnUse">
<stop stop-color="#FF77AD"></stop>
<stop offset="0.00846657" stop-color="#FF77AD"></stop>
<stop offset="0.797025" stop-color="#FFE700"></stop>
<stop offset="1" stop-color="#FFE700"></stop>
</linearGradient><linearGradient id="cbf0d52bc0f--paint7_linear_23021_214814" x1="129.167" y1="46.2402" x2="135.943" y2="48.0066" gradientUnits="userSpaceOnUse">
<stop stop-color="#FF77AD"></stop>
<stop offset="0.00846657" stop-color="#FF77AD"></stop>
<stop offset="0.395907" stop-color="#FF77AD"></stop>
<stop offset="1" stop-color="#FFE700"></stop>
</linearGradient><linearGradient id="cbf0d52bc0f--paint8_linear_23021_214814" x1="109.149" y1="71.88" x2="148.059" y2="82.022" gradientUnits="userSpaceOnUse">
<stop stop-color="white"></stop>
<stop offset="0.33304" stop-color="white"></stop>
<stop offset="1" stop-color="#8171FF"></stop>
</linearGradient><linearGradient id="cbf0d52bc0f--paint9_linear_23021_214814" x1="123.584" y1="94.4474" x2="132.764" y2="59.2322" gradientUnits="userSpaceOnUse">
<stop stop-color="#FFF300"></stop>
<stop offset="1" stop-color="white"></stop>
</linearGradient></defs>
</svg>