<svg xmlns:xlink="http://www.w3.org/1999/xlink" xmlns="http://www.w3.org/2000/svg" fill="none" viewBox="0 0 143 28" role="img" width="143"  height="28" ><g fill="#FFFFFF" fill-rule="evenodd" clip-path="url(#4beb33445a3--a)" clip-rule="evenodd"><path d="M72.554 23.118H18.467l4.309 4.508 49.778-4.508ZM20.213 17.109c-1.86 0-3.222-1.832-3.222-4.145 0-2.312 1.362-4.144 3.222-4.144 1.863 0 3.175 1.832 3.175 4.144 0 2.313-1.312 4.145-3.175 4.145Zm3.125-11.451v.648c-1-.636-1.897-1.007-3.125-1.007-3.772 0-6.638 3.44-6.638 7.665s2.866 7.664 6.638 7.664c1.228 0 2.125-.369 3.125-1.007v.648h3.315V5.658h-3.315ZM49.9 5.658v8.583c0 1.61-1.106 2.97-2.717 2.97-1.61 0-2.716-1.36-2.716-2.97V5.658H41.15v8.583c0 3.522 2.41 6.387 5.932 6.387 1.63 0 2.818-.902 2.818-.902v.543h3.316V5.658H49.9ZM80.799 20.269v-8.583c0-1.61 1.106-2.97 2.717-2.97 1.61 0 2.716 1.36 2.716 2.97v8.583h3.317v-8.583c0-3.522-2.41-6.387-5.932-6.387-1.63 0-2.818.902-2.818.902v-.543h-3.316v14.61h3.316Z" fill="#FFFFFF"></path><path d="M4.017 5.483H6.28A2.834 2.834 0 0 1 9.112 8.31a2.834 2.834 0 0 1-2.832 2.83H4.017V5.483Zm0 14.786v-5.66H6.47l4.247 5.66h4.341l-5.131-6.83a6.306 6.306 0 0 0 2.649-5.13A6.299 6.299 0 0 0 6.28 2.018H.55V20.27h3.467ZM62.154 16.812c-.298.201-.674.36-1.109.36-.541 0-1.563-.415-1.563-1.794V9.126h2.835V5.658h-2.835v-3.64h-3.316v3.64h-1.754v3.468h1.754v6.304c-.001 3.262 2.457 5.21 4.93 5.21.921 0 2.2-.3 3.243-.919l-2.185-2.91ZM36.85 20.27h4.646l-6.6-7.763 5.69-6.85h-4.65l-3.977 5.09V.812h-3.415v19.458h3.415v-6.002l4.89 6.002Z" fill="#FFFFFF"></path><path d="M72.708 11.078h-5.972c.698-3.423 5.326-3.619 5.972 0Zm-2.895-5.79c-3.838 0-6.591 3.372-6.591 7.676 0 4.524 3.456 7.677 6.92 7.677 1.75 0 3.99-.6 5.874-3.271l-2.93-1.691c-2.265 3.339-6.04 1.644-6.476-1.695l9.552.003c.818-5.249-2.576-8.7-6.349-8.7ZM106.43 2.93h5.007l-6.374 17.34h-3.956L94.659 2.93h5.031l3.395 11.356L106.43 2.93ZM117.797 20.269V2.929h-4.762v17.34h4.762ZM126.578 13.895l-1.318 1.368v5.006h-4.763V2.929h4.763v6.595l5.274-6.595h5.373l-6.301 7.766 6.74 9.574h-5.47l-4.298-6.374ZM142.11 20.269V2.929h-4.762v17.34h4.762Z" fill="#FFFFFF"></path></g><defs><clipPath id="4beb33445a3--a"><path fill="#fff" d="M.55.81h141.56v26.817H.55z"></path></clipPath></defs></svg>