<svg xmlns:xlink="http://www.w3.org/1999/xlink" xmlns="http://www.w3.org/2000/svg" fill="none" viewBox="0 0 18 19" role="img" width="18"  height="19" ><path fill="#FFFFFF" d="M6.869 6.964h5.342v5.342H6.869z"></path><path fill="#FF0000" d="m9.64 14.567-2.97-.054c-.96-.02-1.924.019-2.866-.177-1.434-.293-1.535-1.73-1.642-2.934a20.575 20.575 0 0 1 .187-5.096c.156-.942.77-1.504 1.72-1.565 3.204-.222 6.43-.196 9.627-.092.338.01.678.061 1.011.12 1.644.288 1.684 1.915 1.79 3.285a18.625 18.625 0 0 1-.141 4.15c-.163 1.137-.475 2.092-1.79 2.184-1.65.12-3.26.217-4.913.186 0-.007-.01-.007-.014-.007Zm-1.746-2.881c1.242-.713 2.46-1.415 3.696-2.123-1.245-.713-2.46-1.415-3.696-2.123v4.246Z"></path></svg>