<svg xmlns:xlink="http://www.w3.org/1999/xlink" xmlns="http://www.w3.org/2000/svg" fill="none" viewBox="0 0 104 24" role="img" width="104"  height="24" ><path fill="#FFFFFF" fill-rule="evenodd" d="M32.681 4.289a4.106 4.106 0 0 0-2.885-2.913C27.252.688 17.046.688 17.046.688s-10.206 0-12.75.688A4.106 4.106 0 0 0 1.41 4.29c-.682 2.568-.682 7.93-.682 7.93s0 5.36.682 7.929a4.106 4.106 0 0 0 2.885 2.912c2.545.69 12.75.69 12.75.69s10.207 0 12.75-.69a4.106 4.106 0 0 0 2.886-2.912c.683-2.568.683-7.93.683-7.93s-.003-5.361-.683-7.93ZM13.78 17.159l8.478-4.94-8.478-4.942v9.882ZM36.59 2.322l3.665 13.36h-.003v6.407h3.175v-6.408l3.71-13.359H43.94L42.61 8.4c-.373 1.776-.614 3.04-.722 3.794h-.094a57.244 57.244 0 0 0-.723-3.816l-1.284-6.056H36.59ZM48.1 21.666c-.645-.44-1.105-1.123-1.379-2.05-.271-.927-.408-2.159-.408-3.7v-2.095c0-1.554.156-2.804.467-3.745.312-.941.798-1.63 1.46-2.061.66-.432 1.528-.649 2.602-.649 1.059 0 1.905.22 2.544.66.637.439 1.105 1.128 1.4 2.06.296.936.443 2.18.443 3.735v2.096c0 1.54-.145 2.777-.432 3.71-.288.935-.755 1.619-1.4 2.05-.645.431-1.52.648-2.624.648-1.14.003-2.029-.22-2.674-.659Zm3.615-2.262c.178-.471.27-1.239.27-2.307v-4.5c0-1.035-.09-1.795-.27-2.272-.18-.48-.494-.719-.945-.719-.435 0-.744.24-.922.72-.18.48-.268 1.236-.268 2.272v4.499c0 1.068.086 1.838.258 2.307.172.472.48.708.932.708.451 0 .765-.236.945-.707Zm11.394 2.689h2.52V7.646H62.41V19.12a1.62 1.62 0 0 1-.572.66c-.258.173-.526.26-.806.26-.327 0-.561-.139-.7-.413-.14-.274-.21-.732-.21-1.377V7.649H56.9v10.79c0 1.335.225 2.317.676 2.946.452.626 1.153.94 2.101.94 1.37 0 2.397-.666 3.082-2h.07l.279 1.768ZM74.378 4.939H71.18v17.153H68.03V4.939h-3.198V2.325h9.546V4.94Zm5.25 17.154h2.52V7.646H78.93V19.12a1.619 1.619 0 0 1-.573.66c-.257.173-.526.26-.805.26-.328 0-.562-.139-.702-.413-.14-.274-.21-.732-.21-1.377V7.649h-3.22v10.79c0 1.335.225 2.317.677 2.946.451.626 1.152.94 2.1.94 1.37 0 2.397-.666 3.082-2h.07l.28 1.768Zm13.18-12.137c-.197-.91-.51-1.57-.946-1.98-.435-.409-1.034-.612-1.797-.612-.591 0-1.145.168-1.658.507-.513.339-.91.78-1.19 1.331h-.024v-7.61H84.09V22.09h2.66l.327-1.367h.07c.25.488.623.87 1.12 1.156.497.282 1.05.423 1.658.423 1.088 0 1.891-.507 2.404-1.519.514-1.014.771-2.595.771-4.748v-2.286c0-1.614-.099-2.88-.292-3.792Zm-2.953 5.893c0 1.052-.043 1.877-.129 2.473-.086.597-.228 1.023-.432 1.272-.202.252-.476.377-.817.377-.266 0-.51-.062-.736-.19a1.415 1.415 0 0 1-.548-.564V11.02c.107-.393.295-.713.561-.965.264-.252.554-.377.863-.377.328 0 .58.13.757.388.18.26.304.694.374 1.307s.105 1.483.105 2.614v1.863h.002Zm7.896 2.918c-.054-.463-.08-1.158-.08-2.085v-.732h5.394v-2.474c0-1.524-.121-2.717-.363-3.582-.241-.865-.658-1.5-1.249-1.91-.591-.409-1.44-.612-2.544-.612-1.604 0-2.735.499-3.396 1.497-.66.998-.991 2.582-.991 4.748v2.522c0 2.105.317 3.659.956 4.665.637 1.006 1.75 1.508 3.337 1.508 1.322 0 2.345-.331 3.068-.99.723-.66 1.085-1.657 1.085-2.991 0-.22-.008-.394-.024-.518l-2.778-.166c-.016.879-.113 1.508-.293 1.885-.177.377-.51.567-.99.567-.358 0-.621-.106-.793-.317-.172-.215-.285-.551-.339-1.015Zm0-7.891c.057-.464.164-.798.328-1 .161-.204.414-.307.758-.31.34 0 .593.1.757.295.164.198.277.535.339 1.015.061.48.094 1.182.094 2.11v1.036h-2.356v-1.036c0-.944.026-1.647.08-2.11Z" clip-rule="evenodd"></path></svg>