<svg xmlns:xlink="http://www.w3.org/1999/xlink" xmlns="http://www.w3.org/2000/svg" fill="none" viewBox="0 0 24 24" aria-labelledby="title--4ca3f594775" role="img" width="40"  height="40" ><title id="4ca3f594775--title--4ca3f594775">Cantonese</title>
  <g clip-path="url(#4ca3f594775--Cantonese_svg__a)" fill="none">
    <rect width="24" height="24" fill="#ED1B2F" rx="12"></rect>
    <path fill="#FFFFFF" d="M13.19 5.08c-.441-.23-.943-.351-1.489-.226-.663.152-1.472.84-1.692 1.64-.104.376-.191.71-.186 1.018l.002.133c.002.211.006.499.027.783.017.248.14.784.337 1.257l.012-.005c.108.36.464.917.812 1.375.4.525.712.761.775.76a.4.4 0 0 1-.118-.1c-.229-.286-.457-.808-.504-1.162-.09-.69.027-1.189.218-1.788.047-.15.146-.194.211-.155l.007.008.006.006c.04.037.065.105.03.23-.092.32-.316 1.127-.197 1.7.11.527.267.842.452 1.064a1.9 1.9 0 0 1-.163-.727l-.001-.05c-.004-.147-.008-.292.066-.424.137-.246.338-.379.57-.504.104-.056.204-.125.299-.191l.15-.102c.63-.4.841-1.194.824-1.515l-.015-.24c.013-.086-.027-.326-.131-.566a2.7 2.7 0 0 0-.302-.492c-.033-.046-.057-.097-.077-.14q-.015-.033-.03-.059c-.107-.186-.107-.398-.106-.532 0-.144.018-.172.055-.233l.012-.019.01-.017a.44.44 0 0 1 .186-.189c.09-.047.29-.033.409.028.055.027.086.038.11.048.021.007.038.013.062.026.047.026.169.09.162.065-.029-.097-.383-.492-.792-.704M10.455 12.303c-.69-.095-1.14-.339-1.67-.682-.13-.085-.147-.19-.094-.243l.004-.002c.043-.039.122-.049.243.024.286.173 1.005.601 1.588.638.476.03.796-.023 1.047-.118-.17.018-.413.012-.651-.05l-.05-.012c-.142-.037-.282-.072-.39-.178-.2-.198-.273-.428-.332-.685-.026-.116-.066-.23-.104-.34l-.057-.172c-.216-.714-.923-1.132-1.237-1.202l-.234-.049c-.08-.036-.322-.061-.581-.027a2.7 2.7 0 0 0-.556.158c-.053.02-.107.03-.154.038l-.065.012c-.21.054-.413-.004-.541-.04-.14-.041-.162-.065-.21-.119l-.015-.015-.015-.015a.43.43 0 0 1-.131-.229c-.022-.098.046-.288.137-.386a1 1 0 0 0 .078-.096q.015-.023.04-.05c.037-.039.132-.138.105-.138-.1 0-.576.235-.89.571-.34.365-.594.814-.62 1.374-.032.68.413 1.644 1.123 2.072.333.2.631.376.93.454q.065.016.145.038c.203.054.473.126.745.182.244.049.793.076 1.3.014v-.013c.376-.007 1.008-.2 1.542-.41.674-.268 1.004-.54.954-.564l-.009.007q-.011.01-.032.012l-.023.018c-.018.016-.037.031-.069.045-.334.143-.899.227-1.251.178M12.296 13.16c-.044-.632-.167-.994-.224-1.053l.008.02q.005.012.008.03c.045.363-.034.927-.18 1.253-.285.634-.647.998-1.124 1.41-.079.067-.157.087-.21.072a.09.09 0 0 1-.07-.068c-.01-.053.018-.13.11-.213.246-.227.86-.795 1.06-1.346.153-.426.196-.738.182-.999a1.9 1.9 0 0 1-.25.639l-.027.042c-.077.124-.154.247-.288.318-.25.13-.49.131-.753.108-.113-.01-.23-.006-.341-.004q-.102.004-.195.002c-.747-.01-1.359.538-1.52.816l-.118.209c-.059.065-.156.287-.2.545-.035.194-.027.41-.019.577a1 1 0 0 1-.01.156l-.009.069c-.013.215-.128.392-.203.504-.08.12-.11.133-.175.164l-.02.01-.019.009c-.059.03-.133.067-.257.056-.1-.01-.261-.132-.327-.247a1 1 0 0 0-.067-.102c-.013-.018-.024-.032-.036-.055l-.002-.004c-.027-.049-.09-.164-.098-.138-.03.095.05.62.275 1.02.244.436.596.813 1.122 1.007.637.236 1.691.105 2.314-.443.294-.258.55-.49.715-.75l.072-.113c.114-.178.268-.419.407-.668.12-.216.311-.733.407-1.235l-.012-.004c.106-.36.115-1.02.074-1.594"></path>
    <path fill="#FFFFFF" d="M16.752 15.23c-.132-.367-.253-.69-.436-.938l-.074-.103a13 13 0 0 0-.478-.63c-.157-.192-.567-.558-1-.832l-.007.01c-.296-.23-.908-.48-1.457-.653-.573-.18-.96-.209-1.063-.184a.4.4 0 0 1 .16.015c.35.103.837.402 1.078.665.469.514.657.99.845 1.592.048.152-.01.245-.088.247l-.002.002-.002.002q-.003 0-.005-.004v-.001l-.002-.001c-.055-.005-.116-.047-.16-.173-.108-.316-.386-1.104-.811-1.507-.392-.37-.7-.538-.98-.616a.3.3 0 0 1-.101-.053l-.006-.005-.005.003q-.003 0-.006.004l.105.062c.145.079.379.263.553.5l.034.047c.086.117.17.23.186.378.03.28-.057.504-.174.742a3 3 0 0 0-.133.326q-.033.09-.065.172c-.283.69.001 1.46.201 1.712l.15.187c.04.08.212.251.435.387.168.103.372.175.532.23.053.017.101.044.142.067q.032.019.06.032c.195.09.317.263.393.374.082.118.085.151.09.223v.021l.003.02c.005.067.013.15-.043.261-.045.09-.218.195-.35.215-.062.009-.094.017-.12.025-.02.005-.037.01-.063.013h-.003c-.055.007-.187.024-.165.041.077.063.594.181 1.05.119.495-.068.974-.258 1.348-.675.452-.51.715-1.539.434-2.318"></path>
    <path fill="#FFFFFF" d="M16.489 8.319c.828-.055 1.743.481 2.107 1.057.298.473.348.987.278 1.48-.066.456-.322.92-.404.978-.022.016-.002-.121.007-.174.005-.026.005-.044.005-.066 0-.027 0-.06.008-.12.02-.132-.034-.328-.108-.396a.43.43 0 0 0-.26-.116l-.02-.005c-.07-.015-.103-.022-.24.024-.126.043-.326.113-.466.276l-.046.047c-.034.033-.074.071-.107.12a2.7 2.7 0 0 1-.365.446c-.193.177-.405.295-.49.31l-.222.095c-.297.122-1.116.184-1.703-.278q-.07-.055-.149-.111a3 3 0 0 1-.275-.216c-.195-.178-.386-.325-.664-.372-.15-.026-.286.026-.424.078l-.046.017a1.9 1.9 0 0 0-.632.394l-.09.084-.002-.007v-.004a.3.3 0 0 0 .085-.088c.15-.248.396-.5.859-.777.502-.3 1.337-.354 1.67-.373.113-.006.168-.042.198-.084a.1.1 0 0 0 .018-.034c.018-.074-.055-.154-.214-.15-.63.018-1.14.071-1.761.383-.32.16-.738.546-.933.857a.4.4 0 0 0-.052.133l-.001.005c.003-.104.131-.457.464-.961.317-.48.727-1 1.031-1.22l-.008-.01c.382-.34.846-.634 1.074-.733.266-.115.54-.214.74-.286l.117-.043c.288-.106.633-.134 1.02-.16"></path>
    <path fill="#ED1B2F" d="m11.847 7.582-.268.404-.459-.108-.012-.003.3.38-.244.403-.007.011.455-.169.317.368-.021-.485.434-.183.013-.006-.468-.13zm-3.352 2.972-.001-.014-.25.415-.478-.091.317.367-.227.413-.006.012.447-.188.322.343.01.01-.042-.483.427-.2.013-.006-.472-.11zm7.575-.141-.471-.12-.051-.482-.259.41-.462-.097-.012-.003.31.373-.237.409-.006.011.45-.18.316.35.01.01-.031-.483.43-.192zM10.33 14.5l-.002-.012-.248.415-.463-.085-.013-.003.318.365-.224.415-.006.012.446-.191.324.342.01.01-.045-.482.426-.205.012-.005-.473-.107zm4.229-.37-.001-.014-.273.402-.458-.114-.013-.003.297.383-.25.4-.007.012.456-.164.303.36.008.011-.013-.484.437-.178.013-.004-.466-.136z"></path>
    <path fill="url(&quot;#4ca3f594775--Cantonese_svg__b&quot;)" d="M0 12.014c0-6.627 5.373-12 12-12s12 5.373 12 12c0 6.628-5.373 12-12 12s-12-5.372-12-12"></path>
  </g>
  <defs>
    <radialGradient id="4ca3f594775--Cantonese_svg__b" cx="0" cy="0" r="1" gradientTransform="matrix(14.03943 2.03189 -2.01804 13.94372 9.734 9.317)" gradientUnits="userSpaceOnUse">
      <stop offset=".457" stop-color="#fff" stop-opacity="0"></stop>
      <stop offset=".905" stop-color="#fff" stop-opacity=".54"></stop>
    </radialGradient>
    <clipPath id="4ca3f594775--Cantonese_svg__a">
      <rect width="24" height="24" fill="#fff" rx="12"></rect>
    </clipPath>
  <radialGradient id="4ca3f594775--Cantonese_svg__b" cx="0" cy="0" r="1" gradientTransform="matrix(14.03943 2.03189 -2.01804 13.94372 9.734 9.317)" gradientUnits="userSpaceOnUse">
      <stop offset=".457" stop-color="#fff" stop-opacity="0"></stop>
      <stop offset=".905" stop-color="#fff" stop-opacity=".54"></stop>
    </radialGradient></defs>
</svg>