<svg xmlns:xlink="http://www.w3.org/1999/xlink" xmlns="http://www.w3.org/2000/svg" fill="none" viewBox="0 0 24 24" aria-labelledby="title--5947750afe2" role="img" width="40"  height="40" ><title id="5947750afe2--title--5947750afe2">Korean</title>
  <g clip-path="url(#5947750afe2--Korean_svg__a)" fill="none">
    <rect width="24" height="24" fill="#FFFFFF" rx="12"></rect>
    <path fill="#ED1B2F" d="M14.406 8.563a4.196 4.196 0 0 0-5.843 1.03A2.099 2.099 0 0 0 12 12a2.098 2.098 0 0 1 3.437 2.407 4.196 4.196 0 0 0-1.03-5.844"></path>
    <path fill="#2E4AD2" d="M14.922 11.485A2.1 2.1 0 0 0 12 12a2.099 2.099 0 0 1-3.437-2.407 4.195 4.195 0 1 0 6.873 4.813 2.096 2.096 0 0 0-.514-2.92"></path>
    <path fill="#292F33" d="m16.185 17.004 1.274-1.518.506.425-1.274 1.518zm1.698-2.024 1.274-1.518.506.425-1.274 1.518zm-.686 2.875 1.274-1.518.506.425-1.274 1.518zm1.7-2.026 1.275-1.518.506.426-1.275 1.517zm-.688 2.876 1.275-1.518.506.425-1.275 1.518zm1.699-2.025 1.273-1.52.507.425-1.273 1.52zm.003-9.36.506-.424 1.275 1.52-.507.424zm-1.7-2.025.506-.425 1.274 1.52-.507.423zm-1.013.851.506-.425 2.974 3.543-.506.425zm-1.013.848.507-.424 1.274 1.518-.507.424zm1.699 2.026.506-.425 1.275 1.518-.505.425zm-13.55 4.866.505-.425 2.974 3.545-.507.424zm-1.012.85.506-.424 1.274 1.519-.506.425zm1.697 2.026.506-.425L6.8 17.855l-.506.425zm-2.71-1.177.506-.425 2.973 3.544-.506.425zm-.001-7.171L5.28 4.871l.507.424-2.974 3.544zm1.012.85L6.294 5.72l.506.425L3.826 9.69zm1.013.85L7.307 6.57l.506.424L4.84 10.54z"></path>
    <path fill="url(&quot;#5947750afe2--Korean_svg__b&quot;)" d="M0 12.014c0-6.627 5.373-12 12-12s12 5.373 12 12c0 6.628-5.373 12-12 12s-12-5.372-12-12"></path>
  </g>
  <rect width="23.87" height="23.87" x=".065" y=".065" stroke="#000000" stroke-opacity="0.1" stroke-width="0.13px" rx="11.935" fill="none"></rect>
  <defs>
    <radialGradient id="5947750afe2--Korean_svg__b" cx="0" cy="0" r="1" gradientTransform="matrix(14.03943 2.03189 -2.01804 13.94372 9.734 9.317)" gradientUnits="userSpaceOnUse">
      <stop offset=".457" stop-color="#fff" stop-opacity="0"></stop>
      <stop offset=".905" stop-color="#fff" stop-opacity=".54"></stop>
    </radialGradient>
    <clipPath id="5947750afe2--Korean_svg__a">
      <rect width="24" height="24" fill="#fff" rx="12"></rect>
    </clipPath>
  <radialGradient id="5947750afe2--Korean_svg__b" cx="0" cy="0" r="1" gradientTransform="matrix(14.03943 2.03189 -2.01804 13.94372 9.734 9.317)" gradientUnits="userSpaceOnUse">
      <stop offset=".457" stop-color="#fff" stop-opacity="0"></stop>
      <stop offset=".905" stop-color="#fff" stop-opacity=".54"></stop>
    </radialGradient></defs>
</svg>